<svg width="798" height="195" viewBox="0 0 798 195" fill="none" xmlns="http://www.w3.org/2000/svg">
<g clip-path="url(#clip0)">
<path d="M560.64 192.1H541.84C541.74 189.4 541.54 186.7 541.44 183.2C532.44 192.3 521.94 195.2 510.24 193.5C500.74 192.1 493.04 187.4 486.94 179.9C474.84 164.8 475.74 139 488.94 125C502.54 110.6 522.24 110 541.24 123.7C541.44 120.9 541.64 118.2 541.84 115.4H560.54C560.64 140.9 560.64 166.3 560.64 192.1ZM541.14 153.8C541.166 150.894 540.617 148.012 539.523 145.32C538.429 142.627 536.813 140.178 534.767 138.114C532.722 136.05 530.288 134.412 527.605 133.294C524.923 132.175 522.046 131.6 519.14 131.6C507.44 131.6 497.84 141.4 497.74 153.5C497.64 165.8 507.24 175.8 519.04 175.9C521.946 175.913 524.826 175.351 527.513 174.245C530.2 173.139 532.642 171.511 534.697 169.457C536.751 167.402 538.379 164.96 539.485 162.273C540.591 159.586 541.153 156.706 541.14 153.8ZM241.14 115.3C240.94 115.9 240.74 116.1 240.74 116.4C240.84 133 240.24 149.7 241.24 166.3C242.34 184.4 255.34 195.1 273.14 193.9C281.54 193.3 288.64 189.7 294.54 182.3C294.84 186.1 295.04 189 295.14 191.8H313.84V115.3H294.84V121.4C294.74 134.1 295.04 146.8 294.34 159.5C293.84 168.5 286.44 174.5 277.14 175C268.24 175.4 262.04 170.7 260.24 162.1C259.905 160.018 259.771 157.908 259.84 155.8V115.5C253.14 115.3 247.14 115.3 241.14 115.3V115.3ZM797.94 151.3C797.973 149.631 797.906 147.961 797.74 146.3C796.14 124.9 782.54 113.2 762.84 115.9C755.14 117 748.84 120.7 743.34 128V117.3H724.44V193.9H743.54V154.3C743.54 148.3 744.94 142.8 749.84 138.9C755.74 134.3 762.44 133 769.34 135.9C776.54 139 778.54 145.6 778.64 152.7C778.84 164.8 778.74 176.9 778.74 189V193.8H797.84C797.94 179.4 797.94 165.3 797.94 151.3V151.3ZM404.94 141.6C403.14 123 389.14 113.4 371.24 115.9C363.34 117 356.94 120.7 351.34 128V117.3H332.64V193.8H351.44C351.44 181 351.34 168.6 351.44 156.3C351.421 153.271 351.757 150.251 352.44 147.3C354.64 138.9 363.14 133.7 372.44 134.6C380.54 135.4 386.14 141.6 386.44 150.8C386.74 160.8 386.64 170.8 386.64 180.7V193.9H405.24C405.34 176.3 406.64 158.8 404.94 141.6V141.6ZM231.14 116.8H214.64C214.84 110.4 213.54 104.4 217.64 99.2C222.44 93.2 229.44 94.4 236.04 94V76.1C225.84 75.7 216.04 75.3 207.54 81.5C195.64 90.3 195.34 103.5 195.14 117.1H180.94V132.9H195.44V193.9H214.74V132.7H231.24C231.14 127.1 231.14 122.2 231.14 116.8V116.8ZM617.34 183.8C629.14 196.8 654.44 197.5 667.04 185.3C676.54 176.1 675.54 160.4 664.64 152.9C661.226 150.701 657.524 148.985 653.64 147.8C648.24 145.9 642.54 145 637.24 142.8C635.24 142 632.84 138.8 632.94 136.8C633.14 134.5 635.34 131.6 637.54 130.4C643.14 127.2 649.54 129.8 652.24 135.6C652.64 136.5 653.64 137.7 654.44 137.7C659.84 137.9 665.14 137.8 670.44 137.8C670.94 129.6 667.74 123.3 661.14 118.9C650.64 111.8 633.44 112 623.04 119.2C609.44 128.6 609.94 147.4 624.24 155.6C627.94 157.7 632.24 159 636.34 160.3C640.74 161.8 645.44 162.5 649.74 164.2C654.54 166.1 655.44 170.8 652.24 174.5C646.44 181.2 633.04 179 629.64 170.8C629.24 169.7 628.14 168.2 627.24 168.2C622.04 168 616.74 168.1 611.34 168.1C611.253 170.984 611.738 173.856 612.768 176.551C613.798 179.246 615.352 181.71 617.34 183.8V183.8ZM456.94 116.9C449.94 119 446.24 124.6 442.24 130.4V117.3H423.44V194H442.54C442.54 184.6 442.04 175.5 442.74 166.5C443.34 159.1 444.44 151.4 446.94 144.5C450.24 135.5 457.94 132.3 467.14 134.5C469.04 135 470.84 135.7 473.04 136.4C474.34 130.3 475.54 124.5 476.84 118.4C470.642 115.377 463.521 114.84 456.94 116.9V116.9ZM597.94 194H579.34V117.3H597.94V194ZM600.94 90.5C601.14 83.6 595.84 78.4 588.64 78.4C581.64 78.4 576.14 83.3 576.04 89.8C575.84 96.5 581.24 101.8 588.44 101.9C595.64 102 600.84 97.1 600.94 90.5V90.5ZM686.94 194V117.4H705.64V194H686.94ZM708.84 90.3C708.84 83.6 703.44 78.5 696.44 78.5C689.24 78.5 683.74 83.8 683.84 90.5C683.94 97 689.44 102 696.44 102C703.44 102 708.84 96.9 708.84 90.3V90.3Z" fill="white"/>
<g opacity="0.9">
<path opacity="0.5" d="M490.34 30.1C490.34 39.5 483.44 45.3 475.84 45.3C472.44 45.3 468.44 44.1 466.34 41.1V59H457.94V15.6H466.24V19.1C468.34 16.2 472.44 14.9 475.74 14.9C483.34 14.8 490.34 20.7 490.34 30.1ZM481.84 30.1C481.87 28.5788 481.445 27.0833 480.621 25.8046C479.796 24.5259 478.609 23.5221 477.211 22.9214C475.813 22.3208 474.268 22.1507 472.773 22.4328C471.278 22.7149 469.901 23.4364 468.818 24.5051C467.735 25.5738 466.995 26.9411 466.694 28.4324C466.392 29.9236 466.541 31.471 467.123 32.8767C467.705 34.2824 468.693 35.4827 469.961 36.3241C471.229 37.1654 472.719 37.6097 474.24 37.6C475.233 37.6119 476.218 37.4268 477.139 37.0553C478.06 36.6839 478.898 36.1335 479.605 35.436C480.312 34.7385 480.873 33.9077 481.257 32.9918C481.641 32.0759 481.839 31.093 481.84 30.1V30.1ZM495.04 30.1C495.04 20.9 502.54 14.9 510.94 14.9C519.34 14.9 526.84 20.9 526.84 30.1C526.84 39.3 519.34 45.3 510.94 45.3C502.54 45.3 495 39.2 495 30.1H495.04ZM518.44 30.1C518.44 28.1109 517.65 26.2032 516.243 24.7967C514.837 23.3902 512.929 22.6 510.94 22.6C508.951 22.6 507.043 23.3902 505.637 24.7967C504.23 26.2032 503.44 28.1109 503.44 30.1C503.44 32.0891 504.23 33.9968 505.637 35.4033C507.043 36.8098 508.951 37.6 510.94 37.6C512.929 37.6 514.837 36.8098 516.243 35.4033C517.65 33.9968 518.44 32.0891 518.44 30.1V30.1ZM576.64 15.6L566.14 44.7H559L552.9 25.8L547 44.7H539.9L529.1 15.6H538.1L543.7 33.4L549.3 15.6H556.3L561.9 33.4L567.5 15.6H576.64ZM610 32.8H587.7C588.6 36.2 591.4 38 595.4 38C596.836 38.0322 598.262 37.7642 599.588 37.2132C600.914 36.6621 602.11 35.8402 603.1 34.8L608 39.6C605.2 43.3 600 45.3 594.8 45.3C585.7 45.3 579.1 39.2 579.1 30.2C579.1 20.8 586.3 14.9 594.8 14.9C603.3 14.9 610.2 20.8 610.2 29.7C610.14 30.4 610.14 31.4 610 32.8ZM601.8 27.4C601.5 24 598.6 21.9 594.9 21.9C591.5 21.9 588.6 23.5 587.7 27.4H601.8ZM638.2 15.8L636.3 23.6C634.976 22.8924 633.501 22.515 632 22.5C627.7 22.5 624.8 26.4 624.8 34.7V44.7H616.5V15.6H624.7V21.8C626.3 16.9 629.7 14.9 633.4 14.9C635.065 14.7642 636.735 15.0749 638.24 15.8H638.2ZM671.1 32.8H648.8C649.7 36.2 652.5 38 656.5 38C657.936 38.0322 659.362 37.7642 660.688 37.2132C662.014 36.6621 663.21 35.8402 664.2 34.8L669.1 39.6C666.3 43.3 661.1 45.3 655.9 45.3C646.8 45.3 640.2 39.2 640.2 30.2C640.2 20.8 647.4 14.9 655.9 14.9C664.4 14.9 671.3 20.8 671.3 29.7C671.34 30.4 671.24 31.4 671.14 32.8H671.1ZM662.9 27.4C662.6 24 659.7 21.9 656 21.9C652.6 21.9 649.7 23.5 648.8 27.4H662.9ZM708.34 0V44.7H700V41.1C697.9 44 693.8 45.3 690.5 45.3C682.9 45.3 676 39.5 676 30.1C676 20.7 682.9 14.9 690.5 14.9C693.9 14.9 697.9 16.1 700 19.1V0H708.34ZM699.74 30.1C699.76 28.573 699.325 27.0746 698.491 25.7952C697.657 24.5159 696.462 23.5134 695.057 22.9152C693.651 22.3171 692.1 22.1502 690.6 22.436C689.1 22.7217 687.719 23.447 686.632 24.5198C685.545 25.5926 684.801 26.9643 684.496 28.4606C684.191 29.957 684.337 31.5103 684.917 32.9231C685.497 34.3359 686.484 35.5445 687.752 36.395C689.02 37.2456 690.513 37.6999 692.04 37.7C694.066 37.7054 696.013 36.9096 697.455 35.486C698.898 34.0624 699.719 32.1264 699.74 30.1V30.1ZM764.14 30.1C764.14 39.5 757.24 45.3 749.64 45.3C746.24 45.3 742.24 44.1 740.14 41.1V44.7H731.84V0H740.14V19.1C742.24 16.2 746.34 14.9 749.64 14.9C757.24 14.9 764.14 20.7 764.14 30.1ZM755.64 30.1C755.647 29.1047 755.454 28.1181 755.073 27.1985C754.693 26.2789 754.132 25.4449 753.423 24.7458C752.715 24.0466 751.873 23.4966 750.949 23.128C750.024 22.7595 749.035 22.5799 748.04 22.6C746.547 22.6099 745.09 23.0624 743.854 23.9002C742.618 24.738 741.658 25.9236 741.096 27.3069C740.534 28.6902 740.394 30.2092 740.695 31.6718C740.996 33.1344 741.724 34.4749 742.787 35.5237C743.85 36.5726 745.2 37.2827 746.666 37.5643C748.133 37.846 749.65 37.6864 751.025 37.1059C752.401 36.5253 753.574 35.5499 754.395 34.3028C755.217 33.0558 755.65 31.5932 755.64 30.1V30.1ZM797.94 15.6L779.64 59H770.74L777.74 41.9L766 15.5H775.1L782.1 32.3L788.9 15.5H797.9L797.94 15.6Z" fill="white"/>
</g>
<path d="M148.34 87.4C141.161 80.4694 131.557 76.6211 121.579 76.6771C111.601 76.7332 102.04 80.6892 94.94 87.7C90.94 91.5 79.94 103 79.94 103C79.94 103 68 89.1 62.74 84.6C47.54 71.8 24.34 73.5 10.84 88.2C-3.56003 103.8 -3.66003 125.3 10.84 140.1C25.14 154.6 39.5066 168.933 53.94 183.1C57.401 186.6 61.5305 189.369 66.0829 191.242C70.6353 193.114 75.5178 194.052 80.44 194C90.64 193.9 99.54 190.7 106.64 183.7C121.04 169.6 135.44 155.5 149.44 141C156.357 133.724 160.122 124.011 159.917 113.974C159.711 103.936 155.55 94.3861 148.34 87.4V87.4ZM26.84 136.2C17.34 131.8 11.74 122.5 12.54 112.5C13.34 100 25.34 88.6 37.74 88.4C45.84 88.5 51.84 91 56.94 95.9C61.04 99.9 71.14 110 71.94 110.8L61.94 120.8C58.74 123.9 55.54 127.1 53.44 129.2C44.74 137.8 35.54 140.2 26.84 136.2ZM140.34 132.4C126.44 146.6 112.44 160.7 98.14 174.5C93.5954 178.968 87.5197 181.538 81.1483 181.686C74.7768 181.835 68.5879 179.551 63.84 175.3C55.34 167.6 47.54 159.1 38.74 150.4C49.74 148.4 57.64 142.6 64.74 135.3C77.64 122.2 90.54 109.1 103.74 96.3C106.974 93.1018 111.005 90.8269 115.415 89.7111C119.825 88.5954 124.452 88.6795 128.819 89.9547C133.185 91.2299 137.13 93.6497 140.246 96.9633C143.362 100.277 145.535 104.364 146.54 108.8C147.739 112.927 147.796 117.301 146.704 121.458C145.612 125.614 143.413 129.396 140.34 132.4V132.4Z" fill="white"/>
</g>
<defs>
<clipPath id="clip0">
<rect width="797.94" height="194.02" fill="white"/>
</clipPath>
</defs>
</svg>
