<?xml version="1.0" encoding="UTF-8"?> <svg xmlns="http://www.w3.org/2000/svg" width="832.035" height="260" viewBox="0 0 832.035 260"><g id="Group_1" data-name="Group 1" transform="translate(-303.965 -5213)"><g id="Group_9" data-name="Group 9" transform="translate(787 5213)"><path id="Fill_1" data-name="Fill 1" d="M149.918,16.04a5.93,5.93,0,0,1-3.081-.63,1.942,1.942,0,0,1-1-1.71,2.138,2.138,0,0,1,1.36-1.92,1.822,1.822,0,0,1-1.26-1.78,1.777,1.777,0,0,1,1.16-1.6,2.613,2.613,0,0,1-.6-1.72,2.742,2.742,0,0,1,.91-2.11,3.563,3.563,0,0,1,2.489-.83,4.8,4.8,0,0,1,1.26.159h2.98V5.4h-1.2v.04c.252.185.38.629.38,1.32a2.552,2.552,0,0,1-.9,1.94,3.625,3.625,0,0,1-2.52.82,4.224,4.224,0,0,1-1.779-.36.764.764,0,0,0-.481.66.557.557,0,0,0,.15.41,1.752,1.752,0,0,0,.73.29,9.813,9.813,0,0,0,1.66.2,6.743,6.743,0,0,1,3.171.69,2.018,2.018,0,0,1,.91,1.81,2.413,2.413,0,0,1-1.15,2A5.439,5.439,0,0,1,149.918,16.04ZM148.9,12.18c-.783.3-1.18.762-1.18,1.36a.948.948,0,0,0,.55.821,3.376,3.376,0,0,0,1.651.319,3.669,3.669,0,0,0,1.789-.35,1.029,1.029,0,0,0,.61-.91c0-.716-.72-1.106-2.14-1.16A12.4,12.4,0,0,1,148.9,12.18Zm1-7.079a1.639,1.639,0,0,0-1.21.45,1.557,1.557,0,0,0,0,2.19,1.659,1.659,0,0,0,1.21.44,1.722,1.722,0,0,0,1.24-.44,1.533,1.533,0,0,0,0-2.19A1.7,1.7,0,0,0,149.9,5.1Zm48.86,7.439a4.273,4.273,0,0,1-3.209-1.229,4.411,4.411,0,0,1-1.191-3.19,4.567,4.567,0,0,1,1.13-3.17,3.8,3.8,0,0,1,2.95-1.25,3.563,3.563,0,0,1,2.81,1.15,4.446,4.446,0,0,1,1.01,3.03l-.02.519h-5.96a2.732,2.732,0,0,0,.77,1.89,2.567,2.567,0,0,0,1.831.651,3.935,3.935,0,0,0,1.2-.18,2.476,2.476,0,0,0,.8-.381l.26-.18.7,1.34a1.81,1.81,0,0,1-.32.28,4.927,4.927,0,0,1-1.02.44A5.279,5.279,0,0,1,198.758,12.54Zm-.36-7.32a1.944,1.944,0,0,0-2.039,1.88H200.3C200.151,5.853,199.512,5.22,198.4,5.22ZM101,12.54A4.271,4.271,0,0,1,97.79,11.31,4.411,4.411,0,0,1,96.6,8.12,4.567,4.567,0,0,1,97.73,4.95a3.8,3.8,0,0,1,2.948-1.25,3.559,3.559,0,0,1,2.811,1.15,4.439,4.439,0,0,1,1.01,3.03l-.018.519H98.518a2.74,2.74,0,0,0,.772,1.89,2.557,2.557,0,0,0,1.828.651,3.921,3.921,0,0,0,1.2-.18,2.46,2.46,0,0,0,.8-.381l.259-.18.7,1.34a1.688,1.688,0,0,1-.32.28,4.828,4.828,0,0,1-1.021.44A5.253,5.253,0,0,1,101,12.54Zm-.36-7.32A1.947,1.947,0,0,0,98.6,7.1h3.942C102.393,5.853,101.753,5.22,100.638,5.22ZM78.08,12.54a4.274,4.274,0,0,1-3.21-1.229,4.413,4.413,0,0,1-1.19-3.19,4.567,4.567,0,0,1,1.13-3.17A3.8,3.8,0,0,1,77.76,3.7a3.563,3.563,0,0,1,2.81,1.15,4.446,4.446,0,0,1,1.01,3.03l-.02.519H75.6a2.733,2.733,0,0,0,.77,1.89,2.566,2.566,0,0,0,1.83.651,3.926,3.926,0,0,0,1.2-.18,2.467,2.467,0,0,0,.8-.381l.26-.18.7,1.34a1.858,1.858,0,0,1-.32.28,4.828,4.828,0,0,1-1.02.44A5.268,5.268,0,0,1,78.08,12.54Zm-.36-7.32A1.944,1.944,0,0,0,75.68,7.1h3.94C79.473,5.853,78.834,5.22,77.72,5.22ZM187.858,12.5a3.664,3.664,0,0,1-2.81-1.21,4.55,4.55,0,0,1-1.11-3.19,4.591,4.591,0,0,1,1.1-3.17A3.557,3.557,0,0,1,187.8,3.7a3.766,3.766,0,0,1,1.561.3,2.459,2.459,0,0,1,.88.581l.2.3h.08V.2h1.959V12.3h-1.319l-.3-1.24h-.079a.784.784,0,0,1-.09.16,3.538,3.538,0,0,1-.311.339,3.112,3.112,0,0,1-.54.43,3.469,3.469,0,0,1-.83.35A4,4,0,0,1,187.858,12.5Zm.4-7.18a2.113,2.113,0,0,0-1.68.78,3,3,0,0,0-.66,2,3,3,0,0,0,.66,2,2.113,2.113,0,0,0,1.68.78,2.2,2.2,0,0,0,1.7-.76,2.928,2.928,0,0,0,.68-2.02,2.955,2.955,0,0,0-.67-2.03A2.206,2.206,0,0,0,188.258,5.32ZM178.238,12.5a4.175,4.175,0,0,1-4.3-4.36,4.336,4.336,0,0,1,1.24-3.209,4.42,4.42,0,0,1,6.13.01,4.331,4.331,0,0,1,1.25,3.2,4.218,4.218,0,0,1-1.24,3.161A4.28,4.28,0,0,1,178.238,12.5Zm0-7.24a2.192,2.192,0,0,0-1.71.79,3.046,3.046,0,0,0-.689,2.07,3,3,0,0,0,.679,2.05,2.305,2.305,0,0,0,3.44,0,3,3,0,0,0,.68-2.05,3.046,3.046,0,0,0-.69-2.07A2.192,2.192,0,0,0,178.238,5.26ZM108.8,12.5a3.346,3.346,0,0,1-2.3-.75,2.46,2.46,0,0,1-.84-1.911,2.408,2.408,0,0,1,.98-2.02,4.669,4.669,0,0,1,2.84-.74,6.589,6.589,0,0,1,1.921.28V7.08c0-1.168-.734-1.76-2.181-1.76a4.448,4.448,0,0,0-1.13.15,3.768,3.768,0,0,0-.851.31l-.28.16-.679-1.48a6.1,6.1,0,0,1,3.24-.76,3.93,3.93,0,0,1,2.81.91,3.325,3.325,0,0,1,.95,2.51V12.3h-1.36l-.239-1.1h-.1A3.011,3.011,0,0,1,108.8,12.5Zm.9-4.22c-1.433,0-2.16.484-2.16,1.44a1.249,1.249,0,0,0,.46.99,1.867,1.867,0,0,0,1.24.39,2.221,2.221,0,0,0,1.509-.53,1.781,1.781,0,0,0,.651-1.29V8.6A3.833,3.833,0,0,0,109.7,8.28ZM57.44,12.5a2.49,2.49,0,0,1-1.97-.74,2.969,2.969,0,0,1-.65-2.021V5.44h-1.5V3.9h1.5V1.34h1.96V3.9h2.26V5.44H56.78V9.7c0,.743.357,1.12,1.06,1.12a1.687,1.687,0,0,0,.5-.08,2.112,2.112,0,0,0,.4-.159l.139-.08.581,1.38A3.44,3.44,0,0,1,57.44,12.5Zm-7.6,0a4.184,4.184,0,0,1-3.12-1.23,4.341,4.341,0,0,1-1.2-3.15,4.4,4.4,0,0,1,1.2-3.18A4.168,4.168,0,0,1,49.84,3.7a5.472,5.472,0,0,1,1.45.18,2.822,2.822,0,0,1,.91.38l.24.18L51.9,5.88a3.22,3.22,0,0,0-1.921-.56,2.319,2.319,0,0,0-1.779.76,2.9,2.9,0,0,0-.7,2.039,2.819,2.819,0,0,0,.7,2.03,2.367,2.367,0,0,0,1.779.73,3.453,3.453,0,0,0,.98-.14,3.306,3.306,0,0,0,.72-.28l.22-.14.519,1.419a2.228,2.228,0,0,1-.259.211,3.733,3.733,0,0,1-.85.34A4.948,4.948,0,0,1,49.84,12.5Zm-29.18,0a4.175,4.175,0,0,1-4.3-4.36A4.342,4.342,0,0,1,17.6,4.93a4.42,4.42,0,0,1,6.13.01,4.328,4.328,0,0,1,1.25,3.2A4.218,4.218,0,0,1,23.74,11.3,4.274,4.274,0,0,1,20.66,12.5Zm0-7.24a2.192,2.192,0,0,0-1.71.79,3.042,3.042,0,0,0-.69,2.07,3,3,0,0,0,.679,2.05,2.306,2.306,0,0,0,3.441,0,3,3,0,0,0,.68-2.05,3.046,3.046,0,0,0-.689-2.07A2.195,2.195,0,0,0,20.66,5.26ZM162.378,12.3H160.4V.3h1.52l4.26,5.6,4.28-5.6h1.48l.02,12H170V3.94l-3.46,4.52h-.72L162.378,4v8.3Zm-24.24,0h-1.96V3.9h1.28l.24,1.2h.12a3.153,3.153,0,0,1,2.82-1.4A3.307,3.307,0,0,1,143.2,4.73a3.94,3.94,0,0,1,.94,2.75V12.3h-1.959V7.66a2.491,2.491,0,0,0-.53-1.64,1.818,1.818,0,0,0-1.471-.64,1.879,1.879,0,0,0-1.45.58,2.178,2.178,0,0,0-.589,1.32V12.3Zm-14.68,0H121.5V3.9h1.28l.24,1.2h.12a3.153,3.153,0,0,1,2.82-1.4,3.307,3.307,0,0,1,2.561,1.03,3.93,3.93,0,0,1,.94,2.75V12.3H127.5V7.66a2.491,2.491,0,0,0-.529-1.64,1.813,1.813,0,0,0-1.471-.64,1.877,1.877,0,0,0-1.45.58,2.187,2.187,0,0,0-.59,1.32V12.3Zm-88.2,0h-2.1L38.08.3h2L45,12.3H42.92L41.94,9.84H36.22L35.26,12.3Zm3.82-9.7-2.2,5.56h4.4Zm166.978,9.7H204.1V.2h1.959V12.3Zm-72.32,0h-1.96V3.9h1.96v8.4Zm-16.2,0h-1.96V3.9h1.28l.24,1.34h.1a2.464,2.464,0,0,1,2.4-1.36h.46V5.52h-.46a2,2,0,0,0-1.45.58,2.065,2.065,0,0,0-.61,1.48V12.3Zm-21.718,0H87.94V.3h1.98V10.54h5.9V12.3Zm-26.46,0H67.98l-3.8-8.4h2.16l2.12,5.46a1.412,1.412,0,0,1,.159.62h.1a1.793,1.793,0,0,1,.159-.62L71,3.9h2.16l-3.8,8.4Zm-6.521,0H60.88V3.9h1.96v8.4ZM13.1,12.3H11.14V3.9h1.28l.24,1.34h.1a2.463,2.463,0,0,1,2.4-1.36h.461V5.52H15.16a2,2,0,0,0-1.45.58A2.062,2.062,0,0,0,13.1,7.58V12.3Zm-11.12,0H0V.3H4.94A4.959,4.959,0,0,1,8.3,1.38,3.715,3.715,0,0,1,9.54,4.32,3.792,3.792,0,0,1,8.29,7.34,5.036,5.036,0,0,1,4.9,8.42H1.98V12.3Zm0-10.24V6.68H4.86A2.969,2.969,0,0,0,6.8,6.1a2.165,2.165,0,0,0,.7-1.76,2.073,2.073,0,0,0-.71-1.7A3.011,3.011,0,0,0,4.84,2.06ZM32.34,8.52h-5.6V6.92h5.6v1.6ZM132.758,2.36a1.182,1.182,0,0,1-.85-.34,1.124,1.124,0,0,1-.349-.84,1.124,1.124,0,0,1,.349-.84,1.185,1.185,0,0,1,.85-.34,1.21,1.21,0,0,1,.87.34,1.124,1.124,0,0,1,.349.84,1.124,1.124,0,0,1-.349.84A1.207,1.207,0,0,1,132.758,2.36Zm-70.9,0a1.175,1.175,0,0,1-.85-.34,1.125,1.125,0,0,1-.35-.84,1.125,1.125,0,0,1,.35-.84A1.178,1.178,0,0,1,61.86,0a1.21,1.21,0,0,1,.87.34,1.13,1.13,0,0,1,.35.84,1.13,1.13,0,0,1-.35.84A1.207,1.207,0,0,1,61.86,2.36Z" transform="translate(0.03 28.894)" fill="#082463"></path><path id="Fill_3" data-name="Fill 3" d="M13.34,15.38H11.3l1.72-3.68L9.48,3.86h2.16L13.8,9.32a2.665,2.665,0,0,1,.14.619h.1a1.625,1.625,0,0,1,.14-.619L16.32,3.86h2L13.34,15.38Zm-8.8-2.84a8.877,8.877,0,0,1-1.65-.149A5.639,5.639,0,0,1,1.6,12.01c-.333-.153-.629-.3-.88-.45a2.7,2.7,0,0,1-.54-.38L0,11.04l1.08-1.5c.1.076.243.178.45.32a6.035,6.035,0,0,0,1.18.519,5.214,5.214,0,0,0,1.77.32,2.818,2.818,0,0,0,1.75-.45A1.468,1.468,0,0,0,6.8,9.04,1.359,1.359,0,0,0,6.24,7.91,7.427,7.427,0,0,0,4.08,7,8.548,8.548,0,0,1,1.04,5.58,2.7,2.7,0,0,1,.1,3.42,3.047,3.047,0,0,1,1.25.92,5.1,5.1,0,0,1,4.5,0,8.448,8.448,0,0,1,6.87.31,4.62,4.62,0,0,1,8.3.92l.38.3L7.6,2.84a2.211,2.211,0,0,0-.37-.281A6.033,6.033,0,0,0,6.18,2.12,5.093,5.093,0,0,0,4.5,1.84a2.948,2.948,0,0,0-1.63.391,1.257,1.257,0,0,0-.59,1.11,1.148,1.148,0,0,0,.561.98,8.5,8.5,0,0,0,2.1.84A7.93,7.93,0,0,1,8.06,6.64,2.936,2.936,0,0,1,9,8.9a3.36,3.36,0,0,1-1.15,2.62A4.851,4.851,0,0,1,4.54,12.54Zm33.8-.04a4.274,4.274,0,0,1-3.21-1.23,4.412,4.412,0,0,1-1.19-3.19,4.564,4.564,0,0,1,1.13-3.17A3.8,3.8,0,0,1,38.02,3.66,3.563,3.563,0,0,1,40.83,4.81a4.453,4.453,0,0,1,1.01,3.03l-.02.52H35.86a2.736,2.736,0,0,0,.77,1.89,2.569,2.569,0,0,0,1.83.65,3.938,3.938,0,0,0,1.2-.18,2.492,2.492,0,0,0,.8-.38l.259-.18.7,1.34a1.856,1.856,0,0,1-.32.28,4.932,4.932,0,0,1-1.021.44A5.291,5.291,0,0,1,38.34,12.5Zm-.36-7.32A1.945,1.945,0,0,0,35.94,7.06h3.94C39.733,5.813,39.094,5.18,37.98,5.18Zm-6.9,7.279a2.49,2.49,0,0,1-1.97-.74,2.968,2.968,0,0,1-.65-2.02V5.4h-1.5V3.86h1.5V1.3h1.96V3.86h2.26V5.4H30.42V9.66c0,.744.357,1.12,1.06,1.12a1.664,1.664,0,0,0,.5-.08,2.124,2.124,0,0,0,.4-.16l.139-.08L33.1,11.84A3.439,3.439,0,0,1,31.08,12.46Zm-8.56,0a7.551,7.551,0,0,1-1.98-.239,4.225,4.225,0,0,1-1.22-.481l-.34-.259.7-1.34a4.89,4.89,0,0,0,2.78.82c1.035,0,1.56-.323,1.56-.96a.748.748,0,0,0-.37-.62,2.643,2.643,0,0,0-.931-.39c-.374-.086-.777-.2-1.2-.34a10.767,10.767,0,0,1-1.2-.47,2.344,2.344,0,0,1-.931-.78,2.127,2.127,0,0,1-.37-1.26,2.216,2.216,0,0,1,.841-1.79,3.743,3.743,0,0,1,2.42-.689,9.341,9.341,0,0,1,1.89.18,6.039,6.039,0,0,1,1.249.36l.36.18L25.12,5.9a4.668,4.668,0,0,0-2.64-.72c-1.009,0-1.52.3-1.52.9a.693.693,0,0,0,.37.58,2.764,2.764,0,0,0,.93.36c.381.082.791.19,1.22.32A9.16,9.16,0,0,1,24.7,7.8a2.312,2.312,0,0,1,.931.8A2.259,2.259,0,0,1,26,9.9a2.3,2.3,0,0,1-.86,1.84A4.031,4.031,0,0,1,22.52,12.46Zm29.02-.2H49.58V7.42a2.169,2.169,0,0,0-.52-1.5A1.873,1.873,0,0,0,47.6,5.34a1.826,1.826,0,0,0-1.43.571A2.209,2.209,0,0,0,45.6,7.24v5.02H43.64V3.86h1.28l.24,1.2h.12a3.143,3.143,0,0,1,2.78-1.4,3.23,3.23,0,0,1,2.98,1.52h.1a3.133,3.133,0,0,1,2.88-1.52,3.218,3.218,0,0,1,2.53,1.03,4.018,4.018,0,0,1,.91,2.75v4.819H55.5V7.62a2.561,2.561,0,0,0-.51-1.641,1.757,1.757,0,0,0-1.45-.64,1.842,1.842,0,0,0-1.43.561,2.188,2.188,0,0,0-.57,1.339v5.02ZM62.8,4.9h0L62.5,3.84c.848-.185,1.332-.6,1.44-1.22a1.119,1.119,0,0,1-.68-.4A1.16,1.16,0,0,1,63,1.46a1.147,1.147,0,0,1,.35-.85,1.207,1.207,0,0,1,1.7,0,1.168,1.168,0,0,1,.35.85V1.6a3.5,3.5,0,0,1-.68,2.16A3.037,3.037,0,0,1,62.8,4.9Zm-3.2,0h0L59.28,3.84c.861-.185,1.352-.6,1.46-1.22a1.17,1.17,0,0,1-.69-.4,1.135,1.135,0,0,1-.27-.761,1.147,1.147,0,0,1,.35-.85,1.207,1.207,0,0,1,1.7,0,1.168,1.168,0,0,1,.35.85V1.6a3.5,3.5,0,0,1-.68,2.16A3.026,3.026,0,0,1,59.6,4.9Z" transform="translate(132.608 0.934)" fill="#082463"></path><path id="Fill_5" data-name="Fill 5" d="M56.238,16.04a5.944,5.944,0,0,1-3.081-.63,1.942,1.942,0,0,1-1-1.71,2.138,2.138,0,0,1,1.36-1.92A1.822,1.822,0,0,1,52.258,10a1.779,1.779,0,0,1,1.16-1.6,2.613,2.613,0,0,1-.6-1.72,2.742,2.742,0,0,1,.91-2.11,3.569,3.569,0,0,1,2.489-.83,4.786,4.786,0,0,1,1.26.159h2.981V5.4h-1.2v.04c.252.185.38.629.38,1.32a2.552,2.552,0,0,1-.9,1.94,3.625,3.625,0,0,1-2.52.82,4.224,4.224,0,0,1-1.779-.36.764.764,0,0,0-.481.66.557.557,0,0,0,.15.41,1.752,1.752,0,0,0,.73.29,9.859,9.859,0,0,0,1.66.2,6.74,6.74,0,0,1,3.17.69,2.016,2.016,0,0,1,.91,1.81,2.41,2.41,0,0,1-1.15,2A5.439,5.439,0,0,1,56.238,16.04Zm-1.021-3.86c-.783.3-1.18.762-1.18,1.36a.948.948,0,0,0,.55.821,3.385,3.385,0,0,0,1.651.319,3.676,3.676,0,0,0,1.79-.35,1.027,1.027,0,0,0,.609-.91c0-.716-.72-1.106-2.139-1.16a12.494,12.494,0,0,1-1.281-.08Zm1-7.079a1.639,1.639,0,0,0-1.21.45,1.557,1.557,0,0,0,0,2.19,1.659,1.659,0,0,0,1.21.44,1.722,1.722,0,0,0,1.24-.44,1.533,1.533,0,0,0,0-2.19A1.7,1.7,0,0,0,56.218,5.1ZM13.06,12.54A4.282,4.282,0,0,1,9.85,11.31,4.413,4.413,0,0,1,8.66,8.12,4.567,4.567,0,0,1,9.79,4.95,3.806,3.806,0,0,1,12.74,3.7a3.563,3.563,0,0,1,2.81,1.15,4.439,4.439,0,0,1,1.01,3.03l-.02.519H10.58a2.746,2.746,0,0,0,.769,1.89,2.566,2.566,0,0,0,1.83.651,3.938,3.938,0,0,0,1.2-.18,2.46,2.46,0,0,0,.8-.381l.26-.18.7,1.34a1.746,1.746,0,0,1-.32.28,4.729,4.729,0,0,1-1.021.44A5.268,5.268,0,0,1,13.06,12.54ZM12.7,5.22A1.947,1.947,0,0,0,10.66,7.1H14.6C14.455,5.853,13.816,5.22,12.7,5.22ZM31.06,12.5a3.664,3.664,0,0,1-2.81-1.21A4.55,4.55,0,0,1,27.14,8.1a4.591,4.591,0,0,1,1.1-3.17A3.557,3.557,0,0,1,31,3.7,3.766,3.766,0,0,1,32.56,4a2.459,2.459,0,0,1,.88.581l.2.3h.08V.2H35.68V12.3H34.36l-.3-1.24H33.98a.782.782,0,0,1-.09.16,3.54,3.54,0,0,1-.31.339,3.11,3.11,0,0,1-.54.43,3.47,3.47,0,0,1-.83.35A4,4,0,0,1,31.06,12.5Zm.4-7.18a2.113,2.113,0,0,0-1.68.78,3,3,0,0,0-.66,2,3,3,0,0,0,.66,2,2.113,2.113,0,0,0,1.68.78,2.2,2.2,0,0,0,1.7-.76,2.928,2.928,0,0,0,.68-2.02,2.955,2.955,0,0,0-.67-2.03A2.206,2.206,0,0,0,31.46,5.32ZM20.86,12.5a3.346,3.346,0,0,1-2.3-.75,2.46,2.46,0,0,1-.84-1.911,2.4,2.4,0,0,1,.98-2.02,4.669,4.669,0,0,1,2.84-.74,6.616,6.616,0,0,1,1.921.28V7.08c0-1.168-.734-1.76-2.181-1.76a4.448,4.448,0,0,0-1.13.15,3.729,3.729,0,0,0-.851.31l-.28.16-.68-1.48a6.1,6.1,0,0,1,3.24-.76,3.936,3.936,0,0,1,2.81.91,3.325,3.325,0,0,1,.95,2.51V12.3H23.98l-.239-1.1h-.1A3.015,3.015,0,0,1,20.86,12.5Zm.9-4.22c-1.433,0-2.16.484-2.16,1.44a1.249,1.249,0,0,0,.46.99,1.861,1.861,0,0,0,1.24.39,2.221,2.221,0,0,0,1.509-.53,1.786,1.786,0,0,0,.651-1.29V8.6A3.833,3.833,0,0,0,21.76,8.28ZM44.46,12.3H42.5V3.9h1.28l.24,1.2h.12A3.15,3.15,0,0,1,46.96,3.7a3.312,3.312,0,0,1,2.56,1.03,3.936,3.936,0,0,1,.94,2.75V12.3H48.5V7.66a2.5,2.5,0,0,0-.53-1.64,1.815,1.815,0,0,0-1.47-.64,1.872,1.872,0,0,0-1.45.58,2.174,2.174,0,0,0-.59,1.32V12.3Zm-4.4,0H38.1V3.9h1.96v8.4Zm-32.18,0H0V.3H1.98V10.54h5.9V12.3ZM39.08,2.36a1.175,1.175,0,0,1-.85-.34,1.125,1.125,0,0,1-.35-.84,1.125,1.125,0,0,1,.35-.84A1.178,1.178,0,0,1,39.08,0a1.21,1.21,0,0,1,.87.34,1.13,1.13,0,0,1,.35.84,1.13,1.13,0,0,1-.35.84A1.207,1.207,0,0,1,39.08,2.36Z" transform="translate(66.669 0.894)" fill="#f39"></path><path id="Fill_7" data-name="Fill 7" d="M36.24,12H34.26V0h1.98V6.02L41.88,0h2.34V.24L39.74,5.04l4.54,6.7V12H42.1L38.38,6.5,36.24,8.78V12ZM23,12H20.9L25.82,0h2l4.92,12H30.66l-.98-2.46H23.96L23,12Zm3.82-9.7L24.62,7.86h4.4ZM20.08,12H11.54V0h8.54V1.76H13.52V5.08H19.1V6.76H13.52v3.48h6.56V12ZM1.98,12H0V0H4.94A4.959,4.959,0,0,1,8.3,1.08,3.715,3.715,0,0,1,9.54,4.02,3.791,3.791,0,0,1,8.29,7.04,5.036,5.036,0,0,1,4.9,8.12H1.98V12Zm0-10.239V6.38H4.86A2.969,2.969,0,0,0,6.8,5.8a2.162,2.162,0,0,0,.7-1.76,2.073,2.073,0,0,0-.71-1.7A3.011,3.011,0,0,0,4.84,1.76ZM54.14,4.64a1.2,1.2,0,0,1-1.2-1.2V3.3a3.459,3.459,0,0,1,.69-2.16A3.066,3.066,0,0,1,55.54,0l.3,1.06c-.85.2-1.334.609-1.44,1.22a1.259,1.259,0,0,1,.67.42,1.121,1.121,0,0,1,.27.74,1.155,1.155,0,0,1-.35.86A1.184,1.184,0,0,1,54.14,4.64Zm-3.32,0a1.2,1.2,0,0,1-1.2-1.2V3.3a3.459,3.459,0,0,1,.69-2.16A3.066,3.066,0,0,1,52.22,0l.3,1.06c-.851.2-1.335.609-1.44,1.22a1.26,1.26,0,0,1,.67.42,1.121,1.121,0,0,1,.27.74,1.155,1.155,0,0,1-.35.86A1.184,1.184,0,0,1,50.82,4.64Z" transform="translate(8.67 1.194)" fill="#082463"></path></g><path id="Stroke_10" data-name="Stroke 10" d="M0,0V23H69V0" transform="translate(576 5394)" fill="none" stroke="#3a30db" stroke-linecap="round" stroke-linejoin="round" stroke-miterlimit="10" stroke-width="5"></path><path id="Fill_11" data-name="Fill 11" d="M44.653,20H42.429V2.857h2.224v7.759l6.984-7.759h2.727l-7.391,8.326L54.6,20l-2.725,0-7.223-8.234V20ZM27.815,20H25.448L31.69,2.857H34.2L40.443,20H38.075l-1.367-3.845H29.181L27.815,20Zm5.13-14.439-3.008,8.464h6.016ZM24.108,20h-10V2.857h9.877V5.012H16.335v5.266h7.056v2.13H16.335v5.437h7.773V20ZM2.224,20H0V2.857H6.075A5.2,5.2,0,0,1,9.938,4.437a5.428,5.428,0,0,1,1.543,3.93,5.439,5.439,0,0,1-1.543,3.919,5.18,5.18,0,0,1-3.863,1.592H2.224V20Zm0-15.012v6.759H6.075a3.027,3.027,0,0,0,2.3-.967A3.4,3.4,0,0,0,9.28,8.367a3.393,3.393,0,0,0-.909-2.425,3.048,3.048,0,0,0-2.3-.955ZM68.159,10h-1.3V0h1.465L71.45,5.308,74.549,0H76V10H74.716V2.186L71.521,7.628l-.159-.006-3.2-5.442V10ZM62.69,10H61.407V1.257H58.532V0h7.046V1.257H62.69V10Z" transform="translate(473 5354)" fill="#3a30db"></path><path id="Fill_13" data-name="Fill 13" d="M39.47,17a6.205,6.205,0,0,1-6.264-6.271A6.3,6.3,0,0,1,43.924,6.27a6.052,6.052,0,0,1,1.834,4.459,6.05,6.05,0,0,1-1.834,4.459A6.128,6.128,0,0,1,39.47,17Zm0-10.515A4.064,4.064,0,0,0,36.492,7.7a4.13,4.13,0,0,0-1.215,3.028,4.131,4.131,0,0,0,1.215,3.028,4.283,4.283,0,0,0,5.979,0,4.131,4.131,0,0,0,1.215-3.028A4.152,4.152,0,0,0,39.47,6.485ZM16.459,17A4.444,4.444,0,0,1,13.1,15.677a5.008,5.008,0,0,1-1.263-3.588V4.768h2.073v7.2a3.092,3.092,0,0,0,.786,2.254,2.916,2.916,0,0,0,2.167.8,3.37,3.37,0,0,0,2.5-.966,4.093,4.093,0,0,0,.953-2.968V4.768h2.073V16.69H20.318V14.973A4.251,4.251,0,0,1,16.459,17Zm14.013-.2a4.568,4.568,0,0,1-2.437-.552,3.305,3.305,0,0,1-1.262-3.016V6.772H24.415v-2h2.359V2.05l2.072-.619V4.768h3.168v2H28.846v6.461a1.823,1.823,0,0,0,.346,1.252,1.427,1.427,0,0,0,1.06.382l.295,0c.409,0,.9-.013,1.467-.038V16.69A11.925,11.925,0,0,1,30.472,16.8Zm19.811-.111H48.212V4.768h2.072v2A3.751,3.751,0,0,1,54,4.554v2.17c-.07,0-.146-.005-.226-.005a3.713,3.713,0,0,0-2.393.816,3.443,3.443,0,0,0-1.1,2.837v6.317ZM7.1,16.69H4.907V2.1H0V0H12.029V2.1H7.1V16.689Z" transform="translate(581 5262)" fill="#f39"></path><path id="Fill_15" data-name="Fill 15" d="M62.03,18a6.3,6.3,0,0,1-6.356-6.371,6.368,6.368,0,1,1,12.735,0A6.321,6.321,0,0,1,62.03,18Zm0-10.684a4.122,4.122,0,0,0-3.021,1.236,4.2,4.2,0,0,0-1.232,3.077,4.2,4.2,0,0,0,1.232,3.076,4.34,4.34,0,0,0,6.066,0,4.2,4.2,0,0,0,1.232-3.076,4.2,4.2,0,0,0-1.232-3.077A4.15,4.15,0,0,0,62.03,7.316ZM47.482,18a6.3,6.3,0,0,1-6.355-6.371,6.368,6.368,0,1,1,12.735,0A6.149,6.149,0,0,1,52,16.159,6.211,6.211,0,0,1,47.482,18Zm0-10.684a4.121,4.121,0,0,0-3.02,1.236,4.2,4.2,0,0,0-1.232,3.077,4.2,4.2,0,0,0,1.232,3.076,4.339,4.339,0,0,0,6.065,0,4.2,4.2,0,0,0,1.233-3.076,4.2,4.2,0,0,0-1.233-3.077A4.147,4.147,0,0,0,47.482,7.316ZM20.66,18a6.16,6.16,0,0,1-4.543-1.829,6.225,6.225,0,0,1-1.812-4.542,6.226,6.226,0,0,1,1.812-4.543A6.163,6.163,0,0,1,20.66,5.257a6.127,6.127,0,0,1,3.214.86A5.42,5.42,0,0,1,26,8.43L24.237,9.448A3.6,3.6,0,0,0,22.823,7.9a4.329,4.329,0,0,0-5.2.654,4.221,4.221,0,0,0-1.219,3.077,4.19,4.19,0,0,0,1.219,3.052,4.11,4.11,0,0,0,3.033,1.236,4.22,4.22,0,0,0,2.174-.57,3.82,3.82,0,0,0,1.474-1.538L26.1,14.851a5.912,5.912,0,0,1-2.223,2.289A6.21,6.21,0,0,1,20.66,18ZM6.4,18a7.188,7.188,0,0,1-4.047-1.114A5.921,5.921,0,0,1,0,13.833l1.933-1.114A4.271,4.271,0,0,0,6.452,15.8,4.273,4.273,0,0,0,9.11,15.08a2.3,2.3,0,0,0,.918-1.9,2.041,2.041,0,0,0-.918-1.817,13.323,13.323,0,0,0-3.069-1.285q-.876-.3-1.41-.485l-.2-.07A11.576,11.576,0,0,1,3.033,8.9a4.391,4.391,0,0,1-1.245-.872,4.423,4.423,0,0,1-.737-1.175A4,4,0,0,1,.724,5.208a4.347,4.347,0,0,1,1.547-3.5A5.7,5.7,0,0,1,6.041.412,6.055,6.055,0,0,1,9.533,1.429a6.363,6.363,0,0,1,2.236,2.689L9.883,5.208A3.885,3.885,0,0,0,6.041,2.592a3.461,3.461,0,0,0-2.223.679,2.241,2.241,0,0,0-.846,1.839,1.978,1.978,0,0,0,.8,1.7A10.421,10.421,0,0,0,6.526,8.015c.439.157.758.27.959.341l.024.008c.2.071.5.18.914.326a8.43,8.43,0,0,1,.906.365c.182.091.432.221.786.411a3.234,3.234,0,0,1,.736.509c.2.2.384.4.566.6a2.336,2.336,0,0,1,.472.716,5.9,5.9,0,0,1,.254.836,4.559,4.559,0,0,1,.108,1.008,4.361,4.361,0,0,1-1.618,3.549A6.511,6.511,0,0,1,6.4,18Zm23.874-.314h-2.1V.727h2.1V7.316a4.311,4.311,0,0,1,3.914-2.059A4.5,4.5,0,0,1,37.6,6.6a5.089,5.089,0,0,1,1.281,3.646v7.437h-2.1V10.369a3.141,3.141,0,0,0-.8-2.29,2.953,2.953,0,0,0-2.2-.812,3.417,3.417,0,0,0-2.537.982,4.162,4.162,0,0,0-.967,3.016v6.42Zm42.722,0H70.9V0H73V17.684Z" transform="translate(673 5355)" fill="#3a30db"></path><path id="Fill_17" data-name="Fill 17" d="M76.125,22c-.118,0-.238,0-.358-.012V20.009c.084.007.172.01.261.01,1.328,0,2.327-.844,2.97-2.509l.228-.458L73.988,4.886h2.235l4.006,9.365,3.537-9.365H86L81.1,17.859a7.013,7.013,0,0,1-2.15,3.163A4.46,4.46,0,0,1,76.125,22ZM59,17.419A6.252,6.252,0,0,1,54.352,15.6a6.318,6.318,0,0,1-1.79-4.605A6.406,6.406,0,0,1,54.316,6.4a6.024,6.024,0,0,1,4.541-1.832,5.512,5.512,0,0,1,4.312,1.894,6.691,6.691,0,0,1,1.669,4.557,6.6,6.6,0,0,1-.072.952H54.7a4.035,4.035,0,0,0,1.478,2.541,4.548,4.548,0,0,0,2.87.9,3.758,3.758,0,0,0,3.46-1.784l1.778,1.026A5.869,5.869,0,0,1,59,17.419ZM58.856,6.572a4.1,4.1,0,0,0-2.787.965A4.2,4.2,0,0,0,54.7,10.114h8.023a4.124,4.124,0,0,0-1.346-2.639A3.828,3.828,0,0,0,58.856,6.572ZM38.341,17.419a5.563,5.563,0,0,1-3-.782,4.366,4.366,0,0,1-1.778-2.076l1.8-1.051A2.579,2.579,0,0,0,36.443,14.9a3.432,3.432,0,0,0,1.9.513,3.293,3.293,0,0,0,1.706-.4,1.363,1.363,0,0,0,.672-1.256,1.3,1.3,0,0,0-.7-1.134,7.262,7.262,0,0,0-1.676-.724l-.542-.166-.027-.008-1.4-.429a3.66,3.66,0,0,1-1.686-1.083,2.911,2.911,0,0,1-.7-2,3.289,3.289,0,0,1,1.213-2.615,4.559,4.559,0,0,1,3.039-1.026,5.059,5.059,0,0,1,2.606.672,4.291,4.291,0,0,1,1.717,1.868l-1.753,1a2.521,2.521,0,0,0-2.57-1.563,2.67,2.67,0,0,0-1.514.418,1.349,1.349,0,0,0-.625,1.183,1.259,1.259,0,0,0,.707,1.111A7.681,7.681,0,0,0,38.5,9.97l1.275.38.7.207a3.473,3.473,0,0,1,1.678,1.108,3.152,3.152,0,0,1,.687,2.089,3.244,3.244,0,0,1-1.261,2.663A5.061,5.061,0,0,1,38.341,17.419Zm-13.813,0a5.744,5.744,0,0,1-4.3-1.869,6.385,6.385,0,0,1-1.778-4.557,6.384,6.384,0,0,1,1.778-4.556,5.741,5.741,0,0,1,4.3-1.869,5.1,5.1,0,0,1,4.54,2.419v-2.1h2.091V17.1H29.067V15A5.1,5.1,0,0,1,24.528,17.419Zm.264-10.8a4.076,4.076,0,0,0-3.027,1.258,4.31,4.31,0,0,0-1.225,3.115,4.31,4.31,0,0,0,1.225,3.115,4.3,4.3,0,0,0,6.078,0,4.307,4.307,0,0,0,1.225-3.115,4.307,4.307,0,0,0-1.225-3.115A4.1,4.1,0,0,0,24.791,6.62ZM49.808,17.215a4.549,4.549,0,0,1-2.459-.566,3.41,3.41,0,0,1-1.274-3.09V6.938H43.7V4.886h2.378V2.1l2.091-.635v3.42h3.195V6.938H48.166v6.621a1.891,1.891,0,0,0,.348,1.283,1.427,1.427,0,0,0,1.069.391l.306,0c.424,0,.919-.013,1.472-.039V17.1A11.861,11.861,0,0,1,49.808,17.215ZM2.234,17.1H0V0H2.523L7.9,9.078,13.239,0h2.5V17.1h-2.21V3.738l-5.5,9.309-.272-.011L2.234,3.726V17.1Zm67.094,0h-2.09V4.886h2.09V6.938a3.776,3.776,0,0,1,3.748-2.272V6.889c-.071,0-.147-.005-.228-.005a3.712,3.712,0,0,0-2.415.836,3.558,3.558,0,0,0-1.105,2.907V17.1Z" transform="translate(864 5353)" fill="#3a30db"></path><path id="Fill_19" data-name="Fill 19" d="M4.069,11a8.157,8.157,0,0,1-1.478-.132,5.253,5.253,0,0,1-1.157-.333c-.309-.14-.567-.269-.788-.394a2.449,2.449,0,0,1-.484-.333L0,9.684.968,8.368c.089.066.217.155.4.281a5.337,5.337,0,0,0,1.056.456,4.8,4.8,0,0,0,1.588.281,2.55,2.55,0,0,0,1.567-.4,1.271,1.271,0,0,0,.512-1.06,1.189,1.189,0,0,0-.5-.993,6.772,6.772,0,0,0-1.936-.8A7.748,7.748,0,0,1,.932,4.9,2.349,2.349,0,0,1,.09,3,2.644,2.644,0,0,1,1.12.807,4.654,4.654,0,0,1,4.033,0,7.71,7.71,0,0,1,6.159.271,4.174,4.174,0,0,1,7.439.807l.34.263L6.812,2.491a2.053,2.053,0,0,0-.331-.246,5.543,5.543,0,0,0-.941-.386,4.643,4.643,0,0,0-1.507-.246,2.689,2.689,0,0,0-1.46.341,1.1,1.1,0,0,0-.529.975,1,1,0,0,0,.5.86,7.783,7.783,0,0,0,1.883.736,7.172,7.172,0,0,1,2.8,1.3,2.544,2.544,0,0,1,.842,1.982,2.919,2.919,0,0,1-1.03,2.3A4.418,4.418,0,0,1,4.069,11Zm33.378-.035a3.879,3.879,0,0,1-2.878-1.08,3.824,3.824,0,0,1-1.066-2.8,3.96,3.96,0,0,1,1.012-2.782,3.448,3.448,0,0,1,2.645-1.1,3.221,3.221,0,0,1,2.517,1.008,3.845,3.845,0,0,1,.906,2.659l-.018.456H35.224a2.373,2.373,0,0,0,.689,1.657,2.333,2.333,0,0,0,1.641.572A3.581,3.581,0,0,0,38.63,9.4a2.254,2.254,0,0,0,.717-.333l.233-.157.627,1.175a1.58,1.58,0,0,1-.287.245,4.378,4.378,0,0,1-.914.386A4.8,4.8,0,0,1,37.447,10.965Zm-.323-6.421A1.73,1.73,0,0,0,35.3,6.193h3.531C38.7,5.1,38.124,4.544,37.124,4.544ZM54.19,10.93a2.263,2.263,0,0,1-1.767-.649,2.567,2.567,0,0,1-.582-1.772V4.737H50.5V3.386h1.344V1.14H53.6V3.386h2.026V4.737H53.6V8.474a.857.857,0,0,0,.95.983A1.563,1.563,0,0,0,55,9.386a1.883,1.883,0,0,0,.358-.14l.126-.07L56,10.386A3.122,3.122,0,0,1,54.19,10.93Zm-26.512,0a3.32,3.32,0,0,1-2.52-1.062,3.941,3.941,0,0,1-.994-2.8,3.981,3.981,0,0,1,.986-2.782A3.226,3.226,0,0,1,27.624,3.21a3.43,3.43,0,0,1,1.4.264,2.176,2.176,0,0,1,.789.508l.179.263h.072V.14h1.757V10.754H30.635l-.269-1.087h-.071a.655.655,0,0,1-.082.14,2.833,2.833,0,0,1-.277.3,2.8,2.8,0,0,1-.484.378,3.187,3.187,0,0,1-.744.306A3.637,3.637,0,0,1,27.678,10.93Zm.358-6.3a1.912,1.912,0,0,0-1.506.684,2.6,2.6,0,0,0-.591,1.755,2.6,2.6,0,0,0,.591,1.754,1.91,1.91,0,0,0,1.506.684,1.99,1.99,0,0,0,1.524-.666,2.537,2.537,0,0,0,.609-1.772,2.552,2.552,0,0,0-.6-1.782A1.992,1.992,0,0,0,28.036,4.631Zm-9.572,6.3a2.914,2.914,0,0,1-2.269-.9,3.477,3.477,0,0,1-.815-2.411V3.386h1.757V7.457a2.336,2.336,0,0,0,.438,1.473,1.535,1.535,0,0,0,1.282.562A1.7,1.7,0,0,0,20.22,8.92,1.861,1.861,0,0,0,20.7,7.7V3.386h1.757v7.368H21.314l-.305-1.017h-.071A2.821,2.821,0,0,1,18.463,10.93Zm-6.059,0a2.263,2.263,0,0,1-1.767-.649,2.567,2.567,0,0,1-.581-1.772V4.737H8.712V3.386h1.345V1.14h1.757V3.386h2.025V4.737H11.813V8.474a.857.857,0,0,0,.949.983,1.554,1.554,0,0,0,.448-.07,1.871,1.871,0,0,0,.359-.14l.125-.07.52,1.211A3.128,3.128,0,0,1,12.4,10.93Zm31.549-.175H42.2V3.386h1.147l.215,1.053h.108A2.846,2.846,0,0,1,46.194,3.21a3,3,0,0,1,2.3.9,3.411,3.411,0,0,1,.842,2.413v4.227H47.575V6.684A2.16,2.16,0,0,0,47.1,5.245a1.641,1.641,0,0,0-1.317-.561,1.7,1.7,0,0,0-1.3.509,1.9,1.9,0,0,0-.527,1.158v4.4Z" transform="translate(320 5410)" fill="#6c75ff"></path><path id="Fill_21" data-name="Fill 21" d="M99.11,14a5.423,5.423,0,0,1-2.76-.551,1.685,1.685,0,0,1-.9-1.492,1.869,1.869,0,0,1,1.219-1.676,1.592,1.592,0,0,1-1.13-1.553,1.555,1.555,0,0,1,1.04-1.4,2.243,2.243,0,0,1-.538-1.5,2.36,2.36,0,0,1,.817-1.84,3.244,3.244,0,0,1,2.23-.725,4.38,4.38,0,0,1,1.129.139h2.671V4.713h-1.076v.035c.226.162.34.55.34,1.152a2.2,2.2,0,0,1-.806,1.693,3.305,3.305,0,0,1-2.259.716A3.867,3.867,0,0,1,97.5,7.995a.667.667,0,0,0-.43.576.482.482,0,0,0,.135.359,1.59,1.59,0,0,0,.653.252,9.075,9.075,0,0,0,1.488.175,6.205,6.205,0,0,1,2.842.6,1.742,1.742,0,0,1,.814,1.58,2.092,2.092,0,0,1-1.03,1.745A4.977,4.977,0,0,1,99.11,14Zm-.913-3.37c-.7.267-1.058.666-1.058,1.187a.824.824,0,0,0,.494.715,3.087,3.087,0,0,0,1.478.28,3.4,3.4,0,0,0,1.606-.305.905.905,0,0,0,.545-.795c0-.626-.645-.967-1.918-1.012-.309,0-.7-.024-1.147-.07h0Zm.9-6.179a1.5,1.5,0,0,0-1.084.391,1.294,1.294,0,0,0-.4.952,1.278,1.278,0,0,0,.4.96,1.512,1.512,0,0,0,1.084.384,1.57,1.57,0,0,0,1.111-.384,1.26,1.26,0,0,0,.412-.96,1.276,1.276,0,0,0-.412-.952A1.56,1.56,0,0,0,99.092,4.451ZM5.36,10.98a5.107,5.107,0,0,1-3.9-1.562A5.522,5.522,0,0,1,0,5.516,5.491,5.491,0,0,1,1.488,1.606,5.179,5.179,0,0,1,5.414.035,6.442,6.442,0,0,1,7.555.374a4.012,4.012,0,0,1,1.318.673l.376.331L8.21,2.705a2.257,2.257,0,0,0-.322-.287,4.656,4.656,0,0,0-.95-.455,4.162,4.162,0,0,0-1.524-.287A3.351,3.351,0,0,0,2.824,2.768a3.936,3.936,0,0,0-1,2.749A3.928,3.928,0,0,0,2.8,8.24,3.294,3.294,0,0,0,5.36,9.321,3.025,3.025,0,0,0,7.583,8.5a2.931,2.931,0,0,0,.824-2.164V6.285H5.126V4.818H10.29v1.03A5.23,5.23,0,0,1,8.971,9.591,4.758,4.758,0,0,1,5.36,10.98Zm49.906-.035A3.89,3.89,0,0,1,52.387,9.87a3.788,3.788,0,0,1-1.066-2.783,3.93,3.93,0,0,1,1.012-2.768,3.459,3.459,0,0,1,2.645-1.09,3.234,3.234,0,0,1,2.518,1A3.82,3.82,0,0,1,58.4,6.878l-.018.454H53.042a2.352,2.352,0,0,0,.689,1.649,2.334,2.334,0,0,0,1.642.569,3.609,3.609,0,0,0,1.076-.158,2.257,2.257,0,0,0,.716-.331L57.4,8.9l.627,1.169a1.569,1.569,0,0,1-.286.245,4.417,4.417,0,0,1-.914.384A4.828,4.828,0,0,1,55.265,10.945Zm-.322-6.389A1.727,1.727,0,0,0,53.114,6.2h3.532A1.6,1.6,0,0,0,54.943,4.556ZM20.489,10.945A3.89,3.89,0,0,1,17.611,9.87a3.788,3.788,0,0,1-1.066-2.783,3.93,3.93,0,0,1,1.012-2.768A3.456,3.456,0,0,1,20.2,3.229a3.23,3.23,0,0,1,2.517,1,3.817,3.817,0,0,1,.906,2.646l-.017.454H18.266a2.352,2.352,0,0,0,.689,1.649,2.333,2.333,0,0,0,1.641.569,3.6,3.6,0,0,0,1.075-.158,2.255,2.255,0,0,0,.717-.331l.233-.157.627,1.169a1.55,1.55,0,0,1-.287.245,4.4,4.4,0,0,1-.913.384A4.828,4.828,0,0,1,20.489,10.945Zm-.323-6.389A1.727,1.727,0,0,0,18.338,6.2H21.87A1.6,1.6,0,0,0,20.166,4.556Zm42.09,6.354a3.058,3.058,0,0,1-2.062-.653,2.123,2.123,0,0,1-.752-1.668,2.079,2.079,0,0,1,.878-1.763,4.268,4.268,0,0,1,2.545-.646,6.054,6.054,0,0,1,1.721.245V6.179c0-1.019-.657-1.536-1.954-1.536a4.086,4.086,0,0,0-1.013.132,3.363,3.363,0,0,0-.761.269l-.251.14L60,3.893a5.585,5.585,0,0,1,2.9-.663,3.589,3.589,0,0,1,2.517.794,2.866,2.866,0,0,1,.852,2.192v4.522H65.053l-.215-.96h-.09A2.725,2.725,0,0,1,62.257,10.91Zm.806-3.683c-1.285,0-1.936.423-1.936,1.256a1.082,1.082,0,0,0,.412.866,1.711,1.711,0,0,0,1.111.339A2.042,2.042,0,0,0,64,9.227,1.546,1.546,0,0,0,64.587,8.1V7.506A3.526,3.526,0,0,0,63.063,7.227ZM36.408,10.91a2.27,2.27,0,0,1-1.767-.645A2.547,2.547,0,0,1,34.059,8.5V4.748H32.715V3.4h1.344V1.17h1.757V3.4h2.026V4.748H35.816V8.466a.855.855,0,0,0,.95.977,1.592,1.592,0,0,0,.448-.069,1.863,1.863,0,0,0,.358-.14l.126-.069.519,1.2A3.133,3.133,0,0,1,36.408,10.91Zm-8.927,0a3.058,3.058,0,0,1-2.062-.653,2.12,2.12,0,0,1-.752-1.668,2.079,2.079,0,0,1,.878-1.763,4.268,4.268,0,0,1,2.545-.646,6.054,6.054,0,0,1,1.721.245V6.179c0-1.019-.657-1.536-1.954-1.536a4.086,4.086,0,0,0-1.013.132,3.363,3.363,0,0,0-.761.269l-.251.14-.609-1.292a5.585,5.585,0,0,1,2.9-.663,3.592,3.592,0,0,1,2.517.794A2.866,2.866,0,0,1,31.5,6.215v4.522H30.277l-.215-.96h-.09A2.725,2.725,0,0,1,27.481,10.91Zm.806-3.683c-1.285,0-1.936.423-1.936,1.256a1.082,1.082,0,0,0,.412.866,1.708,1.708,0,0,0,1.111.339,2.042,2.042,0,0,0,1.353-.462A1.55,1.55,0,0,0,29.811,8.1V7.506A3.526,3.526,0,0,0,28.287,7.227Zm60.265,3.51H86.8V3.4h1.147l.215,1.048h.107a2.852,2.852,0,0,1,2.528-1.222,3.009,3.009,0,0,1,2.294.9,3.391,3.391,0,0,1,.842,2.4v4.207H92.173V6.686A2.143,2.143,0,0,0,91.7,5.254,1.642,1.642,0,0,0,90.38,4.7a1.7,1.7,0,0,0-1.3.506,1.886,1.886,0,0,0-.53,1.152v4.382Zm-13.158,0H73.637V3.4h1.147L75,4.451h.108a2.849,2.849,0,0,1,2.527-1.222,3.009,3.009,0,0,1,2.294.9,3.388,3.388,0,0,1,.843,2.4v4.207H79.016V6.686a2.143,2.143,0,0,0-.474-1.432A1.644,1.644,0,0,0,77.223,4.7a1.7,1.7,0,0,0-1.3.506,1.886,1.886,0,0,0-.53,1.152v4.382Zm9.214,0H82.851V3.4h1.757v7.331Zm-14.52,0H68.332V3.4h1.147l.216,1.17h.089a2.217,2.217,0,0,1,2.151-1.187h.412V4.818h-.412a1.815,1.815,0,0,0-1.3.507,1.778,1.778,0,0,0-.547,1.291v4.119Zm-19.466,0H43.56V.262h1.775V9.2h5.288v1.535Zm-37,0H11.867V3.4h1.148l.215,1.17h.09A2.216,2.216,0,0,1,15.47,3.387h.412V4.818H15.47a1.815,1.815,0,0,0-1.3.507,1.779,1.779,0,0,0-.546,1.291v4.119ZM83.73,2.06a1.069,1.069,0,0,1-.76-.3.973.973,0,0,1-.315-.734A.972.972,0,0,1,82.969.3a1.069,1.069,0,0,1,.76-.3,1.1,1.1,0,0,1,.781.3.973.973,0,0,1,.312.733.974.974,0,0,1-.312.734A1.1,1.1,0,0,1,83.73,2.06Z" transform="translate(453 5410)" fill="#6c75ff"></path><path id="Fill_23" data-name="Fill 23" d="M90.316,12h-1.1V3.011H90l.128.968h.113c.02-.031.051-.075.087-.124a1.921,1.921,0,0,1,.264-.266,2.619,2.619,0,0,1,.472-.336,3.243,3.243,0,0,1,.711-.273,3.518,3.518,0,0,1,.959-.125,2.96,2.96,0,0,1,2.237.952,3.492,3.492,0,0,1,.895,2.48,3.5,3.5,0,0,1-.895,2.474,2.915,2.915,0,0,1-2.206.959,3.623,3.623,0,0,1-1.43-.257,1.923,1.923,0,0,1-.791-.523l-.175-.249h-.049V12Zm2.206-8.239a2.148,2.148,0,0,0-1.615.686,2.57,2.57,0,0,0-.655,1.841,2.567,2.567,0,0,0,.655,1.841,2.146,2.146,0,0,0,1.615.687,2.045,2.045,0,0,0,1.59-.71,2.651,2.651,0,0,0,.631-1.818,2.654,2.654,0,0,0-.631-1.818A2.046,2.046,0,0,0,92.522,3.761ZM81.958,12h-1.1V3.011h.784l.128.968h.112c.016-.025.039-.057.068-.1l.02-.028a1.882,1.882,0,0,1,.264-.266,2.589,2.589,0,0,1,.472-.336,3.244,3.244,0,0,1,.711-.273,3.514,3.514,0,0,1,.958-.125,2.957,2.957,0,0,1,2.237.952,3.489,3.489,0,0,1,.9,2.48,3.5,3.5,0,0,1-.9,2.474,2.911,2.911,0,0,1-2.205.959,3.625,3.625,0,0,1-1.431-.257,1.923,1.923,0,0,1-.791-.523l-.175-.249h-.048V12Zm2.205-8.239a2.147,2.147,0,0,0-1.614.686,2.57,2.57,0,0,0-.655,1.841,2.567,2.567,0,0,0,.655,1.841,2.145,2.145,0,0,0,1.614.687,2.045,2.045,0,0,0,1.59-.71,2.648,2.648,0,0,0,.632-1.818,2.651,2.651,0,0,0-.632-1.818A2.046,2.046,0,0,0,84.163,3.761ZM67.669,9.784a6.271,6.271,0,0,1-1.238-.117,4.86,4.86,0,0,1-1.615-.593,1.632,1.632,0,0,1-.391-.288l-.128-.11.608-.827c.076.065.18.147.319.25a4.035,4.035,0,0,0,.919.406,4.562,4.562,0,0,0,1.51.249,3.022,3.022,0,0,0,1.782-.429,1.391,1.391,0,0,0,.583-1.178,1.282,1.282,0,0,0-.527-1.061,6.548,6.548,0,0,0-2-.827,7.367,7.367,0,0,1-2.445-1.116,2,2,0,0,1-.735-1.63A2.178,2.178,0,0,1,65.224.679,4.107,4.107,0,0,1,67.717,0,7.238,7.238,0,0,1,68.9.094a4.893,4.893,0,0,1,.9.226,5.161,5.161,0,0,1,.6.274,1.79,1.79,0,0,1,.351.234l.113.094-.608.905a2.546,2.546,0,0,0-.28-.227,3.972,3.972,0,0,0-.847-.351,4.524,4.524,0,0,0-1.415-.219,3.057,3.057,0,0,0-1.63.391,1.226,1.226,0,0,0-.624,1.093A1.091,1.091,0,0,0,66,3.449a7.908,7.908,0,0,0,1.99.78,6.157,6.157,0,0,1,2.478,1.162,2.3,2.3,0,0,1,.7,1.741,2.357,2.357,0,0,1-.911,1.919A4.051,4.051,0,0,1,67.669,9.784Zm44.877-.062a1.771,1.771,0,0,1-2-2V3.885h-1.263V3.011h1.263v-2h1.1v2h2v.874h-2V7.74c0,.7.333,1.061.991,1.061a1.722,1.722,0,0,0,.472-.07,1.479,1.479,0,0,0,.375-.148l.144-.077.368.779A2.352,2.352,0,0,1,112.546,9.722Zm-12.049,0a3.33,3.33,0,0,1-2.4-.936,3.29,3.29,0,0,1-.967-2.466,3.387,3.387,0,0,1,.967-2.5,3.484,3.484,0,0,1,4.811.008,3.366,3.366,0,0,1,.983,2.5,3.281,3.281,0,0,1-.975,2.466A3.371,3.371,0,0,1,100.5,9.722Zm0-5.992a2.137,2.137,0,0,0-1.622.71A2.628,2.628,0,0,0,98.212,6.3a2.567,2.567,0,0,0,.663,1.849,2.241,2.241,0,0,0,3.244,0,2.576,2.576,0,0,0,.663-1.849,2.638,2.638,0,0,0-.663-1.865A2.146,2.146,0,0,0,100.5,3.73ZM75.389,9.722A2.524,2.524,0,0,1,73.383,8.9a3.234,3.234,0,0,1-.712-2.192v-3.7h1.1V6.585A2.628,2.628,0,0,0,74.238,8.2a1.61,1.61,0,0,0,1.374.616,1.838,1.838,0,0,0,1.454-.585,2.07,2.07,0,0,0,.544-1.272V3.011h1.1V9.566h-.7l-.193-.937H77.77a2.136,2.136,0,0,1-.3.383,2.68,2.68,0,0,1-.768.453A3.187,3.187,0,0,1,75.389,9.722Zm-22.966,0a2.834,2.834,0,0,1-1.894-.593,1.894,1.894,0,0,1-.695-1.5,1.84,1.84,0,0,1,.8-1.553A3.8,3.8,0,0,1,52.9,5.493a5.427,5.427,0,0,1,1.742.266V5.524c0-1.139-.645-1.716-1.918-1.716a3.506,3.506,0,0,0-.95.132,3.876,3.876,0,0,0-.712.257l-.239.14-.432-.889a4.582,4.582,0,0,1,2.414-.593c1.919,0,2.893.9,2.893,2.669V9.566h-.767L54.8,8.661h-.08A2.617,2.617,0,0,1,52.422,9.722ZM53,6.288c-1.357,0-2.046.441-2.046,1.311a1.125,1.125,0,0,0,.424.905,1.794,1.794,0,0,0,1.191.358,2.171,2.171,0,0,0,1.486-.523,1.631,1.631,0,0,0,.591-1.255V6.617A3.883,3.883,0,0,0,53,6.288ZM44.942,9.722A2.525,2.525,0,0,1,42.936,8.9a3.245,3.245,0,0,1-.711-2.192v-3.7h1.1V6.585A2.628,2.628,0,0,0,43.791,8.2a1.618,1.618,0,0,0,1.375.616,1.838,1.838,0,0,0,1.454-.585,2.055,2.055,0,0,0,.543-1.272V3.011h1.1V9.566h-.7l-.192-.937h-.048a2,2,0,0,1-.3.383,2.685,2.685,0,0,1-.767.453A3.187,3.187,0,0,1,44.942,9.722Zm-8.279,0A3,3,0,0,1,34.4,8.77a3.472,3.472,0,0,1-.9-2.481,3.494,3.494,0,0,1,.9-2.473,2.944,2.944,0,0,1,2.237-.959,3.885,3.885,0,0,1,.942.109,2.729,2.729,0,0,1,.688.257,3.022,3.022,0,0,1,.431.3,1.1,1.1,0,0,1,.24.257l.08.109h.048V.125h1.1V9.566H39.4l-.16-1.046h-.048c-.024.036-.054.087-.08.132a1.575,1.575,0,0,1-.264.289,2.881,2.881,0,0,1-.472.359,2.984,2.984,0,0,1-.719.289A3.652,3.652,0,0,1,36.663,9.722Zm.192-5.961a2.068,2.068,0,0,0-1.6.709,2.634,2.634,0,0,0-.639,1.818,2.631,2.631,0,0,0,.639,1.818,2.066,2.066,0,0,0,1.6.71,2.172,2.172,0,0,0,1.631-.687,2.567,2.567,0,0,0,.655-1.841,2.57,2.57,0,0,0-.655-1.841A2.175,2.175,0,0,0,36.855,3.761ZM14.384,9.722a3,3,0,0,1-2.261-.952,3.469,3.469,0,0,1-.9-2.481,3.5,3.5,0,0,1,.9-2.473,2.945,2.945,0,0,1,2.237-.959,3.9,3.9,0,0,1,.943.109,2.734,2.734,0,0,1,.687.257,2.885,2.885,0,0,1,.432.3,1.1,1.1,0,0,1,.239.257l.08.109h.048V.125h1.1V9.566h-.767l-.16-1.046h-.048l0,0c-.02.031-.047.074-.078.128a1.576,1.576,0,0,1-.264.289,2.779,2.779,0,0,1-.472.359,2.984,2.984,0,0,1-.719.289A3.633,3.633,0,0,1,14.384,9.722Zm.192-5.961a2.073,2.073,0,0,0-1.6.709,2.63,2.63,0,0,0-.64,1.818,2.627,2.627,0,0,0,.64,1.818,2.071,2.071,0,0,0,1.6.71,2.164,2.164,0,0,0,1.631-.687,2.567,2.567,0,0,0,.655-1.841,2.57,2.57,0,0,0-.655-1.841A2.166,2.166,0,0,0,14.576,3.761ZM4.6,9.567H3.5V3.011h.783l.1.968h.08A2.587,2.587,0,0,1,6.809,2.856a2.609,2.609,0,0,1,2.038.827,3.158,3.158,0,0,1,.743,2.184v3.7h-1.1V5.992a2.489,2.489,0,0,0-.5-1.607,1.722,1.722,0,0,0-1.414-.624,1.78,1.78,0,0,0-1.431.592A2.119,2.119,0,0,0,4.6,5.633V9.566Zm102.08,0h-1.1V3.011h.783l.1,1.155h.064a1.776,1.776,0,0,1,.76-.866,2.322,2.322,0,0,1,1.191-.3h.383V3.87h-.368A1.807,1.807,0,0,0,106.682,5.7V9.565Zm-47.756,0h-1.1V.125h1.1v9.44Zm-27.17,0h-1.1V3.011h1.1V9.565Zm-5.466,0h-.767L22.455,3.011h1.231l2.077,4.854a1.107,1.107,0,0,1,.112.436h.064a1.147,1.147,0,0,1,.129-.436l2.077-4.854H29.36L26.291,9.566Zm-5.13,0h-1.1V3.011h1.1V9.565Zm-20.042,0H0V.2H1.119V9.565ZM31.2,1.576a.731.731,0,0,1-.536-.211.685.685,0,0,1-.216-.507A.68.68,0,0,1,30.67.336a.766.766,0,0,1,1.055,0,.691.691,0,0,1,.224.523.685.685,0,0,1-.216.507A.74.74,0,0,1,31.2,1.576Zm-10.6,0a.74.74,0,0,1-.536-.211A.688.688,0,0,1,19.85.859a.7.7,0,0,1,.223-.523A.751.751,0,0,1,20.6.125a.742.742,0,0,1,.527.211.68.68,0,0,1,.224.523.685.685,0,0,1-.216.507A.731.731,0,0,1,20.6,1.576Z" transform="translate(552 5213)" fill="#082463"></path><path id="Fill_25" data-name="Fill 25" d="M92.453,12h-1.1V2.917h.783l.128.978h.112c.013-.021.032-.047.054-.078l.034-.049a1.941,1.941,0,0,1,.264-.267,2.588,2.588,0,0,1,.472-.339,3.186,3.186,0,0,1,.711-.276,3.516,3.516,0,0,1,.959-.126,2.943,2.943,0,0,1,2.237.962A3.551,3.551,0,0,1,98,6.229a3.561,3.561,0,0,1-.9,2.5A2.9,2.9,0,0,1,94.9,9.7a3.589,3.589,0,0,1-1.43-.26,1.89,1.89,0,0,1-.791-.528L92.5,8.657h-.048V12Zm2.206-8.326a2.138,2.138,0,0,0-1.615.694,2.612,2.612,0,0,0-.655,1.861,2.611,2.611,0,0,0,.655,1.86,2.136,2.136,0,0,0,1.615.694,2.036,2.036,0,0,0,1.59-.717,2.7,2.7,0,0,0,.632-1.837,2.7,2.7,0,0,0-.632-1.837A2.034,2.034,0,0,0,94.659,3.674ZM60,9.714a3.281,3.281,0,0,1-2.47-.954,3.491,3.491,0,0,1-.919-2.515,3.668,3.668,0,0,1,.863-2.507,2.915,2.915,0,0,1,2.286-.977,2.694,2.694,0,0,1,2.182.931,3.593,3.593,0,0,1,.776,2.365v.268h-5a2.479,2.479,0,0,0,.671,1.821,2.308,2.308,0,0,0,1.679.639,3.286,3.286,0,0,0,1.022-.158,2.179,2.179,0,0,0,.671-.316l.208-.157.416.788c-.056.055-.139.128-.24.213a3.01,3.01,0,0,1-.775.347A4.182,4.182,0,0,1,60,9.714ZM59.749,3.69a1.847,1.847,0,0,0-1.966,1.75h3.8A1.741,1.741,0,0,0,59.749,3.69ZM86.268,9.7A3.276,3.276,0,0,1,82.895,6.26a3.44,3.44,0,0,1,.967-2.531,3.458,3.458,0,0,1,4.811.007,3.423,3.423,0,0,1,.983,2.524A3.287,3.287,0,0,1,86.268,9.7Zm0-6.055a2.13,2.13,0,0,0-1.623.718,2.673,2.673,0,0,0-.663,1.884,2.612,2.612,0,0,0,.663,1.868,2.225,2.225,0,0,0,3.245,0,2.618,2.618,0,0,0,.664-1.868,2.679,2.679,0,0,0-.664-1.884A2.132,2.132,0,0,0,86.268,3.642ZM78.259,9.7A3.276,3.276,0,0,1,74.886,6.26a3.44,3.44,0,0,1,.968-2.531,3.458,3.458,0,0,1,4.811.007,3.423,3.423,0,0,1,.983,2.524A3.287,3.287,0,0,1,78.259,9.7Zm0-6.055a2.13,2.13,0,0,0-1.623.718,2.673,2.673,0,0,0-.663,1.884,2.612,2.612,0,0,0,.663,1.868,2.226,2.226,0,0,0,3.245,0,2.622,2.622,0,0,0,.663-1.868,2.682,2.682,0,0,0-.663-1.884A2.136,2.136,0,0,0,78.259,3.642ZM43.973,9.7a1.78,1.78,0,0,1-2-2.018V3.8H40.712V2.917h1.263V.9h1.1V2.917h2V3.8h-2V7.7c0,.712.333,1.073.991,1.073A1.723,1.723,0,0,0,44.54,8.7a1.55,1.55,0,0,0,.376-.15l.144-.078.367.788A2.334,2.334,0,0,1,43.973,9.7Zm-6.106,0a3.2,3.2,0,0,1-2.406-.954,3.466,3.466,0,0,1-.919-2.5,3.505,3.505,0,0,1,.927-2.515,3.179,3.179,0,0,1,2.4-.97A4.478,4.478,0,0,1,39.05,2.9a1.852,1.852,0,0,1,.687.3l.176.141-.336.82a2.65,2.65,0,0,0-1.647-.489,2.143,2.143,0,0,0-1.622.687,2.644,2.644,0,0,0-.648,1.884,2.6,2.6,0,0,0,.64,1.876,2.174,2.174,0,0,0,1.63.662,2.954,2.954,0,0,0,.863-.126,2.441,2.441,0,0,0,.608-.252l.176-.111.3.82a1.8,1.8,0,0,1-.192.157,2.808,2.808,0,0,1-.647.26A3.867,3.867,0,0,1,37.867,9.7Zm-8.248,0a2.817,2.817,0,0,1-1.894-.6,1.924,1.924,0,0,1-.695-1.514,1.864,1.864,0,0,1,.8-1.57,3.783,3.783,0,0,1,2.27-.591,5.369,5.369,0,0,1,1.742.268V5.456c0-1.151-.646-1.734-1.919-1.734a3.474,3.474,0,0,0-.95.134,3.813,3.813,0,0,0-.712.26l-.239.142-.432-.9A4.542,4.542,0,0,1,30,2.759c1.92,0,2.894.907,2.894,2.7V9.54h-.768L32,8.626h-.08A2.6,2.6,0,0,1,29.619,9.7Zm.575-3.469c-1.357,0-2.046.445-2.046,1.324a1.164,1.164,0,0,0,.424.915,1.78,1.78,0,0,0,1.191.363A2.156,2.156,0,0,0,31.25,8.3a1.656,1.656,0,0,0,.591-1.27V6.56A3.846,3.846,0,0,0,30.194,6.229ZM16.16,9.7A3.276,3.276,0,0,1,12.787,6.26a3.44,3.44,0,0,1,.967-2.531,3.458,3.458,0,0,1,4.811.007,3.423,3.423,0,0,1,.983,2.524A3.287,3.287,0,0,1,16.16,9.7Zm0-6.055a2.13,2.13,0,0,0-1.623.718,2.679,2.679,0,0,0-.663,1.884,2.619,2.619,0,0,0,.663,1.868,2.225,2.225,0,0,0,3.245,0,2.618,2.618,0,0,0,.663-1.868,2.679,2.679,0,0,0-.663-1.884A2.126,2.126,0,0,0,16.16,3.642Zm58.118,5.9H68.173V.079h1.119V8.515h4.987V9.539Zm-21.354,0h-.768L49.088,2.917h1.231l2.078,4.9a1.13,1.13,0,0,1,.112.442h.064a1.188,1.188,0,0,1,.128-.442l2.078-4.9h1.215L52.925,9.539Zm-5.131,0h-1.1V2.917h1.1V9.539Zm-37.8,0h-1.1V2.917H9.67l.1,1.167h.064a1.814,1.814,0,0,1,.759-.876A2.306,2.306,0,0,1,11.78,2.9h.384v.883H11.8a1.758,1.758,0,0,0-1.271.528A1.783,1.783,0,0,0,9.99,5.63v3.91Zm-8.871,0H0V.079H3.772A4.049,4.049,0,0,1,6.457.891a2.91,2.91,0,0,1,.959,2.342,3.038,3.038,0,0,1-.991,2.428,4.055,4.055,0,0,1-2.718.851H1.119V9.539Zm0-8.437V5.487H3.74c1.686,0,2.542-.748,2.542-2.223A1.954,1.954,0,0,0,5.6,1.648,2.915,2.915,0,0,0,3.74,1.1ZM25.591,6.386H21.115V5.472h4.476v.913Zm21.643-4.92a.725.725,0,0,1-.535-.212.7.7,0,0,1-.216-.513.7.7,0,0,1,.224-.527.759.759,0,0,1,1.055,0,.7.7,0,0,1,.224.527.7.7,0,0,1-.216.513A.735.735,0,0,1,47.234,1.466Z" transform="translate(390 5296)" fill="#082463"></path><path id="Fill_26" data-name="Fill 26" d="M56.161,12H55.054V3.011h.786l.129.967h.112c.02-.03.048-.07.088-.124a1.884,1.884,0,0,1,.265-.266,2.633,2.633,0,0,1,.473-.336,3.272,3.272,0,0,1,.714-.273,3.541,3.541,0,0,1,.963-.125,2.975,2.975,0,0,1,2.246.952,3.483,3.483,0,0,1,.9,2.48,3.5,3.5,0,0,1-.9,2.474,2.929,2.929,0,0,1-2.214.959,3.653,3.653,0,0,1-1.436-.257,1.935,1.935,0,0,1-.795-.523l-.176-.249h-.048V12Zm2.214-8.239a2.16,2.16,0,0,0-1.621.686A2.563,2.563,0,0,0,56.1,6.288a2.56,2.56,0,0,0,.657,1.841,2.158,2.158,0,0,0,1.621.687,2.057,2.057,0,0,0,1.6-.71,2.644,2.644,0,0,0,.634-1.818,2.648,2.648,0,0,0-.634-1.818A2.058,2.058,0,0,0,58.375,3.761Zm38.846,7.724h0l-.192-.623a1.874,1.874,0,0,0,.882-.437,1.073,1.073,0,0,0,.369-.717.688.688,0,0,1-.449-.235.725.725,0,0,1,.041-.991.791.791,0,0,1,1.075,0A.7.7,0,0,1,99.162,9v.125a2.271,2.271,0,0,1-1.94,2.356Zm-65.321,0h0l-.192-.623a1.9,1.9,0,0,0,.882-.437,1.068,1.068,0,0,0,.369-.717.68.68,0,0,1-.449-.235.725.725,0,0,1,.041-.991.791.791,0,0,1,1.075,0A.7.7,0,0,1,33.841,9v.125a2.269,2.269,0,0,1-1.94,2.356Zm77.195-1.7a4.59,4.59,0,0,1-3.458-1.4A4.871,4.871,0,0,1,104.3,4.9a4.88,4.88,0,0,1,1.34-3.5A4.6,4.6,0,0,1,109.094,0a4.961,4.961,0,0,1,1.765.3,3.62,3.62,0,0,1,1.123.6l.305.3-.642.842c-.072-.069-.173-.161-.313-.281a3.719,3.719,0,0,0-.859-.453,3.58,3.58,0,0,0-4,.843A3.94,3.94,0,0,0,105.452,4.9a3.9,3.9,0,0,0,1.035,2.731,3.425,3.425,0,0,0,2.623,1.123,3.65,3.65,0,0,0,.858-.1,3.19,3.19,0,0,0,.715-.249,4.592,4.592,0,0,0,.513-.3c.142-.1.258-.184.338-.25l.113-.109.642.842c-.027.026-.062.063-.1.106l-.026.027a2.661,2.661,0,0,1-.377.288,4.262,4.262,0,0,1-.634.359,4.93,4.93,0,0,1-.891.289A5.058,5.058,0,0,1,109.094,9.784Zm62.177-.047a3.316,3.316,0,0,1-2.479-.944,3.423,3.423,0,0,1-.923-2.488,3.6,3.6,0,0,1,.866-2.481,2.943,2.943,0,0,1,2.295-.967,2.724,2.724,0,0,1,2.191.921A3.525,3.525,0,0,1,174,6.117v.265h-5.022a2.437,2.437,0,0,0,.674,1.8,2.339,2.339,0,0,0,1.685.632,3.345,3.345,0,0,0,1.027-.156,2.231,2.231,0,0,0,.674-.312l.208-.156.418.78c-.057.056-.141.128-.241.211a3.055,3.055,0,0,1-.778.343A4.265,4.265,0,0,1,171.272,9.737Zm-.257-5.961a1.846,1.846,0,0,0-1.974,1.733h3.819A1.737,1.737,0,0,0,171.015,3.776Zm-21.63,5.961a3.325,3.325,0,0,1-2.48-.944,3.423,3.423,0,0,1-.923-2.488,3.6,3.6,0,0,1,.867-2.481,2.942,2.942,0,0,1,2.294-.967,2.722,2.722,0,0,1,2.191.921,3.518,3.518,0,0,1,.779,2.341v.265h-5.023a2.441,2.441,0,0,0,.674,1.8,2.345,2.345,0,0,0,1.685.632,3.337,3.337,0,0,0,1.027-.156,2.222,2.222,0,0,0,.674-.312l.209-.156.417.78c-.056.054-.139.126-.24.211a3.068,3.068,0,0,1-.779.343A4.247,4.247,0,0,1,149.386,9.737Zm-.256-5.961a1.846,1.846,0,0,0-1.974,1.733h3.819A1.737,1.737,0,0,0,149.129,3.776ZM93.514,9.737a3.325,3.325,0,0,1-2.479-.944A3.432,3.432,0,0,1,90.112,6.3a3.6,3.6,0,0,1,.867-2.481,2.943,2.943,0,0,1,2.295-.967,2.716,2.716,0,0,1,2.19.921,3.518,3.518,0,0,1,.778,2.341v.265H91.22a2.454,2.454,0,0,0,.673,1.8,2.345,2.345,0,0,0,1.685.632A3.336,3.336,0,0,0,94.6,8.661a2.21,2.21,0,0,0,.674-.312l.209-.156.418.78c-.051.051-.132.122-.241.211a3,3,0,0,1-.778.343A4.239,4.239,0,0,1,93.514,9.737Zm-.257-5.961a1.848,1.848,0,0,0-1.974,1.733H95.1A1.737,1.737,0,0,0,93.257,3.776ZM28.193,9.737a3.321,3.321,0,0,1-2.479-.944A3.42,3.42,0,0,1,24.791,6.3a3.6,3.6,0,0,1,.866-2.481,2.943,2.943,0,0,1,2.3-.967,2.721,2.721,0,0,1,2.19.921,3.514,3.514,0,0,1,.778,2.341v.265H25.9a2.437,2.437,0,0,0,.673,1.8,2.349,2.349,0,0,0,1.686.632,3.345,3.345,0,0,0,1.027-.156,2.212,2.212,0,0,0,.673-.312l.209-.156.418.78c-.053.052-.132.12-.241.211a3.04,3.04,0,0,1-.778.343A4.249,4.249,0,0,1,28.193,9.737Zm-.257-5.961a1.846,1.846,0,0,0-1.974,1.733h3.819A1.737,1.737,0,0,0,27.936,3.776Zm136.9,5.945a3.234,3.234,0,0,1-2.415-.944A3.4,3.4,0,0,1,161.5,6.3a3.436,3.436,0,0,1,.931-2.489,3.213,3.213,0,0,1,2.407-.959,4.546,4.546,0,0,1,1.187.14,1.9,1.9,0,0,1,.69.3l.176.14-.337.812a2.691,2.691,0,0,0-1.653-.483,2.168,2.168,0,0,0-1.628.679,2.6,2.6,0,0,0-.65,1.865,2.548,2.548,0,0,0,.642,1.857,2.2,2.2,0,0,0,1.636.655,3.014,3.014,0,0,0,.867-.124,2.547,2.547,0,0,0,.61-.25l.176-.109.305.811c-.047.044-.114.1-.193.157a2.9,2.9,0,0,1-.651.257A3.962,3.962,0,0,1,164.838,9.722Zm-24.085,0a3.017,3.017,0,0,1-2.271-.952,3.463,3.463,0,0,1-.906-2.481,3.488,3.488,0,0,1,.9-2.473,2.966,2.966,0,0,1,2.246-.959,3.927,3.927,0,0,1,.947.109,2.754,2.754,0,0,1,.69.257,3.1,3.1,0,0,1,.433.3,1.093,1.093,0,0,1,.241.257l.08.109h.048V.125h1.108V9.566h-.77l-.161-1.046h-.048c-.023.032-.048.076-.08.132a1.653,1.653,0,0,1-.265.289,2.927,2.927,0,0,1-.473.359,3.024,3.024,0,0,1-.723.289A3.675,3.675,0,0,1,140.753,9.722Zm.193-5.961a2.08,2.08,0,0,0-1.6.709,2.624,2.624,0,0,0-.642,1.818,2.621,2.621,0,0,0,.642,1.818,2.079,2.079,0,0,0,1.6.71,2.185,2.185,0,0,0,1.637-.687,2.56,2.56,0,0,0,.658-1.841,2.564,2.564,0,0,0-.658-1.841A2.187,2.187,0,0,0,140.945,3.761ZM116.6,9.722a3.362,3.362,0,0,1-2.416-.936,3.291,3.291,0,0,1-.97-2.466,3.387,3.387,0,0,1,.97-2.5,3.509,3.509,0,0,1,4.83.008,3.358,3.358,0,0,1,.986,2.5,3.268,3.268,0,0,1-.978,2.466A3.383,3.383,0,0,1,116.6,9.722Zm0-5.992a2.159,2.159,0,0,0-1.629.71,2.631,2.631,0,0,0-.666,1.865,2.57,2.57,0,0,0,.666,1.849,2.256,2.256,0,0,0,3.257,0A2.561,2.561,0,0,0,118.9,6.3a2.622,2.622,0,0,0-.666-1.865A2.15,2.15,0,0,0,116.6,3.73ZM80.693,9.722A2.547,2.547,0,0,1,78.679,8.9a3.237,3.237,0,0,1-.714-2.192v-3.7h1.107V6.585A2.632,2.632,0,0,0,79.538,8.2a1.627,1.627,0,0,0,1.38.616,1.843,1.843,0,0,0,1.461-.585,2.037,2.037,0,0,0,.545-1.272V3.011H84.03V9.566h-.706l-.193-.937h-.049a2.032,2.032,0,0,1-.3.382,2.7,2.7,0,0,1-.77.453A3.212,3.212,0,0,1,80.693,9.722Zm-6.9,0a5.525,5.525,0,0,1-1.54-.2,3.073,3.073,0,0,1-.947-.406l-.273-.2.5-.749a1.732,1.732,0,0,0,.288.179,5.176,5.176,0,0,0,.795.282,4.269,4.269,0,0,0,1.211.179c1.022,0,1.541-.326,1.541-.967a.741.741,0,0,0-.45-.655,4.4,4.4,0,0,0-1.083-.406c-.422-.1-.848-.222-1.267-.351A2.71,2.71,0,0,1,71.483,5.8a1.444,1.444,0,0,1-.449-1.084,1.665,1.665,0,0,1,.626-1.342,2.893,2.893,0,0,1,1.861-.515,7.367,7.367,0,0,1,1.42.132,4.283,4.283,0,0,1,.955.274l.289.124-.449.921a3.906,3.906,0,0,0-2.119-.53c-1.033,0-1.556.3-1.556.905a.7.7,0,0,0,.449.608,4.487,4.487,0,0,0,1.084.374c.436.1.863.209,1.267.336a2.6,2.6,0,0,1,1.083.64,1.543,1.543,0,0,1,.45,1.147,1.758,1.758,0,0,1-.635,1.389A2.968,2.968,0,0,1,73.793,9.722Zm-7.411,0a3.352,3.352,0,0,1-2.415-.936A3.283,3.283,0,0,1,63,6.32a3.379,3.379,0,0,1,.971-2.5,3.508,3.508,0,0,1,4.829.008,3.358,3.358,0,0,1,.986,2.5,3.274,3.274,0,0,1-.978,2.466A3.392,3.392,0,0,1,66.382,9.722Zm0-5.992a2.153,2.153,0,0,0-1.629.71A2.622,2.622,0,0,0,64.087,6.3a2.561,2.561,0,0,0,.666,1.849,2.256,2.256,0,0,0,3.257,0A2.567,2.567,0,0,0,68.676,6.3,2.628,2.628,0,0,0,68.01,4.44,2.155,2.155,0,0,0,66.382,3.73Zm88.475,5.837H153.75V3.011h.787l.1.967h.08a2.995,2.995,0,0,1,4.4-.3,3.151,3.151,0,0,1,.746,2.184v3.7h-1.107V5.992a2.48,2.48,0,0,0-.506-1.607,1.73,1.73,0,0,0-1.419-.624,1.789,1.789,0,0,0-1.436.592,2.094,2.094,0,0,0-.537,1.28V9.566Zm-32.045,0h-1.107V3.011h.787l.1.967h.08a2.995,2.995,0,0,1,4.4-.3,3.15,3.15,0,0,1,.746,2.184v3.7h-1.107V5.992a2.48,2.48,0,0,0-.506-1.607,1.731,1.731,0,0,0-1.42-.624,1.788,1.788,0,0,0-1.436.592,2.112,2.112,0,0,0-.538,1.28V9.566Zm-104.584,0H17.121V5.727a2.022,2.022,0,0,0-.5-1.42,1.847,1.847,0,0,0-1.42-.545,1.719,1.719,0,0,0-1.388.562,2.146,2.146,0,0,0-.522,1.248v4H12.179V3.011h.787l.1.967h.08a2.628,2.628,0,0,1,.931-.858,2.985,2.985,0,0,1,1.363-.266A2.6,2.6,0,0,1,17.859,4.1h.081a2.679,2.679,0,0,1,2.454-1.248,2.58,2.58,0,0,1,2.03.827,3.194,3.194,0,0,1,.73,2.184v3.7H22.047V5.992a2.535,2.535,0,0,0-.49-1.615,1.7,1.7,0,0,0-1.4-.616,1.778,1.778,0,0,0-1.42.569,2,2,0,0,0-.5,1.288V9.566Zm30.31,0H47.287l2.568-3.418-2.39-3.137h1.283L50.5,5.461h.049l1.765-2.45h1.267L51.17,6.148l2.582,3.417-1.282,0L50.545,6.835H50.5L48.539,9.566Zm87.289,0h-1.108V3.011h1.108V9.565Zm-4.413,0h-1.108V3.885h-1.267V3.011h1.267V2.2a2.165,2.165,0,0,1,.6-1.607A2.272,2.272,0,0,1,132.569,0a3.424,3.424,0,0,1,.754.078,2.454,2.454,0,0,1,.514.156l.144.078-.337.874a2.319,2.319,0,0,0-1.059-.234,1.154,1.154,0,0,0-.859.32,1.256,1.256,0,0,0-.312.913v.827h2.005v.874h-2.005v5.68Zm-44.127,0H86.18V3.011h.787l.1,1.155h.064A1.809,1.809,0,0,1,87.89,3.3a2.349,2.349,0,0,1,1.2-.3h.385V3.87H89.1a1.775,1.775,0,0,0-1.275.523,1.757,1.757,0,0,0-.538,1.3V9.565Zm-40.9,0H39.633V.2h6.755V1.217H40.757V4.323h4.814V5.337H40.757V8.552h5.632V9.565ZM10,9.566H8.889V3.011H10V9.565Zm-5.68,0H3.193V1.217H0V.2H7.526V1.217H4.316V9.565Zm130.949-7.99a.737.737,0,0,1-.538-.211.685.685,0,0,1-.216-.507.68.68,0,0,1,.224-.523.771.771,0,0,1,1.059,0,.689.689,0,0,1,.225.523.686.686,0,0,1-.217.507A.745.745,0,0,1,135.266,1.576Zm-125.831,0A.745.745,0,0,1,8.9,1.365.686.686,0,0,1,8.681.859.689.689,0,0,1,8.906.336a.771.771,0,0,1,1.059,0,.68.68,0,0,1,.224.523.685.685,0,0,1-.216.507A.737.737,0,0,1,9.435,1.576Z" transform="translate(523 5449)" fill="#082463"></path><path id="Fill_27" data-name="Fill 27" d="M16,13a4.11,4.11,0,0,1-2.353-.549A1.71,1.71,0,0,1,12.871,11a1.747,1.747,0,0,1,1.228-1.6,1.518,1.518,0,0,1-1.211-1.488,1.357,1.357,0,0,1,.941-1.326,2.321,2.321,0,0,1-.335-1.228,2.322,2.322,0,0,1,.67-1.674,2.475,2.475,0,0,1,1.85-.687,3.33,3.33,0,0,1,.957.129h2.265v.89H18.182v.048c.275.183.415.63.415,1.327a2.2,2.2,0,0,1-.686,1.592,2.568,2.568,0,0,1-1.9.688A2.746,2.746,0,0,1,14.4,7.2c-.37.15-.558.378-.558.679a.562.562,0,0,0,.151.412,1.71,1.71,0,0,0,.718.3,8.4,8.4,0,0,0,1.6.193,4.561,4.561,0,0,1,2.36.582,1.664,1.664,0,0,1,.686,1.423,1.894,1.894,0,0,1-.909,1.569A4.185,4.185,0,0,1,16,13Zm-.717-3.346c-.889.3-1.34.745-1.34,1.326a.948.948,0,0,0,.518.808A2.953,2.953,0,0,0,16,12.11a3.25,3.25,0,0,0,1.7-.364,1.064,1.064,0,0,0,.581-.913c0-.7-.66-1.073-1.961-1.116C15.824,9.7,15.484,9.674,15.279,9.653Zm.733-5.789a1.586,1.586,0,0,0-1.165.428,1.421,1.421,0,0,0-.43,1.043,1.386,1.386,0,0,0,.43,1.042,1.619,1.619,0,0,0,1.165.413,1.7,1.7,0,0,0,1.2-.413,1.371,1.371,0,0,0,.438-1.042,1.4,1.4,0,0,0-.438-1.043A1.661,1.661,0,0,0,16.013,3.865ZM90.732,10.09a3.231,3.231,0,0,1-2.464-.978,3.646,3.646,0,0,1-.917-2.579,3.823,3.823,0,0,1,.861-2.57,2.868,2.868,0,0,1,2.282-1,2.647,2.647,0,0,1,2.176.954,3.74,3.74,0,0,1,.774,2.426v.274H88.451a2.6,2.6,0,0,0,.67,1.868,2.281,2.281,0,0,0,1.675.655,3.2,3.2,0,0,0,1.021-.162,2.172,2.172,0,0,0,.671-.323l.207-.162.415.808a3.1,3.1,0,0,1-.239.219,2.918,2.918,0,0,1-.774.355A4.054,4.054,0,0,1,90.732,10.09Zm-.255-6.177a1.864,1.864,0,0,0-1.962,1.795h3.8C92.153,4.517,91.536,3.913,90.477,3.913ZM31.819,10.09a3.225,3.225,0,0,1-2.464-.978,3.636,3.636,0,0,1-.917-2.579,3.823,3.823,0,0,1,.861-2.57,2.867,2.867,0,0,1,2.281-1,2.655,2.655,0,0,1,2.177.954,3.753,3.753,0,0,1,.773,2.426v.274H29.538a2.585,2.585,0,0,0,.67,1.868,2.272,2.272,0,0,0,1.675.655A3.2,3.2,0,0,0,32.9,8.974a2.175,2.175,0,0,0,.67-.323l.207-.162.415.808c-.058.059-.141.134-.239.219a2.983,2.983,0,0,1-.773.355A4.069,4.069,0,0,1,31.819,10.09Zm-.256-6.177A1.862,1.862,0,0,0,29.6,5.708h3.8C33.239,4.517,32.622,3.913,31.563,3.913Zm73.985,6.16A1.8,1.8,0,0,1,103.555,8V4.026h-1.26V3.12h1.26V1.051h1.1V3.12h1.993v.905h-1.993V8.02c0,.73.333,1.1.989,1.1a1.65,1.65,0,0,0,.47-.073,1.457,1.457,0,0,0,.375-.154l.143-.081.367.809A2.287,2.287,0,0,1,105.548,10.074Zm-51,0a2.473,2.473,0,0,1-2-.85,3.436,3.436,0,0,1-.709-2.272V3.12h1.1v3.7A2.8,2.8,0,0,0,53.4,8.5a1.586,1.586,0,0,0,1.372.639,1.8,1.8,0,0,0,1.452-.607,2.185,2.185,0,0,0,.543-1.318V3.12h1.1V9.912h-.7l-.192-.97h-.048a2.192,2.192,0,0,1-.3.4,2.668,2.668,0,0,1-.766.469A3.077,3.077,0,0,1,54.545,10.074ZM96.17,9.913h-1.1V3.12h.782l.1,1h.08a2.9,2.9,0,0,1,4.378-.307,3.35,3.35,0,0,1,.742,2.264V9.911h-1.1v-3.7a2.649,2.649,0,0,0-.5-1.666A1.693,1.693,0,0,0,98.132,3.9a1.746,1.746,0,0,0-1.427.614,2.242,2.242,0,0,0-.535,1.327V9.912Zm-15.342,0h-1.1V5.934a2.142,2.142,0,0,0-.5-1.471A1.8,1.8,0,0,0,77.813,3.9a1.679,1.679,0,0,0-1.38.582,2.28,2.28,0,0,0-.518,1.293V9.912h-1.1V3.12H75.6l.1,1h.08a2.709,2.709,0,0,1,.925-.889,2.877,2.877,0,0,1,1.355-.274,2.561,2.561,0,0,1,2.408,1.293h.08a2.634,2.634,0,0,1,2.44-1.293A2.505,2.505,0,0,1,85,3.816a3.4,3.4,0,0,1,.725,2.264V9.911h-1.1v-3.7a2.7,2.7,0,0,0-.486-1.674,1.653,1.653,0,0,0-1.4-.638,1.733,1.733,0,0,0-1.411.59,2.143,2.143,0,0,0-.5,1.335V9.912Zm-58.978,0h-1.1V.13h1.1V3.784H21.9a2.666,2.666,0,0,1,2.137-.824,2.555,2.555,0,0,1,2.033.857A3.35,3.35,0,0,1,26.81,6.08V9.911h-1.1V6.225a2.707,2.707,0,0,0-.494-1.682,1.668,1.668,0,0,0-1.4-.646,1.738,1.738,0,0,0-1.427.622,2.25,2.25,0,0,0-.535,1.335V9.912Zm-20.734,0H0V.211H1.116v4.4H6.539V.211H7.655v9.7H6.539V5.659H1.116V9.912Zm71.514,0h-1.1V.13h1.1V9.911Zm-3.317,0h-1.1V3.12h1.1v6.79Zm-4.384,0h-1.1V4.026h-1.26V3.12h1.26V2.28a2.3,2.3,0,0,1,.6-1.665A2.2,2.2,0,0,1,66.077,0a3.317,3.317,0,0,1,.75.081,2.458,2.458,0,0,1,.51.161l.143.081-.335.905A2.251,2.251,0,0,0,66.092.986a1.121,1.121,0,0,0-.853.331,1.336,1.336,0,0,0-.311.946V3.12h1.994v.905H64.929V9.911Zm-3.78,0h-1.1V.13h1.1V9.911Zm-15.854,0H44.179V.211h6.714v1.05H45.3V4.479H50.08V5.53H45.3V9.911Zm-8.038,0h-1.1V3.12h.781l.1,1.2H37.1a1.845,1.845,0,0,1,.758-.9A2.243,2.243,0,0,1,39.043,3.1h.383V4.01h-.367a1.724,1.724,0,0,0-1.268.541,1.855,1.855,0,0,0-.534,1.35V9.911Zm-26.093,0h-1.1V3.12h1.1v6.79Zm57.59-8.278a.722.722,0,0,1-.535-.219A.724.724,0,0,1,68,.889a.735.735,0,0,1,.223-.542.744.744,0,0,1,1.052,0A.718.718,0,0,1,69.5.889a.724.724,0,0,1-.215.526A.721.721,0,0,1,68.755,1.634Zm-58.148,0a.722.722,0,0,1-.535-.219A.724.724,0,0,1,9.857.889a.753.753,0,0,1,.75-.76.734.734,0,0,1,.526.218.73.73,0,0,1,.223.542.724.724,0,0,1-.215.526A.721.721,0,0,1,10.607,1.634Z" transform="translate(854 5441)" fill="#082463"></path><path id="Fill_28" data-name="Fill 28" d="M61.857,11a3.883,3.883,0,0,1-2.884-1.08,3.813,3.813,0,0,1-1.068-2.8,3.954,3.954,0,0,1,1.014-2.782,3.459,3.459,0,0,1,2.651-1.1,3.228,3.228,0,0,1,2.522,1.01A3.838,3.838,0,0,1,65,6.912l-.018.456H59.63a2.366,2.366,0,0,0,.69,1.657,2.336,2.336,0,0,0,1.645.572,3.6,3.6,0,0,0,1.077-.158,2.259,2.259,0,0,0,.718-.333l.234-.157.628,1.175a1.58,1.58,0,0,1-.287.245,4.432,4.432,0,0,1-.916.386A4.82,4.82,0,0,1,61.857,11Zm-.323-6.421A1.733,1.733,0,0,0,59.7,6.228h3.538A1.607,1.607,0,0,0,61.534,4.579ZM13.686,11A3.881,3.881,0,0,1,10.8,9.92a3.814,3.814,0,0,1-1.07-2.8,3.954,3.954,0,0,1,1.016-2.782,3.456,3.456,0,0,1,2.648-1.1,3.228,3.228,0,0,1,2.524,1.01,3.839,3.839,0,0,1,.906,2.657l-.018.456H11.459a2.366,2.366,0,0,0,.693,1.657,2.332,2.332,0,0,0,1.642.572,3.6,3.6,0,0,0,1.077-.158,2.259,2.259,0,0,0,.718-.333l.234-.157.628,1.175a1.58,1.58,0,0,1-.287.245,4.432,4.432,0,0,1-.916.386A4.82,4.82,0,0,1,13.686,11Zm-.323-6.421a1.733,1.733,0,0,0-1.832,1.649h3.538A1.607,1.607,0,0,0,13.363,4.579Zm41.309,6.386a3.8,3.8,0,0,1-2.8-1.078,3.761,3.761,0,0,1-1.077-2.764,3.71,3.71,0,0,1,3.879-3.877,5,5,0,0,1,1.3.158,2.582,2.582,0,0,1,.818.333l.216.157-.485,1.264A2.94,2.94,0,0,0,54.8,4.667a2.111,2.111,0,0,0-1.6.667,2.512,2.512,0,0,0-.629,1.789A2.443,2.443,0,0,0,53.2,8.9a2.155,2.155,0,0,0,1.6.639,3.208,3.208,0,0,0,.88-.122,3.069,3.069,0,0,0,.646-.246l.2-.123L56.99,10.3a1.994,1.994,0,0,1-.234.185,3.286,3.286,0,0,1-.764.3A4.53,4.53,0,0,1,54.672,10.965Zm-14.135,0a3.868,3.868,0,0,1-2.749-1.052,3.653,3.653,0,0,1-1.113-2.772,3.753,3.753,0,0,1,1.113-2.815,4.036,4.036,0,0,1,5.5.008,3.755,3.755,0,0,1,1.123,2.807A3.653,3.653,0,0,1,43.3,9.913,3.89,3.89,0,0,1,40.538,10.965Zm0-6.35A1.986,1.986,0,0,0,39,5.308a2.63,2.63,0,0,0-.618,1.814,2.592,2.592,0,0,0,.61,1.8,2.105,2.105,0,0,0,3.09,0,2.592,2.592,0,0,0,.61-1.8,2.63,2.63,0,0,0-.62-1.814A1.984,1.984,0,0,0,40.538,4.614ZM24.175,10.79h-1.76V3.421h1.149l.215,1.053h.108A2.853,2.853,0,0,1,26.42,3.245a3.011,3.011,0,0,1,2.3.9,3.41,3.41,0,0,1,.844,2.413v4.227H27.8V6.719a2.16,2.16,0,0,0-.477-1.439,1.646,1.646,0,0,0-1.319-.561,1.7,1.7,0,0,0-1.3.509,1.9,1.9,0,0,0-.529,1.158v4.4Zm-22.4,0H0V.263H4.436a4.524,4.524,0,0,1,3.018.948A3.223,3.223,0,0,1,8.567,3.79a3.35,3.35,0,0,1-.61,2.027,3.522,3.522,0,0,1-1.67,1.219v.087l2.586,3.421v.245H6.915L4.346,7.316H1.778v3.473Zm0-8.983V5.772H4.454a2.553,2.553,0,0,0,1.644-.5,1.786,1.786,0,0,0,.619-1.466,1.813,1.813,0,0,0-.629-1.491,2.706,2.706,0,0,0-1.742-.508Zm46.087,8.982h-1.76V3.421h1.149L47.471,4.6h.09A2.22,2.22,0,0,1,49.715,3.4h.413V4.842h-.413a1.822,1.822,0,0,0-1.3.508,1.79,1.79,0,0,0-.546,1.3v4.139Zm-13.937,0h-1.76V4.772H30.821V3.421h1.347V2.789A2.745,2.745,0,0,1,32.886.782,2.708,2.708,0,0,1,34.9.052a4.509,4.509,0,0,1,.9.088,2.833,2.833,0,0,1,.611.176L36.6.4l-.556,1.3a2.208,2.208,0,0,0-.97-.194,1.117,1.117,0,0,0-.836.326,1.185,1.185,0,0,0-.313.868v.719h2.1V4.772h-2.1v6.016Zm-13.7,0h-1.76V3.421h1.76v7.367Zm-.88-8.719a1.072,1.072,0,0,1-.762-.3.98.98,0,0,1-.315-.737A.98.98,0,0,1,18.581.3a1.072,1.072,0,0,1,.762-.3,1.1,1.1,0,0,1,.782.3.979.979,0,0,1,.313.737.979.979,0,0,1-.313.737A1.1,1.1,0,0,1,19.344,2.07Z" transform="translate(684 5410)" fill="#6c75ff"></path><path id="Fill_29" data-name="Fill 29" d="M50.569,14H48.734l1.547-3.407L47.1,3.334H49.04l1.943,5.055a2.58,2.58,0,0,1,.126.574h.09a1.555,1.555,0,0,1,.126-.574l1.924-5.055h1.8L50.569,14Zm12.217-2.659a6.9,6.9,0,0,1-1.319-.123,4.456,4.456,0,0,1-1.031-.313,7.8,7.8,0,0,1-.7-.37,2.157,2.157,0,0,1-.432-.313l-.144-.115.864-1.235c.051.04.163.127.36.264a4.636,4.636,0,0,0,.943.427,4.066,4.066,0,0,0,1.415.264,2.209,2.209,0,0,0,1.4-.37,1.223,1.223,0,0,0,.455-1,1.122,1.122,0,0,0-.447-.93,5.88,5.88,0,0,0-1.727-.75,6.74,6.74,0,0,1-2.431-1.168,2.25,2.25,0,0,1-.751-1.778,2.532,2.532,0,0,1,.92-2.058,4,4,0,0,1,2.6-.757,6.545,6.545,0,0,1,1.9.255,3.649,3.649,0,0,1,1.143.5l.3.247-.864,1.333a1.9,1.9,0,0,0-.3-.23,4.7,4.7,0,0,0-.839-.362,3.941,3.941,0,0,0-1.344-.23,2.306,2.306,0,0,0-1.3.32,1.042,1.042,0,0,0-.472.914.947.947,0,0,0,.447.807,6.736,6.736,0,0,0,1.679.691A6.282,6.282,0,0,1,65.6,6.485a2.451,2.451,0,0,1,.751,1.86,2.8,2.8,0,0,1-.92,2.156A3.81,3.81,0,0,1,62.787,11.342Zm-24.81-.008A3.794,3.794,0,0,1,35.088,10.2,4.155,4.155,0,0,1,34.019,7.24a4.3,4.3,0,0,1,1.015-2.934,3.38,3.38,0,0,1,2.654-1.158,3.16,3.16,0,0,1,2.527,1.064,4.194,4.194,0,0,1,.909,2.806l-.018.481H35.745a2.588,2.588,0,0,0,.692,1.751,2.284,2.284,0,0,0,1.647.6,3.415,3.415,0,0,0,1.079-.167,2.2,2.2,0,0,0,.72-.352l.234-.167.629,1.241a1.668,1.668,0,0,1-.287.259,4.3,4.3,0,0,1-.918.408A4.607,4.607,0,0,1,37.976,11.334Zm-.324-6.778c-1.026,0-1.644.586-1.835,1.741h3.544C39.231,5.142,38.656,4.556,37.652,4.556Zm76.511,6.753A3.366,3.366,0,0,1,111.6,10.3a3.7,3.7,0,0,1-.951-2.625,3.827,3.827,0,0,1,.9-2.609,3,3,0,0,1,2.359-1.029,2.8,2.8,0,0,1,2.246.947,3.73,3.73,0,0,1,.807,2.494l-.015.427h-4.765a2.286,2.286,0,0,0,.616,1.556,2.026,2.026,0,0,0,1.463.535,3.038,3.038,0,0,0,.959-.149,1.968,1.968,0,0,0,.639-.312l.208-.148.56,1.1a1.523,1.523,0,0,1-.256.23,3.81,3.81,0,0,1-.815.362A4.063,4.063,0,0,1,114.163,11.309Zm-.288-6.025c-.913,0-1.461.521-1.631,1.547h3.15C115.277,5.8,114.766,5.284,113.875,5.284ZM99.851,11.309A3.366,3.366,0,0,1,97.285,10.3a3.7,3.7,0,0,1-.951-2.625,3.824,3.824,0,0,1,.9-2.609A3,3,0,0,1,99.6,4.033a2.8,2.8,0,0,1,2.246.947,3.73,3.73,0,0,1,.807,2.494l-.015.427H97.869a2.281,2.281,0,0,0,.616,1.556,2.026,2.026,0,0,0,1.463.535,3.038,3.038,0,0,0,.959-.149,1.968,1.968,0,0,0,.639-.312l.208-.148.56,1.1a1.523,1.523,0,0,1-.256.23,3.81,3.81,0,0,1-.815.362A4.063,4.063,0,0,1,99.851,11.309Zm-.288-6.025c-.913,0-1.461.521-1.631,1.547h3.15C100.965,5.8,100.454,5.284,99.563,5.284ZM31.446,11.3a2.211,2.211,0,0,1-1.773-.685,2.8,2.8,0,0,1-.583-1.87V4.759H27.741V3.334H29.09V.963h1.763V3.334h2.032V4.759H30.853V8.7c0,.688.321,1.037.953,1.037a1.5,1.5,0,0,0,.45-.074,1.812,1.812,0,0,0,.359-.149l.126-.074.522,1.278A3.028,3.028,0,0,1,31.446,11.3Zm-7.7,0a6.651,6.651,0,0,1-1.781-.221,3.764,3.764,0,0,1-1.1-.445l-.306-.241.63-1.24a4.31,4.31,0,0,0,2.5.759c.931,0,1.4-.3,1.4-.888a.7.7,0,0,0-.334-.574,2.334,2.334,0,0,0-.835-.36c-.327-.079-.68-.182-1.079-.315a9.752,9.752,0,0,1-1.08-.436,2.121,2.121,0,0,1-.837-.722A2.01,2.01,0,0,1,20.6,5.444a2.07,2.07,0,0,1,.756-1.656,3.3,3.3,0,0,1,2.176-.64,8.228,8.228,0,0,1,1.7.166,5.416,5.416,0,0,1,1.125.333l.324.167-.593,1.407a4.121,4.121,0,0,0-2.375-.666c-.907,0-1.367.28-1.367.833a.64.64,0,0,0,.332.536,2.461,2.461,0,0,0,.837.334c.332.073.7.173,1.1.3a8.294,8.294,0,0,1,1.1.426,2.1,2.1,0,0,1,.837.741,2.145,2.145,0,0,1,.332,1.2,2.158,2.158,0,0,1-.773,1.7A3.556,3.556,0,0,1,23.746,11.3Zm-8.815,0a2.963,2.963,0,0,1-2.069-.693,2.313,2.313,0,0,1-.756-1.769,2.249,2.249,0,0,1,.882-1.87,4.112,4.112,0,0,1,2.554-.686,5.77,5.77,0,0,1,1.727.259V6.278c0-1.081-.66-1.629-1.961-1.629a3.96,3.96,0,0,0-1.015.138,3.282,3.282,0,0,0-.766.288l-.251.148-.612-1.37a5.361,5.361,0,0,1,2.914-.7,3.47,3.47,0,0,1,2.529.843,3.122,3.122,0,0,1,.853,2.323v4.8H17.738l-.216-1.019h-.09A2.683,2.683,0,0,1,14.932,11.3Zm.809-3.907c-1.289,0-1.943.448-1.943,1.333a1.178,1.178,0,0,0,.414.918,1.644,1.644,0,0,0,1.115.36,1.977,1.977,0,0,0,1.36-.491,1.668,1.668,0,0,0,.583-1.193v-.63A3.376,3.376,0,0,0,15.741,7.389ZM69.4,11.112H67.837V1.152H69.4V7.16L72.043,4.2h1.951L71.276,7.21l2.765,3.9-1.9,0-2.079-2.9-.656.724v2.173Zm-67.623,0H0V0H1.367L5.2,5.185,9.049,0H10.38L10.4,11.11H8.635V3.371L5.523,7.556H4.875L1.781,3.426v7.685Zm118.219,0h-1.567V1.152H120V11.11Zm-12.809,0h-1.1L103.05,4.2h1.726l1.7,4.494a1.161,1.161,0,0,1,.128.51h.08a1.526,1.526,0,0,1,.128-.51L108.5,4.2h1.727l-3.038,6.913Zm-11.481,0h-6.3V1.235h1.583V9.662H95.71V11.11Zm-11.9,0H82.246V1.152h1.567V11.11Zm-3.55,0H78.7V1.152h1.568V11.11Zm-3.55,0H75.146V4.2h1.567V11.11Zm-32.206,0H42.744V3.334h1.151l.216,1.24h.09A2.206,2.206,0,0,1,46.36,3.315h.414V4.833H46.36a1.77,1.77,0,0,0-1.305.537,1.936,1.936,0,0,0-.548,1.371V11.11ZM75.929,2.93a.933.933,0,0,1-.68-.28.95.95,0,0,1-.28-.692.949.949,0,0,1,.28-.691.968.968,0,0,1,1.655.691.956.956,0,0,1-.975.972Z" transform="translate(847 5410)" fill="#6c75ff"></path><path id="Fill_30" data-name="Fill 30" d="M110.275,10a3.266,3.266,0,0,1-2.477-.969,3.574,3.574,0,0,1-.922-2.556,3.755,3.755,0,0,1,.866-2.548,2.9,2.9,0,0,1,2.292-.994,2.687,2.687,0,0,1,2.188.945,3.686,3.686,0,0,1,.778,2.4v.273h-5.018a2.54,2.54,0,0,0,.673,1.85,2.3,2.3,0,0,0,1.683.65,3.254,3.254,0,0,0,1.026-.161,2.162,2.162,0,0,0,.673-.32l.209-.16.417.8c-.059.058-.142.132-.241.216a3.037,3.037,0,0,1-.777.353A4.161,4.161,0,0,1,110.275,10Zm-.257-6.122a1.862,1.862,0,0,0-1.972,1.779h3.815C111.7,4.477,111.083,3.878,110.019,3.878ZM46.162,10a3.271,3.271,0,0,1-2.477-.969,3.574,3.574,0,0,1-.922-2.556,3.755,3.755,0,0,1,.866-2.548,2.9,2.9,0,0,1,2.292-.994,2.687,2.687,0,0,1,2.188.945,3.678,3.678,0,0,1,.777,2.4v.273H43.87a2.54,2.54,0,0,0,.673,1.85,2.307,2.307,0,0,0,1.683.65,3.254,3.254,0,0,0,1.026-.161,2.176,2.176,0,0,0,.673-.32l.208-.16.417.8c-.055.055-.138.13-.24.216a3,3,0,0,1-.778.353A4.135,4.135,0,0,1,46.162,10Zm-.257-6.122a1.862,1.862,0,0,0-1.972,1.779h3.815C47.589,4.477,46.969,3.878,45.905,3.878ZM11.765,10a3.271,3.271,0,0,1-2.477-.969,3.574,3.574,0,0,1-.922-2.556,3.755,3.755,0,0,1,.866-2.548,2.9,2.9,0,0,1,2.292-.994,2.687,2.687,0,0,1,2.188.945,3.678,3.678,0,0,1,.778,2.4v.273H9.473a2.54,2.54,0,0,0,.673,1.85,2.307,2.307,0,0,0,1.683.65,3.254,3.254,0,0,0,1.026-.161,2.162,2.162,0,0,0,.673-.32l.209-.16.417.8c-.053.053-.134.125-.241.216a3,3,0,0,1-.777.353A4.146,4.146,0,0,1,11.765,10Zm-.256-6.122A1.861,1.861,0,0,0,9.537,5.657h3.814C13.192,4.477,12.572,3.878,11.508,3.878Zm92.339,6.106a3.182,3.182,0,0,1-2.412-.969,3.551,3.551,0,0,1-.922-2.54,3.585,3.585,0,0,1,.93-2.556,3.168,3.168,0,0,1,2.4-.985,4.414,4.414,0,0,1,1.186.144,1.86,1.86,0,0,1,.689.3l.176.144-.337.833a2.636,2.636,0,0,0-1.651-.5,2.141,2.141,0,0,0-1.627.7,2.711,2.711,0,0,0-.649,1.915,2.666,2.666,0,0,0,.641,1.907,2.168,2.168,0,0,0,1.635.673,2.912,2.912,0,0,0,.865-.129,2.455,2.455,0,0,0,.609-.257l.176-.112.3.833c-.047.045-.113.1-.192.161a2.826,2.826,0,0,1-.65.264A3.844,3.844,0,0,1,103.847,9.984Zm-16.445,0a2.8,2.8,0,0,1-1.9-.608,1.965,1.965,0,0,1-.7-1.539,1.9,1.9,0,0,1,.8-1.594,3.746,3.746,0,0,1,2.276-.6,5.322,5.322,0,0,1,1.748.273V5.673c0-1.169-.647-1.762-1.924-1.762a3.462,3.462,0,0,0-.953.136,3.734,3.734,0,0,0-.714.265l-.24.144-.433-.913a4.51,4.51,0,0,1,2.421-.608c1.925,0,2.9.922,2.9,2.74V9.824h-.77l-.128-.93h-.08A2.6,2.6,0,0,1,87.4,9.984Zm.577-3.525c-1.361,0-2.051.453-2.051,1.346a1.163,1.163,0,0,0,.425.929,1.763,1.763,0,0,0,1.193.369,2.148,2.148,0,0,0,1.491-.537,1.691,1.691,0,0,0,.593-1.29V6.8A3.828,3.828,0,0,0,87.979,6.458ZM62.7,9.984a3.3,3.3,0,0,1-2.412-.961,3.419,3.419,0,0,1-.97-2.532,3.523,3.523,0,0,1,.97-2.572,3.434,3.434,0,0,1,4.824.008A3.5,3.5,0,0,1,66.1,6.491a3.407,3.407,0,0,1-.978,2.532A3.336,3.336,0,0,1,62.7,9.984Zm0-6.153a2.124,2.124,0,0,0-1.627.729,2.742,2.742,0,0,0-.665,1.915,2.679,2.679,0,0,0,.665,1.9,2.214,2.214,0,0,0,3.254,0A2.686,2.686,0,0,0,65,6.475a2.748,2.748,0,0,0-.665-1.915A2.132,2.132,0,0,0,62.7,3.83ZM18.144,9.984a2.8,2.8,0,0,1-1.9-.608,1.965,1.965,0,0,1-.7-1.539,1.9,1.9,0,0,1,.8-1.594,3.753,3.753,0,0,1,2.276-.6,5.3,5.3,0,0,1,1.748.273V5.673c0-1.169-.647-1.762-1.923-1.762a3.465,3.465,0,0,0-.954.136,3.776,3.776,0,0,0-.714.265l-.24.144-.433-.913a4.51,4.51,0,0,1,2.421-.608c1.925,0,2.9.922,2.9,2.74V9.824h-.77l-.128-.93h-.08A2.6,2.6,0,0,1,18.144,9.984Zm.577-3.525c-1.361,0-2.051.453-2.051,1.346a1.184,1.184,0,0,0,.425.929,1.766,1.766,0,0,0,1.193.369,2.142,2.142,0,0,0,1.491-.537,1.691,1.691,0,0,0,.593-1.29V6.8A3.828,3.828,0,0,0,18.721,6.458ZM93.878,9.825H92.772V3.093h.786l.1.994h.08a2.937,2.937,0,0,1,4.4-.305,3.292,3.292,0,0,1,.746,2.244v3.8H97.773V6.154a2.6,2.6,0,0,0-.5-1.651,1.709,1.709,0,0,0-1.418-.642,1.764,1.764,0,0,0-1.435.609,2.185,2.185,0,0,0-.537,1.314V9.824Zm-15.484,0H77.288V5.881a2.107,2.107,0,0,0-.5-1.458,1.814,1.814,0,0,0-1.418-.562,1.693,1.693,0,0,0-1.386.577,2.229,2.229,0,0,0-.521,1.283v4.1H72.352V3.093h.786l.1.994h.08a2.67,2.67,0,0,1,.93-.882,2.912,2.912,0,0,1,1.362-.272,2.588,2.588,0,0,1,2.421,1.282h.08a2.658,2.658,0,0,1,2.453-1.282,2.539,2.539,0,0,1,2.027.849,3.346,3.346,0,0,1,.73,2.244v3.8H82.21V6.154A2.661,2.661,0,0,0,81.721,4.5a1.674,1.674,0,0,0-1.4-.634,1.747,1.747,0,0,0-1.418.585,2.084,2.084,0,0,0-.5,1.322V9.824Zm-53.775,0H23.513V.128H24.62v5.93h.032l3.19-2.965H29.3L26.19,6.009,29.3,9.822l-1.36,0L25.405,6.746l-.786.738V9.824Zm44.286,0H67.8V3.093h.786l.1,1.185h.064a1.836,1.836,0,0,1,.761-.889A2.286,2.286,0,0,1,70.7,3.077h.384v.9h-.368a1.743,1.743,0,0,0-1.274.536,1.824,1.824,0,0,0-.537,1.338V9.823Zm-12.229,0H55.571V3.991H54.3v-.9h1.266V2.26a2.254,2.254,0,0,1,.6-1.651A2.231,2.231,0,0,1,57.83,0a3.35,3.35,0,0,1,.753.08A2.492,2.492,0,0,1,59.1.24l.144.08-.337.9a2.282,2.282,0,0,0-1.057-.24,1.134,1.134,0,0,0-.858.329,1.311,1.311,0,0,0-.312.938v.85h2v.9h-2V9.823Zm-5.049,0H50.522V3.093h.786l.1,1.185h.065a1.839,1.839,0,0,1,.761-.889,2.284,2.284,0,0,1,1.193-.312h.385v.9h-.369a1.746,1.746,0,0,0-1.274.536,1.827,1.827,0,0,0-.536,1.338V9.823Zm-16.109,0H34.4V.208H38.18a4.021,4.021,0,0,1,2.693.826,2.979,2.979,0,0,1,.961,2.38,3.108,3.108,0,0,1-.994,2.468,4.029,4.029,0,0,1-2.724.865h-2.6V9.823Zm0-8.573V5.705h2.629c1.691,0,2.549-.76,2.549-2.26A2,2,0,0,0,40.015,1.8a2.9,2.9,0,0,0-1.868-.553ZM1.122,9.824H0V.208H3.783a4.018,4.018,0,0,1,2.693.826,2.979,2.979,0,0,1,.962,2.38,3.108,3.108,0,0,1-.995,2.468,4.029,4.029,0,0,1-2.724.865h-2.6V9.823Zm0-8.573V5.705H3.75c1.691,0,2.549-.76,2.549-2.26A2,2,0,0,0,5.618,1.8,2.9,2.9,0,0,0,3.75,1.25Z" transform="translate(1016 5463)" fill="#082463"></path><path id="Fill_31" data-name="Fill 31" d="M74.075,13a4.121,4.121,0,0,1-2.356-.549A1.711,1.711,0,0,1,70.943,11a1.749,1.749,0,0,1,1.23-1.6A1.518,1.518,0,0,1,70.96,7.907,1.359,1.359,0,0,1,71.9,6.581a2.321,2.321,0,0,1-.336-1.228,2.319,2.319,0,0,1,.671-1.674,2.479,2.479,0,0,1,1.853-.687,3.345,3.345,0,0,1,.958.129h2.268v.89H76.263v.048c.275.183.415.63.415,1.327a2.194,2.194,0,0,1-.687,1.592,2.574,2.574,0,0,1-1.9.688A2.754,2.754,0,0,1,72.477,7.2c-.371.151-.559.379-.559.679a.568.568,0,0,0,.151.412,1.721,1.721,0,0,0,.719.3,8.487,8.487,0,0,0,1.606.193,4.576,4.576,0,0,1,2.364.582,1.661,1.661,0,0,1,.687,1.423,1.9,1.9,0,0,1-.91,1.569A4.2,4.2,0,0,1,74.075,13Zm-.719-3.346h0c-.89.3-1.342.745-1.342,1.326a.947.947,0,0,0,.519.808,2.973,2.973,0,0,0,1.542.323,3.246,3.246,0,0,0,1.7-.364,1.064,1.064,0,0,0,.583-.913c0-.7-.661-1.073-1.965-1.116-.493-.022-.833-.043-1.039-.064Zm.735-5.789a1.591,1.591,0,0,0-1.166.428,1.421,1.421,0,0,0-.431,1.043,1.386,1.386,0,0,0,.431,1.042,1.624,1.624,0,0,0,1.166.413A1.693,1.693,0,0,0,75.3,6.378a1.371,1.371,0,0,0,.439-1.042A1.405,1.405,0,0,0,75.3,4.293,1.658,1.658,0,0,0,74.091,3.865ZM4.729,10.139A4.412,4.412,0,0,1,1.31,8.691,5.208,5.208,0,0,1,0,5.077a5.238,5.238,0,0,1,1.3-3.63A4.411,4.411,0,0,1,4.729,0,4.437,4.437,0,0,1,8.171,1.439a5.241,5.241,0,0,1,1.3,3.638,5.224,5.224,0,0,1-1.3,3.614A4.43,4.43,0,0,1,4.729,10.139Zm0-9.071a3.253,3.253,0,0,0-2.6,1.156A4.272,4.272,0,0,0,1.15,5.077a4.221,4.221,0,0,0,.983,2.83,3.259,3.259,0,0,0,2.6,1.148,3.3,3.3,0,0,0,2.62-1.148,4.2,4.2,0,0,0,.991-2.83,4.25,4.25,0,0,0-.991-2.854A3.3,3.3,0,0,0,4.729,1.067ZM94.683,10.09a3.239,3.239,0,0,1-2.469-.978A3.64,3.64,0,0,1,91.3,6.532a3.819,3.819,0,0,1,.862-2.57,2.874,2.874,0,0,1,2.284-1,2.655,2.655,0,0,1,2.181.954A3.736,3.736,0,0,1,97.4,6.339v.274h-5a2.6,2.6,0,0,0,.671,1.868,2.284,2.284,0,0,0,1.678.655,3.21,3.21,0,0,0,1.022-.162,2.172,2.172,0,0,0,.67-.323l.208-.162.415.808a2.94,2.94,0,0,1-.239.219,2.928,2.928,0,0,1-.775.355A4.067,4.067,0,0,1,94.683,10.09Zm-.256-6.177a1.867,1.867,0,0,0-1.966,1.795h3.8C96.1,4.517,95.487,3.913,94.427,3.913Zm29.985,6.16a5.266,5.266,0,0,1-1.534-.211,2.95,2.95,0,0,1-.943-.42l-.271-.211.5-.776a1.8,1.8,0,0,0,.287.186,5.1,5.1,0,0,0,.791.291,4.09,4.09,0,0,0,1.206.186c1.018,0,1.534-.337,1.534-1a.772.772,0,0,0-.447-.679,4.25,4.25,0,0,0-1.078-.42c-.409-.1-.833-.226-1.262-.364a2.66,2.66,0,0,1-1.078-.647,1.527,1.527,0,0,1-.447-1.123,1.749,1.749,0,0,1,.623-1.39,2.792,2.792,0,0,1,1.853-.534,7.041,7.041,0,0,1,1.414.137,4.128,4.128,0,0,1,.95.284l.287.13-.447.954a3.759,3.759,0,0,0-2.109-.55c-1.028,0-1.549.316-1.549.938a.719.719,0,0,0,.447.63,4.269,4.269,0,0,0,1.078.389c.421.1.846.213,1.262.347a2.574,2.574,0,0,1,1.078.662A1.646,1.646,0,0,1,127,8.069a1.857,1.857,0,0,1-.631,1.439A2.879,2.879,0,0,1,124.412,10.074Zm-4.984,0a1.8,1.8,0,0,1-2-2.07V4.026h-1.262V3.12h1.262V1.051h1.1V3.12h2v.905h-2V8.02c0,.73.333,1.1.99,1.1A1.683,1.683,0,0,0,120,9.047a1.508,1.508,0,0,0,.375-.154l.144-.081.367.809A2.294,2.294,0,0,1,119.428,10.074Zm-11.231,0a2.476,2.476,0,0,1-2-.85,3.439,3.439,0,0,1-.711-2.272V3.12h1.1v3.7a2.8,2.8,0,0,0,.463,1.673,1.6,1.6,0,0,0,1.374.639,1.8,1.8,0,0,0,1.453-.607,2.176,2.176,0,0,0,.544-1.318V3.12h1.1V9.912h-.7l-.192-.97h-.048a2.082,2.082,0,0,1-.3.4,2.636,2.636,0,0,1-.767.469A3.089,3.089,0,0,1,108.2,10.074Zm-6.869,0a5.266,5.266,0,0,1-1.534-.211,2.958,2.958,0,0,1-.943-.42l-.271-.211.495-.776a1.8,1.8,0,0,0,.287.186,5.1,5.1,0,0,0,.791.291,4.091,4.091,0,0,0,1.206.186c1.018,0,1.534-.337,1.534-1a.772.772,0,0,0-.447-.679,4.249,4.249,0,0,0-1.078-.42c-.409-.1-.833-.226-1.262-.364a2.66,2.66,0,0,1-1.078-.647,1.527,1.527,0,0,1-.447-1.123,1.749,1.749,0,0,1,.623-1.39,2.792,2.792,0,0,1,1.853-.534,7.041,7.041,0,0,1,1.414.137,4.127,4.127,0,0,1,.95.284l.287.13-.447.954a3.759,3.759,0,0,0-2.109-.55c-1.028,0-1.549.316-1.549.938a.719.719,0,0,0,.447.63,4.269,4.269,0,0,0,1.078.389c.421.1.846.213,1.262.347a2.574,2.574,0,0,1,1.078.662,1.646,1.646,0,0,1,.447,1.189,1.857,1.857,0,0,1-.631,1.439A2.879,2.879,0,0,1,101.328,10.074Zm-47.013,0a2.948,2.948,0,0,1-2.26-.986,3.67,3.67,0,0,1-.9-2.571,3.7,3.7,0,0,1,.895-2.562,2.89,2.89,0,0,1,2.237-.994,3.752,3.752,0,0,1,.942.113,2.615,2.615,0,0,1,.687.267,3.068,3.068,0,0,1,.432.307,1.258,1.258,0,0,1,.239.267l.08.113h.048V.13h1.1V9.912h-.767l-.16-1.084h-.048c-.02.028-.041.067-.068.116l-.012.021a1.634,1.634,0,0,1-.264.3,2.938,2.938,0,0,1-.471.373,2.992,2.992,0,0,1-.719.3A3.516,3.516,0,0,1,54.315,10.074ZM54.507,3.9a2.034,2.034,0,0,0-1.6.735,2.782,2.782,0,0,0-.639,1.884A2.782,2.782,0,0,0,52.909,8.4a2.035,2.035,0,0,0,1.6.736,2.134,2.134,0,0,0,1.63-.712,2.726,2.726,0,0,0,.655-1.908,2.726,2.726,0,0,0-.655-1.908A2.133,2.133,0,0,0,54.507,3.9ZM38.084,10.074a2.766,2.766,0,0,1-1.893-.615A1.993,1.993,0,0,1,35.5,7.907,1.927,1.927,0,0,1,36.3,6.3a3.7,3.7,0,0,1,2.269-.607,5.262,5.262,0,0,1,1.741.275V5.724c0-1.18-.645-1.778-1.918-1.778a3.42,3.42,0,0,0-.95.137,3.718,3.718,0,0,0-.711.267l-.239.145-.431-.922a4.456,4.456,0,0,1,2.412-.614c1.919,0,2.892.93,2.892,2.765V9.912h-.767l-.128-.938h-.08A2.584,2.584,0,0,1,38.084,10.074Zm.575-3.558c-1.357,0-2.045.457-2.045,1.358a1.2,1.2,0,0,0,.424.938,1.741,1.741,0,0,0,1.19.373,2.129,2.129,0,0,0,1.486-.542,1.716,1.716,0,0,0,.591-1.3V6.855A3.777,3.777,0,0,0,38.66,6.516Zm-5.271,3.558a1.8,1.8,0,0,1-2-2.07V4.026H30.129V3.12h1.262V1.051h1.1V3.12h2v.905h-2V8.02c0,.73.333,1.1.99,1.1a1.684,1.684,0,0,0,.472-.073,1.516,1.516,0,0,0,.375-.154l.144-.081.367.809A2.294,2.294,0,0,1,33.388,10.074Zm-6.662,0a5.266,5.266,0,0,1-1.534-.211,2.925,2.925,0,0,1-.942-.42l-.272-.211.495-.776a1.8,1.8,0,0,0,.288.186,5.115,5.115,0,0,0,.79.291,4.09,4.09,0,0,0,1.206.186c1.018,0,1.534-.337,1.534-1a.772.772,0,0,0-.447-.679,4.3,4.3,0,0,0-1.078-.42c-.417-.106-.842-.228-1.262-.364a2.668,2.668,0,0,1-1.078-.647,1.521,1.521,0,0,1-.447-1.123,1.752,1.752,0,0,1,.623-1.39,2.8,2.8,0,0,1,1.853-.534,7.067,7.067,0,0,1,1.414.137,4.128,4.128,0,0,1,.95.284l.288.13-.447.954a3.771,3.771,0,0,0-2.109-.55c-1.028,0-1.55.316-1.55.938a.717.717,0,0,0,.447.63,4.285,4.285,0,0,0,1.078.389c.426.1.85.215,1.262.347a2.6,2.6,0,0,1,1.078.662,1.646,1.646,0,0,1,.447,1.189,1.861,1.861,0,0,1-.631,1.439A2.879,2.879,0,0,1,26.726,10.074Zm-4.984,0a1.8,1.8,0,0,1-2-2.07V4.026H18.483V3.12h1.262V1.051h1.1V3.12h2v.905h-2V8.02c0,.73.333,1.1.99,1.1a1.684,1.684,0,0,0,.472-.073,1.515,1.515,0,0,0,.375-.154l.144-.081.367.809A2.294,2.294,0,0,1,21.742,10.074Zm-7.892,0a2.478,2.478,0,0,1-2-.85,3.439,3.439,0,0,1-.711-2.272V3.12h1.1v3.7A2.8,2.8,0,0,0,12.7,8.5a1.6,1.6,0,0,0,1.374.639,1.8,1.8,0,0,0,1.454-.607,2.172,2.172,0,0,0,.544-1.318V3.12h1.1V9.912h-.7l-.192-.97h-.048a2.081,2.081,0,0,1-.3.4,2.636,2.636,0,0,1-.767.469A3.089,3.089,0,0,1,13.85,10.074Zm69.921-.161H82.653V.211h3.754a4,4,0,0,1,2.692.832,3.007,3.007,0,0,1,.967,2.4,3.188,3.188,0,0,1-.583,1.948,3.015,3.015,0,0,1-1.589,1.091v.049l2.381,3.1v.274H89.107L86.631,6.694h-2.86V9.912Zm0-8.652V5.643h2.748a2.648,2.648,0,0,0,1.75-.542,2.009,2.009,0,0,0,.647-1.625,2.04,2.04,0,0,0-.671-1.658,2.828,2.828,0,0,0-1.853-.558ZM64.362,9.913h-1.1V3.12h.783l.1,1h.08A2.905,2.905,0,0,1,68.6,3.816a3.35,3.35,0,0,1,.743,2.264V9.911h-1.1v-3.7a2.644,2.644,0,0,0-.5-1.666A1.7,1.7,0,0,0,66.326,3.9a1.748,1.748,0,0,0-1.429.614,2.232,2.232,0,0,0-.535,1.327V9.912Zm-19.823,0h-1.1V3.12h.782l.1,1h.08a2.9,2.9,0,0,1,4.385-.307,3.35,3.35,0,0,1,.743,2.264V9.911h-1.1v-3.7a2.644,2.644,0,0,0-.5-1.666A1.7,1.7,0,0,0,46.5,3.9a1.752,1.752,0,0,0-1.43.614,2.22,2.22,0,0,0-.535,1.327V9.912Zm70.273,0h-1.1V.13h1.1V9.911Zm-53.725,0h-1.1V3.12h1.1v6.79Zm-.559-8.278a.726.726,0,0,1-.536-.219.727.727,0,0,1-.215-.526.753.753,0,0,1,.751-.76.733.733,0,0,1,.527.218.73.73,0,0,1,.223.542.727.727,0,0,1-.215.526A.726.726,0,0,1,60.528,1.634Z" transform="translate(1009 5443)" fill="#082463"></path><path id="Fill_32" data-name="Fill 32" d="M68.291,11a3.874,3.874,0,0,1-2.9-1.106,3.953,3.953,0,0,1-1.076-2.866,4.091,4.091,0,0,1,1.022-2.85A3.446,3.446,0,0,1,68,3.056a3.227,3.227,0,0,1,2.541,1.032,3.984,3.984,0,0,1,.912,2.724l-.018.467H66.05a2.449,2.449,0,0,0,.7,1.7,2.33,2.33,0,0,0,1.653.586A3.555,3.555,0,0,0,69.485,9.4a2.251,2.251,0,0,0,.723-.342l.235-.161.633,1.2a1.631,1.631,0,0,1-.289.251,4.34,4.34,0,0,1-.922.4A4.79,4.79,0,0,1,68.291,11Zm-.325-6.578a1.755,1.755,0,0,0-1.844,1.689h3.561C69.551,4.99,68.973,4.422,67.966,4.422ZM30.35,11a3.878,3.878,0,0,1-2.9-1.106,3.956,3.956,0,0,1-1.076-2.866A4.094,4.094,0,0,1,27.4,4.178a3.45,3.45,0,0,1,2.666-1.122A3.226,3.226,0,0,1,32.6,4.088a3.98,3.98,0,0,1,.913,2.724l-.018.467H28.108a2.453,2.453,0,0,0,.7,1.7,2.329,2.329,0,0,0,1.652.586A3.546,3.546,0,0,0,31.542,9.4a2.269,2.269,0,0,0,.724-.342L32.5,8.9l.633,1.2a1.631,1.631,0,0,1-.289.251,4.355,4.355,0,0,1-.922.4A4.78,4.78,0,0,1,30.35,11Zm-.326-6.578a1.755,1.755,0,0,0-1.843,1.689h3.56C31.61,4.99,31.032,4.422,30.024,4.422Zm55.15,6.542a2.262,2.262,0,0,1-1.781-.665,2.656,2.656,0,0,1-.587-1.815V4.62H81.451V3.236h1.355V.934h1.771v2.3H86.62V4.62H84.578V8.447c0,.668.322,1.007.959,1.007a1.557,1.557,0,0,0,.452-.072,1.875,1.875,0,0,0,.362-.144l.126-.072L87,10.407A3.115,3.115,0,0,1,85.174,10.964Zm-39.785,0a6.9,6.9,0,0,1-1.789-.215,3.829,3.829,0,0,1-1.1-.432l-.308-.233.633-1.2a4.437,4.437,0,0,0,2.513.736c.936,0,1.41-.29,1.41-.862a.674.674,0,0,0-.334-.557,2.422,2.422,0,0,0-.841-.352c-.337-.077-.7-.18-1.084-.305A9.716,9.716,0,0,1,43.4,7.117a2.115,2.115,0,0,1-.84-.7,1.906,1.906,0,0,1-.336-1.133,1.989,1.989,0,0,1,.76-1.609,3.4,3.4,0,0,1,2.187-.619,8.507,8.507,0,0,1,1.709.162,5.425,5.425,0,0,1,1.129.323l.326.162-.6,1.366a4.242,4.242,0,0,0-2.386-.647c-.911,0-1.373.272-1.373.809a.623.623,0,0,0,.335.521,2.535,2.535,0,0,0,.84.323c.331.071.7.168,1.1.288a8.467,8.467,0,0,1,1.1.413A2.059,2.059,0,0,1,48.2,7.5a2.014,2.014,0,0,1,.334,1.168,2.064,2.064,0,0,1-.778,1.653A3.659,3.659,0,0,1,45.389,10.964Zm-7.52,0a6.9,6.9,0,0,1-1.789-.215,3.849,3.849,0,0,1-1.1-.432l-.307-.233.633-1.2a4.437,4.437,0,0,0,2.513.736c.935,0,1.409-.29,1.409-.862a.674.674,0,0,0-.333-.557,2.422,2.422,0,0,0-.841-.352c-.337-.077-.7-.18-1.084-.305a9.714,9.714,0,0,1-1.084-.422,2.115,2.115,0,0,1-.84-.7,1.906,1.906,0,0,1-.336-1.133,1.987,1.987,0,0,1,.76-1.609,3.4,3.4,0,0,1,2.187-.619,8.507,8.507,0,0,1,1.709.162,5.425,5.425,0,0,1,1.129.323l.326.162-.6,1.366a4.242,4.242,0,0,0-2.386-.647c-.912,0-1.374.272-1.374.809a.622.622,0,0,0,.336.521,2.535,2.535,0,0,0,.84.323c.331.071.7.168,1.1.288a8.468,8.468,0,0,1,1.1.413,2.059,2.059,0,0,1,.841.719,2.014,2.014,0,0,1,.334,1.168,2.064,2.064,0,0,1-.778,1.653A3.659,3.659,0,0,1,37.869,10.964Zm-15.853,0a6.9,6.9,0,0,1-1.789-.215,3.84,3.84,0,0,1-1.1-.432l-.307-.233.633-1.2a4.437,4.437,0,0,0,2.513.736c.935,0,1.409-.29,1.409-.862a.674.674,0,0,0-.333-.557,2.422,2.422,0,0,0-.841-.352c-.337-.077-.7-.18-1.085-.305a9.716,9.716,0,0,1-1.084-.422,2.115,2.115,0,0,1-.84-.7,1.906,1.906,0,0,1-.336-1.133,1.987,1.987,0,0,1,.76-1.609A3.4,3.4,0,0,1,21.8,3.056a8.507,8.507,0,0,1,1.709.162,5.44,5.44,0,0,1,1.129.323l.326.162-.6,1.366a4.242,4.242,0,0,0-2.386-.647c-.912,0-1.374.272-1.374.809a.622.622,0,0,0,.336.521,2.535,2.535,0,0,0,.84.323c.331.071.7.168,1.1.288a8.468,8.468,0,0,1,1.1.413,2.066,2.066,0,0,1,.841.719,2.014,2.014,0,0,1,.334,1.168,2.064,2.064,0,0,1-.778,1.653A3.659,3.659,0,0,1,22.017,10.964Zm-7.519,0a6.914,6.914,0,0,1-1.79-.215,3.842,3.842,0,0,1-1.1-.432l-.307-.233.633-1.2a4.437,4.437,0,0,0,2.513.736c.935,0,1.409-.29,1.409-.862A.675.675,0,0,0,15.52,8.2a2.422,2.422,0,0,0-.842-.352c-.337-.077-.7-.18-1.084-.305a9.727,9.727,0,0,1-1.085-.422,2.11,2.11,0,0,1-.839-.7,1.906,1.906,0,0,1-.336-1.133,1.987,1.987,0,0,1,.76-1.609,3.4,3.4,0,0,1,2.187-.619,8.52,8.52,0,0,1,1.709.162,5.44,5.44,0,0,1,1.129.323l.326.162-.6,1.366a4.242,4.242,0,0,0-2.386-.647c-.912,0-1.374.272-1.374.809a.622.622,0,0,0,.336.521,2.535,2.535,0,0,0,.84.323c.331.071.7.168,1.1.288a8.468,8.468,0,0,1,1.1.413,2.066,2.066,0,0,1,.841.719,2.014,2.014,0,0,1,.333,1.168,2.063,2.063,0,0,1-.777,1.653A3.659,3.659,0,0,1,14.5,10.964Zm60.356-.178H73.082V3.236h1.157l.217,1.078h.109a2.852,2.852,0,0,1,2.548-1.258,3,3,0,0,1,2.314.924,3.529,3.529,0,0,1,.85,2.473v4.331H78.5V6.614a2.234,2.234,0,0,0-.478-1.473A1.643,1.643,0,0,0,76.7,4.566a1.7,1.7,0,0,0-1.31.521,1.961,1.961,0,0,0-.534,1.186v4.512Zm-17.5,0H55.584V6.435a1.945,1.945,0,0,0-.47-1.348,1.7,1.7,0,0,0-1.32-.521,1.652,1.652,0,0,0-1.291.511,1.981,1.981,0,0,0-.517,1.2v4.512H50.215V3.236h1.156l.217,1.078H51.7A2.846,2.846,0,0,1,54.21,3.056,2.924,2.924,0,0,1,56.9,4.422h.09a2.84,2.84,0,0,1,2.6-1.366,2.914,2.914,0,0,1,2.287.924,3.6,3.6,0,0,1,.822,2.473v4.331H60.934V6.614a2.294,2.294,0,0,0-.46-1.473,1.592,1.592,0,0,0-1.311-.575,1.669,1.669,0,0,0-1.291.5,1.962,1.962,0,0,0-.517,1.2v4.512Zm-55.457,0H0L4.447,0H6.254L10.7,10.783H8.821L7.935,8.573H2.766L1.9,10.785ZM5.351,2.067l-1.988,5H7.339Z" transform="translate(1026 5409)" fill="#6c75ff"></path><path id="Stroke_33" data-name="Stroke 33" d="M81,92,78.287,81.234a11.046,11.046,0,0,0-8.931-8.18L66.01,72.5a41.413,41.413,0,0,1-11.654-3.76,7.47,7.47,0,0,1-4.166-6.686v-1.2a7.458,7.458,0,0,1,2.487-5.549c7.171-6.427,12-18.021,12-29.784C64.676,7.9,53.858,0,40.514,0S16.353,7.9,16.353,25.526c0,11.763,4.829,23.357,12,29.784a7.455,7.455,0,0,1,2.487,5.549v1.686a6.7,6.7,0,0,1-4.194,6.2s-7.6,3.091-11.652,3.76l-3.346.553a11.044,11.044,0,0,0-8.931,8.18L0,92" transform="translate(307 5300)" fill="none" stroke="#f39" stroke-linecap="round" stroke-linejoin="round" stroke-miterlimit="10" stroke-width="5"></path><path id="Stroke_34" data-name="Stroke 34" d="M72.165,92H9.318a4.843,4.843,0,0,1-4.835-4.841V4.841A4.843,4.843,0,0,1,9.318,0H72.165A4.844,4.844,0,0,1,77,4.841V87.159A4.844,4.844,0,0,1,72.165,92ZM28.655,24.212V43.579H57.663V24.212Z" transform="translate(1030 5300)" fill="none" stroke="#f39" stroke-linecap="round" stroke-linejoin="round" stroke-miterlimit="10" stroke-width="5"></path><path id="Stroke_38" data-name="Stroke 38" d="M0,55H158V0H0Z" transform="translate(432 5336)" fill="none" stroke="#f39" stroke-linecap="round" stroke-linejoin="round" stroke-miterlimit="10" stroke-width="5"></path><path id="Stroke_39" data-name="Stroke 39" d="M0,55H158V0H0Z" transform="translate(630 5336)" fill="none" stroke="#f39" stroke-linecap="round" stroke-linejoin="round" stroke-miterlimit="10" stroke-width="5"></path><path id="Stroke_40" data-name="Stroke 40" stroke="#f39" d="M1,0V22" fill="none" transform="translate(528 5261)" stroke-linecap="round" stroke-linejoin="round" stroke-miterlimit="10" stroke-width="5" stroke-dasharray="16.184 11.184"></path><path id="Stroke_41" data-name="Stroke 41" stroke="#f39" d="M0,1H126" fill="none" transform="translate(548 5296)" stroke-linecap="round" stroke-linejoin="round" stroke-miterlimit="10" stroke-width="5" stroke-dasharray="15.678 10.678"></path><path id="Stroke_42" data-name="Stroke 42" stroke="#f39" d="M1,22V0" fill="none" transform="translate(686 5255)" stroke-linecap="round" stroke-linejoin="round" stroke-miterlimit="10" stroke-width="5" stroke-dasharray="16.184 11.184"></path><path id="Stroke_43" data-name="Stroke 43" stroke="#f39" d="M126,1H0" fill="none" transform="translate(542 5241)" stroke-linecap="round" stroke-linejoin="round" stroke-miterlimit="10" stroke-width="5" stroke-dasharray="15.678 10.678"></path><path id="Stroke_44" data-name="Stroke 44" d="M158,55h-7.834L158,46.869V55ZM7.833,55H0V46.869L7.831,55ZM158,8.131l0,0L150.167,0H158V8.131Zm-158,0V0H7.833L0,8.129Z" transform="translate(529 5242)" fill="none" stroke="#f39" stroke-linecap="round" stroke-linejoin="round" stroke-miterlimit="10" stroke-width="5"></path><path id="Stroke_45" data-name="Stroke 45" d="M0,55H158V0H0Z" transform="translate(828 5336)" fill="none" stroke="#f39" stroke-linecap="round" stroke-linejoin="round" stroke-miterlimit="10" stroke-width="5"></path><path id="Stroke_46" data-name="Stroke 46" d="M178,0H0V30" transform="translate(348 5269)" fill="none" stroke="#f39" stroke-linecap="round" stroke-linejoin="round" stroke-miterlimit="10" stroke-width="5"></path><path id="Stroke_47" data-name="Stroke 47" d="M0,16,10,8,0,0" transform="translate(605 5356)" fill="none" stroke="#f39" stroke-linecap="round" stroke-linejoin="round" stroke-miterlimit="10" stroke-width="5"></path><path id="Stroke_48" data-name="Stroke 48" d="M10,6,5,0,0,6" transform="translate(504 5451)" fill="none" stroke="#3a30db" stroke-linecap="round" stroke-linejoin="round" stroke-miterlimit="10" stroke-width="2"></path><path id="Stroke_49" data-name="Stroke 49" d="M16,10,8,0,0,10" transform="translate(543 5312)" fill="none" stroke="#f39" stroke-linecap="round" stroke-linejoin="round" stroke-miterlimit="10" stroke-width="5"></path><path id="Stroke_50" data-name="Stroke 50" d="M10,0,0,8l10,8" transform="translate(473 5261)" fill="none" stroke="#f39" stroke-linecap="round" stroke-linejoin="round" stroke-miterlimit="10" stroke-width="5"></path><path id="Stroke_51" data-name="Stroke 51" d="M10,0,0,8l10,8" transform="translate(392 5261)" fill="none" stroke="#f39" stroke-linecap="round" stroke-linejoin="round" stroke-miterlimit="10" stroke-width="5"></path><path id="Stroke_52" data-name="Stroke 52" d="M16,10,8,0,0,10" transform="translate(657 5312)" fill="none" stroke="#f39" stroke-linecap="round" stroke-linejoin="round" stroke-miterlimit="10" stroke-width="5"></path><path id="Stroke_53" data-name="Stroke 53" d="M0,16,10,8,0,0" transform="translate(803 5356)" fill="none" stroke="#f39" stroke-linecap="round" stroke-linejoin="round" stroke-miterlimit="10" stroke-width="5"></path><path id="Stroke_54" data-name="Stroke 54" d="M0,16,10,8,0,0" transform="translate(1003 5356)" fill="none" stroke="#f39" stroke-linecap="round" stroke-linejoin="round" stroke-miterlimit="10" stroke-width="5"></path><path id="Stroke_55" data-name="Stroke 55" d="M0,16,10,8,0,0" transform="translate(405 5356)" fill="none" stroke="#f39" stroke-linecap="round" stroke-linejoin="round" stroke-miterlimit="10" stroke-width="5"></path></g></svg> 