<?xml version="1.0" encoding="UTF-8"?> <svg xmlns="http://www.w3.org/2000/svg" xmlns:xlink="http://www.w3.org/1999/xlink" width="530.276" height="431" viewBox="0 0 530.276 431"><defs><clipPath id="clip-path"><path id="Clip_36" data-name="Clip 36" d="M0,0H95.15V12.3H0Z" transform="translate(0.243 0.79)" fill="none"></path></clipPath></defs><g id="Group_2" data-name="Group 2" transform="translate(-667.5 -5785)"><g id="Group_11" data-name="Group 11" transform="translate(986 5785)"><path id="Fill_1" data-name="Fill 1" d="M155.638,16.04a5.928,5.928,0,0,1-3.08-.63,1.939,1.939,0,0,1-1-1.71,2.135,2.135,0,0,1,1.36-1.92,1.822,1.822,0,0,1-1.26-1.78,1.777,1.777,0,0,1,1.16-1.6,2.609,2.609,0,0,1-.6-1.72,2.74,2.74,0,0,1,.91-2.11,3.568,3.568,0,0,1,2.49-.83,4.817,4.817,0,0,1,1.26.159h2.98V5.4h-1.2v.04c.252.186.38.631.38,1.32a2.552,2.552,0,0,1-.9,1.94,3.628,3.628,0,0,1-2.52.82,4.231,4.231,0,0,1-1.78-.36.764.764,0,0,0-.48.66.557.557,0,0,0,.149.41,1.75,1.75,0,0,0,.731.29,9.794,9.794,0,0,0,1.66.2,6.746,6.746,0,0,1,3.17.69,2.017,2.017,0,0,1,.91,1.81,2.413,2.413,0,0,1-1.149,2A5.452,5.452,0,0,1,155.638,16.04Zm-1.02-3.86c-.783.3-1.18.761-1.18,1.36a.933.933,0,0,0,.55.821,3.369,3.369,0,0,0,1.65.319,3.681,3.681,0,0,0,1.79-.35,1.042,1.042,0,0,0,.61-.91c0-.716-.72-1.106-2.14-1.16a12.4,12.4,0,0,1-1.28-.08Zm1-7.079a1.622,1.622,0,0,0-1.21.45,1.557,1.557,0,0,0,0,2.19,1.642,1.642,0,0,0,1.21.44,1.708,1.708,0,0,0,1.24-.44,1.533,1.533,0,0,0,0-2.19A1.687,1.687,0,0,0,155.618,5.1Zm48.858,7.439a4.28,4.28,0,0,1-3.21-1.229,4.419,4.419,0,0,1-1.19-3.191,4.577,4.577,0,0,1,1.13-3.17,3.806,3.806,0,0,1,2.95-1.25,3.555,3.555,0,0,1,2.81,1.15,4.439,4.439,0,0,1,1.01,3.03l-.02.519H202a2.743,2.743,0,0,0,.77,1.89,2.565,2.565,0,0,0,1.83.651,3.909,3.909,0,0,0,1.2-.18,2.453,2.453,0,0,0,.8-.381l.26-.18.7,1.34a1.7,1.7,0,0,1-.32.28,4.734,4.734,0,0,1-1.02.44A5.253,5.253,0,0,1,204.476,12.54Zm-.36-7.32a1.947,1.947,0,0,0-2.04,1.88h3.94C205.87,5.853,205.231,5.22,204.116,5.22Zm-97.4,7.32a4.28,4.28,0,0,1-3.21-1.229,4.419,4.419,0,0,1-1.19-3.191,4.577,4.577,0,0,1,1.129-3.17A3.806,3.806,0,0,1,106.4,3.7a3.555,3.555,0,0,1,2.81,1.15,4.439,4.439,0,0,1,1.01,3.03l-.02.519h-5.96a2.743,2.743,0,0,0,.77,1.89,2.566,2.566,0,0,0,1.83.651,3.909,3.909,0,0,0,1.2-.18,2.452,2.452,0,0,0,.8-.381l.26-.18.7,1.34a1.7,1.7,0,0,1-.32.28,4.737,4.737,0,0,1-1.02.44A5.253,5.253,0,0,1,106.718,12.54Zm-.36-7.32a1.947,1.947,0,0,0-2.04,1.88h3.94C108.112,5.853,107.473,5.22,106.358,5.22Zm-34.6,7.32A4.273,4.273,0,0,1,68.55,11.31,4.411,4.411,0,0,1,67.36,8.12a4.567,4.567,0,0,1,1.13-3.17A3.8,3.8,0,0,1,71.44,3.7a3.562,3.562,0,0,1,2.81,1.15,4.446,4.446,0,0,1,1.01,3.03l-.02.519H69.28a2.736,2.736,0,0,0,.77,1.89,2.567,2.567,0,0,0,1.831.651,3.934,3.934,0,0,0,1.2-.18,2.475,2.475,0,0,0,.8-.381l.26-.18.7,1.34a1.855,1.855,0,0,1-.32.28,4.825,4.825,0,0,1-1.02.44A5.279,5.279,0,0,1,71.76,12.54ZM71.4,5.22A1.944,1.944,0,0,0,69.36,7.1H73.3C73.153,5.853,72.514,5.22,71.4,5.22ZM15.24,12.54A4.278,4.278,0,0,1,12.03,11.31,4.411,4.411,0,0,1,10.84,8.12a4.567,4.567,0,0,1,1.13-3.17A3.806,3.806,0,0,1,14.92,3.7a3.562,3.562,0,0,1,2.81,1.15,4.439,4.439,0,0,1,1.01,3.03l-.02.519H12.76a2.746,2.746,0,0,0,.77,1.89,2.567,2.567,0,0,0,1.831.651,3.934,3.934,0,0,0,1.2-.18,2.452,2.452,0,0,0,.8-.381l.26-.18.7,1.34a1.787,1.787,0,0,1-.32.28,4.736,4.736,0,0,1-1.02.44A5.279,5.279,0,0,1,15.24,12.54Zm-.36-7.32A1.946,1.946,0,0,0,12.84,7.1H16.78C16.635,5.853,16,5.22,14.88,5.22Zm178.7,7.28a3.672,3.672,0,0,1-2.81-1.21,4.557,4.557,0,0,1-1.11-3.19,4.6,4.6,0,0,1,1.1-3.17,3.559,3.559,0,0,1,2.758-1.23,3.752,3.752,0,0,1,1.56.3,2.415,2.415,0,0,1,.88.581l.2.3h.08V.2H198.2V12.3h-1.32l-.3-1.24H196.5a.682.682,0,0,1-.092.16,3.025,3.025,0,0,1-.31.339,2.99,2.99,0,0,1-.537.43,3.512,3.512,0,0,1-.832.35A3.983,3.983,0,0,1,193.576,12.5Zm.4-7.18a2.113,2.113,0,0,0-1.68.78,3,3,0,0,0-.66,2,3,3,0,0,0,.66,2,2.113,2.113,0,0,0,1.68.78,2.2,2.2,0,0,0,1.7-.76,2.932,2.932,0,0,0,.678-2.02,2.952,2.952,0,0,0-.668-2.03A2.208,2.208,0,0,0,193.976,5.32ZM183.958,12.5a4.176,4.176,0,0,1-4.3-4.36A4.336,4.336,0,0,1,180.9,4.93a4.42,4.42,0,0,1,6.13.01,4.334,4.334,0,0,1,1.25,3.2,4.218,4.218,0,0,1-1.24,3.161A4.28,4.28,0,0,1,183.958,12.5Zm0-7.24a2.192,2.192,0,0,0-1.71.79,3.046,3.046,0,0,0-.69,2.07,3,3,0,0,0,.68,2.05,2.305,2.305,0,0,0,3.44,0,3.006,3.006,0,0,0,.68-2.05,3.046,3.046,0,0,0-.689-2.07A2.192,2.192,0,0,0,183.958,5.26Zm-69.44,7.24a3.345,3.345,0,0,1-2.3-.75,2.458,2.458,0,0,1-.841-1.911,2.41,2.41,0,0,1,.98-2.02,4.675,4.675,0,0,1,2.84-.74,6.586,6.586,0,0,1,1.92.28V7.08c0-1.168-.733-1.76-2.18-1.76a4.461,4.461,0,0,0-1.13.15,3.762,3.762,0,0,0-.85.31l-.28.16L112,4.46a6.1,6.1,0,0,1,3.24-.76,3.93,3.93,0,0,1,2.81.91A3.322,3.322,0,0,1,119,7.12V12.3h-1.36l-.24-1.1h-.1A3.01,3.01,0,0,1,114.518,12.5Zm.9-4.22c-1.433,0-2.16.484-2.16,1.44a1.249,1.249,0,0,0,.46.99,1.87,1.87,0,0,0,1.24.39,2.223,2.223,0,0,0,1.51-.53,1.783,1.783,0,0,0,.65-1.29V8.6A3.828,3.828,0,0,0,115.418,8.28ZM51.12,12.5a2.49,2.49,0,0,1-1.97-.74A2.969,2.969,0,0,1,48.5,9.74V5.44H47V3.9h1.5V1.34h1.96V3.9h2.26V5.44H50.46V9.7c0,.743.356,1.12,1.059,1.12a1.689,1.689,0,0,0,.5-.08,2.072,2.072,0,0,0,.4-.159l.14-.08.58,1.38A3.434,3.434,0,0,1,51.12,12.5Zm-7.6,0a4.184,4.184,0,0,1-3.12-1.23,4.341,4.341,0,0,1-1.2-3.15,4.4,4.4,0,0,1,1.2-3.18A4.168,4.168,0,0,1,43.52,3.7a5.48,5.48,0,0,1,1.45.18,2.778,2.778,0,0,1,.91.38l.239.18-.54,1.44a3.215,3.215,0,0,0-1.92-.56,2.323,2.323,0,0,0-1.78.76,2.907,2.907,0,0,0-.7,2.039,2.828,2.828,0,0,0,.7,2.03,2.371,2.371,0,0,0,1.78.73,3.462,3.462,0,0,0,.98-.14,3.3,3.3,0,0,0,.72-.28l.22-.139.52,1.419a2.175,2.175,0,0,1-.26.211,3.719,3.719,0,0,1-.85.34A4.93,4.93,0,0,1,43.52,12.5ZM168.1,12.3h-1.98V.3h1.52L171.9,5.9,176.176.3h1.48l.02,12h-1.96V3.94l-3.46,4.52h-.72L168.1,4v8.3Zm-24.238,0H141.9V3.9h1.281l.239,1.2h.121a3.153,3.153,0,0,1,2.82-1.4,3.3,3.3,0,0,1,2.56,1.03,3.936,3.936,0,0,1,.94,2.75V12.3H147.9V7.66a2.487,2.487,0,0,0-.53-1.64,1.815,1.815,0,0,0-1.47-.64,1.877,1.877,0,0,0-1.45.58,2.18,2.18,0,0,0-.59,1.32V12.3Zm-14.68,0h-1.96V3.9H128.5l.239,1.2h.121a3.153,3.153,0,0,1,2.82-1.4,3.3,3.3,0,0,1,2.56,1.03,3.936,3.936,0,0,1,.941,2.75V12.3h-1.96V7.66a2.491,2.491,0,0,0-.53-1.64,1.815,1.815,0,0,0-1.47-.64,1.877,1.877,0,0,0-1.45.58,2.18,2.18,0,0,0-.59,1.32V12.3Zm-127.2,0H0V.3H4.94A4.959,4.959,0,0,1,8.3,1.38,3.715,3.715,0,0,1,9.54,4.32a3.88,3.88,0,0,1-.68,2.31A3.923,3.923,0,0,1,7,8.02v.1l2.88,3.9V12.3H7.7L4.84,8.34H1.98V12.3Zm0-10.241V6.58H4.96a2.8,2.8,0,0,0,1.83-.57,2.048,2.048,0,0,0,.69-1.67,2.089,2.089,0,0,0-.7-1.7A2.964,2.964,0,0,0,4.84,2.06ZM28.94,12.3h-2.1L31.76.3h2l4.92,12H36.6L35.62,9.84H29.9L28.94,12.3Zm3.82-9.7-2.2,5.56h4.4Zm179.016,9.7h-1.96V.2h1.96V12.3Zm-72.319,0H137.5V3.9h1.959v8.4Zm-16.2,0H121.3V3.9h1.28l.239,1.34h.1a2.463,2.463,0,0,1,2.4-1.36h.46V5.52h-.46a2,2,0,0,0-1.45.581,2.072,2.072,0,0,0-.61,1.48V12.3Zm-21.72,0h-7.88V.3h1.98V10.54h5.9V12.3Zm-38.5,0H61.66l-3.8-8.4h2.16L62.14,9.36a1.4,1.4,0,0,1,.16.62h.1a1.8,1.8,0,0,1,.16-.62L64.68,3.9h2.16l-3.8,8.4Zm-6.52,0H54.56V3.9h1.96v8.4Zm30.3-3.78h-5.6V6.92h5.6v1.6Zm-60.8,0h-5.6V6.92h5.6v1.6ZM138.478,2.36a1.181,1.181,0,0,1-.85-.34,1.125,1.125,0,0,1-.35-.84,1.125,1.125,0,0,1,.35-.84,1.184,1.184,0,0,1,.85-.34,1.21,1.21,0,0,1,.87.34,1.125,1.125,0,0,1,.35.84,1.125,1.125,0,0,1-.35.84A1.207,1.207,0,0,1,138.478,2.36Zm-82.938,0a1.172,1.172,0,0,1-.85-.34,1.125,1.125,0,0,1-.35-.84,1.125,1.125,0,0,1,.35-.84A1.175,1.175,0,0,1,55.54,0a1.21,1.21,0,0,1,.87.34,1.13,1.13,0,0,1,.35.84,1.13,1.13,0,0,1-.35.84A1.207,1.207,0,0,1,55.54,2.36Z" transform="translate(0 28)" fill="#082463"></path><path id="Fill_3" data-name="Fill 3" d="M13.34,15.38H11.3l1.72-3.68L9.48,3.86h2.16L13.8,9.32a2.665,2.665,0,0,1,.14.619h.1a1.625,1.625,0,0,1,.14-.619L16.32,3.86h2L13.34,15.38Zm-8.8-2.84a8.877,8.877,0,0,1-1.65-.149A5.639,5.639,0,0,1,1.6,12.01c-.333-.153-.629-.3-.88-.45a2.7,2.7,0,0,1-.54-.38L0,11.04l1.08-1.5c.1.076.243.178.45.32a6.035,6.035,0,0,0,1.18.519,5.214,5.214,0,0,0,1.77.32,2.818,2.818,0,0,0,1.75-.45A1.468,1.468,0,0,0,6.8,9.04,1.359,1.359,0,0,0,6.24,7.91,7.427,7.427,0,0,0,4.08,7,8.548,8.548,0,0,1,1.04,5.58,2.7,2.7,0,0,1,.1,3.42,3.047,3.047,0,0,1,1.25.92,5.1,5.1,0,0,1,4.5,0,8.448,8.448,0,0,1,6.87.31,4.62,4.62,0,0,1,8.3.92l.38.3L7.6,2.84a2.211,2.211,0,0,0-.37-.281A6.033,6.033,0,0,0,6.18,2.12,5.093,5.093,0,0,0,4.5,1.84a2.948,2.948,0,0,0-1.63.391,1.257,1.257,0,0,0-.59,1.11,1.148,1.148,0,0,0,.561.98,8.5,8.5,0,0,0,2.1.84A7.93,7.93,0,0,1,8.06,6.64,2.936,2.936,0,0,1,9,8.9a3.36,3.36,0,0,1-1.15,2.62A4.851,4.851,0,0,1,4.54,12.54Zm33.8-.04a4.274,4.274,0,0,1-3.21-1.23,4.412,4.412,0,0,1-1.19-3.19,4.564,4.564,0,0,1,1.13-3.17A3.8,3.8,0,0,1,38.02,3.66,3.563,3.563,0,0,1,40.83,4.81a4.453,4.453,0,0,1,1.01,3.03l-.02.52H35.86a2.736,2.736,0,0,0,.77,1.89,2.569,2.569,0,0,0,1.83.65,3.938,3.938,0,0,0,1.2-.18,2.492,2.492,0,0,0,.8-.38l.259-.18.7,1.34a1.856,1.856,0,0,1-.32.28,4.932,4.932,0,0,1-1.021.44A5.291,5.291,0,0,1,38.34,12.5Zm-.36-7.32A1.945,1.945,0,0,0,35.94,7.06h3.94C39.733,5.813,39.094,5.18,37.98,5.18Zm-6.9,7.279a2.49,2.49,0,0,1-1.97-.74,2.968,2.968,0,0,1-.65-2.02V5.4h-1.5V3.86h1.5V1.3h1.96V3.86h2.26V5.4H30.42V9.66c0,.744.357,1.12,1.06,1.12a1.664,1.664,0,0,0,.5-.08,2.124,2.124,0,0,0,.4-.16l.139-.08L33.1,11.84A3.439,3.439,0,0,1,31.08,12.46Zm-8.56,0a7.551,7.551,0,0,1-1.98-.239,4.206,4.206,0,0,1-1.22-.481l-.34-.259.7-1.34a4.89,4.89,0,0,0,2.78.82c1.035,0,1.56-.323,1.56-.96a.748.748,0,0,0-.37-.62,2.651,2.651,0,0,0-.931-.39c-.374-.086-.777-.2-1.2-.34a10.649,10.649,0,0,1-1.2-.47,2.344,2.344,0,0,1-.931-.78,2.117,2.117,0,0,1-.37-1.26,2.216,2.216,0,0,1,.841-1.79,3.743,3.743,0,0,1,2.42-.689,9.341,9.341,0,0,1,1.89.18,6.039,6.039,0,0,1,1.249.36l.36.18L25.12,5.9a4.668,4.668,0,0,0-2.64-.72c-1.009,0-1.52.3-1.52.9a.689.689,0,0,0,.37.58,2.763,2.763,0,0,0,.93.36c.381.082.791.19,1.22.32A9.16,9.16,0,0,1,24.7,7.8a2.312,2.312,0,0,1,.931.8A2.259,2.259,0,0,1,26,9.9a2.3,2.3,0,0,1-.86,1.84A4.031,4.031,0,0,1,22.52,12.46Zm29.02-.2H49.58V7.42a2.169,2.169,0,0,0-.52-1.5A1.873,1.873,0,0,0,47.6,5.34a1.826,1.826,0,0,0-1.43.571A2.209,2.209,0,0,0,45.6,7.24v5.02H43.64V3.86h1.28l.24,1.2h.12a3.143,3.143,0,0,1,2.78-1.4,3.23,3.23,0,0,1,2.98,1.52h.1a3.133,3.133,0,0,1,2.88-1.52,3.218,3.218,0,0,1,2.53,1.03,4.018,4.018,0,0,1,.91,2.75v4.819H55.5V7.62a2.561,2.561,0,0,0-.51-1.641,1.757,1.757,0,0,0-1.45-.64,1.842,1.842,0,0,0-1.43.561,2.188,2.188,0,0,0-.57,1.339v5.02ZM62.8,4.9h0L62.5,3.84c.848-.185,1.332-.6,1.44-1.22a1.119,1.119,0,0,1-.68-.4A1.16,1.16,0,0,1,63,1.46a1.147,1.147,0,0,1,.35-.85,1.207,1.207,0,0,1,1.7,0,1.168,1.168,0,0,1,.35.85V1.6a3.5,3.5,0,0,1-.68,2.16A3.037,3.037,0,0,1,62.8,4.9Zm-3.2,0h0L59.28,3.84c.861-.185,1.352-.6,1.46-1.22a1.17,1.17,0,0,1-.69-.4,1.135,1.135,0,0,1-.27-.761,1.147,1.147,0,0,1,.35-.85,1.207,1.207,0,0,1,1.7,0,1.168,1.168,0,0,1,.35.85V1.6a3.5,3.5,0,0,1-.68,2.16A3.026,3.026,0,0,1,59.6,4.9Z" transform="translate(110.048 0.04)" fill="#082463"></path><path id="Fill_5" data-name="Fill 5" d="M55.738,16.04a5.937,5.937,0,0,1-3.08-.63,1.942,1.942,0,0,1-1-1.71,2.137,2.137,0,0,1,1.36-1.92A1.822,1.822,0,0,1,51.758,10a1.779,1.779,0,0,1,1.16-1.6,2.609,2.609,0,0,1-.6-1.72,2.745,2.745,0,0,1,.91-2.11,3.574,3.574,0,0,1,2.49-.83,4.8,4.8,0,0,1,1.26.159h2.98V5.4h-1.2v.04c.252.185.38.629.38,1.32a2.552,2.552,0,0,1-.9,1.94,3.628,3.628,0,0,1-2.52.82,4.232,4.232,0,0,1-1.78-.36.764.764,0,0,0-.48.66.557.557,0,0,0,.149.41,1.764,1.764,0,0,0,.731.29,9.848,9.848,0,0,0,1.66.2,6.734,6.734,0,0,1,3.17.69,2.014,2.014,0,0,1,.91,1.81,2.409,2.409,0,0,1-1.149,2A5.445,5.445,0,0,1,55.738,16.04Zm-1.02-3.86c-.783.3-1.18.762-1.18,1.36a.935.935,0,0,0,.55.821,3.383,3.383,0,0,0,1.65.319,3.672,3.672,0,0,0,1.79-.35,1.028,1.028,0,0,0,.61-.91c0-.716-.72-1.106-2.14-1.16a12.459,12.459,0,0,1-1.28-.08Zm1-7.079a1.643,1.643,0,0,0-1.21.45,1.557,1.557,0,0,0,0,2.19,1.663,1.663,0,0,0,1.21.44,1.722,1.722,0,0,0,1.24-.44,1.533,1.533,0,0,0,0-2.19A1.7,1.7,0,0,0,55.718,5.1ZM31.66,16.04a5.928,5.928,0,0,1-3.08-.63,1.938,1.938,0,0,1-1-1.71,2.136,2.136,0,0,1,1.361-1.92A1.821,1.821,0,0,1,27.68,10,1.776,1.776,0,0,1,28.84,8.4a2.613,2.613,0,0,1-.6-1.72,2.738,2.738,0,0,1,.91-2.11,3.565,3.565,0,0,1,2.49-.83A4.826,4.826,0,0,1,32.9,3.9h2.98V5.4h-1.2v.04c.252.187.381.631.381,1.32a2.554,2.554,0,0,1-.9,1.94,3.628,3.628,0,0,1-2.52.82,4.232,4.232,0,0,1-1.78-.36.764.764,0,0,0-.481.66.557.557,0,0,0,.15.41,1.743,1.743,0,0,0,.73.29,9.82,9.82,0,0,0,1.66.2,6.751,6.751,0,0,1,3.17.69A2.018,2.018,0,0,1,36,13.22a2.413,2.413,0,0,1-1.15,2A5.447,5.447,0,0,1,31.66,16.04ZM30.64,12.18c-.783.3-1.18.762-1.18,1.36a.934.934,0,0,0,.55.821,3.375,3.375,0,0,0,1.651.319,3.686,3.686,0,0,0,1.79-.35,1.042,1.042,0,0,0,.609-.91c0-.716-.72-1.106-2.139-1.16a12.435,12.435,0,0,1-1.281-.08Zm1-7.079a1.64,1.64,0,0,0-1.211.45,1.557,1.557,0,0,0,0,2.19,1.66,1.66,0,0,0,1.211.44,1.726,1.726,0,0,0,1.239-.44,1.533,1.533,0,0,0,0-2.19A1.7,1.7,0,0,0,31.64,5.1ZM22.36,16.04a5.928,5.928,0,0,1-3.08-.63,1.939,1.939,0,0,1-1-1.71,2.135,2.135,0,0,1,1.36-1.92A1.822,1.822,0,0,1,18.38,10a1.777,1.777,0,0,1,1.16-1.6,2.613,2.613,0,0,1-.6-1.72,2.738,2.738,0,0,1,.911-2.11,3.563,3.563,0,0,1,2.489-.83A4.816,4.816,0,0,1,23.6,3.9h2.98V5.4h-1.2v.04c.252.186.38.631.38,1.32a2.552,2.552,0,0,1-.9,1.94,3.625,3.625,0,0,1-2.52.82,4.232,4.232,0,0,1-1.78-.36.764.764,0,0,0-.48.66.557.557,0,0,0,.15.41,1.743,1.743,0,0,0,.73.29,9.811,9.811,0,0,0,1.66.2,6.754,6.754,0,0,1,3.171.69,2.018,2.018,0,0,1,.91,1.81,2.413,2.413,0,0,1-1.15,2A5.449,5.449,0,0,1,22.36,16.04Zm-1.02-3.86c-.783.3-1.18.762-1.18,1.36a.933.933,0,0,0,.55.821,3.373,3.373,0,0,0,1.65.319,3.681,3.681,0,0,0,1.79-.35,1.042,1.042,0,0,0,.61-.91c0-.716-.72-1.106-2.14-1.16a12.4,12.4,0,0,1-1.28-.08Zm1-7.079a1.639,1.639,0,0,0-1.21.45,1.557,1.557,0,0,0,0,2.19,1.659,1.659,0,0,0,1.21.44,1.727,1.727,0,0,0,1.24-.44,1.533,1.533,0,0,0,0-2.19A1.706,1.706,0,0,0,22.34,5.1ZM12.1,12.5a3.345,3.345,0,0,1-2.3-.75A2.46,2.46,0,0,1,8.96,9.84,2.406,2.406,0,0,1,9.94,7.82a4.675,4.675,0,0,1,2.84-.74,6.6,6.6,0,0,1,1.92.28V7.08c0-1.168-.733-1.76-2.18-1.76a4.448,4.448,0,0,0-1.13.15,3.715,3.715,0,0,0-.851.31l-.28.16L9.58,4.46a6.1,6.1,0,0,1,3.24-.76,3.94,3.94,0,0,1,2.811.91,3.325,3.325,0,0,1,.95,2.51V12.3H15.22l-.24-1.1h-.1A3.013,3.013,0,0,1,12.1,12.5ZM13,8.28c-1.433,0-2.16.484-2.16,1.44a1.249,1.249,0,0,0,.461.99,1.859,1.859,0,0,0,1.239.39,2.223,2.223,0,0,0,1.51-.53,1.788,1.788,0,0,0,.65-1.29V8.6A3.828,3.828,0,0,0,13,8.28ZM43.96,12.3H42V3.9h1.28l.24,1.2h.12a3.149,3.149,0,0,1,2.82-1.4A3.313,3.313,0,0,1,49.02,4.73a3.94,3.94,0,0,1,.94,2.75V12.3H48V7.66a2.5,2.5,0,0,0-.53-1.64A1.815,1.815,0,0,0,46,5.38a1.872,1.872,0,0,0-1.45.58,2.184,2.184,0,0,0-.59,1.32V12.3Zm-4.4,0H37.6V3.9h1.96v8.4Zm-31.68,0H0V.3H1.98V10.54h5.9V12.3ZM38.58,2.36a1.176,1.176,0,0,1-.85-.34,1.125,1.125,0,0,1-.35-.84,1.125,1.125,0,0,1,.35-.84A1.179,1.179,0,0,1,38.58,0a1.209,1.209,0,0,1,.869.34,1.13,1.13,0,0,1,.35.84,1.13,1.13,0,0,1-.35.84A1.206,1.206,0,0,1,38.58,2.36Z" transform="translate(44.609 0)" fill="#f39"></path><path id="Fill_7" data-name="Fill 7" d="M4.52,4.64a1.147,1.147,0,0,1-.85-.35,1.163,1.163,0,0,1-.35-.85V3.3a3.454,3.454,0,0,1,.69-2.16A3.065,3.065,0,0,1,5.92,0l.3,1.06c-.85.2-1.334.609-1.44,1.22a1.259,1.259,0,0,1,.67.42,1.121,1.121,0,0,1,.27.74,1.149,1.149,0,0,1-.35.86A1.185,1.185,0,0,1,4.52,4.64Zm-3.32,0a1.147,1.147,0,0,1-.85-.35A1.163,1.163,0,0,1,0,3.44V3.3A3.459,3.459,0,0,1,.69,1.14,3.065,3.065,0,0,1,2.6,0l.3,1.06c-.85.2-1.334.609-1.44,1.22a1.259,1.259,0,0,1,.67.42,1.121,1.121,0,0,1,.27.74,1.149,1.149,0,0,1-.35.86A1.185,1.185,0,0,1,1.2,4.64Z" transform="translate(36.23 0.3)" fill="#082463"></path></g><path id="Fill_9" data-name="Fill 9" d="M62.03,18a6.3,6.3,0,0,1-6.356-6.371,6.368,6.368,0,1,1,12.735,0A6.321,6.321,0,0,1,62.03,18Zm0-10.684a4.122,4.122,0,0,0-3.021,1.236,4.2,4.2,0,0,0-1.232,3.077,4.2,4.2,0,0,0,1.232,3.076,4.34,4.34,0,0,0,6.066,0,4.2,4.2,0,0,0,1.232-3.076,4.2,4.2,0,0,0-1.232-3.077A4.15,4.15,0,0,0,62.03,7.316ZM47.482,18a6.3,6.3,0,0,1-6.355-6.371,6.368,6.368,0,1,1,12.735,0A6.149,6.149,0,0,1,52,16.159,6.211,6.211,0,0,1,47.482,18Zm0-10.684a4.121,4.121,0,0,0-3.02,1.236,4.2,4.2,0,0,0-1.232,3.077,4.2,4.2,0,0,0,1.232,3.076,4.339,4.339,0,0,0,6.065,0,4.2,4.2,0,0,0,1.233-3.076,4.2,4.2,0,0,0-1.233-3.077A4.147,4.147,0,0,0,47.482,7.316ZM20.66,18a6.16,6.16,0,0,1-4.543-1.829,6.225,6.225,0,0,1-1.812-4.542,6.226,6.226,0,0,1,1.812-4.543A6.163,6.163,0,0,1,20.66,5.257a6.127,6.127,0,0,1,3.214.86A5.42,5.42,0,0,1,26,8.43L24.237,9.448A3.6,3.6,0,0,0,22.823,7.9a4.329,4.329,0,0,0-5.2.654,4.221,4.221,0,0,0-1.219,3.077,4.19,4.19,0,0,0,1.219,3.052,4.11,4.11,0,0,0,3.033,1.236,4.22,4.22,0,0,0,2.174-.57,3.82,3.82,0,0,0,1.474-1.538L26.1,14.851a5.912,5.912,0,0,1-2.223,2.289A6.21,6.21,0,0,1,20.66,18ZM6.4,18a7.188,7.188,0,0,1-4.047-1.114A5.921,5.921,0,0,1,0,13.833l1.933-1.114A4.271,4.271,0,0,0,6.452,15.8,4.273,4.273,0,0,0,9.11,15.08a2.3,2.3,0,0,0,.918-1.9,2.041,2.041,0,0,0-.918-1.817,13.323,13.323,0,0,0-3.069-1.285q-.876-.3-1.41-.485l-.2-.07A11.576,11.576,0,0,1,3.033,8.9a4.391,4.391,0,0,1-1.245-.872,4.423,4.423,0,0,1-.737-1.175A4,4,0,0,1,.724,5.208a4.347,4.347,0,0,1,1.547-3.5A5.7,5.7,0,0,1,6.041.412,6.055,6.055,0,0,1,9.533,1.429a6.363,6.363,0,0,1,2.236,2.689L9.883,5.208A3.885,3.885,0,0,0,6.041,2.592a3.461,3.461,0,0,0-2.223.679,2.241,2.241,0,0,0-.846,1.839,1.978,1.978,0,0,0,.8,1.7A10.421,10.421,0,0,0,6.526,8.015c.439.157.758.27.959.341l.024.008c.2.071.5.18.914.326a8.43,8.43,0,0,1,.906.365c.182.091.432.221.786.411a3.234,3.234,0,0,1,.736.509c.2.2.384.4.566.6a2.336,2.336,0,0,1,.472.716,5.9,5.9,0,0,1,.254.836,4.559,4.559,0,0,1,.108,1.008,4.361,4.361,0,0,1-1.618,3.549A6.511,6.511,0,0,1,6.4,18Zm23.874-.314h-2.1V.727h2.1V7.316a4.311,4.311,0,0,1,3.914-2.059A4.5,4.5,0,0,1,37.6,6.6a5.089,5.089,0,0,1,1.281,3.646v7.437h-2.1V10.369a3.141,3.141,0,0,0-.8-2.29,2.953,2.953,0,0,0-2.2-.812,3.417,3.417,0,0,0-2.537.982,4.162,4.162,0,0,0-.967,3.016v6.42Zm42.722,0H70.9V0H73V17.684Z" transform="translate(904 5980)" fill="#3a30db"></path><path id="Fill_11" data-name="Fill 11" d="M39.47,17a6.205,6.205,0,0,1-6.264-6.271A6.3,6.3,0,0,1,43.924,6.27a6.052,6.052,0,0,1,1.834,4.459,6.05,6.05,0,0,1-1.834,4.459A6.128,6.128,0,0,1,39.47,17Zm0-10.515A4.064,4.064,0,0,0,36.492,7.7a4.13,4.13,0,0,0-1.215,3.028,4.131,4.131,0,0,0,1.215,3.028,4.283,4.283,0,0,0,5.979,0,4.131,4.131,0,0,0,1.215-3.028A4.152,4.152,0,0,0,39.47,6.485ZM16.459,17A4.444,4.444,0,0,1,13.1,15.677a5.008,5.008,0,0,1-1.263-3.588V4.768h2.073v7.2a3.092,3.092,0,0,0,.786,2.254,2.916,2.916,0,0,0,2.167.8,3.37,3.37,0,0,0,2.5-.966,4.093,4.093,0,0,0,.953-2.968V4.768h2.073V16.69H20.318V14.973A4.251,4.251,0,0,1,16.459,17Zm14.013-.2a4.568,4.568,0,0,1-2.437-.552,3.305,3.305,0,0,1-1.262-3.016V6.772H24.415v-2h2.359V2.05l2.072-.619V4.768h3.168v2H28.846v6.461a1.823,1.823,0,0,0,.346,1.252,1.427,1.427,0,0,0,1.06.382l.295,0c.409,0,.9-.013,1.467-.038V16.69A11.925,11.925,0,0,1,30.472,16.8Zm19.811-.111H48.212V4.768h2.072v2A3.751,3.751,0,0,1,54,4.554v2.17c-.07,0-.146-.005-.226-.005a3.713,3.713,0,0,0-2.393.816,3.443,3.443,0,0,0-1.1,2.837v6.317ZM7.1,16.69H4.907V2.1H0V0H12.029V2.1H7.1V16.689Z" transform="translate(722 5847)" fill="#f39"></path><path id="Fill_13" data-name="Fill 13" d="M4.069,11a8.084,8.084,0,0,1-1.478-.131,5.293,5.293,0,0,1-1.157-.333c-.295-.133-.56-.266-.788-.4a2.449,2.449,0,0,1-.484-.333L0,9.684.968,8.368c.089.066.217.155.4.281a5.366,5.366,0,0,0,1.057.456,4.774,4.774,0,0,0,1.586.281,2.564,2.564,0,0,0,1.569-.394,1.276,1.276,0,0,0,.51-1.062,1.184,1.184,0,0,0-.5-.99,6.723,6.723,0,0,0-1.936-.8A7.748,7.748,0,0,1,.932,4.9,2.349,2.349,0,0,1,.09,3,2.644,2.644,0,0,1,1.12.807,4.654,4.654,0,0,1,4.033,0,7.7,7.7,0,0,1,6.159.273,4.158,4.158,0,0,1,7.439.807l.34.263L6.812,2.491a2.053,2.053,0,0,0-.331-.246,5.48,5.48,0,0,0-.941-.386,4.643,4.643,0,0,0-1.507-.246,2.678,2.678,0,0,0-1.46.344,1.1,1.1,0,0,0-.529.972,1,1,0,0,0,.5.86,7.783,7.783,0,0,0,1.883.736,7.172,7.172,0,0,1,2.8,1.3,2.544,2.544,0,0,1,.842,1.982,2.919,2.919,0,0,1-1.03,2.3A4.418,4.418,0,0,1,4.069,11Zm33.378-.035a3.879,3.879,0,0,1-2.878-1.078,3.827,3.827,0,0,1-1.066-2.8,3.954,3.954,0,0,1,1.012-2.779,3.446,3.446,0,0,1,2.645-1.1,3.222,3.222,0,0,1,2.517,1.01,3.842,3.842,0,0,1,.906,2.657l-.018.456H35.224a2.375,2.375,0,0,0,.689,1.659,2.333,2.333,0,0,0,1.641.57A3.581,3.581,0,0,0,38.63,9.4a2.254,2.254,0,0,0,.717-.333l.233-.157.627,1.175a1.58,1.58,0,0,1-.287.245,4.378,4.378,0,0,1-.914.386A4.8,4.8,0,0,1,37.447,10.965Zm-.323-6.421A1.73,1.73,0,0,0,35.3,6.193h3.531C38.7,5.1,38.124,4.544,37.124,4.544ZM54.19,10.93a2.263,2.263,0,0,1-1.767-.649,2.567,2.567,0,0,1-.582-1.772V4.737H50.5V3.386h1.344V1.14H53.6V3.386h2.026V4.737H53.6V8.474a.857.857,0,0,0,.95.983A1.563,1.563,0,0,0,55,9.386a1.883,1.883,0,0,0,.358-.14l.126-.07L56,10.386A3.122,3.122,0,0,1,54.19,10.93Zm-26.512,0a3.319,3.319,0,0,1-2.52-1.06,3.943,3.943,0,0,1-.994-2.8,3.987,3.987,0,0,1,.986-2.782A3.231,3.231,0,0,1,27.624,3.21a3.43,3.43,0,0,1,1.4.264,2.176,2.176,0,0,1,.789.508l.179.263h.072V.14h1.757V10.754H30.635l-.269-1.087h-.071a.655.655,0,0,1-.082.14,2.833,2.833,0,0,1-.277.3,2.747,2.747,0,0,1-.484.378,3.081,3.081,0,0,1-.744.306A3.637,3.637,0,0,1,27.678,10.93Zm.358-6.3a1.912,1.912,0,0,0-1.506.684,2.6,2.6,0,0,0-.591,1.755,2.6,2.6,0,0,0,.591,1.754,1.91,1.91,0,0,0,1.506.684,1.99,1.99,0,0,0,1.524-.666,2.537,2.537,0,0,0,.609-1.772,2.561,2.561,0,0,0-.6-1.782A2,2,0,0,0,28.036,4.631Zm-9.572,6.3a2.913,2.913,0,0,1-2.269-.9,3.48,3.48,0,0,1-.815-2.413V3.386h1.757V7.457a2.336,2.336,0,0,0,.438,1.473,1.535,1.535,0,0,0,1.282.562,1.7,1.7,0,0,0,1.363-.57A1.863,1.863,0,0,0,20.7,7.7V3.386h1.757v7.368H21.314l-.305-1.017h-.071A2.821,2.821,0,0,1,18.463,10.93Zm-6.059,0a2.263,2.263,0,0,1-1.767-.649,2.567,2.567,0,0,1-.581-1.772V4.737H8.712V3.386h1.345V1.14h1.757V3.386h2.025V4.737H11.813V8.474a.857.857,0,0,0,.949.983,1.554,1.554,0,0,0,.448-.07,1.871,1.871,0,0,0,.359-.14l.125-.07.52,1.211A3.128,3.128,0,0,1,12.4,10.93Zm31.549-.175H42.2V3.386h1.147l.215,1.053h.108A2.846,2.846,0,0,1,46.194,3.21a3,3,0,0,1,2.3.9,3.408,3.408,0,0,1,.842,2.411v4.227H47.575V6.684A2.16,2.16,0,0,0,47.1,5.245a1.641,1.641,0,0,0-1.317-.561,1.7,1.7,0,0,0-1.3.509,1.9,1.9,0,0,0-.527,1.158v4.4Z" transform="translate(721 6034)" fill="#6c75ff"></path><path id="Fill_15" data-name="Fill 15" d="M96.109,14a5.432,5.432,0,0,1-2.762-.551,1.685,1.685,0,0,1-.9-1.492,1.869,1.869,0,0,1,1.22-1.676,1.592,1.592,0,0,1-1.13-1.553,1.555,1.555,0,0,1,1.039-1.4,2.243,2.243,0,0,1-.537-1.5,2.365,2.365,0,0,1,.816-1.84,3.25,3.25,0,0,1,2.232-.725,4.38,4.38,0,0,1,1.13.139h2.672V4.713H98.816v.035c.226.162.341.55.341,1.152a2.2,2.2,0,0,1-.807,1.693,3.305,3.305,0,0,1-2.259.716,3.87,3.87,0,0,1-1.6-.314.668.668,0,0,0-.431.576.479.479,0,0,0,.136.359,1.59,1.59,0,0,0,.653.252,8.946,8.946,0,0,0,1.489.175,6.239,6.239,0,0,1,2.843.6A1.748,1.748,0,0,1,100,11.539a2.094,2.094,0,0,1-1.03,1.745A4.983,4.983,0,0,1,96.109,14Zm-.914-3.37c-.7.267-1.058.666-1.058,1.187a.824.824,0,0,0,.494.715,3.089,3.089,0,0,0,1.479.28,3.374,3.374,0,0,0,1.606-.305.906.906,0,0,0,.546-.795c0-.626-.646-.967-1.919-1.012-.31,0-.7-.024-1.147-.07h0Zm.9-6.179a1.494,1.494,0,0,0-1.084.393,1.329,1.329,0,0,0,0,1.911,1.509,1.509,0,0,0,1.084.384A1.57,1.57,0,0,0,97.2,6.755a1.313,1.313,0,0,0,0-1.911A1.553,1.553,0,0,0,96.091,4.451ZM31.182,13.459H29.354L30.9,10.247,27.722,3.4h1.936l1.937,4.765a2.293,2.293,0,0,1,.126.542h.089a1.415,1.415,0,0,1,.126-.542L33.854,3.4h1.793L31.183,13.458ZM5.379,10.98A5.149,5.149,0,0,1,1.5,9.409,5.452,5.452,0,0,1,0,5.516,5.468,5.468,0,0,1,1.5,1.606,5.151,5.151,0,0,1,5.379.035a5.177,5.177,0,0,1,3.9,1.57,5.481,5.481,0,0,1,1.5,3.911,5.454,5.454,0,0,1-1.5,3.892A5.174,5.174,0,0,1,5.379,10.98Zm0-9.287A3.323,3.323,0,0,0,2.823,2.786a3.922,3.922,0,0,0-.994,2.731,3.866,3.866,0,0,0,.994,2.705A3.335,3.335,0,0,0,5.379,9.3,3.378,3.378,0,0,0,7.961,8.222a3.839,3.839,0,0,0,1-2.705,3.894,3.894,0,0,0-1-2.731A3.367,3.367,0,0,0,5.379,1.693Zm46.872,9.252A3.888,3.888,0,0,1,49.372,9.87a3.788,3.788,0,0,1-1.066-2.783,3.93,3.93,0,0,1,1.012-2.768,3.46,3.46,0,0,1,2.646-1.09,3.231,3.231,0,0,1,2.518,1,3.823,3.823,0,0,1,.907,2.646l-.018.454H50.028a2.352,2.352,0,0,0,.688,1.649,2.339,2.339,0,0,0,1.642.569,3.609,3.609,0,0,0,1.076-.158,2.255,2.255,0,0,0,.717-.331l.233-.157.627,1.169a1.569,1.569,0,0,1-.286.245,4.433,4.433,0,0,1-.915.384A4.828,4.828,0,0,1,52.251,10.945Zm-.323-6.389A1.728,1.728,0,0,0,50.1,6.2h3.533A1.6,1.6,0,0,0,51.928,4.556Zm7.316,6.354a3.043,3.043,0,0,1-2.062-.655,2.114,2.114,0,0,1-.753-1.666,2.08,2.08,0,0,1,.878-1.763,4.275,4.275,0,0,1,2.547-.646,6.054,6.054,0,0,1,1.721.245V6.179c0-1.019-.657-1.536-1.954-1.536a4.089,4.089,0,0,0-1.014.132,3.363,3.363,0,0,0-.761.269l-.251.14-.609-1.292a5.585,5.585,0,0,1,2.9-.663,3.594,3.594,0,0,1,2.519.794,2.866,2.866,0,0,1,.852,2.192v4.522h-1.22l-.215-.96h-.089A2.729,2.729,0,0,1,59.244,10.91Zm.807-3.683c-1.285,0-1.937.423-1.937,1.256a1.082,1.082,0,0,0,.412.866,1.713,1.713,0,0,0,1.112.339,2.03,2.03,0,0,0,1.353-.462A1.546,1.546,0,0,0,61.575,8.1V7.506A3.526,3.526,0,0,0,60.052,7.227ZM22.791,10.91a3.04,3.04,0,0,1-2.062-.655,2.114,2.114,0,0,1-.753-1.666,2.079,2.079,0,0,1,.878-1.763A4.273,4.273,0,0,1,23.4,6.179a6.058,6.058,0,0,1,1.722.245V6.179c0-1.019-.658-1.536-1.955-1.536a4.1,4.1,0,0,0-1.014.132,3.367,3.367,0,0,0-.76.269l-.251.14-.61-1.292a5.592,5.592,0,0,1,2.905-.663,3.593,3.593,0,0,1,2.518.794,2.866,2.866,0,0,1,.853,2.192v4.522H25.588l-.215-.96h-.09A2.726,2.726,0,0,1,22.791,10.91ZM23.6,7.227c-1.285,0-1.936.423-1.936,1.256a1.08,1.08,0,0,0,.412.866,1.708,1.708,0,0,0,1.111.339,2.03,2.03,0,0,0,1.353-.462A1.551,1.551,0,0,0,25.122,8.1V7.506A3.529,3.529,0,0,0,23.6,7.227Zm61.951,3.51H83.79V3.4h1.147l.215,1.048h.108a2.852,2.852,0,0,1,2.528-1.222,3.011,3.011,0,0,1,2.295.9,3.388,3.388,0,0,1,.843,2.4v4.207H89.169V6.686a2.143,2.143,0,0,0-.474-1.432A1.644,1.644,0,0,0,87.377,4.7a1.7,1.7,0,0,0-1.3.506,1.886,1.886,0,0,0-.53,1.152v4.382Zm-13.162,0H70.628V3.4h1.148l.215,1.048H72.1a2.852,2.852,0,0,1,2.528-1.222,3.014,3.014,0,0,1,2.3.9,3.391,3.391,0,0,1,.842,2.4v4.207H76.008V6.686a2.143,2.143,0,0,0-.473-1.432A1.645,1.645,0,0,0,74.215,4.7a1.7,1.7,0,0,0-1.3.506,1.886,1.886,0,0,0-.53,1.152v4.382Zm-58.113,0H12.516V.175h1.757V6.546L17.231,3.4h2.188L16.371,6.6l3.1,4.136-2.133,0L15.008,7.664l-.735.768v2.3Zm67.33,0H79.845V3.4H81.6v7.331Zm-14.522,0H65.323V3.4H66.47l.215,1.17h.09a2.218,2.218,0,0,1,2.152-1.187h.412V4.818h-.412a1.819,1.819,0,0,0-1.3.507,1.778,1.778,0,0,0-.545,1.291v4.119Zm-19.473,0H40.542V.262h1.775V9.2h5.29v1.535ZM80.724,2.06a1.069,1.069,0,0,1-.76-.3.973.973,0,0,1-.315-.734A.972.972,0,0,1,79.963.3a1.069,1.069,0,0,1,.76-.3A1.1,1.1,0,0,1,81.5.3a.971.971,0,0,1,.313.733.972.972,0,0,1-.313.734A1.1,1.1,0,0,1,80.724,2.06Z" transform="translate(890 6034)" fill="#6c75ff"></path><path id="Fill_17" data-name="Fill 17" d="M68.291,11a3.882,3.882,0,0,1-2.9-1.106,3.959,3.959,0,0,1-1.075-2.866,4.084,4.084,0,0,1,1.022-2.85A3.446,3.446,0,0,1,68,3.056,3.214,3.214,0,0,1,70.541,4.09a3.963,3.963,0,0,1,.913,2.722l-.018.467H66.05a2.455,2.455,0,0,0,.695,1.7,2.338,2.338,0,0,0,1.655.586A3.555,3.555,0,0,0,69.485,9.4a2.251,2.251,0,0,0,.723-.342l.235-.161.633,1.2a1.631,1.631,0,0,1-.289.251,4.34,4.34,0,0,1-.922.4A4.79,4.79,0,0,1,68.291,11Zm-.325-6.578a1.755,1.755,0,0,0-1.844,1.689h3.561C69.551,4.99,68.973,4.422,67.966,4.422ZM30.35,11a3.878,3.878,0,0,1-2.9-1.106,3.956,3.956,0,0,1-1.076-2.866A4.094,4.094,0,0,1,27.4,4.178a3.45,3.45,0,0,1,2.666-1.122A3.22,3.22,0,0,1,32.6,4.09a3.967,3.967,0,0,1,.913,2.722l-.018.467H28.108a2.453,2.453,0,0,0,.7,1.7,2.329,2.329,0,0,0,1.652.586A3.546,3.546,0,0,0,31.542,9.4a2.269,2.269,0,0,0,.724-.342L32.5,8.9l.633,1.2a1.631,1.631,0,0,1-.289.251,4.355,4.355,0,0,1-.922.4A4.78,4.78,0,0,1,30.35,11Zm-.326-6.578a1.755,1.755,0,0,0-1.843,1.689h3.56C31.61,4.99,31.032,4.422,30.024,4.422Zm55.15,6.542a2.262,2.262,0,0,1-1.781-.665,2.656,2.656,0,0,1-.587-1.815V4.62H81.451V3.236h1.355V.934h1.771v2.3H86.62V4.62H84.578V8.447c0,.668.322,1.007.959,1.007a1.557,1.557,0,0,0,.452-.072,1.875,1.875,0,0,0,.362-.144l.126-.072L87,10.407A3.115,3.115,0,0,1,85.174,10.964Zm-39.785,0a6.9,6.9,0,0,1-1.789-.215,3.829,3.829,0,0,1-1.1-.432l-.308-.233.633-1.2a4.437,4.437,0,0,0,2.513.736c.936,0,1.41-.29,1.41-.862a.674.674,0,0,0-.334-.557,2.422,2.422,0,0,0-.841-.352c-.354-.081-.719-.184-1.084-.305A9.716,9.716,0,0,1,43.4,7.117a2.115,2.115,0,0,1-.84-.7,1.906,1.906,0,0,1-.336-1.133,2,2,0,0,1,.76-1.609,3.4,3.4,0,0,1,2.187-.619,8.507,8.507,0,0,1,1.709.162,5.425,5.425,0,0,1,1.129.323l.326.162-.6,1.366a4.242,4.242,0,0,0-2.386-.647c-.911,0-1.373.272-1.373.809a.623.623,0,0,0,.335.521,2.535,2.535,0,0,0,.84.323c.331.071.7.168,1.1.288a8.467,8.467,0,0,1,1.1.413A2.059,2.059,0,0,1,48.2,7.5a2.014,2.014,0,0,1,.334,1.168,2.064,2.064,0,0,1-.778,1.653A3.659,3.659,0,0,1,45.389,10.964Zm-7.52,0a6.9,6.9,0,0,1-1.789-.215,3.849,3.849,0,0,1-1.1-.432l-.307-.233.633-1.2a4.437,4.437,0,0,0,2.513.736c.935,0,1.409-.29,1.409-.862a.674.674,0,0,0-.333-.557,2.422,2.422,0,0,0-.841-.352c-.354-.081-.719-.184-1.084-.305a9.714,9.714,0,0,1-1.084-.422,2.115,2.115,0,0,1-.84-.7,1.906,1.906,0,0,1-.336-1.133,2,2,0,0,1,.76-1.609,3.4,3.4,0,0,1,2.187-.619,8.507,8.507,0,0,1,1.709.162,5.425,5.425,0,0,1,1.129.323l.326.162-.6,1.366a4.242,4.242,0,0,0-2.386-.647c-.912,0-1.374.272-1.374.809a.622.622,0,0,0,.336.521,2.535,2.535,0,0,0,.84.323c.331.071.7.168,1.1.288a8.468,8.468,0,0,1,1.1.413,2.059,2.059,0,0,1,.841.719,2.014,2.014,0,0,1,.334,1.168,2.064,2.064,0,0,1-.778,1.653A3.659,3.659,0,0,1,37.869,10.964Zm-15.853,0a6.9,6.9,0,0,1-1.789-.215,3.84,3.84,0,0,1-1.1-.432l-.307-.233.633-1.2a4.437,4.437,0,0,0,2.513.736c.935,0,1.409-.29,1.409-.862a.674.674,0,0,0-.333-.557,2.422,2.422,0,0,0-.841-.352c-.354-.081-.719-.184-1.085-.305a9.716,9.716,0,0,1-1.084-.422,2.115,2.115,0,0,1-.84-.7,1.906,1.906,0,0,1-.336-1.133,2,2,0,0,1,.76-1.609A3.4,3.4,0,0,1,21.8,3.056a8.507,8.507,0,0,1,1.709.162,5.44,5.44,0,0,1,1.129.323l.326.162-.6,1.366a4.242,4.242,0,0,0-2.386-.647c-.912,0-1.374.272-1.374.809a.622.622,0,0,0,.336.521,2.535,2.535,0,0,0,.84.323c.331.071.7.168,1.1.288a8.468,8.468,0,0,1,1.1.413,2.066,2.066,0,0,1,.841.719,2.014,2.014,0,0,1,.334,1.168,2.064,2.064,0,0,1-.778,1.653A3.659,3.659,0,0,1,22.017,10.964Zm-7.519,0a6.914,6.914,0,0,1-1.79-.215,3.842,3.842,0,0,1-1.1-.432l-.307-.233.633-1.2a4.437,4.437,0,0,0,2.513.736c.935,0,1.409-.29,1.409-.862A.675.675,0,0,0,15.52,8.2a2.422,2.422,0,0,0-.842-.352c-.354-.081-.719-.184-1.084-.305a9.727,9.727,0,0,1-1.085-.422,2.11,2.11,0,0,1-.839-.7,1.906,1.906,0,0,1-.336-1.133,2,2,0,0,1,.76-1.609,3.4,3.4,0,0,1,2.187-.619,8.52,8.52,0,0,1,1.709.162,5.44,5.44,0,0,1,1.129.323l.326.162-.6,1.366a4.242,4.242,0,0,0-2.386-.647c-.912,0-1.374.272-1.374.809a.622.622,0,0,0,.336.521,2.535,2.535,0,0,0,.84.323c.331.071.7.168,1.1.288a8.468,8.468,0,0,1,1.1.413,2.066,2.066,0,0,1,.841.719,2.014,2.014,0,0,1,.333,1.168,2.063,2.063,0,0,1-.777,1.653A3.659,3.659,0,0,1,14.5,10.964Zm60.356-.178H73.082V3.236h1.157l.217,1.078h.109a2.852,2.852,0,0,1,2.548-1.258,3,3,0,0,1,2.314.924,3.529,3.529,0,0,1,.85,2.473v4.331H78.5V6.614a2.226,2.226,0,0,0-.48-1.473A1.636,1.636,0,0,0,76.7,4.566a1.694,1.694,0,0,0-1.31.521,1.961,1.961,0,0,0-.534,1.186v4.512Zm-17.5,0H55.584V6.435a1.945,1.945,0,0,0-.47-1.348,1.7,1.7,0,0,0-1.32-.521,1.652,1.652,0,0,0-1.291.511,1.989,1.989,0,0,0-.517,1.2v4.512H50.215V3.236h1.156l.217,1.078H51.7A2.846,2.846,0,0,1,54.21,3.056,2.924,2.924,0,0,1,56.9,4.422h.09a2.84,2.84,0,0,1,2.6-1.366,2.914,2.914,0,0,1,2.287.924,3.6,3.6,0,0,1,.822,2.473v4.331H60.934V6.614a2.285,2.285,0,0,0-.462-1.473,1.585,1.585,0,0,0-1.309-.575,1.669,1.669,0,0,0-1.291.5,1.962,1.962,0,0,0-.517,1.2v4.512Zm-55.457,0H0L4.447,0H6.254L10.7,10.783H8.821L7.935,8.573H2.766L1.9,10.785ZM5.351,2.067l-1.988,5H7.339Z" transform="translate(898 6205)" fill="#6c75ff"></path><path id="Stroke_19" data-name="Stroke 19" d="M81,92,78.287,81.234a11.046,11.046,0,0,0-8.931-8.18L66.01,72.5a41.413,41.413,0,0,1-11.654-3.76,7.47,7.47,0,0,1-4.166-6.686v-1.2a7.458,7.458,0,0,1,2.487-5.549c7.171-6.427,12-18.021,12-29.784C64.676,7.9,53.858,0,40.514,0S16.353,7.9,16.353,25.526c0,11.763,4.829,23.357,12,29.784a7.455,7.455,0,0,1,2.487,5.549v1.686a6.7,6.7,0,0,1-4.194,6.2s-7.6,3.091-11.652,3.76l-3.346.553a11.044,11.044,0,0,0-8.931,8.18L0,92" transform="translate(709 5924)" fill="none" stroke="#f39" stroke-linecap="round" stroke-linejoin="round" stroke-miterlimit="10" stroke-width="5"></path><path id="Stroke_21" data-name="Stroke 21" d="M72.165,92H9.318a4.843,4.843,0,0,1-4.835-4.841V4.841A4.843,4.843,0,0,1,9.318,0H72.165A4.844,4.844,0,0,1,77,4.841V87.159A4.844,4.844,0,0,1,72.165,92ZM28.655,24.212V43.579H57.663V24.212Z" transform="translate(898 6093)" fill="none" stroke="#f39" stroke-linecap="round" stroke-linejoin="round" stroke-miterlimit="10" stroke-width="5"></path><path id="Stroke_24" data-name="Stroke 24" d="M0,55H158V0H0Z" transform="translate(861 5961)" fill="none" stroke="#f39" stroke-linecap="round" stroke-linejoin="round" stroke-miterlimit="10" stroke-width="5"></path><path id="Stroke_25" data-name="Stroke 25" stroke="#f39" d="M1,0V22" fill="none" transform="translate(669 5846)" stroke-linecap="round" stroke-linejoin="round" stroke-miterlimit="10" stroke-width="5" stroke-dasharray="16.184 11.184"></path><path id="Stroke_27" data-name="Stroke 27" stroke="#f39" d="M0,1H126" fill="none" transform="translate(689 5881)" stroke-linecap="round" stroke-linejoin="round" stroke-miterlimit="10" stroke-width="5" stroke-dasharray="15.678 10.678"></path><path id="Stroke_28" data-name="Stroke 28" stroke="#f39" d="M1,22V0" fill="none" transform="translate(827 5841)" stroke-linecap="round" stroke-linejoin="round" stroke-miterlimit="10" stroke-width="5" stroke-dasharray="16.184 11.184"></path><path id="Stroke_29" data-name="Stroke 29" stroke="#f39" d="M126,1H0" fill="none" transform="translate(683 5826)" stroke-linecap="round" stroke-linejoin="round" stroke-miterlimit="10" stroke-width="5" stroke-dasharray="15.678 10.678"></path><path id="Stroke_30" data-name="Stroke 30" d="M158,55h-7.834L158,46.869V55ZM7.833,55H0V46.869L7.831,55ZM158,8.131l0,0L150.167,0H158V8.131Zm-158,0V0H7.833L0,8.129Z" transform="translate(670 5827)" fill="none" stroke="#f39" stroke-linecap="round" stroke-linejoin="round" stroke-miterlimit="10" stroke-width="5"></path><path id="Stroke_32" data-name="Stroke 32" d="M0,0,8,10,16,0" transform="translate(741 5899)" fill="none" stroke="#f39" stroke-linecap="round" stroke-linejoin="round" stroke-miterlimit="10" stroke-width="6"></path><path id="Stroke_33" data-name="Stroke 33" d="M0,0,8,10,16,0" transform="translate(932 6066)" fill="none" stroke="#f39" stroke-linecap="round" stroke-linejoin="round" stroke-miterlimit="10" stroke-width="5"></path><path id="Stroke_34" data-name="Stroke 34" d="M0,16,10,8,0,0" transform="translate(834 5980)" fill="none" stroke="#f39" stroke-linecap="round" stroke-linejoin="round" stroke-miterlimit="10" stroke-width="6"></path><g id="Group_37" data-name="Group 37" transform="translate(702 5797)"><path id="Clip_36-2" data-name="Clip 36" d="M0,0H95.15V12.3H0Z" transform="translate(0.243 0.79)" fill="none"></path><g id="Group_37-2" data-name="Group 37" clip-path="url(#clip-path)"><path id="Fill_35" data-name="Fill 35" d="M71.44,12.3h-1.1V3.088h.784l.128.992h.113c.022-.035.056-.082.088-.128a1.9,1.9,0,0,1,.264-.272,2.635,2.635,0,0,1,.472-.344,3.152,3.152,0,0,1,.713-.28,3.447,3.447,0,0,1,.959-.129A2.93,2.93,0,0,1,76.1,3.9a3.632,3.632,0,0,1,.9,2.543,3.643,3.643,0,0,1-.9,2.536,2.882,2.882,0,0,1-2.208.985A3.545,3.545,0,0,1,72.456,9.7a1.912,1.912,0,0,1-.792-.535l-.176-.257H71.44V12.3Zm2.208-8.448a2.122,2.122,0,0,0-1.615.7,2.667,2.667,0,0,0-.656,1.887,2.669,2.669,0,0,0,.656,1.888,2.124,2.124,0,0,0,1.615.7,2.028,2.028,0,0,0,1.592-.727,2.761,2.761,0,0,0,.632-1.865,2.759,2.759,0,0,0-.632-1.864A2.028,2.028,0,0,0,73.648,3.856ZM63.072,12.3h-1.1V3.088h.784l.129.992h.112c.015-.024.036-.054.061-.09l.027-.038a1.962,1.962,0,0,1,.264-.272,2.646,2.646,0,0,1,.472-.344,3.125,3.125,0,0,1,.712-.28,3.447,3.447,0,0,1,.959-.129,2.93,2.93,0,0,1,2.24.976,3.629,3.629,0,0,1,.9,2.543,3.64,3.64,0,0,1-.9,2.536,2.882,2.882,0,0,1-2.208.985A3.545,3.545,0,0,1,64.088,9.7a1.912,1.912,0,0,1-.792-.535l-.176-.257h-.048V12.3ZM65.28,3.856a2.122,2.122,0,0,0-1.616.7,2.667,2.667,0,0,0-.656,1.887,2.669,2.669,0,0,0,.656,1.888,2.124,2.124,0,0,0,1.616.7,2.028,2.028,0,0,0,1.592-.727A2.761,2.761,0,0,0,67.5,6.448a2.759,2.759,0,0,0-.632-1.864A2.028,2.028,0,0,0,65.28,3.856ZM48.768,10.032a6.153,6.153,0,0,1-1.24-.121,5.19,5.19,0,0,1-.96-.28,5.26,5.26,0,0,1-.656-.328,1.647,1.647,0,0,1-.391-.3L45.392,8.9,46,8.048c.044.038.143.122.32.257a3.976,3.976,0,0,0,.92.416,4.466,4.466,0,0,0,1.512.256,2.968,2.968,0,0,0,1.784-.44,1.438,1.438,0,0,0,.584-1.208,1.328,1.328,0,0,0-.528-1.088,6.477,6.477,0,0,0-2-.848,7.318,7.318,0,0,1-2.448-1.144,2.07,2.07,0,0,1-.736-1.672A2.251,2.251,0,0,1,46.32.7a4.041,4.041,0,0,1,2.5-.7A7.066,7.066,0,0,1,50,.1a4.784,4.784,0,0,1,.9.231,4.99,4.99,0,0,1,.6.281,1.742,1.742,0,0,1,.352.239l.112.1-.607.928a2.608,2.608,0,0,0-.28-.232,3.9,3.9,0,0,0-.849-.36,4.427,4.427,0,0,0-1.416-.224,3,3,0,0,0-1.632.4,1.262,1.262,0,0,0-.625,1.12,1.123,1.123,0,0,0,.536.96,7.8,7.8,0,0,0,1.992.8,6.11,6.11,0,0,1,2.48,1.192,2.385,2.385,0,0,1,.7,1.784A2.442,2.442,0,0,1,51.36,9.28,3.987,3.987,0,0,1,48.768,10.032Zm-43.984,0a4.51,4.51,0,0,1-3.449-1.44A5.076,5.076,0,0,1,0,5.024,5.086,5.086,0,0,1,1.336,1.432,4.523,4.523,0,0,1,4.784,0,4.83,4.83,0,0,1,6.544.312,3.616,3.616,0,0,1,7.664.928l.3.3-.64.864c-.07-.07-.168-.161-.311-.288a3.765,3.765,0,0,0-.857-.464A3.369,3.369,0,0,0,4.8,1.056,3.366,3.366,0,0,0,2.176,2.208,4.11,4.11,0,0,0,1.152,5.024a4.062,4.062,0,0,0,1.032,2.8A3.37,3.37,0,0,0,4.8,8.976a3.543,3.543,0,0,0,.856-.1,3.116,3.116,0,0,0,.713-.256A4.781,4.781,0,0,0,6.88,8.3c.144-.1.26-.19.337-.257l.112-.112.64.864c-.031.031-.072.075-.124.131l0,0a2.873,2.873,0,0,1-.376.3,4.449,4.449,0,0,1-.632.368,4.829,4.829,0,0,1-.888.3A4.876,4.876,0,0,1,4.784,10.032Zm88.909-.064a1.794,1.794,0,0,1-2-2.048V3.984H90.43v-.9h1.264V1.04h1.1V3.088h2v.9h-2V7.936c0,.722.334,1.088.992,1.088a1.708,1.708,0,0,0,.473-.072,1.5,1.5,0,0,0,.375-.152l.144-.08.368.8A2.312,2.312,0,0,1,93.694,9.968Zm-12.062,0a3.291,3.291,0,0,1-2.408-.96,3.414,3.414,0,0,1-.968-2.528,3.517,3.517,0,0,1,.968-2.568,3.427,3.427,0,0,1,4.816.008,3.494,3.494,0,0,1,.984,2.56,3.4,3.4,0,0,1-.976,2.528A3.331,3.331,0,0,1,81.632,9.968Zm0-6.144a2.119,2.119,0,0,0-1.624.728,2.733,2.733,0,0,0-.664,1.912,2.672,2.672,0,0,0,.664,1.9,2.208,2.208,0,0,0,3.248,0,2.682,2.682,0,0,0,.663-1.9,2.744,2.744,0,0,0-.663-1.912A2.128,2.128,0,0,0,81.632,3.824ZM56.5,9.968a2.5,2.5,0,0,1-2.008-.841,3.37,3.37,0,0,1-.712-2.248V3.088h1.1V6.752a2.746,2.746,0,0,0,.463,1.656,1.6,1.6,0,0,0,1.376.632,1.82,1.82,0,0,0,1.456-.6,2.144,2.144,0,0,0,.544-1.3V3.088h1.1v6.72h-.7l-.192-.96H58.88a2.173,2.173,0,0,1-.3.392,2.646,2.646,0,0,1-.768.463A3.126,3.126,0,0,1,56.5,9.968Zm-22.991,0a2.794,2.794,0,0,1-1.9-.608,1.961,1.961,0,0,1-.7-1.536,1.9,1.9,0,0,1,.8-1.592,3.741,3.741,0,0,1,2.272-.6,5.318,5.318,0,0,1,1.744.272v-.24c0-1.168-.646-1.76-1.921-1.76a3.455,3.455,0,0,0-.951.136,3.773,3.773,0,0,0-.712.264l-.24.144-.432-.912a4.5,4.5,0,0,1,2.416-.608c1.922,0,2.9.921,2.9,2.736V9.808h-.768l-.128-.928h-.08A2.6,2.6,0,0,1,33.5,9.968Zm.576-3.521c-1.359,0-2.048.452-2.048,1.345a1.18,1.18,0,0,0,.424.928,1.768,1.768,0,0,0,1.193.368,2.144,2.144,0,0,0,1.488-.536,1.689,1.689,0,0,0,.592-1.288v-.48A3.807,3.807,0,0,0,34.08,6.448ZM26.016,9.968a2.5,2.5,0,0,1-2.008-.841A3.377,3.377,0,0,1,23.3,6.88V3.088h1.1V6.752a2.74,2.74,0,0,0,.464,1.656,1.6,1.6,0,0,0,1.376.632,1.819,1.819,0,0,0,1.455-.6,2.141,2.141,0,0,0,.544-1.3V3.088h1.1v6.72h-.7l-.192-.96H28.4a2.17,2.17,0,0,1-.3.392,2.653,2.653,0,0,1-.769.463A3.118,3.118,0,0,1,26.016,9.968Zm-6.88,0A5.306,5.306,0,0,1,17.6,9.76a2.953,2.953,0,0,1-.944-.416l-.273-.208.5-.768a1.8,1.8,0,0,0,.288.184,4.974,4.974,0,0,0,.792.288,4.124,4.124,0,0,0,1.208.185c1.019,0,1.535-.334,1.535-.993a.763.763,0,0,0-.447-.671,4.265,4.265,0,0,0-1.08-.416c-.411-.1-.824-.221-1.264-.36a2.665,2.665,0,0,1-1.08-.641,1.5,1.5,0,0,1-.448-1.111,1.725,1.725,0,0,1,.625-1.376,2.824,2.824,0,0,1,1.856-.528,7.118,7.118,0,0,1,1.416.136,4.16,4.16,0,0,1,.952.281l.288.128-.448.944a3.8,3.8,0,0,0-2.111-.545c-1.03,0-1.552.312-1.552.928a.714.714,0,0,0,.448.625,4.321,4.321,0,0,0,1.08.383c.424.1.849.213,1.264.345a2.585,2.585,0,0,1,1.08.655,1.615,1.615,0,0,1,.448,1.176A1.825,1.825,0,0,1,21.1,9.408,2.907,2.907,0,0,1,19.136,9.968Zm-7.664,0a2.794,2.794,0,0,1-1.9-.608,1.961,1.961,0,0,1-.7-1.536,1.9,1.9,0,0,1,.8-1.592,3.749,3.749,0,0,1,2.272-.6A5.3,5.3,0,0,1,13.7,5.9v-.24c0-1.168-.646-1.76-1.921-1.76a3.455,3.455,0,0,0-.951.136,3.818,3.818,0,0,0-.712.264l-.24.144L9.44,3.536a4.5,4.5,0,0,1,2.416-.608c1.922,0,2.9.921,2.9,2.736V9.808h-.768l-.128-.928h-.08A2.6,2.6,0,0,1,11.472,9.968Zm.576-3.521C10.689,6.448,10,6.9,10,7.792a1.185,1.185,0,0,0,.424.928,1.768,1.768,0,0,0,1.192.368A2.137,2.137,0,0,0,13.1,8.552,1.689,1.689,0,0,0,13.7,7.264v-.48A3.807,3.807,0,0,0,12.048,6.448ZM87.822,9.808h-1.1V3.088H87.5l.1,1.184h.064a1.835,1.835,0,0,1,.76-.888,2.286,2.286,0,0,1,1.192-.312H90v.9H89.63a1.745,1.745,0,0,0-1.272.535,1.828,1.828,0,0,0-.536,1.337V9.807Zm-47.806,0h-1.1V.128h1.1V9.807Z" transform="translate(0.243 0.789)" fill="#082463"></path></g></g><path id="Stroke_38" data-name="Stroke 38" d="M107,103V0H0" transform="translate(831 5855)" fill="none" stroke="#f39" stroke-linecap="round" stroke-linejoin="round" stroke-miterlimit="10" stroke-width="5"></path><path id="Stroke_39" data-name="Stroke 39" d="M10,0,0,8l10,8" transform="translate(871 5847)" fill="none" stroke="#f39" stroke-linecap="round" stroke-linejoin="round" stroke-miterlimit="10" stroke-width="5"></path><path id="Stroke_40" data-name="Stroke 40" d="M16,10,8,0,0,10" transform="translate(929 5901)" fill="none" stroke="#f39" stroke-linecap="round" stroke-linejoin="round" stroke-miterlimit="10" stroke-width="5"></path><path id="Fill_41" data-name="Fill 41" d="M87.462,12h-1.1V2.917h.782l.128.978h.112l.026-.037c.019-.026.039-.056.062-.09a2.195,2.195,0,0,1,.263-.267,2.654,2.654,0,0,1,.471-.339,3.224,3.224,0,0,1,.71-.276,3.528,3.528,0,0,1,.958-.126,2.932,2.932,0,0,1,2.235.962A3.547,3.547,0,0,1,93,6.229a3.557,3.557,0,0,1-.894,2.5,2.884,2.884,0,0,1-2.2.969,3.578,3.578,0,0,1-1.428-.26,1.887,1.887,0,0,1-.79-.528l-.175-.252h-.048V12Zm2.2-8.326a2.138,2.138,0,0,0-1.612.694A2.622,2.622,0,0,0,87.4,6.229a2.621,2.621,0,0,0,.654,1.86,2.135,2.135,0,0,0,1.612.694,2.026,2.026,0,0,0,1.588-.717,2.691,2.691,0,0,0,.631-1.837,2.691,2.691,0,0,0-.631-1.837A2.024,2.024,0,0,0,89.664,3.674Zm-34.6,6.04A3.271,3.271,0,0,1,52.6,8.76a3.494,3.494,0,0,1-.918-2.515,3.672,3.672,0,0,1,.862-2.507,2.905,2.905,0,0,1,2.282-.977A2.688,2.688,0,0,1,57,3.69a3.6,3.6,0,0,1,.774,2.365v.268h-5a2.482,2.482,0,0,0,.67,1.821,2.3,2.3,0,0,0,1.676.639,3.283,3.283,0,0,0,1.022-.157,2.173,2.173,0,0,0,.671-.316l.207-.157.415.788c-.054.054-.134.125-.239.213a2.983,2.983,0,0,1-.774.347A4.165,4.165,0,0,1,55.064,9.714ZM54.808,3.69a1.846,1.846,0,0,0-1.963,1.75h3.8A1.74,1.74,0,0,0,54.808,3.69ZM12.019,9.714A3.276,3.276,0,0,1,9.553,8.76a3.491,3.491,0,0,1-.918-2.515A3.668,3.668,0,0,1,9.5,3.737a2.905,2.905,0,0,1,2.282-.977,2.687,2.687,0,0,1,2.178.931,3.59,3.59,0,0,1,.774,2.365v.268h-5a2.482,2.482,0,0,0,.67,1.821,2.307,2.307,0,0,0,1.676.639A3.284,3.284,0,0,0,13.1,8.626a2.163,2.163,0,0,0,.67-.316l.208-.157.415.788c-.055.054-.135.125-.239.213a2.982,2.982,0,0,1-.774.347A4.158,4.158,0,0,1,12.019,9.714ZM11.763,3.69A1.846,1.846,0,0,0,9.8,5.44h3.8A1.738,1.738,0,0,0,11.763,3.69ZM81.287,9.7a3.306,3.306,0,0,1-2.4-.946,3.344,3.344,0,0,1-.966-2.491,3.443,3.443,0,0,1,.966-2.531,3.45,3.45,0,0,1,4.8.007A3.425,3.425,0,0,1,84.67,6.26,3.284,3.284,0,0,1,81.287,9.7Zm0-6.055a2.124,2.124,0,0,0-1.62.718A2.676,2.676,0,0,0,79,6.244a2.615,2.615,0,0,0,.662,1.868,2.22,2.22,0,0,0,3.24,0,2.622,2.622,0,0,0,.662-1.868,2.683,2.683,0,0,0-.662-1.884A2.13,2.13,0,0,0,81.287,3.642Zm-8,6.055a3.306,3.306,0,0,1-2.4-.946,3.344,3.344,0,0,1-.966-2.491,3.443,3.443,0,0,1,.966-2.531,3.45,3.45,0,0,1,4.8.007,3.425,3.425,0,0,1,.982,2.524A3.286,3.286,0,0,1,73.291,9.7Zm0-6.055a2.124,2.124,0,0,0-1.62.718,2.676,2.676,0,0,0-.662,1.884,2.615,2.615,0,0,0,.662,1.868,2.22,2.22,0,0,0,3.24,0,2.622,2.622,0,0,0,.662-1.868,2.682,2.682,0,0,0-.662-1.884A2.13,2.13,0,0,0,73.291,3.642ZM39.056,9.7a1.779,1.779,0,0,1-2-2.018V3.8H35.8V2.917H37.06V.9h1.1V2.917h2V3.8h-2V7.7c0,.712.333,1.073.989,1.073a1.744,1.744,0,0,0,.471-.071A1.564,1.564,0,0,0,40,8.546l.144-.078.367.788A2.331,2.331,0,0,1,39.056,9.7Zm-6.1,0a3.187,3.187,0,0,1-2.4-.954,3.466,3.466,0,0,1-.918-2.5,3.5,3.5,0,0,1,.925-2.515,3.172,3.172,0,0,1,2.395-.97A4.457,4.457,0,0,1,34.14,2.9a1.849,1.849,0,0,1,.686.3L35,3.343l-.335.82a2.649,2.649,0,0,0-1.644-.489,2.141,2.141,0,0,0-1.62.687,2.65,2.65,0,0,0-.646,1.884,2.6,2.6,0,0,0,.639,1.876,2.168,2.168,0,0,0,1.627.662,2.951,2.951,0,0,0,.862-.126,2.475,2.475,0,0,0,.607-.252l.175-.111.3.82a2.439,2.439,0,0,1-.192.158,2.813,2.813,0,0,1-.646.26A3.873,3.873,0,0,1,32.959,9.7Zm-8.236,0a2.813,2.813,0,0,1-1.892-.6,1.925,1.925,0,0,1-.694-1.514,1.865,1.865,0,0,1,.8-1.57A3.762,3.762,0,0,1,25.2,5.424a5.368,5.368,0,0,1,1.74.268V5.456c0-1.151-.644-1.734-1.915-1.734a3.47,3.47,0,0,0-.949.134,3.76,3.76,0,0,0-.711.26l-.239.142-.43-.9a4.524,4.524,0,0,1,2.409-.6c1.917,0,2.889.907,2.889,2.7V9.54h-.766L27.1,8.626h-.079A2.6,2.6,0,0,1,24.723,9.7ZM25.3,6.229c-1.356,0-2.043.445-2.043,1.324a1.145,1.145,0,0,0,.423.915,1.777,1.777,0,0,0,1.189.363A2.156,2.156,0,0,0,26.351,8.3a1.658,1.658,0,0,0,.59-1.27V6.56A3.833,3.833,0,0,0,25.3,6.229ZM1.117,9.541H0V.079H3.75A4.076,4.076,0,0,1,6.44.891a2.9,2.9,0,0,1,.966,2.342,3.052,3.052,0,0,1-.583,1.9A3.028,3.028,0,0,1,5.235,6.2v.047L7.613,9.272v.267H6.449L3.974,6.4H1.117V9.54Zm0-8.438V5.377H3.863A2.685,2.685,0,0,0,5.61,4.849a1.936,1.936,0,0,0,.647-1.585,1.968,1.968,0,0,0-.671-1.616A2.873,2.873,0,0,0,3.735,1.1Zm68.2,8.437h-6.1V.079h1.117V8.515h4.98V9.539Zm-21.321,0h-.766L44.163,2.917h1.229l2.075,4.9a1.13,1.13,0,0,1,.112.442h.064a1.169,1.169,0,0,1,.128-.442l2.074-4.9h1.213L47.994,9.539Zm-5.124,0h-1.1V2.917h1.1V9.539ZM20.7,6.386H16.232V5.472H20.7v.913Zm21.611-4.92a.721.721,0,0,1-.535-.212.7.7,0,0,1-.216-.513.7.7,0,0,1,.223-.527.758.758,0,0,1,1.054,0,.7.7,0,0,1,.223.527.7.7,0,0,1-.215.513A.734.734,0,0,1,42.312,1.466Z" transform="translate(801 5914)" fill="#082463"></path></g></svg> 