<?xml version="1.0" encoding="UTF-8"?> <svg xmlns="http://www.w3.org/2000/svg" width="163.142" height="429.67" viewBox="0 0 163.142 429.67"><g id="Group_18" data-name="Group 18" transform="translate(2 1)"><g id="Group_15" data-name="Group 15" transform="translate(0 0.67)"><path id="Fill_1" data-name="Fill 1" d="M61.608,17.832A6.248,6.248,0,0,1,55.3,11.52a6.248,6.248,0,0,1,6.312-6.312A6.178,6.178,0,0,1,66.1,7.032a6.085,6.085,0,0,1,1.848,4.488A6.085,6.085,0,0,1,66.1,16.008,6.178,6.178,0,0,1,61.608,17.832Zm0-10.584a4.1,4.1,0,0,0-3,1.224,4.155,4.155,0,0,0-1.224,3.048,4.155,4.155,0,0,0,1.224,3.048,4.318,4.318,0,0,0,6.024,0,4.155,4.155,0,0,0,1.224-3.048,4.182,4.182,0,0,0-4.248-4.272ZM47.16,17.832a6.248,6.248,0,0,1-6.312-6.312A6.248,6.248,0,0,1,47.16,5.208a6.178,6.178,0,0,1,4.488,1.823A6.085,6.085,0,0,1,53.5,11.52a6.085,6.085,0,0,1-1.848,4.488A6.178,6.178,0,0,1,47.16,17.832Zm0-10.584a4.1,4.1,0,0,0-3,1.224,4.155,4.155,0,0,0-1.224,3.048,4.155,4.155,0,0,0,1.224,3.048,4.318,4.318,0,0,0,6.024,0,4.155,4.155,0,0,0,1.224-3.048A4.182,4.182,0,0,0,47.16,7.248ZM20.52,17.832a6.171,6.171,0,0,1-6.312-6.312A6.171,6.171,0,0,1,20.52,5.208a6.1,6.1,0,0,1,3.192.851,5.367,5.367,0,0,1,2.111,2.292L24.072,9.36a3.577,3.577,0,0,0-1.4-1.536,4.309,4.309,0,0,0-5.161.648A4.18,4.18,0,0,0,16.3,11.52a4.15,4.15,0,0,0,1.211,3.024,4.086,4.086,0,0,0,3.012,1.224,4.2,4.2,0,0,0,2.16-.564,3.794,3.794,0,0,0,1.464-1.524l1.776,1.032a5.862,5.862,0,0,1-2.208,2.268A6.182,6.182,0,0,1,20.52,17.832Zm-14.16,0a7.158,7.158,0,0,1-4.02-1.1A5.868,5.868,0,0,1,0,13.7l1.92-1.1a4.242,4.242,0,0,0,4.488,3.048,4.255,4.255,0,0,0,2.64-.708,2.273,2.273,0,0,0,.913-1.884,2.018,2.018,0,0,0-.913-1.8A13.219,13.219,0,0,0,6,9.982c-.68-.231-1.2-.409-1.572-.539L4.4,9.432A11.389,11.389,0,0,1,3.012,8.82a4.373,4.373,0,0,1-1.237-.864,4.372,4.372,0,0,1-.732-1.164A3.96,3.96,0,0,1,.72,5.16,4.3,4.3,0,0,1,2.256,1.692,5.666,5.666,0,0,1,6,.408,6.028,6.028,0,0,1,9.468,1.416a6.309,6.309,0,0,1,2.22,2.664L9.816,5.16A3.859,3.859,0,0,0,6,2.568a3.447,3.447,0,0,0-2.209.672,2.219,2.219,0,0,0-.84,1.822,1.956,1.956,0,0,0,.792,1.68,10.348,10.348,0,0,0,2.738,1.2l.806.286.171.061.135.048.773.273a8.55,8.55,0,0,1,.9.363c.195.1.457.234.779.408a3.2,3.2,0,0,1,.733.5c.193.2.377.392.562.59a2.308,2.308,0,0,1,.468.709,5.7,5.7,0,0,1,.252.828,4.477,4.477,0,0,1,.108,1,4.317,4.317,0,0,1-1.608,3.516A6.473,6.473,0,0,1,6.36,17.832Zm23.711-.31H27.984V.72h2.088V7.248A4.286,4.286,0,0,1,33.96,5.208,4.479,4.479,0,0,1,37.344,6.54a5.03,5.03,0,0,1,1.273,3.612v7.367H36.528V10.272A3.111,3.111,0,0,0,35.736,8a2.942,2.942,0,0,0-2.184-.8,3.4,3.4,0,0,0-2.52.972,4.12,4.12,0,0,0-.96,2.988v6.36Zm42.432,0H70.416V0H72.5V17.519Z" transform="translate(42.947 192.31)" fill="#3a30db"></path><path id="Fill_3" data-name="Fill 3" d="M4.086,11.286A7.983,7.983,0,0,1,2.6,11.15a5.135,5.135,0,0,1-1.162-.342c-.31-.143-.569-.275-.792-.4a2.475,2.475,0,0,1-.486-.342L0,9.936l.972-1.35c.091.068.22.16.406.288a5.341,5.341,0,0,0,1.062.468,4.707,4.707,0,0,0,1.592.288,2.548,2.548,0,0,0,1.576-.4,1.326,1.326,0,0,0,.512-1.09,1.229,1.229,0,0,0-.5-1.018A6.684,6.684,0,0,0,3.672,6.3,7.7,7.7,0,0,1,.936,5.022,2.43,2.43,0,0,1,.09,3.078,2.738,2.738,0,0,1,1.124.828,4.607,4.607,0,0,1,4.05,0,7.561,7.561,0,0,1,6.184.278,4.159,4.159,0,0,1,7.47.828l.342.27L6.84,2.556A2.051,2.051,0,0,0,6.508,2.3a5.4,5.4,0,0,0-.946-.4A4.555,4.555,0,0,0,4.05,1.656a2.649,2.649,0,0,0-1.466.35,1.134,1.134,0,0,0-.532,1,1.033,1.033,0,0,0,.5.882,7.691,7.691,0,0,0,1.89.756A7.139,7.139,0,0,1,7.254,5.976,2.636,2.636,0,0,1,8.1,8.01a3.02,3.02,0,0,1-1.034,2.358A4.372,4.372,0,0,1,4.086,11.286ZM37.6,11.25a3.855,3.855,0,0,1-2.89-1.106,3.981,3.981,0,0,1-1.07-2.872A4.109,4.109,0,0,1,34.658,4.42a3.427,3.427,0,0,1,2.656-1.126,3.2,3.2,0,0,1,2.528,1.034,4,4,0,0,1,.91,2.728l-.018.468H35.37a2.471,2.471,0,0,0,.692,1.7,2.323,2.323,0,0,0,1.648.584,3.523,3.523,0,0,0,1.08-.162,2.251,2.251,0,0,0,.72-.342l.234-.162.63,1.206a1.658,1.658,0,0,1-.288.252,4.327,4.327,0,0,1-.918.4A4.722,4.722,0,0,1,37.6,11.25Zm-.324-6.588a1.751,1.751,0,0,0-1.836,1.692h3.546C38.856,5.232,38.281,4.662,37.278,4.662Zm17.136,6.552a2.247,2.247,0,0,1-1.774-.666,2.671,2.671,0,0,1-.584-1.818V4.86h-1.35V3.474h1.35V1.17H53.82v2.3h2.034V4.86H53.82V8.694c0,.669.321,1.008.954,1.008a1.543,1.543,0,0,0,.45-.072,1.848,1.848,0,0,0,.36-.144l.126-.072.522,1.242A3.094,3.094,0,0,1,54.414,11.214Zm-26.622,0a3.3,3.3,0,0,1-2.53-1.09,4.1,4.1,0,0,1-1-2.87,4.139,4.139,0,0,1,.99-2.854,3.2,3.2,0,0,1,2.484-1.106,3.384,3.384,0,0,1,1.4.27,2.184,2.184,0,0,1,.792.522l.18.27h.072V.144H31.95v10.89H30.762l-.27-1.116H30.42a.6.6,0,0,1-.082.144,2.845,2.845,0,0,1-.278.306,2.9,2.9,0,0,1-.486.388,3.2,3.2,0,0,1-.748.314A3.567,3.567,0,0,1,27.792,11.214Zm.36-6.462a1.9,1.9,0,0,0-1.512.7,2.7,2.7,0,0,0-.594,1.8,2.7,2.7,0,0,0,.594,1.8,1.9,1.9,0,0,0,1.512.7,1.975,1.975,0,0,0,1.53-.684,2.638,2.638,0,0,0,.612-1.818,2.654,2.654,0,0,0-.6-1.828A1.98,1.98,0,0,0,28.152,4.752ZM18.54,11.214a2.893,2.893,0,0,1-2.278-.928,3.61,3.61,0,0,1-.818-2.474V3.474h1.764V7.65a2.432,2.432,0,0,0,.44,1.512,1.529,1.529,0,0,0,1.288.576A1.688,1.688,0,0,0,20.3,9.152,1.931,1.931,0,0,0,20.79,7.9V3.474h1.764v7.56H21.4L21.1,9.99h-.072A2.81,2.81,0,0,1,18.54,11.214Zm-6.084,0a2.247,2.247,0,0,1-1.774-.666A2.671,2.671,0,0,1,10.1,8.73V4.86H8.748V3.474H10.1V1.17h1.764v2.3H13.9V4.86H11.862V8.694c0,.669.321,1.008.954,1.008a1.542,1.542,0,0,0,.45-.072,1.848,1.848,0,0,0,.36-.144l.126-.072.522,1.242A3.094,3.094,0,0,1,12.456,11.214Zm31.68-.179H42.372V3.474h1.152l.216,1.08h.108a2.838,2.838,0,0,1,2.538-1.26,2.972,2.972,0,0,1,2.3.928A3.538,3.538,0,0,1,49.536,6.7v4.337H47.772V6.858a2.249,2.249,0,0,0-.478-1.476,1.628,1.628,0,0,0-1.322-.576,1.686,1.686,0,0,0-1.306.522,1.969,1.969,0,0,0-.53,1.188v4.518Z" transform="translate(51.68 112.524)" fill="#6c75ff"></path><path id="Fill_5" data-name="Fill 5" d="M96.478,14.436a5.322,5.322,0,0,1-2.772-.568,1.743,1.743,0,0,1-.9-1.538A1.924,1.924,0,0,1,94.03,10.6,1.64,1.64,0,0,1,92.9,9,1.6,1.6,0,0,1,93.94,7.56a2.351,2.351,0,0,1-.54-1.548,2.466,2.466,0,0,1,.82-1.9,3.208,3.208,0,0,1,2.24-.748,4.264,4.264,0,0,1,1.134.144h2.682V4.86H99.2V4.9c.227.168.342.568.342,1.188a2.3,2.3,0,0,1-.81,1.746,3.259,3.259,0,0,1-2.268.738,3.8,3.8,0,0,1-1.6-.324.686.686,0,0,0-.432.594.5.5,0,0,0,.136.37,1.571,1.571,0,0,0,.656.26,8.916,8.916,0,0,0,1.494.18,6.122,6.122,0,0,1,2.854.62,1.813,1.813,0,0,1,.818,1.63,2.171,2.171,0,0,1-1.034,1.8A4.9,4.9,0,0,1,96.478,14.436Zm-.918-3.474c-.7.275-1.062.687-1.062,1.224a.849.849,0,0,0,.5.738,3.039,3.039,0,0,0,1.484.288A3.323,3.323,0,0,0,98.09,12.9a.935.935,0,0,0,.548-.82c0-.645-.648-1-1.926-1.044A11.444,11.444,0,0,1,95.56,10.962Zm.9-6.372A1.477,1.477,0,0,0,95.372,5a1.4,1.4,0,0,0,0,1.97,1.5,1.5,0,0,0,1.088.4,1.556,1.556,0,0,0,1.116-.4,1.379,1.379,0,0,0,0-1.97A1.535,1.535,0,0,0,96.46,4.59ZM31.3,13.878H29.466l1.548-3.312L27.828,3.51h1.944l1.944,4.914a2.424,2.424,0,0,1,.126.558h.09a1.5,1.5,0,0,1,.126-.558L33.984,3.51h1.8L31.3,13.877ZM5.4,11.322A5.1,5.1,0,0,1,1.5,9.7,5.71,5.71,0,0,1,0,5.688,5.734,5.734,0,0,1,1.5,1.656,5.1,5.1,0,0,1,5.4.036a5.116,5.116,0,0,1,3.916,1.62,5.728,5.728,0,0,1,1.5,4.032A5.7,5.7,0,0,1,9.316,9.7,5.116,5.116,0,0,1,5.4,11.322Zm0-9.576A3.3,3.3,0,0,0,2.834,2.872a4.109,4.109,0,0,0-1,2.816,4.054,4.054,0,0,0,1,2.79A3.306,3.306,0,0,0,5.4,9.594,3.349,3.349,0,0,0,7.992,8.478,4.024,4.024,0,0,0,9,5.688,4.079,4.079,0,0,0,7.992,2.872,3.338,3.338,0,0,0,5.4,1.746Zm47.052,9.54a3.845,3.845,0,0,1-2.89-1.108,3.967,3.967,0,0,1-1.07-2.87,4.112,4.112,0,0,1,1.016-2.854A3.426,3.426,0,0,1,52.164,3.33a3.2,3.2,0,0,1,2.528,1.034,4.01,4.01,0,0,1,.91,2.728l-.018.468H50.22a2.456,2.456,0,0,0,.692,1.7,2.31,2.31,0,0,0,1.648.586,3.523,3.523,0,0,0,1.08-.162,2.251,2.251,0,0,0,.72-.342l.234-.162.63,1.206a1.657,1.657,0,0,1-.288.252,4.326,4.326,0,0,1-.918.4A4.722,4.722,0,0,1,52.452,11.286ZM52.128,4.7A1.751,1.751,0,0,0,50.292,6.39h3.546C53.706,5.268,53.131,4.7,52.128,4.7Zm7.344,6.552a3,3,0,0,1-2.07-.676,2.206,2.206,0,0,1-.756-1.718,2.164,2.164,0,0,1,.882-1.818,4.207,4.207,0,0,1,2.556-.666,5.917,5.917,0,0,1,1.728.252V6.372c0-1.051-.66-1.584-1.962-1.584a4.007,4.007,0,0,0-1.018.136,3.291,3.291,0,0,0-.764.278l-.252.144L57.2,4.014A5.483,5.483,0,0,1,60.12,3.33a3.542,3.542,0,0,1,2.528.818,3,3,0,0,1,.856,2.26V11.07H62.28l-.216-.99h-.09A2.71,2.71,0,0,1,59.472,11.25Zm.81-3.8c-1.29,0-1.944.436-1.944,1.3a1.122,1.122,0,0,0,.414.892,1.686,1.686,0,0,0,1.116.35,2.008,2.008,0,0,0,1.358-.476,1.609,1.609,0,0,0,.586-1.162V7.74A3.466,3.466,0,0,0,60.282,7.452Zm-37.4,3.8a3,3,0,0,1-2.07-.676,2.206,2.206,0,0,1-.756-1.718,2.164,2.164,0,0,1,.882-1.818,4.207,4.207,0,0,1,2.556-.666,5.917,5.917,0,0,1,1.728.252V6.372c0-1.051-.66-1.584-1.962-1.584a4.007,4.007,0,0,0-1.018.136,3.291,3.291,0,0,0-.764.278l-.252.144L20.61,4.014a5.483,5.483,0,0,1,2.916-.684,3.542,3.542,0,0,1,2.528.818,3,3,0,0,1,.856,2.26V11.07H25.686l-.216-.99h-.09A2.71,2.71,0,0,1,22.878,11.25Zm.81-3.8c-1.29,0-1.944.436-1.944,1.3a1.122,1.122,0,0,0,.414.892,1.686,1.686,0,0,0,1.116.35,2.008,2.008,0,0,0,1.358-.476,1.609,1.609,0,0,0,.586-1.162V7.74A3.466,3.466,0,0,0,23.688,7.452Zm62.188,3.619H84.112V3.51h1.152l.216,1.08h.108a2.838,2.838,0,0,1,2.538-1.26,2.982,2.982,0,0,1,2.3.926,3.556,3.556,0,0,1,.846,2.476v4.337H89.512V6.894a2.25,2.25,0,0,0-.476-1.476,1.63,1.63,0,0,0-1.324-.576,1.684,1.684,0,0,0-1.3.522,1.97,1.97,0,0,0-.532,1.188V11.07Zm-13.212,0H70.9V3.51h1.152l.216,1.08h.108a2.838,2.838,0,0,1,2.538-1.26,2.982,2.982,0,0,1,2.3.926,3.556,3.556,0,0,1,.846,2.476v4.337H76.3V6.894a2.25,2.25,0,0,0-.476-1.476A1.63,1.63,0,0,0,74.5,4.842a1.684,1.684,0,0,0-1.3.522,1.97,1.97,0,0,0-.532,1.188V11.07Zm-58.336,0H12.564V.18h1.764V6.75L17.3,3.51h2.2L16.434,6.8l3.113,4.264-2.141,0L15.066,7.9l-.738.792V11.07Zm67.588,0H80.152V3.51h1.764v7.559Zm-14.578,0H65.574V3.51h1.152l.216,1.206h.09a2.215,2.215,0,0,1,2.16-1.224h.414V4.968h-.414a1.8,1.8,0,0,0-1.306.522,1.857,1.857,0,0,0-.548,1.332v4.247Zm-19.548,0H40.7V.27H42.48V9.486h5.31v1.583ZM81.034,2.124a1.059,1.059,0,0,1-.764-.306,1.019,1.019,0,0,1-.316-.756A1.019,1.019,0,0,1,80.27.306,1.059,1.059,0,0,1,81.034,0a1.083,1.083,0,0,1,.784.306,1.018,1.018,0,0,1,.314.756,1.018,1.018,0,0,1-.314.756A1.083,1.083,0,0,1,81.034,2.124Z" transform="translate(29.541 245.968)" fill="#6c75ff"></path><path id="Stroke_7" data-name="Stroke 7" d="M80.72,91.554l-2.7-10.714a11,11,0,0,0-8.9-8.14l-3.334-.55a41.31,41.31,0,0,1-11.614-3.742,7.433,7.433,0,0,1-4.152-6.654v-1.19a7.417,7.417,0,0,1,2.478-5.522c7.146-6.4,11.958-17.934,11.958-29.64C64.452,7.862,53.672,0,40.374,0S16.3,7.862,16.3,25.4c0,11.706,4.812,23.244,11.958,29.64a7.414,7.414,0,0,1,2.478,5.522v1.678a6.663,6.663,0,0,1-4.18,6.166S18.976,71.484,14.94,72.15l-3.334.55a11,11,0,0,0-8.9,8.14L0,91.554" transform="translate(39.211 0.83)" fill="none" stroke="#f39" stroke-linecap="round" stroke-linejoin="round" stroke-miterlimit="10" stroke-width="5"></path><path id="Fill_9" data-name="Fill 9" d="M68,11.016a3.848,3.848,0,0,1-2.888-1.108,3.973,3.973,0,0,1-1.072-2.87,4.105,4.105,0,0,1,1.018-2.854A3.424,3.424,0,0,1,67.716,3.06,3.2,3.2,0,0,1,70.246,4.1a3.994,3.994,0,0,1,.908,2.726l-.018.468H65.772a2.468,2.468,0,0,0,.692,1.7,2.322,2.322,0,0,0,1.648.586,3.523,3.523,0,0,0,1.08-.162,2.252,2.252,0,0,0,.72-.342l.234-.162.63,1.206a1.658,1.658,0,0,1-.288.252,4.325,4.325,0,0,1-.918.4A4.722,4.722,0,0,1,68,11.016ZM67.68,4.428A1.751,1.751,0,0,0,65.844,6.12H69.39C69.258,5,68.683,4.428,67.68,4.428ZM30.222,11.016a3.848,3.848,0,0,1-2.888-1.108,3.973,3.973,0,0,1-1.072-2.87A4.112,4.112,0,0,1,27.28,4.184,3.424,3.424,0,0,1,29.934,3.06,3.2,3.2,0,0,1,32.464,4.1a3.994,3.994,0,0,1,.908,2.726l-.018.468H27.99a2.462,2.462,0,0,0,.694,1.7,2.314,2.314,0,0,0,1.646.586,3.523,3.523,0,0,0,1.08-.162,2.252,2.252,0,0,0,.72-.342l.234-.162.63,1.206a1.657,1.657,0,0,1-.288.252,4.326,4.326,0,0,1-.918.4A4.722,4.722,0,0,1,30.222,11.016ZM29.9,4.428A1.751,1.751,0,0,0,28.062,6.12h3.546C31.476,5,30.9,4.428,29.9,4.428ZM84.816,10.98a2.247,2.247,0,0,1-1.774-.666A2.671,2.671,0,0,1,82.458,8.5V4.626h-1.35V3.24h1.35V.936h1.764v2.3h2.034V4.626H84.222V8.46c0,.669.321,1.008.954,1.008a1.543,1.543,0,0,0,.45-.072,1.849,1.849,0,0,0,.36-.144l.126-.072.522,1.242A3.094,3.094,0,0,1,84.816,10.98Zm-39.618,0a6.812,6.812,0,0,1-1.782-.216,3.813,3.813,0,0,1-1.1-.432l-.306-.234.63-1.206a4.4,4.4,0,0,0,2.5.738c.932,0,1.4-.291,1.4-.864a.675.675,0,0,0-.332-.558,2.409,2.409,0,0,0-.838-.352c-.355-.083-.719-.186-1.08-.306a9.936,9.936,0,0,1-1.08-.422,2.107,2.107,0,0,1-.836-.7,1.913,1.913,0,0,1-.334-1.134A2,2,0,0,1,42.8,3.68a3.369,3.369,0,0,1,2.178-.62,8.442,8.442,0,0,1,1.7.162,5.457,5.457,0,0,1,1.124.324l.324.162-.594,1.368a4.205,4.205,0,0,0-2.376-.648c-.908,0-1.368.273-1.368.81a.623.623,0,0,0,.334.522,2.5,2.5,0,0,0,.836.324c.332.071.7.168,1.1.288a8.387,8.387,0,0,1,1.1.414,2.063,2.063,0,0,1,.838.72,2.027,2.027,0,0,1,.332,1.17,2.073,2.073,0,0,1-.774,1.656A3.63,3.63,0,0,1,45.2,10.98Zm-7.488,0a6.812,6.812,0,0,1-1.782-.216,3.813,3.813,0,0,1-1.1-.432l-.306-.234.63-1.206a4.4,4.4,0,0,0,2.5.738c.932,0,1.4-.291,1.4-.864a.675.675,0,0,0-.332-.558,2.409,2.409,0,0,0-.838-.352c-.355-.083-.719-.186-1.08-.306a9.932,9.932,0,0,1-1.08-.422,2.107,2.107,0,0,1-.836-.7,1.913,1.913,0,0,1-.334-1.134,2,2,0,0,1,.756-1.612,3.369,3.369,0,0,1,2.178-.62,8.442,8.442,0,0,1,1.7.162,5.457,5.457,0,0,1,1.124.324l.324.162L40.05,5.076a4.205,4.205,0,0,0-2.376-.648c-.908,0-1.368.273-1.368.81a.623.623,0,0,0,.334.522,2.5,2.5,0,0,0,.836.324c.332.071.7.168,1.1.288a8.387,8.387,0,0,1,1.1.414,2.063,2.063,0,0,1,.838.72,2.027,2.027,0,0,1,.332,1.17,2.073,2.073,0,0,1-.774,1.656A3.63,3.63,0,0,1,37.71,10.98Zm-15.786,0a6.812,6.812,0,0,1-1.782-.216,3.813,3.813,0,0,1-1.1-.432l-.306-.234.63-1.206a4.4,4.4,0,0,0,2.5.738c.932,0,1.4-.291,1.4-.864a.675.675,0,0,0-.332-.558,2.409,2.409,0,0,0-.838-.352c-.355-.083-.719-.186-1.08-.306a9.936,9.936,0,0,1-1.08-.422,2.107,2.107,0,0,1-.836-.7,1.913,1.913,0,0,1-.334-1.134A2,2,0,0,1,19.53,3.68a3.369,3.369,0,0,1,2.178-.62,8.442,8.442,0,0,1,1.7.162,5.457,5.457,0,0,1,1.124.324l.324.162-.594,1.368a4.205,4.205,0,0,0-2.376-.648c-.908,0-1.368.273-1.368.81a.623.623,0,0,0,.334.522,2.5,2.5,0,0,0,.836.324c.332.071.7.168,1.1.288a8.387,8.387,0,0,1,1.1.414,2.063,2.063,0,0,1,.838.72,2.027,2.027,0,0,1,.332,1.17,2.073,2.073,0,0,1-.774,1.656A3.63,3.63,0,0,1,21.924,10.98Zm-7.488,0a6.812,6.812,0,0,1-1.782-.216,3.813,3.813,0,0,1-1.1-.432L11.25,10.1l.63-1.206a4.4,4.4,0,0,0,2.5.738c.932,0,1.4-.291,1.4-.864a.675.675,0,0,0-.332-.558,2.409,2.409,0,0,0-.838-.352c-.355-.083-.719-.186-1.08-.306a9.936,9.936,0,0,1-1.08-.422,2.107,2.107,0,0,1-.836-.7,1.913,1.913,0,0,1-.334-1.134,2,2,0,0,1,.756-1.612,3.369,3.369,0,0,1,2.178-.62,8.442,8.442,0,0,1,1.7.162,5.457,5.457,0,0,1,1.124.324l.324.162-.594,1.368A4.205,4.205,0,0,0,14.4,4.428c-.908,0-1.368.273-1.368.81a.623.623,0,0,0,.334.522,2.5,2.5,0,0,0,.836.324c.332.071.7.168,1.1.288a8.387,8.387,0,0,1,1.1.414,2.063,2.063,0,0,1,.838.72,2.027,2.027,0,0,1,.332,1.17,2.073,2.073,0,0,1-.774,1.656A3.63,3.63,0,0,1,14.436,10.98Zm60.1-.179H72.774V3.24h1.152l.216,1.08h.108a2.838,2.838,0,0,1,2.538-1.26,2.977,2.977,0,0,1,2.3.926,3.546,3.546,0,0,1,.846,2.476V10.8H78.174V6.624A2.241,2.241,0,0,0,77.7,5.148a1.623,1.623,0,0,0-1.322-.576,1.679,1.679,0,0,0-1.3.522,1.97,1.97,0,0,0-.532,1.188V10.8Zm-17.424,0H55.35V6.444a1.954,1.954,0,0,0-.468-1.35,1.681,1.681,0,0,0-1.314-.522,1.643,1.643,0,0,0-1.286.512,2,2,0,0,0-.514,1.2V10.8H50V3.24h1.152l.216,1.08h.108a2.831,2.831,0,0,1,2.5-1.26,2.907,2.907,0,0,1,2.682,1.368h.09A2.823,2.823,0,0,1,59.346,3.06a2.893,2.893,0,0,1,2.278.926,3.619,3.619,0,0,1,.818,2.476V10.8H60.678V6.624a2.307,2.307,0,0,0-.458-1.476,1.579,1.579,0,0,0-1.306-.576,1.659,1.659,0,0,0-1.286.5,1.972,1.972,0,0,0-.514,1.206V10.8ZM1.89,10.8H0L4.428,0h1.8l4.427,10.8H8.784L7.9,8.586H2.754L1.89,10.8ZM5.328,2.07l-1.98,5h3.96Z" transform="translate(33.017 416.984)" fill="#6c75ff"></path><path id="Stroke_11" data-name="Stroke 11" d="M72.242,91.554H9.328a4.834,4.834,0,0,1-4.839-4.819V4.818A4.834,4.834,0,0,1,9.328,0H72.242a4.834,4.834,0,0,1,4.84,4.818V86.736A4.835,4.835,0,0,1,72.242,91.554ZM28.686,24.094V43.368H57.724V24.094Z" transform="translate(35.864 306.655)" fill="none" stroke="#f39" stroke-linecap="round" stroke-linejoin="round" stroke-miterlimit="10" stroke-width="5"></path><path id="Stroke_13" data-name="Stroke 13" d="M0,54.734H158.142V0H0Z" transform="translate(0.5 173.176)" fill="none" stroke="#f39" stroke-linecap="round" stroke-linejoin="round" stroke-miterlimit="10" stroke-width="5"></path></g><path id="Stroke_16" data-name="Stroke 16" d="M0,0,8.042,10.248,16.084,0" transform="translate(71.529 277.076)" fill="none" stroke="#f39" stroke-linecap="round" stroke-linejoin="round" stroke-miterlimit="10" stroke-width="5"></path><path id="Stroke_17" data-name="Stroke 17" d="M0,0,8.042,10.248,16.084,0" transform="translate(71.529 143.596)" fill="none" stroke="#f39" stroke-linecap="round" stroke-linejoin="round" stroke-miterlimit="10" stroke-width="5"></path></g></svg> 