<?xml version="1.0" encoding="UTF-8"?> <svg xmlns="http://www.w3.org/2000/svg" xmlns:xlink="http://www.w3.org/1999/xlink" width="120px" height="120px" viewBox="0 0 120 120"><!-- Generator: Sketch 55.2 (78181) - https://sketchapp.com --><title>Group 21</title><desc>Created with Sketch.</desc><g id="Page-1" stroke="none" stroke-width="1" fill="none" fill-rule="evenodd"><g id="6-Why-Peak" transform="translate(-842.000000, -1489.000000)"><g id="Group-21" transform="translate(842.000000, 1489.000000)"><circle id="Oval-Copy-4" fill="#FFFFFF" cx="60" cy="60" r="60"></circle><g id="Group-5" transform="translate(36.000000, 30.000000)" stroke="#FF3399" stroke-linecap="round" stroke-linejoin="round" stroke-width="3.2"><path d="M28.48736,28.8 C26.51936,28.8032 24.74656,29.9968 24.00096,31.8144 C23.25216,29.9936 21.47936,28.8 19.50496,28.8 C16.82656,28.8 14.65376,31.472 14.65376,34.1568 C14.65376,40.0288 22.75296,44.8 24.00096,44.8 C25.24576,44.8 33.34816,40.0288 33.34816,34.1568 C33.34816,31.472 31.17216,28.8 28.48736,28.8 Z" id="Stroke-1"></path><path d="M0,4.8 L0,57.6 C0,59.3664 1.4304,60.8 3.2,60.8 L44.8,60.8 C46.5696,60.8 48,59.3664 48,57.6 L48,12.8 C48,11.0336 46.5696,9.6 44.8,9.6 L4.8,9.6 C2.1504,9.6 0,7.4528 0,4.8 C0,2.1472 2.1504,0 4.8,0 L44.8,0" id="Stroke-3"></path></g></g></g></g></svg> 