<?xml version="1.0" encoding="UTF-8"?> <svg xmlns="http://www.w3.org/2000/svg" xmlns:xlink="http://www.w3.org/1999/xlink" width="120px" height="120px" viewBox="0 0 120 120"><!-- Generator: Sketch 55.2 (78181) - https://sketchapp.com --><title>Group 19</title><desc>Created with Sketch.</desc><g id="Page-1" stroke="none" stroke-width="1" fill="none" fill-rule="evenodd"><g id="6-Why-Peak" transform="translate(-478.000000, -1489.000000)"><g id="Group-19" transform="translate(478.000000, 1489.000000)"><circle id="Oval-Copy-3" fill="#FFFFFF" cx="60" cy="60" r="60"></circle><g id="Group-7" transform="translate(25.000000, 24.000000)" stroke="#FF3399" stroke-linecap="round" stroke-width="3.2"><path d="M44.98112,8.38112 C55.08992,18.48672 55.08992,34.87392 44.98112,44.98272 C34.87552,55.09152 18.48832,55.09152 8.37952,44.98272 C-1.72928,34.87392 -1.72928,18.48672 8.37952,8.38112 C18.48832,-1.72768 34.87552,-1.72768 44.98112,8.38112 Z" id="Stroke-1"></path><path d="M52.30304,44.98112 L63.28544,55.96352 C65.30464,57.98272 65.30464,61.26272 63.28544,63.28512 C61.26304,65.30752 57.98304,65.30752 55.96384,63.28512 L44.98144,52.30272" id="Stroke-3"></path><path d="M40.48448,40.76256 L39.55968,37.06336 C39.19808,35.60416 38.00128,34.50016 36.51648,34.25376 L35.37408,34.06176 C33.99488,33.83136 32.65728,33.39616 31.40288,32.77216 C30.53568,32.33376 29.98528,31.44736 29.98528,30.47136 L29.98528,30.06176 C29.98528,29.33536 30.29248,28.64416 30.83008,28.15776 C33.27488,25.94656 34.92288,21.96256 34.92288,17.92096 C34.92288,11.86656 31.23328,9.14976 26.68608,9.14976 C22.13888,9.14976 18.44928,11.86656 18.44928,17.92096 C18.44928,21.96256 20.09728,25.94656 22.54208,28.15776 C23.08288,28.64096 23.38688,29.33536 23.38688,30.06176 L23.38688,30.64096 C23.38688,31.57536 22.82368,32.41696 21.95968,32.77216 C21.95968,32.77216 19.36768,33.83136 17.98848,34.06176 L16.84608,34.25376 C15.36128,34.50016 14.16768,35.60416 13.80288,37.06336 L12.87808,40.76256" id="Stroke-5" stroke-linejoin="round"></path></g></g></g></g></svg> 