<?xml version="1.0" encoding="UTF-8"?> <svg xmlns="http://www.w3.org/2000/svg" xmlns:xlink="http://www.w3.org/1999/xlink" width="371px" height="623px" viewBox="0 0 371 623"><!-- Generator: Sketch 59.1 (86144) - https://sketch.com --><title>Group 11</title><desc>Created with Sketch.</desc><defs><polygon id="path-1" points="0.0303424 0.6633792 29.549344 0.6633792 29.549344 31.6696512 0.0303424 31.6696512"></polygon><polygon id="path-3" points="0.0487751765 0.061248 42.6241728 0.061248 42.6241728 49.020625 0.0487751765 49.020625"></polygon><polygon id="path-5" points="0 0.6640128 34.5943488 0.6640128 34.5943488 21.3447168 0 21.3447168"></polygon></defs><g id="Page-1" stroke="none" stroke-width="1" fill="none" fill-rule="evenodd"><g id="11-Jobs" transform="translate(-199.000000, -1300.000000)"><g id="Group-11" transform="translate(199.000000, 1300.000000)"><g id="Group-81" transform="translate(38.600000, 0.000000)"><path d="M93.1183387,441.597871 L90.6570403,428.545078 L61.0658611,428.545078 L64.1686795,447.709419 L65.7318499,447.794955 C72.4977475,448.171313 105.441938,449.914109 109.962516,448.543395 C115.00914,447.0123 93.1183387,441.597871 93.1183387,441.597871" id="Fill-1" fill="#3A30DB"></path><path d="M55.2703694,190.406866 C52.221011,217.588069 56.5576862,340.749217 58.9633862,438.80341 L99.1332302,438.277364 C99.1332302,438.277364 98.656367,254.873211 99.8880854,237.342608 L100.816151,195.036502 L55.2703694,190.406866 Z" id="Fill-3" fill="#00216C"></path><path d="M62.4164746,438.757649 C62.1320674,438.757649 61.6830034,388.505249 61.6830034,325.416033 C61.6830034,262.303296 61.9139506,211.157045 62.1983578,211.157045 C62.482765,211.157045 62.7137122,262.303296 62.7137122,325.416033 C62.7137122,388.505249 62.7008818,438.757649 62.4164746,438.757649" id="Fill-5" fill="#004397"></path><g id="Group-9" transform="translate(0.000000, 233.779392)" fill="#D8D6F8"><polygon id="Fill-7" points="91.5615835 56.6393731 7.13541312 67.3784179 -0.00042768 11.2753555 84.4257427 0.53844912"></polygon></g><polygon id="Fill-10" fill="#FFFFFF" points="54.3912732 252.926839 59.2347492 281.32693 74.624814 279.500736 69.31089 250.643028"></polygon><polygon id="Fill-12" fill="#002665" points="60.933708 256.312996 64.5091128 275.825896 65.8349208 275.37897 61.9130952 256.312996"></polygon><path d="M116.373439,439.187895 L118.926688,426.154347 L91.4461099,415.180078 L87.1286803,434.547567 L88.6426675,434.787067 C94.7862907,437.64397 124.732444,451.481556 129.441201,451.883575 C134.693112,452.334778 116.373439,439.187895 116.373439,439.187895" id="Fill-14" fill="#3A30DB"></path><path d="M105.500744,259.951697 C101.21539,244.880254 97.6998607,232.811124 97.6998607,232.811124 L99.8874439,194.029102 L130.586314,196.387757 C130.586314,196.387757 159.890948,301.214264 153.364551,327.756084 C145.540146,359.577615 122.58656,437.105307 122.58656,437.105307 L87.1126423,427.394832 C87.1126423,427.394832 120.925023,324.614775 120.713322,317.838185 C120.582879,313.723904 112.125507,283.251704 105.500744,259.951697" id="Fill-16" fill="#00216C"></path><path d="M174.417313,141.054519 L175.892809,135.999341 C175.892809,135.999341 177.278492,133.084702 178.546563,127.550523 C178.875877,126.113518 178.944306,124.629468 178.773234,123.166803 C178.565809,121.391931 178.193727,119.043968 177.592837,117.822941 C176.846535,116.311092 178.326308,114.679493 179.684192,115.387304 C181.042076,116.095114 183.197583,120.211534 183.340856,125.636655 C183.484129,131.061776 188.697548,124.295878 190.639215,121.864517 C192.583021,119.433156 198.949038,112.192534 200.170064,112.196809 C201.959905,112.205364 202.282803,114.125648 200.285538,116.507825 C198.262611,118.91994 192.801138,126.459939 194.135499,127.424357 C195.448477,128.373807 205.171782,115.85989 205.171782,115.85989 C205.171782,115.85989 206.81835,112.849023 208.396489,113.913946 C211.244838,115.829952 199.926287,128.371668 198.820734,129.539235 C198.05091,130.349688 199.462254,131.448826 200.240631,130.535729 C201.04467,129.592695 209.65173,117.827218 212.568507,119.751778 C214.807412,121.229412 203.354142,130.155094 202.926462,133.587226 C202.496643,137.019358 210.921939,125.936031 213.000464,127.432911 C213.776703,127.991033 214.277089,128.514941 208.518378,134.181701 C202.622809,139.985319 184.087158,153.10868 184.087158,153.10868 L174.408759,140.740174" id="Fill-18" fill="#FFC6B2"></path><path d="M42.862945,250.534611 L45.8866426,254.847764 C45.8866426,254.847764 47.2937098,257.751711 50.8220698,262.201722 C51.737305,263.356458 52.8514114,264.335845 54.1023754,265.116361 C55.6163626,266.065811 57.6799186,267.241931 59.0100034,267.53703 C60.6565714,267.900558 61.0029922,270.075311 59.6023402,270.69117 C58.2016882,271.309167 53.6426194,270.417455 49.3187746,267.137149 C44.9927914,263.858982 47.0157178,272.155974 47.6978674,275.192502 C48.3821554,278.231168 50.0522458,287.725664 49.2845602,288.675114 C48.1597618,290.067212 46.4597338,289.117763 45.8481514,286.070543 C45.2301538,282.982693 42.7603018,274.007828 41.173609,274.444062 C39.6104386,274.876019 43.2991786,290.289606 43.2991786,290.289606 C43.2991786,290.289606 44.6207098,293.456576 42.8030698,294.023252 C39.527041,295.047546 36.8134114,278.372303 36.5952946,276.779195 C36.4434682,275.671503 34.7028106,276.086353 34.929481,277.26675 C35.1625666,278.481361 38.9646418,292.554171 35.6394298,293.627648 C33.0861802,294.453071 33.2786362,279.935473 30.8686594,277.452791 C28.4586826,274.972247 31.8416314,288.476243 29.3717794,289.162669 C28.4522674,289.421415 27.7294882,289.483429 26.9083426,281.447322 C26.0636746,273.21662 27.4087282,250.545303 27.4087282,250.545303 L43.1131378,250.722791" id="Fill-20" fill="#FFC6B2"></path><path d="M174.446395,128.785663 C174.446395,128.785663 147.853253,163.346484 143.828784,164.72789 C139.800038,166.111435 141.899947,98.0696851 141.899947,98.0696851 C137.33874,74.0704219 110.598048,74.0704219 110.598048,74.0704219 L68.4288,71.1087379 C68.4288,71.1087379 53.1456552,71.7673651 48.7469664,86.1759043 L48.659292,86.0732611 C48.659292,86.0732611 48.445452,87.0847243 48.0626784,88.9344403 L48.06054,88.9344403 C44.1857592,107.688208 22.7996208,214.154868 27.2303856,259.950842 L46.4652936,256.99985 C46.4652936,256.99985 50.8639824,174.917366 63.2175192,125.20812 L64.2631968,134.837335 C66.643236,144.436612 67.1842512,155.184211 62.141904,163.692904 C53.7893136,177.78496 54.8649288,195.234304 54.8649288,195.234304 L129.924907,198.426936 C129.924907,198.426936 131.051844,208.04332 130.587811,196.386902 C154.313359,204.363134 195.89027,146.833759 195.89027,146.833759 L174.446395,128.785663 Z" id="Fill-22" fill="#6C75FF"></path><path d="M68.3995039,106.33674 C68.7095719,106.471459 66.8748247,111.092541 65.2197031,116.966726 C63.5389207,122.836634 62.6707303,127.729293 62.3371399,127.682248 C62.0377639,127.652311 62.4012919,122.616379 64.1077351,116.650243 C65.7906559,110.681968 68.1300655,106.204159 68.3995039,106.33674" id="Fill-24" fill="#3A30DB"></path><path d="M130.064331,105.35735 C130.143452,105.359491 130.18622,106.636116 130.194773,108.939172 C130.194773,111.445377 130.194773,114.72996 130.192635,118.692415 C130.175528,126.927393 130.21188,138.303681 130.333769,150.866781 C130.470627,163.33793 130.596792,174.620128 130.688744,183.049701 C130.703712,187.014295 130.716543,190.301016 130.727235,192.80722 C130.712266,195.110277 130.66736,196.384764 130.588239,196.386905 C130.509118,196.38904 130.402198,195.118831 130.278171,192.815774 C130.173389,190.313846 130.036532,187.029264 129.871875,183.066808 C129.587468,174.833968 129.300922,163.453404 129.176895,150.877473 C129.057144,138.30582 129.149096,126.91884 129.375766,118.681723 C129.482686,114.563164 129.615267,111.229399 129.745709,108.926342 C129.874013,106.625424 129.983072,105.355214 130.064331,105.35735" id="Fill-26" fill="#3A30DB"></path><path d="M105.626054,75.5596037 C105.268941,72.9785549 106.656763,62.2373717 106.656763,62.2373717 C106.656763,62.2373717 116.527617,61.5124541 117.438576,51.7741805 C118.349534,42.0359069 118.473561,19.5185549 118.473561,19.5185549 L100.836038,10.1823005 L80.643127,24.4817813 L76.0412902,35.1588125 L82.0886854,60.5587277 L82.065163,73.3613285 L105.626054,75.5596037 Z" id="Fill-28" fill="#FFC6B2"></path><path d="M117.15759,34.9697779 C117.136206,35.6583427 116.558838,36.2014963 115.868135,36.1779739 C115.17957,36.1565899 114.638555,35.5792219 114.659939,34.8885187 C114.681323,34.1999539 115.258691,33.6589387 115.949394,33.6803227 C116.637959,33.7038451 117.178974,34.2790747 117.15759,34.9697779" id="Fill-30" fill="#000D55"></path><path d="M117.24334,34.5333305 C117.076545,34.6894337 116.178417,33.8747033 114.83764,33.7592297 C113.496863,33.6245105 112.466154,34.2596153 112.331435,34.0757129 C112.263006,33.9923153 112.440493,33.6993545 112.891696,33.4106705 C113.336483,33.1241249 114.078508,32.8717937 114.912484,32.9509145 C115.748598,33.0278969 116.430748,33.4128089 116.813521,33.7763369 C117.20271,34.1441417 117.322461,34.4649017 117.24334,34.5333305" id="Fill-32" fill="#000D55"></path><path d="M101.822268,33.5163074 C102.378252,33.9226034 102.500141,34.7052578 102.091707,35.2612418 C101.683272,35.8193642 100.900618,35.9391146 100.344634,35.5306802 C99.7886498,35.1243842 99.6688994,34.3417298 100.075195,33.7857458 C100.48363,33.2297618 101.266284,33.107873 101.822268,33.5163074" id="Fill-34" fill="#000D55"></path><path d="M102.33912,34.054115 C102.172324,34.2102182 101.274196,33.3954878 99.9334195,33.2821526 C98.5947811,33.1474334 97.5619339,33.7803998 97.4272147,33.5964974 C97.3609243,33.5130998 97.5362731,33.2222774 97.9874755,32.9335934 C98.4322627,32.6449094 99.1742875,32.3947166 100.010402,32.471699 C100.844378,32.5486814 101.528666,32.9335934 101.909301,33.2971214 C102.29849,33.6649262 102.420379,33.9856862 102.33912,34.054115" id="Fill-36" fill="#000D55"></path><path d="M106.824841,45.5657638 C106.824841,45.4951966 107.669509,45.4246294 109.033808,45.3711694 C109.373814,45.3647542 109.720235,45.3284014 109.805771,45.069655 C109.908414,44.8044934 109.788664,44.4003358 109.649668,43.9705174 C109.388783,43.080943 109.110791,42.140047 108.819968,41.1542446 C108.244739,39.1505638 107.750768,37.3307854 107.417178,36.0049774 C107.085726,34.6813078 106.914654,33.8516086 106.983083,33.832363 C107.051512,33.810979 107.346611,34.6064638 107.767876,35.9044726 C108.191279,37.2046198 108.740848,39.0094294 109.316077,41.0109718 C109.591931,42.001051 109.857092,42.9462238 110.107285,43.8379366 C110.209928,44.2592014 110.400246,44.7339262 110.197098,45.240727 C110.090178,45.4930582 109.835708,45.657715 109.617592,45.700483 C109.397336,45.7496662 109.20488,45.7389742 109.035947,45.7346974 C107.669509,45.6962062 106.824841,45.636331 106.824841,45.5657638" id="Fill-38" fill="#000D55"></path><path d="M100.97033,44.0507074 C100.899762,45.1626754 99.1633817,45.9047002 97.0869953,45.8854546 C95.0106089,45.8619322 93.3063041,45.0835546 93.2806433,43.9715866 C93.2549825,42.8660338 94.9977785,41.8396018 97.1703929,41.8652626 C99.3430073,41.8845082 101.043035,42.947293 100.97033,44.0507074" id="Fill-40" fill="#FFA192"></path><path d="M102.343396,46.6954805 C101.011173,45.7481693 106.02786,49.0541357 108.771427,49.1418101 C108.771427,49.1418101 107.000832,51.5197109 104.274372,50.2623317 C101.44313,48.9600461 102.343396,46.6954805 102.343396,46.6954805" id="Fill-42" fill="#F5F0EB"></path><path d="M106.656763,62.2365163 C106.656763,62.2365163 100.083321,62.0996587 93.8712694,57.4571923 C93.8712694,57.4571923 96.5699302,64.7127835 106.365941,64.6229707 L106.656763,62.2365163 Z" id="Fill-44" fill="#FFA192"></path><g id="Group-48" transform="translate(65.252000, 0.693792)" fill="#3A30DB"><path d="M11.147686,45.168354 C13.7864716,51.1002756 15.4180708,59.7351348 15.4180708,59.7351348 C16.8721828,62.4316572 17.3575996,53.9315172 17.3575996,53.9315172 C17.3575996,53.9315172 18.6042868,45.7585524 17.4730732,42.5744748 C17.4730732,42.5744748 12.4991548,44.1825516 11.3807716,35.2611468 C10.826926,30.8496276 17.4859036,28.7368884 19.2992668,34.0743348 L23.454178,34.4571084 C23.454178,34.4571084 23.7920452,17.7904188 33.3678004,20.8611612 C33.3678004,20.8611612 40.3111852,25.1486532 44.4511276,22.5248364 C48.59107,19.9010196 48.2938324,18.994338 48.2938324,18.994338 C48.2938324,18.994338 50.2846828,23.378058 55.6242676,20.4997716 C60.9638524,17.6214852 61.667386,12.4850484 59.8155316,10.0323036 C58.7463316,8.612406 57.7092076,7.0342668 55.9599964,6.719922 C54.2107852,6.4034388 52.3140244,7.1005572 51.189226,8.47341 C52.4957884,6.5552652 51.5719996,3.6898092 49.628194,2.4174612 C47.6843884,1.14939 45.0926476,1.245618 42.9328636,2.0988396 C40.7730796,2.9520612 38.946886,4.4596332 37.161322,5.9458212 C35.9381572,2.4281532 32.1702964,-0.0224532 28.458034,0.2811996 C24.7436332,0.5869908 21.4291132,3.6213804 20.7961468,7.2930132 C18.7903276,4.7975004 14.943346,4.2265476 12.0543676,5.6100924 C9.1675276,6.9936372 7.26649,10.0045044 6.7126444,13.1586444 C6.1609372,16.3127844 6.8259796,19.582398 8.036314,22.5462204 C5.8038244,21.261042 2.7074212,22.1826924 1.204126,24.2740476 C-0.2991692,26.3675412 -0.3098612,29.2992876 0.787138,31.6280052 C1.8819988,33.9567228 3.9498316,35.7230412 6.240058,36.9012996 C4.5421684,38.2784292 4.0246756,40.912938 5.07463,42.826806 C6.1267228,44.7428124 8.6265124,45.7221996 10.698622,45.029358" id="Fill-46"></path></g><path d="M83.4465694,39.9575959 C83.4080782,39.9319351 83.3075734,40.0666543 83.070211,40.1949583 C82.8371254,40.3168471 82.4308294,40.4173519 81.9881806,40.2826327 C81.0900526,40.0131943 80.2667686,38.6638639 80.1363262,37.1691223 C80.0678974,36.4121287 80.183371,35.6829343 80.4164566,35.0692135 C80.632435,34.4469391 81.0002398,33.9978751 81.4386118,33.8930935 C81.8705686,33.7647895 82.1998822,34.0107055 82.3174942,34.2373759 C82.4415214,34.4640463 82.3987534,34.6329799 82.4436598,34.6436719 C82.4671822,34.6629175 82.6147318,34.4939839 82.5270574,34.1561167 C82.482151,33.9914599 82.3730926,33.8011423 82.1678062,33.6535927 C81.958243,33.5039047 81.6610054,33.4397527 81.3530758,33.4910743 C80.7158326,33.5744719 80.1748174,34.1988847 79.9203478,34.8724807 C79.6295254,35.5482151 79.4819758,36.3714991 79.5589582,37.2183055 C79.712923,38.8905343 80.664511,40.4045215 81.8876758,40.6803751 C82.482151,40.7979871 82.9590142,40.5905623 83.198515,40.3809991 C83.444431,40.1586055 83.476507,39.9704263 83.4465694,39.9575959" id="Fill-49" fill="#FFA192"></path><path d="M100.714577,240.534596 C100.729546,240.528396 100.81722,240.665254 100.973323,240.938969 C101.133703,241.234068 101.356097,241.644641 101.640504,242.168549 C102.217872,243.252718 103.051848,244.862933 104.108218,246.945735 C106.218819,251.109199 109.253208,257.150179 112.711001,264.758607 C116.119611,272.379864 119.987976,281.587815 123.037335,292.237047 C124.570567,297.555247 125.853607,303.234838 126.777396,309.194559 C127.664832,315.158556 128.12245,321.409099 127.979177,327.809331 C127.949239,331.012654 127.60068,334.15824 127.335519,337.263197 C127.11954,338.807122 126.9057,340.338216 126.69186,341.85648 C126.486574,343.379021 126.14443,344.863071 125.881407,346.34712 C124.686041,352.257658 123.159223,357.879511 121.373659,363.118591 C117.80467,373.603167 113.624098,382.667844 109.896867,390.139414 C106.152528,397.610983 102.900022,403.53649 100.624764,407.61228 C99.4935506,409.654452 98.5911458,411.226176 97.977425,412.291099 C97.6716338,412.804315 97.4342714,413.204196 97.2631994,413.49288 C97.0985426,413.762319 97.004453,413.894899 96.9894842,413.886735 C96.972377,413.877792 97.0343906,413.728104 97.1712482,413.443697 C97.3209362,413.142183 97.528361,412.725195 97.7935226,412.190595 C98.3708906,411.078627 99.2048666,409.474827 100.271928,407.421963 C102.438127,403.286297 105.590129,397.313746 109.242516,389.818654 C112.877796,382.321423 116.974971,373.254607 120.471255,362.819215 C122.224743,357.601519 123.717346,352.01388 124.891327,346.152526 C125.147935,344.679168 125.483664,343.207949 125.684674,341.700377 C125.894237,340.194943 126.1038,338.676679 126.315502,337.147723 C126.574248,334.072704 126.920669,330.957055 126.950607,327.785808 C127.089603,321.449729 126.642677,315.256923 125.778763,309.342108 C124.876359,303.431571 123.621118,297.788333 122.122099,292.495793 C119.143308,281.900021 115.360479,272.696347 112.04382,265.053706 C108.680117,257.423895 105.746232,251.340147 103.748967,247.123222 C102.761026,245.02759 101.989063,243.393852 101.454463,242.2605 C101.208547,241.715208 101.01823,241.291805 100.879234,240.983875 C100.755207,240.695191 100.699608,240.543365 100.714577,240.534596" id="Fill-51" fill="#3A30DB"></path><polygon id="Fill-53" fill="#3A30DB" points="81.4972039 65.9795717 78.6125023 72.9486173 98.4996223 78.8206637 99.2138479 69.4587485"></polygon><path d="M102.892537,79.3206216 C101.866105,74.1243096 102.242464,69.2423424 102.242464,69.2423424 L105.995356,68.0448384 L111.516705,74.105064 L102.892537,79.3206216 Z" id="Fill-55" fill="#3A30DB"></path><polyline id="Fill-57" fill="#3A30DB" points="112.807657 113.889996 112.807657 122.120698 118.474417 125.073828 123.570224 121.487731 123.570224 112.833626 112.807657 112.833626"></polyline><polygon id="Fill-59" fill="#3A30DB" points="174.446395 128.785663 168.76039 135.630681 190.698235 153.109963 195.89027 146.833759"></polygon><path d="M176.341659,134.586928 C176.341659,135.65399 175.475607,136.520042 174.408546,136.520042 C173.341484,136.520042 172.475432,135.65399 172.475432,134.586928 C172.475432,133.517728 173.341484,132.653814 174.408546,132.653814 C175.475607,132.653814 176.341659,133.517728 176.341659,134.586928" id="Fill-61" fill="#00397A"></path><polygon id="Fill-63" fill="#3A30DB" points="27.2299579 259.951697 46.4648659 257.000705 46.4648659 249.503475 26.6290675 253.036112"></polygon><path d="M44.6065963,254.164118 C44.6065963,255.233318 43.7405443,256.097231 42.6734827,256.097231 C41.6064211,256.097231 40.7403691,255.233318 40.7403691,254.164118 C40.7403691,253.097056 41.6064211,252.231004 42.6734827,252.231004 C43.7405443,252.231004 44.6065963,253.097056 44.6065963,254.164118" id="Fill-65" fill="#00397A"></path><path d="M80.8090668,157.55591 C80.719254,157.872393 77.586498,157.237289 73.7095788,156.672751 C69.8305212,156.095383 66.648582,155.802422 66.6549875,155.473109 C66.6549875,155.163041 69.9117804,154.938509 73.876374,155.528707 C77.843106,156.106075 80.8988796,157.260811 80.8090668,157.55591" id="Fill-67" fill="#3A30DB"></path><path d="M75.855677,154.690882 C75.8257394,155.009503 73.8006746,155.082209 71.3286842,154.855539 C68.8566938,154.62673 66.8786738,154.186219 66.906473,153.867598 C66.9364106,153.548976 68.9636138,153.476271 71.4356042,153.702941 C73.9054562,153.93175 75.8856146,154.37226 75.855677,154.690882" id="Fill-69" fill="#3A30DB"></path><path d="M140.02008,170.097198 C139.733534,169.971033 140.156937,168.392894 141.271044,166.752741 C142.380873,165.108311 143.691713,164.128924 143.914106,164.349179 C144.147192,164.573711 143.274725,165.848198 142.229047,167.400676 C141.176954,168.946739 140.317317,170.231918 140.02008,170.097198" id="Fill-71" fill="#3A30DB"></path><path d="M143.250774,170.313391 C142.932153,170.28773 142.771773,169.000413 142.893662,167.437243 C143.01555,165.874072 143.370525,164.627385 143.689146,164.653046 C144.007768,164.676568 144.168148,165.963885 144.046259,167.527056 C143.92437,169.090226 143.567258,170.336913 143.250774,170.313391" id="Fill-73" fill="#3A30DB"></path><polygon id="Fill-75" fill="#3A30DB" points="55.2703694 190.406866 54.8640734 195.233235 131.487222 199.666138 130.586956 196.387971"></polygon><polygon id="Fill-77" fill="#002665" points="65.5530797 190.9049 65.5530797 197.277332 74.9684549 198.132692 75.3512285 192.001899"></polygon><polygon id="Fill-79" fill="#002665" points="114.996309 194.056046 114.996309 200.42634 124.409546 201.283838 124.794458 195.150907"></polygon></g><g id="Group-147" transform="translate(0.000000, 181.500000)"><polygon id="Fill-1" fill="#FFC6B2" points="182.18249 181.62841 224.625242 149.200762 245.59529 100.472698 270.80201 107.680954 245.91209 158.52313 193.517594 198.30265"></polygon><g id="Group-146" transform="translate(0.000000, 0.730752)"><path d="M191.968019,179.392013 L187.082963,179.833421 C187.082963,179.833421 184.172627,180.578957 178.886291,180.743693 C177.513491,180.785933 176.147027,180.581069 174.839699,180.162893 C173.255699,179.656013 171.177491,178.895693 170.167955,178.124813 C168.921875,177.172301 167.164691,178.232525 167.568083,179.601101 C167.971475,180.967565 171.346451,183.675149 176.277971,184.781837 C181.209491,185.884301 174.092051,189.434573 171.521747,190.775693 C168.951443,192.112589 161.191955,196.632269 160.976531,197.747405 C160.661843,199.386317 162.357779,200.026253 164.896403,198.625997 C167.462483,197.213069 175.331795,193.574093 175.973843,194.963789 C176.607443,196.334477 163.426451,202.976717 163.426451,202.976717 C163.426451,202.976717 160.378835,203.939789 161.067347,205.572365 C162.309203,208.518605 175.800659,200.427533 177.065747,199.624973 C177.944339,199.067405 178.696211,200.556365 177.720467,201.103373 C176.715155,201.667277 164.421203,207.420365 165.656723,210.432077 C166.602899,212.742605 176.814419,203.880653 180.028883,204.102413 C183.243347,204.328397 171.602003,210.037133 172.596755,212.206157 C172.968467,213.015053 173.357075,213.568397 179.568467,209.323277 C185.931923,204.974669 201.248147,190.393421 201.248147,190.393421 L191.682899,179.328653" id="Fill-2" fill="#FFC6B2"></path><polygon id="Fill-4" fill="#6C75FF" points="322.249907 256.75225 359.883635 234.457978 370.454195 253.535674 332.763443 275.597626"></polygon><path d="M252.221901,301.492013 C264.879117,359.648045 348.235533,413.749037 348.235533,413.749037 L363.570765,397.378925 C363.570765,397.378925 295.435533,336.601901 292.580109,310.030829 C289.722573,283.459757 311.951373,241.815341 311.951373,241.815341 L288.915789,232.011437 L252.221901,301.492013 Z" id="Fill-6" fill="#FFA192"></path><path d="M328.989088,169.840493 C329.700832,169.880621 327.476896,205.191149 319.939168,220.615085 C319.183072,222.165293 318.591712,224.798957 316.437472,230.421101 C312.899872,239.652653 272.873248,298.860461 272.873248,314.362541 C272.873248,324.443117 242.004256,433.948205 242.004256,433.948205 L216.630688,429.067373 L234.13072,309.859757 L260.194912,196.787501 L328.989088,169.840493 Z" id="Fill-8" fill="#FFC6B2"></path><path d="M281.332864,72.2037888 C281.742592,69.8130048 280.771072,59.7704448 280.771072,59.7704448 C280.771072,59.7704448 271.604992,58.8010368 271.049536,49.7131008 C270.491968,40.6209408 271.049536,19.6572288 271.049536,19.6572288 L287.744896,11.4943488 L306.110848,25.4082048 L303.329344,70.8605568 L281.332864,72.2037888 Z" id="Fill-10" fill="#FFC6B2"></path><path d="M304.71545,32.420256 C304.71545,32.420256 289.722362,31.005216 287.071802,17.3976 L270.800954,32.420256 C270.800954,32.420256 265.86521,22.346016 274.877114,12.979296 C283.89113,3.612576 290.075066,5.555616 293.610554,5.555616 C296.905274,5.555616 313.568954,9.091104 318.530042,28.050528 C318.88697,29.423328 319.186874,32.82576 319.412858,34.36752 L304.71545,32.420256 Z" id="Fill-12" fill="#FF3399"></path><path d="M272.87367,34.9386048 C272.87367,35.5806528 273.395334,36.1023168 274.037382,36.1023168 C274.67943,36.1023168 275.201094,35.5806528 275.201094,34.9386048 C275.201094,34.2944448 274.67943,33.7727808 274.037382,33.7727808 C273.395334,33.7727808 272.87367,34.2944448 272.87367,34.9386048" id="Fill-14" fill="#000D55"></path><path d="M271.746496,33.6701376 C271.896448,33.8200896 272.758144,33.0893376 274.008448,33.0217536 C275.260864,32.9351616 276.202816,33.5560896 276.331648,33.3892416 C276.39712,33.3153216 276.240832,33.0365376 275.828992,32.7535296 C275.4256,32.4747456 274.743424,32.2191936 273.961984,32.2656576 C273.182656,32.3121216 272.536384,32.6521536 272.168896,32.9795136 C271.795072,33.3089856 271.674688,33.6025536 271.746496,33.6701376" id="Fill-16" fill="#000D55"></path><path d="M286.356256,34.9386048 C286.356256,35.5806528 286.87792,36.1023168 287.519968,36.1023168 C288.162016,36.1023168 288.68368,35.5806528 288.68368,34.9386048 C288.68368,34.2944448 288.162016,33.7727808 287.519968,33.7727808 C286.87792,33.7727808 286.356256,34.2944448 286.356256,34.9386048" id="Fill-18" fill="#000D55"></path><path d="M285.633318,33.6701376 C285.78327,33.8200896 286.642854,33.0893376 287.89527,33.0217536 C289.147686,32.9351616 290.087526,33.5560896 290.21847,33.3892416 C290.283942,33.3153216 290.127654,33.0365376 289.715814,32.7535296 C289.312422,32.4747456 288.628134,32.2191936 287.848806,32.2656576 C287.069478,32.3121216 286.423206,32.6521536 286.055718,32.9795136 C285.681894,33.3089856 285.559398,33.6025536 285.633318,33.6701376" id="Fill-20" fill="#000D55"></path><path d="M281.114272,44.2508352 C281.11216,44.3163072 280.322272,44.3500992 279.050848,44.3458752 C278.892448,44.3437632 278.712928,44.3479872 278.510176,44.2951872 C278.307424,44.2508352 278.072992,44.0860992 277.982176,43.8495552 C277.80688,43.3680192 277.99696,42.9308352 278.106784,42.5422272 C278.364448,41.7185472 278.639008,40.8484032 278.92624,39.9339072 C279.523936,38.0880192 280.08784,36.4258752 280.5208,35.2283712 C280.95376,34.0308672 281.253664,33.3022272 281.317024,33.3233472 C281.380384,33.3444672 281.198752,34.1111232 280.850272,35.3339712 C280.501792,36.5568192 279.988576,38.2379712 279.395104,40.0838592 C279.093088,40.9941312 278.807968,41.8600512 278.53552,42.6816192 C278.394016,43.0765632 278.269408,43.4503872 278.358112,43.6974912 C278.427808,43.9382592 278.744608,43.9826112 279.06352,43.9995072 C280.332832,44.0924352 281.116384,44.1832512 281.114272,44.2508352" id="Fill-22" fill="#000D55"></path><path d="M287.127558,44.8696512 C287.16135,45.9045312 288.75591,46.6500672 290.68839,46.6923072 C292.622982,46.7324352 294.230214,46.0587072 294.287238,45.0238272 C294.344262,43.9973952 292.753926,42.9899712 290.73063,42.9477312 C288.707334,42.9012672 287.093766,43.8389952 287.127558,44.8696512" id="Fill-24" fill="#FFA192"></path><path d="M285.25168,45.4346112 C286.51888,44.5940352 281.752096,47.5191552 279.194464,47.5191552 C279.194464,47.5191552 280.772128,49.7874432 283.348768,48.6997632 C286.02256,47.5698432 285.25168,45.4346112 285.25168,45.4346112" id="Fill-26" fill="#F5F0EB"></path><path d="M280.771917,59.7710784 C280.771917,59.7710784 286.894605,59.8407744 292.816653,55.7033664 C292.816653,55.7033664 290.087949,62.3772864 280.970445,62.0034624 L280.771917,59.7710784 Z" id="Fill-28" fill="#FFA192"></path><path d="M339.171674,231.447533 L337.057562,235.874285 C337.057562,235.874285 336.21065,238.755053 333.653018,243.384557 C332.98985,244.586285 332.115482,245.659181 331.08905,246.567341 C329.84297,247.671917 328.128026,249.070061 326.951642,249.543149 C325.496474,250.130285 325.511258,252.181037 326.892506,252.531629 C328.273754,252.884333 332.32457,251.365805 335.792474,247.688813 C339.26249,244.011821 338.679578,251.944493 338.516954,254.837933 C338.356442,257.733485 338.28041,266.711597 339.129434,267.467693 C340.377626,268.572269 341.792666,267.440237 341.887706,264.546797 C341.980634,261.615341 342.869786,252.992045 344.39465,253.148333 C345.896282,253.306733 344.878298,268.029485 344.878298,268.029485 C344.878298,268.029485 344.149658,271.142573 345.90473,271.383341 C349.07273,271.820525 349.003034,256.088237 348.960794,254.590829 C348.929114,253.551725 350.591258,253.665773 350.565914,254.783021 C350.536346,255.936173 349.205786,269.444525 352.426586,269.921837 C354.895514,270.285101 352.489946,256.979501 354.323162,254.331053 C356.156378,251.680493 355.12361,264.605933 357.495386,264.857261 C358.380314,264.950189 359.054042,264.899501 358.57673,257.389229 C358.086746,249.701549 353.368538,229.084205 353.368538,229.084205 L338.971034,231.660845" id="Fill-30" fill="#FFC6B2"></path><path d="M257.152154,176.756026 C256.520666,191.901178 258.955802,203.654458 258.955802,203.654458 L327.48809,201.056698 C327.48809,201.056698 335.636186,181.423546 320.324186,155.667706 C315.61865,147.749818 316.133978,137.732602 317.177306,117.290554 L324.767834,86.6897856 L315.831962,69.4453056 L275.199194,72.2035776 C275.199194,72.2035776 252.345242,72.2035776 241.704986,103.79065 L258.550298,123.647674 L258.736154,132.192826 L257.152154,176.756026 Z" id="Fill-32" fill="#D8D6F8"></path><path d="M287.519334,16.3080192 C287.519334,16.3080192 284.190822,22.7453952 285.612198,27.5924352 L271.039398,31.3517952 C271.039398,31.3517952 267.71511,12.8781312 287.519334,16.3080192" id="Fill-34" fill="#FF3399"></path><path d="M315.453914,22.8811968 C316.144538,21.0036288 317.411738,19.3013568 319.149914,18.3066048 C320.883866,17.3097408 323.099354,17.0922048 324.91145,17.9412288 C326.723546,18.7902528 328.007642,20.7691968 327.832346,22.7608128 C327.638042,24.9889728 325.695002,26.8116288 323.51753,27.3227328 C321.340058,27.8338368 319.021082,27.2213568 317.069594,26.1294528" id="Fill-36" fill="#FF3399"></path><path d="M311.692019,27.4393152 C311.390003,27.1246272 313.922291,24.4867392 315.795635,20.5035072 C317.719667,16.5435072 318.186419,12.9172032 318.621491,12.9552192 C318.811571,12.9657792 318.948851,13.9119552 318.790451,15.4304832 C318.636275,16.9447872 318.129395,19.0251072 317.121971,21.1392192 C316.108211,23.2469952 314.807219,24.9450432 313.725875,26.0158272 C312.642419,27.0929472 311.822963,27.5787072 311.692019,27.4393152" id="Fill-38" fill="#FF3399"></path><path d="M316.124262,24.8343744 C316.212966,24.6611904 316.884582,24.7794624 317.849766,25.2673344 C318.810726,25.7530944 320.03991,26.6443584 321.123366,27.8988864 C322.202598,29.1555264 322.905894,30.5008704 323.243814,31.5230784 C323.585958,32.5473984 323.604966,33.2316864 323.421222,33.2929344 C323.013606,33.4238784 321.99351,31.1260224 320.00823,28.8598464 C318.058854,26.5641024 315.934182,25.2166464 316.124262,24.8343744" id="Fill-40" fill="#FF3399"></path><path d="M319.412858,32.1790656 C319.412858,32.1790656 321.89657,52.9421376 304.193786,56.7247296 L304.71545,31.6236096 L319.412858,32.1790656 Z" id="Fill-42" fill="#FF3399"></path><path d="M316.683098,69.4463616 C316.683098,69.4463616 329.680346,69.9785856 334.375322,85.1511936 L324.271514,106.951258 L315.320858,69.4463616" id="Fill-44" fill="#FFC6B2"></path><path d="M317.490726,116.023776 L340.830438,105.677088 C340.830438,105.677088 337.943334,65.631456 313.211814,69.623136 L317.490726,116.023776 Z" id="Fill-46" fill="#D8D6F8"></path><path d="M337.954739,106.950835 C337.954739,106.950835 357.754739,198.132211 353.222387,244.986931 L335.310515,242.239219 C335.310515,242.239219 332.438195,158.023219 317.491571,116.023987 L337.954739,106.950835 Z" id="Fill-48" fill="#FFC6B2"></path><path d="M259.854035,129.483552 C259.440083,124.94064 254.297363,121.557216 254.787347,117.02064 C255.004883,114.995232 256.337555,113.286624 257.619539,111.700512 C260.200403,108.507168 262.779155,105.313824 265.360019,102.12048" id="Fill-50" fill="#D8D6F8"></path><path d="M306.706854,120.994368 C306.795558,121.135872 305.59383,122.122176 303.20727,122.774784 C300.867174,123.433728 297.247206,123.571008 293.741286,121.984896 C290.237478,120.388224 287.95863,117.572928 286.91319,115.376448 C285.833958,113.1504 285.785382,111.595968 285.950118,111.568512 C286.178214,111.509376 286.592166,112.930752 287.82135,114.867456 C289.023078,116.7936 291.21111,119.213952 294.34743,120.643776 C297.490086,122.065152 300.753126,122.117952 302.993958,121.7568 C305.262246,121.406208 306.603366,120.783168 306.706854,120.994368" id="Fill-52" fill="#6C75FF"></path><path d="M317.775213,147.887309 C317.880813,148.275917 314.989485,149.388941 311.263917,150.115469 C307.536237,150.848333 304.440045,150.905357 304.391469,150.506189 C304.338669,150.098573 307.308141,149.393165 310.980909,148.670861 C314.651565,147.957005 317.669613,147.490253 317.775213,147.887309" id="Fill-54" fill="#6C75FF"></path><path d="M317.109178,145.591776 C317.130208,145.99728 313.423648,146.516832 308.83216,146.751264 C304.23856,146.985696 300.50032,146.848416 300.47911,146.4408 C300.45808,146.035296 304.16464,145.517856 308.756128,145.283424 C313.349728,145.04688 317.087968,145.188384 317.109178,145.591776" id="Fill-56" fill="#6C75FF"></path><path d="M317.274035,116.374368 C316.887539,116.486304 314.986739,111.052128 313.276019,104.175456 C311.558963,97.298784 310.690931,91.606944 311.083763,91.524576 C311.485043,91.440096 312.995123,96.969312 314.703731,103.82064 C316.406003,110.667744 317.668979,116.26032 317.274035,116.374368" id="Fill-58" fill="#6C75FF"></path><path d="M213.213683,433.139309 C213.213683,433.139309 192.828659,438.182765 197.525747,439.606253 C202.222835,441.029741 239.865011,438.843821 239.865011,438.843821 L240.760499,430.877357 L213.213683,433.139309 Z" id="Fill-60" fill="#00216C"></path><polygon id="Fill-62" fill="#00216C" points="213.213683 433.139309 215.505203 420.984749 244.895795 421.582445 240.110003 439.226093"></polygon><path d="M349.431558,420.277651 C349.431558,420.277651 340.85895,439.448275 344.87175,436.622419 C348.886662,433.796563 370.33191,402.786067 370.33191,402.786067 L364.604166,397.174483 L349.431558,420.277651 Z" id="Fill-64" fill="#00216C"></path><g id="Group-68" transform="translate(341.232000, 388.608000)"><mask id="mask-2" fill="white"><use xlink:href="#path-1"></use></mask><g id="Clip-67"></g><polygon id="Fill-66" fill="#00216C" mask="url(#mask-2)" points="8.1995584 31.6696512 0.0303424 22.3831872 16.9918144 0.6633792 29.5497664 14.2181952"></polygon></g><path d="M257.876147,156.368256 L318.553907,151.952064 C318.553907,151.952064 339.536627,173.2368 325.857203,210.156672 C312.177779,247.074432 293.756915,295.05696 293.756915,295.05696 L237.900851,287.7072 C237.900851,287.7072 257.318579,172.045632 257.876147,156.368256" id="Fill-69" fill="#00216C"></path><path d="M264.463898,102.304013 C264.55049,102.523661 263.194586,103.089677 261.441626,104.538509 C259.697114,105.955661 257.593562,108.420365 256.634714,111.696077 C255.686426,114.976013 256.138394,118.188365 256.850138,120.319373 C257.555546,122.482061 258.391898,123.685901 258.201818,123.825293 C258.079322,123.937229 256.902938,122.929805 255.88073,120.695309 C254.858522,118.509389 254.157338,114.963341 255.221786,111.286349 C256.296794,107.613581 258.786842,104.996813 260.824922,103.700045 C262.886234,102.363149 264.419546,102.143501 264.463898,102.304013" id="Fill-73" fill="#6C75FF"></path><path d="M270.943091,72.814368 C270.943091,72.814368 262.630259,100.83216 278.227379,99.708576 C293.822387,98.584992 318.849587,69.485856 318.849587,69.485856 C318.686963,68.848032 275.549363,70.522848 270.943091,72.814368" id="Fill-75" fill="#FFC6B2"></path><polygon id="Fill-77" fill="#000D55" points="257.299782 160.161197 320.323974 155.666861 317.77479 147.886253 258.022086 152.298221"></polygon><path d="M35.9305024,215.854848 C35.9305024,215.854848 42.0595264,297.914496 38.2009024,308.263296 C34.2535744,318.854976 0.1004224,411.71328 0.1004224,411.71328 L30.6209344,424.735872 C30.6209344,424.735872 74.8546624,326.781312 75.8198464,320.29536 C76.7850304,313.809408 73.4079424,236.425728 73.4079424,236.425728 L64.1235904,220.078848 L35.9305024,215.854848 Z" id="Fill-79" fill="#3A30DB"></path><path d="M88.4189824,11.4652032 C88.4189824,11.4652032 91.3884544,16.8571392 91.2596224,22.1350272 C91.1983744,24.6081792 91.4497024,27.0749952 92.2205824,29.4235392 C93.1794304,32.3444352 94.1826304,35.8250112 93.7306624,36.4501632 C92.9281024,37.5610752 89.9206144,36.9401472 89.9206144,36.9401472 C89.9206144,36.9401472 89.9755264,52.5478272 82.2202624,51.5066112 C74.8958464,50.5224192 77.6541184,50.4294912 77.6541184,50.4294912 L77.3035264,59.9250432 L53.9448064,59.0591232 L54.3672064,47.6648832 L57.9364864,7.8621312 L88.4189824,11.4652032 Z" id="Fill-81" fill="#FFA192"></path><g id="Group-85" transform="translate(46.564000, 0.000000)"><mask id="mask-4" fill="white"><use xlink:href="#path-3"></use></mask><g id="Clip-84"></g><path d="M1.7992128,14.732256 C-2.9084352,18.552864 3.1192128,30.373728 5.4065088,35.404512 C7.6916928,40.433184 7.7677248,48.61296 7.7677248,48.61296 C22.4925888,51.2424 25.1304768,40.29168 25.1304768,40.29168 C25.1304768,40.29168 27.3290688,35.018016 21.6055488,34.56816 C15.0963648,34.052832 15.4427328,26.268 20.0637888,24.728352 C22.7988288,23.81808 24.4483008,26.660832 24.8052288,29.009376 C25.0079808,30.34416 26.3385408,29.501472 26.3385408,29.501472 C26.3385408,29.501472 26.2456128,25.057824 26.3237568,21.594144 C26.4061248,17.9256 25.9879488,13.726944 25.9879488,13.726944 L42.6241728,11.933856 C42.6241728,11.933856 40.8205248,-3.44784 15.3012288,0.803616 C3.8161728,2.7192 1.7992128,14.732256 1.7992128,14.732256" id="Fill-83" fill="#3A30DB" mask="url(#mask-4)"></path></g><path d="M69.0574336,31.673664 C69.0848896,31.682112 69.0848896,31.844736 68.9117056,32.066496 C68.7427456,32.277696 68.3731456,32.520576 67.8578176,32.510016 C66.7954816,32.46144 65.7711616,31.333632 65.3952256,29.956608 C65.2051456,29.255424 65.2072576,28.547904 65.3487616,27.935424 C65.4628096,27.335616 65.8239616,26.731584 66.3456256,26.56896 C66.5927296,26.480256 66.8525056,26.488704 67.0510336,26.583744 C67.2432256,26.676672 67.3636096,26.820288 67.4248576,26.951232 C67.5494656,27.221568 67.4523136,27.384192 67.4290816,27.37152 C67.3889536,27.369408 67.4016256,27.221568 67.2622336,27.050496 C67.1312896,26.877312 66.8187136,26.7168 66.4744576,26.889984 C66.1217536,27.04416 65.8809856,27.475008 65.7922816,28.028352 C65.6866816,28.577472 65.6993536,29.206848 65.8683136,29.829888 C66.1998976,31.063296 67.0911616,32.07072 67.8831616,32.163648 C68.2759936,32.212224 68.6012416,32.068608 68.7765376,31.929216 C68.9581696,31.787712 69.0215296,31.65888 69.0574336,31.673664" id="Fill-86" fill="#B77E69"></path><path d="M84.7107328,31.6179072 C84.4129408,32.9379072 82.3347328,33.5968512 80.0664448,33.0878592 C77.8002688,32.5788672 76.2014848,31.0941312 76.4992768,29.7720192 C76.7949568,28.4520192 78.8731648,27.7909632 81.1435648,28.3020672 C83.4097408,28.8110592 85.0085248,30.2957952 84.7107328,31.6179072" id="Fill-88" fill="#FFA192"></path><path d="M49.0789696,15.7388352 C50.6080576,11.9625792 48.7748416,7.1577792 45.1189696,5.3562432 C41.4652096,3.5547072 36.5379136,5.0309952 34.4744896,8.5453632 C33.5684416,10.0871232 33.2115136,12.0850752 34.0584256,13.6606272 C34.4998336,14.4821952 35.2242496,15.1200192 36.0078016,15.6311232 C39.5834176,17.9733312 44.6501056,17.7431232 47.9997376,15.0883392" id="Fill-90" fill="#3A30DB"></path><path d="M71.368384,29.0089536 C71.368384,29.0089536 75.5248,50.0592576 77.993728,50.8364736 C80.462656,51.6158016 87.466048,55.5525696 89.540032,43.3663296 L89.842048,38.9163456 C89.842048,38.9163456 79.909312,37.9406016 77.569216,35.9912256 C75.227008,34.0397376 72.880576,28.1303616 72.880576,28.1303616 L71.368384,29.0089536 Z" id="Fill-92" fill="#3A30DB"></path><path d="M87.6280384,25.2367104 C87.6069184,25.8491904 87.0958144,26.3286144 86.4833344,26.3096064 C85.8729664,26.2884864 85.3935424,25.7773824 85.4125504,25.1670144 C85.4315584,24.5545344 85.9447744,24.0729984 86.5551424,24.0941184 C87.1676224,24.1131264 87.6470464,24.6263424 87.6280384,25.2367104" id="Fill-94" fill="#000D55"></path><path d="M87.7034368,24.8489472 C87.5555968,24.9862272 86.7593728,24.2660352 85.5703168,24.1646592 C84.3812608,24.0442752 83.4667648,24.6081792 83.3463808,24.4434432 C83.2872448,24.3695232 83.4435328,24.1097472 83.8448128,23.8541952 C84.2376448,23.5986432 84.8944768,23.3768832 85.6357888,23.4465792 C86.3792128,23.5141632 86.9832448,23.8563072 87.3211648,24.1794432 C87.6675328,24.5046912 87.7731328,24.7898112 87.7034368,24.8489472" id="Fill-96" fill="#000D55"></path><path d="M55.2819136,7.4145984 C55.4424256,7.4314944 55.4255296,9.0028224 54.2047936,11.1380544 C53.0220736,13.2606144 50.4728896,15.7337664 46.9775296,17.0706624 C43.4906176,18.3948864 40.0987456,18.4624704 37.7565376,18.2935104 C35.3932096,18.1118784 33.9802816,17.7274944 33.9991002,17.5395264 C34.0204096,17.3219904 35.4734656,17.3409984 37.7713216,17.2522944 C40.0607296,17.1572544 43.2477376,16.9185984 46.4474176,15.6978624 C49.6344256,14.4771264 52.0336576,12.3735744 53.3346496,10.5678144 C54.6652096,8.7641664 55.0495936,7.3533504 55.2819136,7.4145984" id="Fill-98" fill="#3A30DB"></path><path d="M47.7135616,12.7687296 C48.0726016,12.9292416 47.1053056,15.7783296 44.9341696,18.7330176 C42.7714816,21.7003776 40.3511296,23.4807936 40.0892416,23.1893376 C39.8020096,22.8830976 41.6816896,20.7035136 43.7451136,17.8649856 C45.8254336,15.0391296 47.3355136,12.5870976 47.7135616,12.7687296" id="Fill-100" fill="#3A30DB"></path><path d="M48.704512,59.6308416 C36.72736,62.0849856 28.182208,72.7167936 28.3216,84.9410496 C28.602496,109.83097 32.530816,154.199866 29.34592,160.21273 C26.021632,166.493818 32.416768,175.564858 32.416768,175.564858 L95.696512,177.744442 L99.92896,70.0070976 C99.92896,70.0070976 79.911424,53.2357056 48.704512,59.6308416" id="Fill-102" fill="#FF82C1"></path><polygon id="Fill-104" fill="#FFA192" points="170.704614 176.595302 128.261862 144.167654 107.291814 95.4395904 82.0850944 102.647846 106.975014 153.490022 159.36951 193.269542"></polygon><path d="M160.919085,175.089658 L165.804141,175.533178 C165.804141,175.533178 168.714477,176.276602 174.000813,176.441338 C175.373613,176.483578 176.740077,176.278714 178.047405,175.860538 C179.631405,175.353658 181.709613,174.593338 182.717037,173.822458 C183.965229,172.869946 185.722413,173.93017 185.319021,175.298746 C184.915629,176.66521 181.540653,179.372794 176.609133,180.479482 C171.677613,181.584058 178.795053,185.132218 181.365357,186.473338 C183.935661,187.810234 191.695149,192.329914 191.910573,193.44505 C192.223149,195.083962 190.529325,195.723898 187.990701,194.323642 C185.424621,192.910714 177.553197,189.271738 176.913261,190.661434 C176.279661,192.032122 189.460653,198.674362 189.460653,198.674362 C189.460653,198.674362 192.508269,199.637434 191.817645,201.27001 C190.575789,204.21625 177.086445,196.125178 175.821357,195.322618 C174.942765,194.76505 174.190893,196.25401 175.166637,196.801018 C176.169837,197.364922 188.465901,203.11801 187.230381,206.129722 C186.284205,208.44025 176.072685,199.578298 172.858221,199.800058 C169.643757,200.026042 181.285101,205.73689 180.288237,207.903802 C179.918637,208.712698 179.530029,209.266042 173.318637,205.020922 C166.955181,200.672314 151.636845,186.091066 151.636845,186.091066 L161.204205,175.026298" id="Fill-106" fill="#FFA192"></path><path d="M99.92896,70.0073088 L120.461824,126.045005 L95.639488,138.017933 C95.639488,138.017933 70.817152,89.0237568 70.817152,84.5463168 C70.817152,80.0688768 79.3792,55.8421248 99.92896,70.0073088" id="Fill-108" fill="#FF3399"></path><path d="M120.462035,126.045427 C120.487379,126.094003 119.893907,126.446707 118.780883,127.054963 C117.665747,127.661107 116.028947,128.522803 113.967635,129.587251 C109.842899,131.720371 104.011667,134.670835 97.2405952,138.052147 L96.7886272,138.278131 L96.5964352,137.802931 C95.4010432,134.863027 94.0493632,131.707699 92.5604032,128.480563 C90.4631872,123.937651 88.3131712,119.673523 86.3785792,115.783219 C84.4397632,111.890803 82.7396032,108.357427 81.3984832,105.349939 C80.0468032,102.346675 79.0520512,99.8735232 78.3973312,98.1564672 C77.7552832,96.4309632 77.4321472,95.4657792 77.4933952,95.4404352 C77.5567552,95.4129792 78.0023872,96.3316992 78.7500352,98.0086272 C79.5103552,99.6813312 80.6001472,102.101683 82.0278592,105.058483 C83.4450112,108.019507 85.2043072,111.506419 87.1853632,115.375603 C89.1643072,119.242675 91.3438912,123.504691 93.4495552,128.070835 C94.9469632,131.310643 96.2944192,134.489203 97.4708032,137.456563 L96.8245312,137.207347 C103.620947,133.880947 109.507091,131.040307 113.703635,129.057139 C115.802963,128.064499 117.479891,127.287283 118.639379,126.769843 C119.798867,126.252403 120.438803,125.994739 120.462035,126.045427" id="Fill-110" fill="#FF3399"></path><path d="M95.6399104,138.018144 L98.9789824,144.354144 C98.9789824,144.354144 126.59127,132.6072 125.378982,131.394912 C124.164582,130.182624 121.95543,129.515232 121.95543,129.515232 C121.95543,129.515232 125.17623,124.927968 124.164582,124.927968 C123.155046,124.927968 95.6399104,138.018144 95.6399104,138.018144" id="Fill-112" fill="#FF3399"></path><path d="M88.3809664,177.744019 C88.1106304,177.746131 87.7452544,164.328595 87.5657344,147.778963 C87.3862144,131.227219 87.4601344,117.807571 87.7304704,117.805458 C88.0029184,117.801235 88.3682944,131.216659 88.5478144,147.770515 C88.7273344,164.320147 88.6513024,177.739795 88.3809664,177.744019" id="Fill-114" fill="#FF3399"></path><path d="M94.2530916,163.617907 C94.26352,163.683379 93.638368,163.848115 92.495776,164.088883 C91.355296,164.333875 89.693152,164.629555 87.633952,164.950579 C83.51344,165.592627 77.783584,166.268467 71.426464,166.633843 C65.067232,166.992883 59.297248,166.969651 55.130272,166.798579 C53.045728,166.714099 51.362464,166.608499 50.200864,166.494451 C49.039264,166.386739 48.399328,166.295923 48.4035312,166.226227 C48.409888,166.080499 50.986528,166.114291 55.142944,166.105843 C59.29936,166.099507 65.039776,166.012915 71.371552,165.653875 C77.696992,165.290611 83.409952,164.726707 87.541024,164.262067 C91.672096,163.797427 94.229728,163.476403 94.2530916,163.617907" id="Fill-116" fill="#FF3399"></path><path d="M92.007904,150.910848 C92.033248,151.181184 88.854688,151.709184 84.90736,152.093568 C80.960032,152.47584 77.73712,152.566656 77.711776,152.298432 C77.686432,152.028096 80.864992,151.497984 84.81232,151.117824 C88.759648,150.73344 91.980448,150.640512 92.007904,150.910848" id="Fill-118" fill="#FF3399"></path><path d="M92.004736,148.627776 C92.004736,148.898112 90.236992,149.11776 88.057408,149.11776 C85.877824,149.11776 84.11008,148.898112 84.11008,148.627776 C84.11008,148.35744 85.877824,148.137792 88.057408,148.137792 C90.236992,148.137792 92.004736,148.35744 92.004736,148.627776" id="Fill-120" fill="#FF3399"></path><path d="M52.9059136,58.8821376 L52.9059136,53.2473216 C52.9059136,53.2473216 73.7978176,53.6295936 80.6047936,56.0647296 L80.6047936,59.9254656 L52.9059136,58.8821376 Z" id="Fill-122" fill="#FF3399"></path><path d="M99.172864,69.8463744 C99.067264,70.0047744 97.466368,68.6425344 94.359616,67.6583424 C92.815744,67.1620224 90.898048,66.8177664 88.762816,66.8557824 C86.636032,66.8895744 84.295936,67.3521024 82.078336,68.3912064 C79.877632,69.4598784 78.042304,70.9847424 76.67584,72.6173184 C75.30304,74.2520064 74.361088,75.9606144 73.773952,77.4685824 C72.582784,80.5035264 72.635584,82.6049664 72.443392,82.5860863 C72.386368,82.5860863 72.318784,82.0706304 72.354688,81.1329024 C72.38848,80.1930624 72.591232,78.8350464 73.123456,77.2299264 C73.651456,75.6248064 74.570176,73.7979264 75.97888,72.0428544 C77.379136,70.2898944 79.30528,68.6467584 81.658048,67.5062784 C84.023488,66.3974784 86.513536,65.9349504 88.75648,65.9518464 C91.00576,65.9624064 93.005824,66.3995904 94.583488,66.9993984 C96.165376,67.5992064 97.350208,68.2982784 98.097856,68.8621824 C98.85184,69.4239744 99.208768,69.8020224 99.172864,69.8463744" id="Fill-124" fill="#FF3399"></path><path d="M70.2917095,82.1534208 C70.3001344,82.2822528 67.9874944,82.5758208 64.2302464,82.8377088 C60.4751104,83.0974848 55.2711424,83.2981248 49.5243904,83.2537728 C43.7734144,83.2009728 38.5736704,82.9116288 34.8227584,82.5884928 C31.0697344,82.2632448 28.7634304,81.9295488 28.7739543,81.8007168 C28.7866624,81.6592128 31.1119744,81.7500288 34.8671104,81.8957568 C38.6180224,82.0414848 43.8029824,82.2188928 49.5307264,82.2716928 C55.2584704,82.3181568 60.4434304,82.2273408 64.2006784,82.1449728 C67.9558144,82.0626048 70.2832384,82.0119168 70.2917095,82.1534208" id="Fill-126" fill="#FF3399"></path><path d="M78.5593791,60.7197888 C78.5698816,60.8465088 77.1252736,61.1126208 74.7619456,61.2836928 C72.3986176,61.4547648 69.1123456,61.4906688 65.5029376,61.1844288 C61.8935296,60.8697408 58.6621696,60.2699328 56.3643136,59.6975808 C54.0622336,59.1252288 52.6852096,58.6162368 52.7190016,58.4937408 C52.7908096,58.2065088 58.4530816,59.6109888 65.5874176,60.2065728 C72.7154176,60.8401728 78.5360896,60.4219968 78.5593791,60.7197888" id="Fill-128" fill="#FF3399"></path><path d="M32.4169792,175.564013 C32.4169792,175.564013 26.5899712,205.985261 35.9313472,215.854637 C41.2113472,221.434541 57.0281152,226.444205 60.3228352,237.420269 C62.9945152,246.311789 82.0848832,303.384365 82.0848832,318.464045 L82.0848832,427.762157 L120.873875,428.224685 C120.873875,428.224685 121.395539,308.117357 120.451475,303.726509 C119.507411,299.335661 92.0049472,177.760493 92.0049472,177.760493 L32.4169792,175.564013 Z" id="Fill-132" fill="#6C75FF"></path><polygon id="Fill-134" fill="#6C75FF" points="82.0850944 427.762368 82.0850944 415.685952 121.017702 417.536064 120.874086 428.224896"></polygon><g id="Group-138" transform="translate(0.100000, 403.392000)"><mask id="mask-6" fill="white"><use xlink:href="#path-5"></use></mask><g id="Clip-137"></g><polygon id="Fill-136" fill="#3A30DB" mask="url(#mask-6)" points="-0.000211199999 8.3221248 30.5224128 21.3447168 34.5943488 12.2947968 2.8150848 0.6640128"></polygon></g><g id="Group-141" transform="translate(0.000000, 412.632000)" fill="#00216C"><path d="M2.3127424,0.0266112 L0.0993664,5.0151552 C0.0993664,5.0151552 36.7425664,23.1656832 35.8681984,20.0737152 C34.9917184,16.9838592 26.2226944,10.2275712 26.2226944,10.2275712 L2.3127424,0.0266112 Z" id="Fill-139"></path></g><path d="M84.58,426.949248 L85.648672,432.626304 L131.766304,432.626304 C131.766304,432.626304 135.561568,427.557504 117.46384,427.34208 C99.366112,427.126656 84.58,426.949248 84.58,426.949248" id="Fill-142" fill="#00216C"></path><polygon id="Fill-144" fill="#3A30DB" points="32.4169792 175.564013 31.8404032 179.126957 93.0292672 182.286509 92.0049472 177.760493"></polygon></g></g></g></g></g></svg> 