<?xml version="1.0" encoding="UTF-8"?> <svg xmlns="http://www.w3.org/2000/svg" xmlns:xlink="http://www.w3.org/1999/xlink" width="120px" height="120px" viewBox="0 0 120 120"><!-- Generator: Sketch 55.2 (78181) - https://sketchapp.com --><title>Group 29</title><desc>Created with Sketch.</desc><g id="Page-1" stroke="none" stroke-width="1" fill="none" fill-rule="evenodd"><g id="4-Courses-1" transform="translate(-1024.000000, -5822.000000)"><g id="Group-29" transform="translate(1024.000000, 5822.000000)"><circle id="Oval-Copy-4" fill="#FFFFFF" cx="60" cy="60" r="60"></circle><g id="Group-8" transform="translate(30.000000, 31.000000)" stroke="#FF3399" stroke-linecap="round" stroke-linejoin="round" stroke-width="3.2"><path d="M6.40128,22.4 L60.80128,22.4" id="Stroke-1"></path><path d="M14.3168,6.4 L5.7248,6.4 C2.5632,6.4 -3.62376795e-13,9.2672 -3.62376795e-13,12.8 L-3.62376795e-13,51.2 C-3.62376795e-13,54.7328 2.5632,57.6 5.7248,57.6 L55.0752,57.6 C58.24,57.6 60.8,54.7328 60.8,51.2 L60.8,12.8 C60.8,9.2672 58.24,6.4 55.0752,6.4 L51.2,6.4" id="Stroke-3"></path><path d="M44.80128,9.05941988e-14 L44.80128,12.8" id="Stroke-5"></path><path d="M16.00128,9.05941988e-14 L16.00128,12.8" id="Stroke-7"></path><path d="M22.40128,6.4 L44.67328,6.352" id="Stroke-9"></path><polyline id="Stroke-11" points="20.80128 38.9328 27.78368 47.4672 40.00128 32.5328"></polyline></g></g></g></g></svg> 