<?xml version="1.0" encoding="UTF-8"?> <svg xmlns="http://www.w3.org/2000/svg" xmlns:xlink="http://www.w3.org/1999/xlink" width="120px" height="120px" viewBox="0 0 120 120"><!-- Generator: Sketch 55.2 (78181) - https://sketchapp.com --><title>Group 25</title><desc>Created with Sketch.</desc><g id="Page-1" stroke="none" stroke-width="1" fill="none" fill-rule="evenodd"><g id="4-Courses-1" transform="translate(-660.000000, -5497.000000)"><g id="Group-25" transform="translate(660.000000, 5497.000000)"><circle id="Oval-Copy-3" fill="#FFFFFF" cx="60" cy="60" r="60"></circle><g id="Group-16" transform="translate(25.000000, 28.000000)" stroke="#FF3399" stroke-linecap="round" stroke-linejoin="round" stroke-width="3.2"><g id="Group-15"><g id="Group-14" transform="translate(0.368906, 0.000000)"><path d="M33.5813417,36.0774176 L35.7029077,40.5878758 C35.7764657,40.7422879 35.9158386,40.84997 36.0784404,40.8743509 L40.8209922,41.5976496 C41.2313681,41.6606334 41.3959056,42.1888853 41.0978023,42.4916143 L37.6657435,46.0024574 C37.5476636,46.12233 37.4953987,46.2970594 37.522499,46.4677254 L38.3335722,51.425166 C38.4032586,51.8538627 37.9754611,52.1789407 37.6096071,51.9777987 L33.3664751,49.6372366 C33.2212949,49.5559671 33.0470788,49.5559671 32.9018986,49.6372366 L28.6607023,51.9777987 C28.2929126,52.1789407 27.8651151,51.8538627 27.9348015,51.425166 L28.7458747,46.4677254 C28.772975,46.2970594 28.7187744,46.12233 28.6026303,46.0024574 L25.1705714,42.4916143 C24.8724681,42.1888853 25.0370056,41.6606334 25.4454458,41.5976496 L30.1899333,40.8743509 C30.3525351,40.84997 30.491908,40.7422879 30.565466,40.5878758 L32.687032,36.0774176 C32.8689911,35.6873239 33.3993826,35.6873239 33.5813417,36.0774176 Z" id="Stroke-5"></path><polyline id="Stroke-1" points="13.4758208 27.9066597 8.23329117 13.8399584 17.8916311 2.16702338 24.5551884 20.2266597"></polyline><polyline id="Stroke-3" points="52.792469 27.9066597 58.0349987 13.8399584 48.3766588 2.16702338 41.7131014 20.2266597"></polyline><path d="M17.8919631,2.16802078 L48.3776548,2.16802078" id="Stroke-5"></path><path d="M22.1978762,13.8386286 L44.0710777,13.8386286" id="Stroke-9"></path><path d="M52.4095072,43.9118315 C52.4095072,54.5730212 43.7808494,63.2134188 33.1341449,63.2134188 C22.4874405,63.2134188 13.8587826,54.5730212 13.8587826,43.9118315 C13.8587826,33.2506417 22.4874405,24.6102442 33.1341449,24.6102442 C43.7808494,24.6102442 52.4095072,33.2506417 52.4095072,43.9118315 Z" id="Stroke-10"></path><path d="M67.995805,43.401974 L59.6954097,43.401974" id="Stroke-16"></path><path d="M8.17452437,52.4976208 L0.372152833,55.3402182" id="Stroke-18"></path><path d="M65.894809,31.4620675 L58.0924374,34.3046649" id="Stroke-20"></path><path d="M58.0937655,52.4976208 L65.896137,55.3402182" id="Stroke-22"></path><path d="M0.373480896,31.4620675 L8.17585244,34.3046649" id="Stroke-24"></path></g><path d="M8.30039526,43.1726823 L-8.2600593e-14,43.1726823" id="Stroke-14"></path></g></g></g></g></g></svg> 