<?xml version="1.0" encoding="UTF-8"?> <svg xmlns="http://www.w3.org/2000/svg" xmlns:xlink="http://www.w3.org/1999/xlink" width="120px" height="120px" viewBox="0 0 120 120"><!-- Generator: Sketch 55.2 (78181) - https://sketchapp.com --><title>Group 26</title><desc>Created with Sketch.</desc><g id="Page-1" stroke="none" stroke-width="1" fill="none" fill-rule="evenodd"><g id="4-Courses-1" transform="translate(-1024.000000, -5497.000000)"><g id="Group-26" transform="translate(1024.000000, 5497.000000)"><circle id="Oval-Copy-4" fill="#FFFFFF" cx="60" cy="60" r="60"></circle><g id="Group-3" transform="translate(33.000000, 36.000000)" stroke="#FF3399" stroke-linecap="round" stroke-linejoin="round" stroke-width="3.2"><path d="M22.08736,7.38752 L54.08736,7.38752" id="Stroke-1"></path><path d="M22.08736,26.58752 L54.08736,26.58752" id="Stroke-3"></path><path d="M22.08736,45.78752 L54.08736,45.78752" id="Stroke-5"></path><path d="M6.08736,4.52970994e-14 L6.08736,6.4" id="Stroke-7"></path><path d="M2.3248,11.57504 L6.088,6.40064" id="Stroke-9"></path><path d="M9.84832,11.57504 L6.08832,6.40064" id="Stroke-12"></path><path d="M6.92779167e-14,4.42176 L6.0864,6.39936" id="Stroke-13"></path><path d="M12.17344,4.42176 L6.08704,6.39936" id="Stroke-15"></path><path d="M6.08736,19.2 L6.08736,25.6" id="Stroke-16"></path><path d="M2.3248,30.77504 L6.088,25.60064" id="Stroke-17"></path><path d="M9.84832,30.77504 L6.08832,25.60064" id="Stroke-19"></path><path d="M6.92779167e-14,23.62176 L6.0864,25.59936" id="Stroke-20"></path><path d="M12.17344,23.62176 L6.08704,25.59936" id="Stroke-22"></path><path d="M6.08736,38.4 L6.08736,44.8" id="Stroke-23"></path><path d="M2.3248,49.97504 L6.088,44.80064" id="Stroke-24"></path><path d="M9.84832,49.97504 L6.08832,44.80064" id="Stroke-26"></path><path d="M6.92779167e-14,42.82176 L6.0864,44.79936" id="Stroke-28"></path><path d="M12.17344,42.82176 L6.08704,44.79936" id="Stroke-31"></path></g></g></g></g></svg> 