<?xml version="1.0" encoding="UTF-8"?> <svg xmlns="http://www.w3.org/2000/svg" xmlns:xlink="http://www.w3.org/1999/xlink" width="120px" height="120px" viewBox="0 0 120 120"><!-- Generator: Sketch 55.2 (78181) - https://sketchapp.com --><title>Group 27</title><desc>Created with Sketch.</desc><g id="Page-1" stroke="none" stroke-width="1" fill="none" fill-rule="evenodd"><g id="4-Courses-1" transform="translate(-296.000000, -5822.000000)"><g id="Group-27" transform="translate(296.000000, 5822.000000)"><circle id="Oval-Copy-2" fill="#FFFFFF" cx="60" cy="60" r="60"></circle><g id="Group-18" transform="translate(37.000000, 30.000000)" stroke="#FF3399" stroke-linecap="round" stroke-linejoin="round" stroke-width="3.2"><g id="Group-22"><path d="M8,9.6 L4.8,9.6 C2.1504,9.6 -1.84741111e-13,7.4496 -1.84741111e-13,4.8 C-1.84741111e-13,2.1504 2.1504,1.81188398e-13 4.8,1.81188398e-13 L46.4,1.81188398e-13" id="Stroke-3"></path><path d="M0,4.8 L0,57.6 C0,59.3696 1.4304,60.8 3.2,60.8 L44.8,60.8 C46.5696,60.8 48,59.3696 48,57.6 L48,12.8 C48,11.0304 46.5696,9.6 44.8,9.6 L7.74804688,9.6" id="Stroke-5"></path></g><g id="Group-17" transform="translate(15.000000, 23.000000)"><g id="Group-4"><path d="M6.77038995,24.2222815 C6.77038995,24.4935859 7.48253541,24.7155622 8.3622445,24.7155622 L9.52209904,24.7155622 C10.4018081,24.7155622 11.1139536,24.4935859 11.1139536,24.2222815" id="Stroke-1"></path><path d="M11.8378809,19.0935606 C12.6547536,16.78994 13.4140263,16.2177345 15.4300263,14.2150151 C16.95119,12.7055764 17.8858809,10.6683274 17.8858809,8.4239005 C17.8858809,3.72540247 13.8015172,-0.0753247986 8.79817177,0.00113369944 C3.87337177,0.0726593911 -0.182191866,4.11509417 0.00631722516,8.75193212 C0.0927172252,10.8113788 0.961953589,12.678446 2.34173541,14.104027 C4.5750445,16.3977819 5.28457177,16.9403906 6.04646268,19.0935606 L11.8378809,19.0935606 Z" id="Stroke-3"></path></g></g></g></g></g></g></svg> 