<svg height="226" viewBox="0 0 1026 226" width="1026" xmlns="http://www.w3.org/2000/svg" xmlns:xlink="http://www.w3.org/1999/xlink"><mask id="a" fill="#fff"><path d="m0 0h1440v342h-1440z" fill="#fff" fill-rule="evenodd"/></mask><g fill="none" fill-rule="evenodd" transform="translate(-338 -116)"><g mask="url(#a)"><g transform="translate(0 -655)"><path d="m0 655h1440v310h-1440z" fill="none"/><g fill-rule="evenodd"><path d="m816 863.978646c6.288053-5.677606 15.49923-7.926162 23.696799-5.784763 2.651716.693012 5.32012 1.821682 8.030685 1.416766 1.749658-.261746 3.334187-1.143602 4.955607-1.853303 6.886205-3.010957 15.069721-2.899408 21.870726.299515-.734294-6.96262 7.7786-12.999467 14.107057-10.00432-1.745267-3.91038 1.67939-8.608633 5.836585-9.635416 4.158073-1.025903 8.499719.585855 12.294158 2.570909 3.276217-4.358335 9.87169-5.798817 14.665683-3.203315 1.334202-7.210313 7.25423-13.356074 14.410964-14.959928 7.154977-1.602974 15.131204 1.429942 19.414001 7.383347 3.176965-4.797507 10.727196-5.891043 15.135596-2.193221 1.226166-10.033305 8.964363-18.829904 18.622616-21.812755 9.657374-2.983729 20.735033-.260868 28.268573 6.477775 7.5353 6.738643 11.45358 17.154027 10.76848 27.238276 12.96257-3.712754 28.04283 6.296836 29.65459 19.684531 6.05266-1.272718 12.55503-.282826 17.95508 2.73428 1.15765.64646 2.3399 1.475615 2.75975 2.733401.41809 1.257786-.39262 2.955622-1.71804 2.929575" fill="#fdd8e0"/><path d="m1100 831.740224c2.539-2.223 7.521-3.098 11.436-2.008.852.237 1.698.562 2.625.545.97-.017 1.817-.405 2.646-.734 5.1-2.029 11.841-2.179 17.144-.384-.175-2.128 1.889-4.258 4.918-5.073 3.028-.814 6.802-.256 8.991 1.331 3.663-4.076 10.361-7.018 17.598-7.381 7.238-.362 14.763 2.012 18.397 6.098.474.532 1.003 1.149 1.931 1.267.763.097 1.505-.19 2.147-.476 5.722-2.554 11.063-6.15 17.992-6.386 6.533-.223 12.701 2.985 14.675 7.041.256.524.53 1.125 1.296 1.358.607.186 1.321.07 1.967-.051 3.163-.591 6.417-1.234 9.685-.987 3.27.248 6.587 1.65 7.185 3.755 5.745-1.662 12.658-1.505 18.211.414" fill="#fdd8e0"/><path d="m596.929 842.893529c-6.477-6.055-16.228-8.37-24.735-5.873-1.074.315-2.201.704-3.285.428-1.517-.386-2.401-1.901-3.343-3.151-2.845-3.775-7.653-5.979-12.369-5.672-4.717.307-9.198 3.118-11.528 7.229-5.531-2.506-8.509-8.639-13.572-11.992-4.231-2.802-9.847-3.388-14.566-1.521s-8.414 6.136-9.583 11.075c-5.014-4.289-13.475-3.636-17.771 1.372-6.069-11.755-16.933-20.944-29.532-24.977-8.476-2.714-18.586-2.846-25.409 2.869-5.194 4.351-7.488 11.184-9.28 17.718-6.137-5.669-16.756-5.493-22.702.377-1.477 1.458-2.795 3.273-4.783 3.87-2.932.882-5.807-1.221-8.563-2.553-6.237-3.012-14.208-1.992-19.484 2.495-1.155.983-2.244 2.146-3.691 2.599-1.908.598-3.934-.176-5.874-.657-6.599-1.637-13.983.358-18.859 5.096" fill="#fdd8e0"/><path d="m1262.95199 1348.33212h-763.95199l356.90621-576z" fill="#fff"/><path d="m816.378339 1664.64628c29.103307 5.26851 58.773102 9.07223 88.962177 10.84416l.25964 1.15765c3.823793-.04725 7.576774-.47251 11.400566-.56701 10.881285.49613 21.786174.85052 32.809081.85052 165.792077 0 318.861777-54.36252 442.568537-146.148l-535.590543-758.7836z" fill="#f73a63"/></g></g></g><g fill="#fff" mask="url(#a)"><g transform="translate(604 137.2)"><path d="m2.24243436 6.68684657c1.01030478-1.26944589 2.30877447-2.43661742 3.98386257-3.03989792 1.66195828-.64612515 3.61968295-.48373006 5.22359367.18727264 1.61013.69449816 2.8808954 1.3794795 2.9104431 1.41279911.321335-.75254577.8515946-1.79909211 1.4196319-2.45627395.5562896-.65787289 1.2680638-1.23834896 2.1007706-1.59423608.8278694-.36901693 1.7504118-.4553973 2.5893379-.36141546 1.6965104.19280098 3.1145306.96884221 4.3618631 1.84232049 1.2424952.89835583 2.3460908 1.92939191 3.3280628 3.06270233-1.271519-.79469938-2.5223067-1.58870773-3.8332152-2.20580908-1.2901772-.63714159-2.6653527-1.09253889-3.9479284-1.11050601-1.287413-.00621938-2.3488549.56527313-3.0834336 1.57626896-.7290503.98680932-1.2120893 2.35783853-1.4124918 3.60102478l-.3282454 2.03719461-1.4283857-1.43944246c-1.0441659-1.0524584-2.1982076-1.97223656-3.4628162-2.54580221-.6247028-.2881649-1.2756653-.52104638-1.94183069-.58185816-.66478332-.06910429-1.33785914-.02073128-2.00609767.13889964-1.33163976.33930208-2.6052319 1.15473276-3.71159166 2.17954944-1.12501791 1.01652418-2.10906307 2.23137767-3.00396368 3.53330256.47543755-1.51683924 1.25562503-2.93624145 2.24243436-4.23609323z"/><path d="m16.193408 21.3349647c1.87136-2.35136 4.27648-4.51328 7.3792-5.63072 3.0784-1.1968 6.70464-.896 9.67552.34688 2.9824 1.2864 5.336204 2.5551723 5.3909345 2.6168893.5952-1.39392 1.5773855-3.3324093 2.6295455-4.5496893 1.0304-1.21856 2.3488-2.29376 3.8912-2.95296 1.53344-.68352 3.24224-.84352 4.79616-.66944 3.1424.35712 5.76896 1.79456 8.07936 3.41248 2.30144 1.664 4.3456 3.57376 6.16448 5.67296-2.3552-1.472-4.672-2.94272-7.10016-4.08576-2.38976-1.18016-4.93696-2.02368-7.31264-2.05696-2.38464-.01152-4.35072 1.04704-5.71136 2.91968-1.3504 1.82784-2.24512 4.36736-2.61632 6.67008l-.608 3.77344-2.64576-2.66624c-1.93408-1.94944-4.07168-3.65312-6.41408-4.71552-1.15712-.53376-2.36288-.96512-3.5968-1.07776-1.23136-.128-2.47808-.0384-3.71584.25728-2.46656.62848-4.8256 2.13888-6.87488 4.03712-2.08384 1.88288-3.90656 4.13312-5.56416 6.54464.88064-2.8096 2.32576-5.43872 4.1536-7.8464z"/></g><path d="m719.567509 19.1654772c1.607303-2.4077354 3.673051-4.6214889 6.337963-5.7657203 2.644025-1.2254941 5.758587-.9174822 8.310263.3551967 2.561571 1.3172423 4.583243 2.6164342 4.63025 2.6796309.511215-1.4273401 1.35481-3.412306 2.258506-4.6587711.885006-1.2477758 2.017374-2.34875446 3.342135-3.02375923 1.317065-.69990785 2.784746-.86374396 4.119401-.68549027 2.698994.36568219 4.954935 1.83758579 6.939328 3.4942965 1.976697 1.7038955 3.732417 3.6594433 5.294645 5.8089731-2.022871-1.5072922-4.012761-3.0132737-6.098297-4.1837189-2.052555-1.2084551-4.240334-2.0721991-6.280795-2.106277-2.048157-.0117962-3.736815 1.0721435-4.905463 2.9896813-1.159852 1.8716637-1.928324 4.4720704-2.247146 6.8299997l-.522208 3.8639108-2.272432-2.7301649c-1.661173-1.9961792-3.497149-3.7407061-5.509026-4.8285778-.993845-.5465573-2.029467-.9882594-3.089276-1.1036-1.05761-.1310689-2.128412-.0393207-3.191519.2634484-2.118518.6435483-4.144687 2.1901611-5.904805 4.1339127-1.789801 1.9280233-3.355327 4.2322144-4.779033 6.7015522.756378-2.8769621 1.997585-5.569117 3.567509-8.0345228z" transform="matrix(.92050485 .39073113 -.39073113 .92050485 669.576084 -179.116751)"/></g></g></svg>