<?xml version="1.0" encoding="utf-8"?>
<!-- Generator: Adobe Illustrator 23.0.1, SVG Export Plug-In . SVG Version: 6.00 Build 0)  -->
<svg version="1.1" id="Layer_1" xmlns="http://www.w3.org/2000/svg" xmlns:xlink="http://www.w3.org/1999/xlink" x="0px" y="0px"
	 viewBox="0 0 1026 226" style="enable-background:new 0 0 1026 226;" xml:space="preserve">
<style type="text/css">
	.st0{fill-rule:evenodd;clip-rule:evenodd;fill:#FFFFFF;filter:url(#Adobe_OpacityMaskFilter);}
	.st1{mask:url(#a_1_);}
	.st2{fill:none;}
	.st3{fill-rule:evenodd;clip-rule:evenodd;fill:#CCF7FB;}
	.st4{fill-rule:evenodd;clip-rule:evenodd;fill:#FFFFFF;}
	.st5{fill-rule:evenodd;clip-rule:evenodd;fill:#00D5EA;}
	.st6{fill-rule:evenodd;clip-rule:evenodd;fill:#FFFFFF;filter:url(#Adobe_OpacityMaskFilter_1_);}
	.st7{mask:url(#a_2_);}
</style>
<g transform="translate(-338 -116)">
	<defs>
		<filter id="Adobe_OpacityMaskFilter" filterUnits="userSpaceOnUse" x="0" y="0" width="1440" height="1021.9">
			<feColorMatrix  type="matrix" values="1 0 0 0 0  0 1 0 0 0  0 0 1 0 0  0 0 0 1 0"/>
		</filter>
	</defs>
	<mask maskUnits="userSpaceOnUse" x="0" y="0" width="1440" height="1021.9" id="a_1_">
		<path class="st0" d="M338,116h1440v342H338V116z"/>
	</mask>
	<g class="st1">
		<g transform="translate(0 -655)">
			<path class="st2" d="M0,655h1440v310H0V655z"/>
			<g>
				<path class="st3" d="M816,864c6.3-5.7,15.5-7.9,23.7-5.8c2.7,0.7,5.3,1.8,8,1.4c1.7-0.3,3.3-1.1,5-1.9c6.9-3,15.1-2.9,21.9,0.3
					c-0.7-7,7.8-13,14.1-10c-1.7-3.9,1.7-8.6,5.8-9.6c4.2-1,8.5,0.6,12.3,2.6c3.3-4.4,9.9-5.8,14.7-3.2c1.3-7.2,7.3-13.4,14.4-15
					c7.2-1.6,15.1,1.4,19.4,7.4c3.2-4.8,10.7-5.9,15.1-2.2c1.2-10,9-18.8,18.6-21.8c9.7-3,20.7-0.3,28.3,6.5
					c7.5,6.7,11.5,17.2,10.8,27.2c13-3.7,28,6.3,29.7,19.7c6.1-1.3,12.6-0.3,18,2.7c1.2,0.6,2.3,1.5,2.8,2.7c0.4,1.3-0.4,3-1.7,2.9"
					/>
				<path class="st3" d="M1100,831.7c2.5-2.2,7.5-3.1,11.4-2c0.9,0.2,1.7,0.6,2.6,0.5c1,0,1.8-0.4,2.6-0.7c5.1-2,11.8-2.2,17.1-0.4
					c-0.2-2.1,1.9-4.3,4.9-5.1c3-0.8,6.8-0.3,9,1.3c3.7-4.1,10.4-7,17.6-7.4c7.2-0.4,14.8,2,18.4,6.1c0.5,0.5,1,1.1,1.9,1.3
					c0.8,0.1,1.5-0.2,2.1-0.5c5.7-2.6,11.1-6.2,18-6.4c6.5-0.2,12.7,3,14.7,7c0.3,0.5,0.5,1.1,1.3,1.4c0.6,0.2,1.3,0.1,2-0.1
					c3.2-0.6,6.4-1.2,9.7-1c3.3,0.2,6.6,1.7,7.2,3.8c5.7-1.7,12.7-1.5,18.2,0.4"/>
				<path class="st3" d="M596.9,842.9c-6.5-6.1-16.2-8.4-24.7-5.9c-1.1,0.3-2.2,0.7-3.3,0.4c-1.5-0.4-2.4-1.9-3.3-3.2
					c-2.8-3.8-7.7-6-12.4-5.7c-4.7,0.3-9.2,3.1-11.5,7.2c-5.5-2.5-8.5-8.6-13.6-12c-4.2-2.8-9.8-3.4-14.6-1.5s-8.4,6.1-9.6,11.1
					c-5-4.3-13.5-3.6-17.8,1.4c-6.1-11.8-16.9-20.9-29.5-25c-8.5-2.7-18.6-2.8-25.4,2.9c-5.2,4.4-7.5,11.2-9.3,17.7
					c-6.1-5.7-16.8-5.5-22.7,0.4c-1.5,1.5-2.8,3.3-4.8,3.9c-2.9,0.9-5.8-1.2-8.6-2.6c-6.2-3-14.2-2-19.5,2.5c-1.2,1-2.2,2.1-3.7,2.6
					c-1.9,0.6-3.9-0.2-5.9-0.7c-6.6-1.6-14,0.4-18.9,5.1"/>
				<path class="st4" d="M1263,1348.3H499l356.9-576L1263,1348.3z"/>
				<path class="st5" d="M816.4,1664.6c29.1,5.3,58.8,9.1,89,10.8l0.3,1.2c3.8,0,7.6-0.5,11.4-0.6c10.9,0.5,21.8,0.9,32.8,0.9
					c165.8,0,318.9-54.4,442.6-146.1L856.8,772L816.4,1664.6z"/>
			</g>
		</g>
	</g>
	<defs>
		<filter id="Adobe_OpacityMaskFilter_1_" filterUnits="userSpaceOnUse" x="604" y="116.8" width="759.1" height="49.5">
			<feColorMatrix  type="matrix" values="1 0 0 0 0  0 1 0 0 0  0 0 1 0 0  0 0 0 1 0"/>
		</filter>
	</defs>
	<mask maskUnits="userSpaceOnUse" x="604" y="116.8" width="759.1" height="49.5" id="a_2_">
		<path class="st6" d="M338,116h1440v342H338V116z"/>
	</mask>
	<g class="st7">
		<g transform="translate(604 137.2)">
			<path class="st4" d="M2.2,6.7c1-1.3,2.3-2.4,4-3C7.9,3,9.8,3.2,11.4,3.8c1.6,0.7,2.9,1.4,2.9,1.4c0.3-0.8,0.9-1.8,1.4-2.5
				c0.6-0.7,1.3-1.2,2.1-1.6c0.8-0.4,1.8-0.5,2.6-0.4c1.7,0.2,3.1,1,4.4,1.8c1.2,0.9,2.3,1.9,3.3,3.1c-1.3-0.8-2.5-1.6-3.8-2.2
				c-1.3-0.6-2.7-1.1-3.9-1.1C19.1,2.4,18,3,17.3,4c-0.7,1-1.2,2.4-1.4,3.6l-0.3,2l-1.4-1.4c-1-1.1-2.2-2-3.5-2.5
				C10,5.4,9.4,5.1,8.7,5.1c-0.7-0.1-1.3,0-2,0.1C5.4,5.5,4.1,6.4,3,7.4c-1.1,1-2.1,2.2-3,3.5C0.5,9.4,1.3,8,2.2,6.7z"/>
			<path class="st4" d="M16.2,21.3c1.9-2.4,4.3-4.5,7.4-5.6c3.1-1.2,6.7-0.9,9.7,0.3c3,1.3,5.3,2.6,5.4,2.6c0.6-1.4,1.6-3.3,2.6-4.5
				c1-1.2,2.3-2.3,3.9-3c1.5-0.7,3.2-0.8,4.8-0.7c3.1,0.4,5.8,1.8,8.1,3.4c2.3,1.7,4.3,3.6,6.2,5.7c-2.4-1.5-4.7-2.9-7.1-4.1
				c-2.4-1.2-4.9-2-7.3-2.1c-2.4,0-4.4,1-5.7,2.9c-1.4,1.8-2.2,4.4-2.6,6.7l-0.6,3.8l-2.6-2.7c-1.9-1.9-4.1-3.7-6.4-4.7
				c-1.2-0.5-2.4-1-3.6-1.1c-1.2-0.1-2.5,0-3.7,0.3c-2.5,0.6-4.8,2.1-6.9,4c-2.1,1.9-3.9,4.1-5.6,6.5C12.9,26.4,14.4,23.7,16.2,21.3
				z"/>
		</g>
		<path class="st4" d="M1324.5,119.7c2.4-1.6,5.2-2.8,8.1-2.8c2.9-0.1,5.7,1.4,7.5,3.6c1.8,2.2,3.2,4.2,3.2,4.3
			c1-1.1,2.6-2.6,3.9-3.4c1.3-0.8,2.8-1.4,4.3-1.5c1.5-0.1,2.9,0.3,4.1,1c2.3,1.4,3.8,3.6,5,5.9c1.2,2.3,2,4.8,2.6,7.4
			c-1.3-2.2-2.5-4.3-4-6.2c-1.4-1.9-3.1-3.6-5-4.4c-1.9-0.8-3.9-0.5-5.7,0.8c-1.8,1.3-3.5,3.4-4.7,5.4l-2,3.4l-1-3.4
			c-0.7-2.5-1.8-4.8-3.2-6.6c-0.7-0.9-1.5-1.7-2.4-2.2c-0.9-0.5-1.9-0.9-3-1c-2.2-0.2-4.7,0.4-7.1,1.5c-2.4,1.1-4.7,2.6-7,4.3
			C1319.8,123.3,1322,121.3,1324.5,119.7L1324.5,119.7z"/>
	</g>
</g>
</svg>
