<svg height="120" viewBox="0 0 120 120" width="120" xmlns="http://www.w3.org/2000/svg"><g fill="none" fill-rule="evenodd"><circle cx="60" cy="60" fill="#f39" r="60"/><g stroke="#fff" stroke-linecap="round" stroke-linejoin="round" stroke-width="3.2"><path d="m61.2 57.4h8c2.6528 0 4.8-2.1504 4.8-4.8s-2.1472-4.8-4.8-4.8h-33.6c-5.3024 0-9.6 4.2976-9.6 9.6v6.4c0 3.4944 1.8656 6.5536 4.6592 8.2336"/><path d="m45.2 73.4v19.2h4.8c2.6528 0 4.8-2.1504 4.8-4.8v-30.4"/><path d="m45.2 92.6h-4.8c-2.6528 0-4.8-2.1504-4.8-4.8v-30.4"/><path d="m53.2 35c0 4.4192-3.5808 8-8 8s-8-3.5808-8-8 3.5808-8 8-8 8 3.5808 8 8z"/><path d="m59.6 31.8h33.6v38.4h-32"/></g></g></svg>