<svg height="734" viewBox="0 0 380 734" width="380" xmlns="http://www.w3.org/2000/svg"><g fill="none" fill-rule="evenodd" transform="matrix(-1 0 0 1 380 0)"><path d="m180.979383 1-33.405391 122.400866-48.0628423 175.821203 49.7538923-15.937668-54.830408 34.806857-20.1546255 73.697446 52.4343325-22.439981-60.6085828 52.146358-33.5467331 123.292804 80.4822079-40.418755-90.3475084 76.246926-22.6937246 83.383944h380l-32.559025-108.502781-12.968083-43.222421-81.185551-73.438693 70.473884 37.610522-38.619883-128.64747-77.100109-64.514756 67.233125 31.62115z" fill="#2f289c"/><path d="m190 294 7 440h-14z" fill="#2b2590"/><path d="m200.095659 554.914928c-28.476533 4.718816-58.930604-8.28685-77.820711-28.562537-20.865961-22.569641-29.6075168-52.278394-33.2714301-81.478732-3.6655963-29.200338-2.8207252-58.781226-7.1898198-87.8537-9.7277994-63.11797-43.8457834-120.752981-66.6842326-181.065539-6.76738431-18.234418-11.84166025-35.957378-14.94513118-53.171924l33.41280278-122.41065498 94.3158949 313.93217798-67.2463579-31.623679 77.1155299 64.519915 38.628452 128.657759-70.491202-37.61353 81.205245 73.444566z" fill="#463ec9" transform="translate(147)"/></g></svg>