<svg height="719" viewBox="0 0 316 719" width="316" xmlns="http://www.w3.org/2000/svg" xmlns:xlink="http://www.w3.org/1999/xlink"><mask id="a" fill="#fff"><path d="m.34926933.13148584h15.40543577v478.45659216h-15.40543577z" fill="#fff" fill-rule="evenodd"/></mask><g fill="none" fill-rule="evenodd" transform="matrix(-1 0 0 1 316 0)"><path d="m313.260243 523.960896c-23.106047 60.373446-148.911065 118.427062-148.911065 118.427062s-161.74738379-44.120931-164.31397444-155.580888c-.51331813-20.899789 4.62154618-50.436533 13.14431014-84.526174l38.20265 31.116787-32.5527845-52.85074c11.6026727-41.798055 27.2142759-88.797463 43.7481687-134.589768l40.1532591 27.215392-31.0145134-52.015053c7.9084653-21.362537 20.5411403-53.779281 33.6854504-87.310275 25.674322-64.9263426 53.403599-133.84693456 53.403599-133.84693456s88.317646 260.07678656 122.822723 367.17260056l-50.525651 70.870528 54.122244-59.353573c12.630992 39.940973 22.387402 75.886174 27.008948 102.730148 3.490563 19.691163 4.106545 34.458013 1.026636 42.540888" fill="#3a30db"/><path d="m312.233102 481.419704c-18.794175 5.108499-41.592232.649979-58.846454-9.009894-41.693213-23.221142-61.515708-68.456322-71.373099-111.924229-9.857391-43.376575-12.632675-88.706131-32.246476-129.388414-11.091038-22.942579-27.318623-43.842368-36.560032-67.52778-3.697574-9.567019-6.265847-19.503932-7.805802-29.722453 25.674322-64.9248198 53.403599-133.846934 53.403599-133.846934s88.317646 260.076786 122.822723 367.1726l-50.525651 70.870529 54.122244-59.352051c12.630992 39.939451 22.387402 75.884651 27.008948 102.728626" fill="#5146ff"/><path d="m8.0524073-26.5134021 7.701455 471.3868921c.0622713 3.846596-3.3340434 7.011247-7.58869331 7.069853-4.25296694.055559-7.75194527-3.016238-7.81589966-6.862834v-.207019z" fill="#2b2590" mask="url(#a)" transform="translate(149.565572 266.513402)"/></g></svg>