<svg height="310" viewBox="0 0 932 310" width="932" xmlns="http://www.w3.org/2000/svg"><path d="m438.963163 878.084827c53.171166 6.830206 106.801034 7.849908 160.304984 9.898296 24.531544.938845 48.579652-.190913 71.229171 8.597839 21.203708 8.231734 38.137444 24.7536 60.017962 31.835363 16.983204 5.493812 35.299791 5.302899 53.036254 3.285955 75.017957-8.525965 145.640023-50.257378 189.245911-111.82581 39.936275-56.389066 56.611425-128.543082 46.148985-196.762037-6.34313-41.376538-25.403978-79.963495-29.975255-121.654479-4.829859-44.074031 12.022925-82.499273 22.669755-124.412615 7.42692-29.225465 10.67156-59.508814 9.60575-89.643925-.6161-17.359639-2.79943-35.155009-11.02008-50.464014-22.336972-41.578681-78.65609-49.424097-125.664015-44.738859-58.185405 5.80152-116.235898 23.731653-167.426103 51.966614-40.41971 22.294188-80.452671 54.747211-126.84 63.542701-52.305479 9.920756-92.763415-25.885604-139.836547-42.216556-105.91511-36.745205-233.791687 35.435763-280.482568 131.438226-57.641259 118.514516-51.080026 312.390392 56.8093 400.343049 58.794759 47.930481 134.556981 70.584035 209.795294 80.498053.793734.105564 1.587468.208882 2.381202.312199" fill="#3a30db" fill-rule="evenodd" opacity=".1" transform="matrix(.80901699 .58778525 -.58778525 .80901699 291.723489 -392.407427)"/></svg>