<svg height="294" viewBox="0 0 890 294" width="890" xmlns="http://www.w3.org/2000/svg"><path d="m834.431 134.032-23.231-43.077-15.55 51.274-11.382-28.646-13.7 47-2.052.177-16.628-77.068-7.663 51.468-15.033-72.734-14.492 95.974-7.991-31.6-9.7 40.862q-21.983 2.317-45.512 5.056l-12.927-.311-14.94-45.226-6.63 25.427-11.617-44.8-8.3 55.741-7.776-24.47-11.7 42.867q-7.721 1.034-15.577 2.113l-7.76-35.959-7.486 38.073c-.775.11-1.56.223-2.337.331l-12.871-59.667-11.818 63.208q-5.985.875-12.049 1.782l-11.829-36.279-12.064 39.9q-16.522 2.544-33.513 5.282l-12.325-40.367-8.7 33.224-15.506-42.957-17.224 59.06q-7.18 1.238-14.44 2.513l-6.692-26.65-6.176 28.927c-1.26.225-2.506.443-3.768.668l-13.948-64.664-17.9 70.467q-12.278 2.275-24.753 4.654l-15.877-41.205-13.143 35.845-7.13-23.5-14.58 38.79c-80.851 16.221-167.134 35.512-258.141 58.465h890v-195.792c-12.221-44.738-27.073-98.208-27.073-98.208z" fill="#3a30db"/></svg>