<svg height="294" viewBox="0 0 1194 294" width="1194" xmlns="http://www.w3.org/2000/svg"><path d="m0 98.208v195.792h1194c-138.89-30.906-306.367-60.762-485.881-85.074l-5.838-27.806-6.336 20.84-8.791-30.571-13.712 32.924q-36.781-4.79-74.13-9.247l-8.6-57.595-11.929 55.175q-2.927-.337-5.86-.678l-4.96-33.235-6.891 31.88q-8.91-1.014-17.845-2l-14.906-50.99-15.544 42.957-8.719-33.224-10.975 35.88q-46-4.761-92.373-8.91l-5.691-18.773-5.8 17.762q-10.8-.946-21.611-1.854l-8.36-44.617-9.331 43.154q-4.624-.376-9.247-.748l-4.17-21.15-4.426 20.469q-11.551-.9-23.1-1.765l-7.588-27.724-7.793 24.47-8.319-55.741-11.646 44.8-6.654-25.434-11.874 35.855q-31.878-2.084-63.68-3.809l-7.713-32.427-8.007 31.589c-.069 0-.136 0-.2-.006l-14.319-95.95-15.336 70.932-7.413-49.666-15.62 72.237c-1.505-.063-3.013-.132-4.516-.192l-12.321-42.156-11.408 28.647-15.579-51.274-23.288 43.077-28.564-134.032s-14.887 53.47-27.136 98.208" fill="#00216c"/></svg>