<svg height="84.99" viewBox="0 0 242.228 84.99" width="242.228" xmlns="http://www.w3.org/2000/svg" xmlns:xlink="http://www.w3.org/1999/xlink"><clipPath id="a"><path d="m0 0h242.227v84.99h-242.227z"/></clipPath><linearGradient id="b" gradientUnits="objectBoundingBox" x1="1.205" x2="-.807" y1="1.237" y2="-.312"><stop offset="0" stop-color="#3a30db"/><stop offset="1" stop-color="#f39"/></linearGradient><g clip-path="url(#a)"><path d="m8.118 36.843h-8.118l14.088-33.46a5.529 5.529 0 0 1 10.192 0l11.857 28.16a3.817 3.817 0 1 1 -7.058 2.909l-2.345-5.815h-15.307l-3.309 8.205zm10.963-27.175-4.809 11.863h9.616z" fill="#f39" transform="translate(166.407 8.338)"/><path d="m0 37.783a31.543 31.543 0 0 0 3.769.459l.011.049c.162 0 .321-.02.483-.024.461.021.923.036 1.39.036a31.376 31.376 0 0 0 18.747-6.186l-22.688-32.117z" fill="url(#b)" transform="translate(40.288 24.733)"/><path d="m64.691 56.85a31.517 31.517 0 0 0 -18.751-56.85c-.752 0-24.66.059-24.66.059l-21.17 81.099a3.047 3.047 0 0 0 5.41 2.564l36.48-58.99z" fill="#00216c"/><g fill="#f39"><path d="m4.816 4.328h-3.905v2.71h4.569v.855h-5.48v-7.893h5.48v.856h-4.569v2.617h3.9z" transform="translate(97.44 56.654)"/><path d="m2.6 7.893h-2.6v-7.893h2.6a3.948 3.948 0 0 1 2.88 1.073 3.856 3.856 0 0 1 1.093 2.873 3.862 3.862 0 0 1 -1.093 2.875 3.954 3.954 0 0 1 -2.88 1.072zm-1.689-7.038v6.183h1.64a3.1 3.1 0 0 0 2.225-.838 3 3 0 0 0 .873-2.257 2.986 2.986 0 0 0 -.873-2.254 3.1 3.1 0 0 0 -2.225-.834z" transform="translate(107.384 56.654)"/><path d="m.839 7.123a3.693 3.693 0 0 1 -.839-2.533v-4.59h.911v4.59a2.96 2.96 0 0 0 .572 1.9 1.99 1.99 0 0 0 1.654.717 1.987 1.987 0 0 0 1.652-.717 2.961 2.961 0 0 0 .573-1.9v-4.59h.911v4.59a3.732 3.732 0 0 1 -.826 2.533 2.9 2.9 0 0 1 -2.31.953 2.905 2.905 0 0 1 -2.3-.953" transform="translate(118.344 56.654)"/><path d="m6.482 7.235c-.026.026-.06.063-.1.111a2.256 2.256 0 0 1 -.306.244 3.536 3.536 0 0 1 -.514.3 3.785 3.785 0 0 1 -.722.244 3.931 3.931 0 0 1 -.944.111 3.635 3.635 0 0 1 -2.8-1.184 4.168 4.168 0 0 1 -1.096-2.93 4.187 4.187 0 0 1 1.087-2.954 3.643 3.643 0 0 1 2.805-1.177 3.856 3.856 0 0 1 1.432.257 2.9 2.9 0 0 1 .911.506l.247.25-.521.71c-.061-.062-.145-.14-.253-.236a3.078 3.078 0 0 0 -.7-.382 2.7 2.7 0 0 0 -1.108-.237 2.717 2.717 0 0 0 -2.135.947 3.38 3.38 0 0 0 -.828 2.316 3.35 3.35 0 0 0 .84 2.3 2.724 2.724 0 0 0 2.123.948 2.883 2.883 0 0 0 .7-.085 2.59 2.59 0 0 0 .579-.21 3.585 3.585 0 0 0 .421-.257c.121-.088.213-.158.273-.21l.091-.092z" transform="translate(128.977 56.484)"/><path d="m.937 7.893h-.937l3.345-7.893h.82l3.344 7.891h-.936l-.742-1.748h-4.164l-.73 1.749zm2.825-6.71-1.732 4.105h3.449z" transform="translate(138.777 56.655)"/><path d="m0 0h6.105v.855h-2.605v7.037h-.909v-7.037h-2.591z" transform="translate(148.773 56.654)"/><path d="m.045 7.892h.911v-7.892h-.911z" transform="translate(159.089 56.655)"/><path d="m3.852 8.248a3.6 3.6 0 0 1 -2.785-1.178 4.237 4.237 0 0 1 -1.067-2.94 4.264 4.264 0 0 1 1.06-2.953 3.594 3.594 0 0 1 2.792-1.177 3.62 3.62 0 0 1 2.805 1.17 4.268 4.268 0 0 1 1.062 2.96 4.253 4.253 0 0 1 -1.062 2.94 3.61 3.61 0 0 1 -2.805 1.178zm0-7.38a2.65 2.65 0 0 0 -2.114.94 3.475 3.475 0 0 0 -.8 2.322 3.434 3.434 0 0 0 .8 2.3 2.656 2.656 0 0 0 2.114.935 2.694 2.694 0 0 0 2.135-.935 3.416 3.416 0 0 0 .807-2.3 3.457 3.457 0 0 0 -.807-2.322 2.688 2.688 0 0 0 -2.135-.94z" transform="translate(164.522 56.484)"/><path d="m6.521 7.892h-.651l-4.959-6.261v6.261h-.911v-7.892h.664l4.946 6.234v-6.234h.911z" transform="translate(176.716 56.655)"/></g><path d="m3.982 36.581a3.987 3.987 0 0 1 -3.982-3.981v-32.6h14.79c8.418 0 13.857 4.964 13.857 12.646v.1a11.915 11.915 0 0 1 -4.273 9.6 16.159 16.159 0 0 1 -10.361 3.253h-6.05v7.001a3.987 3.987 0 0 1 -3.981 3.981zm3.981-29.317v11.183h6.309c3.773 0 6.308-2.227 6.308-5.54v-.1c0-3.52-2.356-5.539-6.465-5.539z" fill="#00216c" transform="translate(95.932 8.599)"/><path d="m0 0h23.722a3.58 3.58 0 0 1 0 7.16h-15.81v7.421h17.062v7.159h-17.062v7.681h19.648v7.16h-20.104a7.456 7.456 0 0 1 -7.456-7.456z" fill="#00216c" transform="translate(132.51 8.599)"/><path d="m0 0h7.963v15.991l13.653-14.867a3.475 3.475 0 1 1 5.079 4.743l-9.165 9.654 15.408 21.06h-9.566l-11.22-15.573-4.189 4.392v11.181h-7.963z" fill="#00216c" transform="translate(209.289 8.599)"/></g></svg>