<svg height="110.487" viewBox="0 0 100.696 110.487" width="100.696" xmlns="http://www.w3.org/2000/svg" xmlns:xlink="http://www.w3.org/1999/xlink"><linearGradient id="a" gradientUnits="objectBoundingBox" x1=".761" x2="-.347" y1="1.228"><stop offset="0" stop-color="#3a30db"/><stop offset="1" stop-color="#f39"/></linearGradient><path d="m0 49.118a41.007 41.007 0 0 0 4.9.6l.014.064c.211 0 .417-.026.628-.031.6.027 1.2.047 1.807.047a40.789 40.789 0 0 0 24.375-8.042l-29.498-41.756z" fill="url(#a)" transform="translate(52.374 32.153)"/><path d="m84.1 73.9a40.972 40.972 0 0 0 -24.378-73.9c-.978 0-32.058.077-32.058.077l-27.521 105.428a3.961 3.961 0 0 0 7.033 3.333l47.424-76.686z" fill="#fff"/></svg>