<svg height="46" viewBox="0 0 117 46" width="117" xmlns="http://www.w3.org/2000/svg"><g fill="none" fill-rule="evenodd"><g fill="#f39"><path d="m71.7268 0c1.7792 0 3.3856 1.0664 4.076 2.7064l9.4856 22.528c.848 2.0128-.6304 4.2392-2.8144 4.2392-1.2456 0-2.3656-.7568-2.832-1.912l-1.876-4.652h-12.2448l-2.6472 6.564h-6.4944l11.2704-26.7672c.6904-1.64 2.2968-2.7064 4.0768-2.7064zm3.764 17.2248-3.8464-9.4904-3.8472 9.4904z"/><path d="m5.05904 42.11528h-3.124v2.168h3.6552v.684h-4.384v-6.3144h4.384v.6848h-3.6552v2.0936h3.124z"/><path d="m13.54552 44.11c-.5832.5712-1.3496.8576-2.3016.8576h-2.0824v-6.3144h2.0824c.952 0 1.7184.2856 2.3016.8584.5832.5712.8744 1.3376.8744 2.2984 0 .9616-.2912 1.728-.8744 2.3zm-3.6552-4.7728v4.9464h1.312c.7216 0 1.3152-.2224 1.78-.668.4656-.4464.6984-1.048.6984-1.8056s-.2328-1.3592-.6984-1.804c-.4648-.4456-1.0584-.6688-1.78-.6688z"/><path d="m18.6004 44.35176c-.448-.5088-.6712-1.184-.6712-2.0264v-3.672h.7288v3.672c0 .632.1528 1.1384.4576 1.5208.3056.3832.7464.5736 1.3232.5736.576 0 1.016-.1904 1.3216-.5736.3048-.3824.4584-.8888.4584-1.5208v-3.672h.7288v3.672c0 .8424-.22 1.5176-.6608 2.0264-.4416.508-1.0568.7624-1.848.7624-.7784 0-1.3904-.2544-1.8384-.7624"/><path d="m31.62096 44.30456c-.0208.0208-.048.0504-.0832.0888-.0344.0384-.116.1032-.2448.1952-.128.0904-.2656.172-.4112.2416-.1456.0704-.3384.136-.5776.1952-.24.0592-.492.0888-.7552.0888-.916 0-1.6648-.316-2.244-.9472-.58-.6304-.8696-1.4128-.8696-2.3456 0-.9472.2896-1.7352.8696-2.3632.5792-.628 1.328-.9416 2.244-.9416.4168 0 .7976.068 1.1456.2056.3464.1368.5896.2712.7288.4048l.1976.2-.4168.568c-.0488-.0496-.116-.112-.2024-.1888-.0872-.0776-.2728-.1792-.5568-.3056-.2856-.1264-.58-.1896-.8856-.1896-.6944 0-1.2632.2528-1.708.7576s-.6664 1.1232-.6664 1.8528c0 .7216.224 1.336.672 1.8416.448.504 1.0152.7568 1.7024.7568.1872 0 .3728-.0224.5568-.068s.3384-.1024.4632-.168c.1256-.0672.2368-.1352.3336-.2056s.1704-.1264.2184-.168l.0728-.0736z"/><path d="m40.28376 44.96712h-.7496l-.5936-1.3992h-3.3312l-.584 1.3992h-.7496l2.676-6.3136h.656zm-4.384-2.0832h2.7592l-1.3736-3.284z"/><path d="m42.27224 38.65336h4.884v.684h-2.0824v5.6296h-.7288v-5.6296h-2.0728z"/><path d="m50.56048 44.96736h.7288v-6.3136h-.7288z"/><path d="m55.72496 44.17256c-.5688-.628-.8536-1.412-.8536-2.352 0-.9464.2832-1.7352.848-2.3624.5664-.628 1.3104-.9416 2.2336-.9416.9304 0 1.6784.312 2.244.936.5656.6256.8496 1.4144.8496 2.368 0 .94-.284 1.724-.8496 2.352s-1.3136.9424-2.244.9424c-.916 0-1.6584-.3144-2.228-.9424zm3.936-.5104c.4304-.4984.6456-1.112.6456-1.8416 0-.736-.2152-1.356-.6456-1.8576-.4304-.5008-1-.752-1.708-.752-.7016 0-1.2648.2512-1.6912.752-.4272.5016-.6408 1.1216-.6408 1.8576 0 .7296.2136 1.3432.6408 1.8416.4264.4984.9896.748 1.6912.748.708 0 1.2776-.2496 1.708-.748z"/><path d="m69.84392 44.96744h-.5208l-3.9672-5.0088v5.0088h-.7288v-6.3136h.5312l3.9568 4.9872v-4.9872h.7288z"/></g><path d="m0 .20912h11.832c6.9072 0 11.0856 4.1392 11.0856 10.1168v.0832c0 6.7736-5.2128 10.2856-11.7072 10.2856h-4.84v5.5936c0 1.7592-1.4256 3.1856-3.1848 3.1856-1.76 0-3.1856-1.4264-3.1856-3.1856zm11.4176 14.7576c3.1848 0 5.0464-1.9224 5.0464-4.432v-.0832c0-2.884-1.9848-4.4312-5.1712-4.4312h-4.9224v8.9464z" fill="#fff"/><path d="m29.26224.20896h18.9776c1.5816 0 2.864 1.2824 2.864 2.864 0 1.5824-1.2824 2.864-2.864 2.864h-12.648v5.9368h13.6496v5.7272h-13.6496v6.1448h15.7184v5.728h-16.0832c-3.2944 0-5.9648-2.6704-5.9648-5.9648z" fill="#fff"/><path d="m90.68544.20896h6.3704v12.7928l10.9224-11.8936c.5264-.5728 1.2696-.8992 2.048-.8992 2.4416 0 3.6968 2.9232 2.0152 4.6936l-7.332 7.7232 12.3264 16.848h-7.6528l-8.976-12.4584-3.3512 3.5112v8.9472h-6.3704z" fill="#fff"/></g></svg>