<svg xmlns="http://www.w3.org/2000/svg" width="149" height="114.909" viewBox="0 0 149 114.909">
  <g id="Group_1" data-name="Group 1" transform="translate(148.5 114.5) rotate(-180)">
    <path id="Path" d="M41.089,0,63.03,17.813c-12.765,6.729-27.924,23.354-31.116,37.6,1.2-.792,4.787-1.187,7.978-1.187,15.159,0,26.728,11.479,26.728,28.5A31.375,31.375,0,0,1,35.5,114C16.755,114,0,99.355,0,73.625,0,43.938,16.356,17.417,41.089,0" transform="translate(81.38)" fill="#f39" stroke="rgba(0,0,0,0)" stroke-miterlimit="10" stroke-width="1"/>
    <path id="Path-2" data-name="Path" d="M41.089,0,63.03,17.813C50.264,24.542,35.5,41.167,31.914,55.417c1.6-.792,4.787-1.187,7.978-1.187,15.159,0,27.127,11.479,27.127,28.5S52.658,114,35.5,114C16.755,114,0,99.355,0,73.625,0,43.938,16.356,17.417,41.089,0" fill="#f39" stroke="rgba(0,0,0,0)" stroke-miterlimit="10" stroke-width="1"/>
  </g>
</svg>
