<?xml version="1.0" encoding="utf-8"?>
<!-- Generator: Adobe Illustrator 23.0.1, SVG Export Plug-In . SVG Version: 6.00 Build 0)  -->
<svg version="1.1" id="Layer_1" xmlns="http://www.w3.org/2000/svg" xmlns:xlink="http://www.w3.org/1999/xlink" x="0px" y="0px"
	 viewBox="0 0 148 114" style="enable-background:new 0 0 148 114;" xml:space="preserve">
<style type="text/css">
	.st0{fill-rule:evenodd;clip-rule:evenodd;fill:#00D5EA;}
</style>
<path class="st0" d="M25.5,114L3.6,96.2c12.8-6.7,27.9-23.4,31.1-37.6c-1.2,0.8-4.8,1.2-8,1.2C11.6,59.8,0,48.3,0,31.3
	C0,14.3,14,0,31.1,0c18.7,0,35.5,14.6,35.5,40.4C66.6,70.1,50.3,96.6,25.5,114 M106.9,114L85,96.2c12.8-6.7,27.5-23.4,31.1-37.6
	c-1.6,0.8-4.8,1.2-8,1.2C92.9,59.8,81,48.3,81,31.3C81,14.3,95.3,0,112.5,0C131.2,0,148,14.6,148,40.4
	C148,70.1,131.6,96.6,106.9,114"/>
</svg>
