<svg height="114" viewBox="0 0 148 114" width="148" xmlns="http://www.w3.org/2000/svg"><path d="m1148.46904 1130 21.94097 17.81292c-12.76548 6.72903-27.92429 23.35391-31.11582 37.60399 1.19602-.79203 4.78666-1.18741 7.97819-1.18741 15.15945 0 26.72762 11.47927 26.72762 28.49953 0 17.02089-13.96214 31.27097-31.11582 31.27097-18.74944 0-35.50401-14.64546-35.50401-40.3748 0-29.68756 16.35611-56.20829 41.08887-73.6252m-81.38017 0 21.94097 17.81292c-12.76548 6.72903-27.52583 23.35391-31.11582 37.60399 1.59577-.79203 4.7873-1.18741 7.97818-1.18741 15.15945 0 27.12673 11.47927 27.12673 28.49953 0 17.02089-14.36125 31.27097-31.51492 31.27097-18.7488 0-35.50401-14.64546-35.50401-40.3748 0-29.68756 16.35611-56.20829 41.08887-73.6252" fill="#f73a63" fill-rule="evenodd" transform="matrix(-1 0 0 -1 1174 1244)"/></svg>