<svg height="824" viewBox="0 0 1440 824" width="1440" xmlns="http://www.w3.org/2000/svg" xmlns:xlink="http://www.w3.org/1999/xlink"><clipPath id="a"><path d="m0 0h1440v824h-1440z"/></clipPath><linearGradient id="b" gradientUnits="objectBoundingBox" x1=".499" x2=".501" y1=".021" y2="1.187"><stop offset="0" stop-color="#8a7097"/><stop offset="1" stop-color="#281f3f"/></linearGradient><linearGradient id="c" gradientUnits="objectBoundingBox" x1=".186" x2=".486" y1="1.189" y2="-.687"><stop offset="0" stop-color="#3a30db"/><stop offset="1" stop-color="#f39"/></linearGradient><g clip-path="url(#a)"><path d="m-880.716 134.851c20.983-3.24 40.033-9.6 59.944-14.611 41.9-10.538 87.479-15.04 132.545-19.456l84.985-8.324c10.8-1.059 21.808-2.155 31.512-5.089 11.366-3.437 20.073-9.12 29.393-14.209 29.312-16.01 72.907-27.061 110.032-17.9 21.4 5.281 41.723 16.982 63.984 13.054 4.937-.871 10.019-2.52 14.944-1.622 4.7.855 7.467 3.775 12.045 4.828 8.851 2.033 17.255-3.732 26.689-4.51 16.775-1.386 25.551 12.421 41.924 14.939 10.925 1.681 22.616-2.13 33.64-.685 10.691 1.4 17.855 7.319 28.027 9.678 21.181 4.912 42.023-6.927 55.7-17.467q26.027-20.066 52.056-40.132c9.526-7.345 19.776-15.023 34.504-18.496s35.1-.737 40.375 7.915c5.447-7.48 13.353-14.364 23.177-20.173a33.132 33.132 0 0 1 5.24-2.591l-5.24 240-1070.76-87.8c24.332-13.447 60.929-16.129 94.625-15.659s68.1 3.338 100.659-1.69z" fill="#f3f2ff" transform="translate(1493 14)"/><path d="m-915.418 19.985c36.993-.662 69.068-18.393 106.061-17.751 28.385.491 52.63 11.637 74.924 22.092 165.95 77.817 544.903 192.062 734.433 247.674h-1142v-232.32c2.85-1.807 5.656-3.641 8.53-5.434 27.17-16.911 60.128-34.246 99.179-34.246.865 0 1.735.009 2.605.026 40.639.802 75.628 20.686 116.268 19.959z" fill="#d8d6f8" transform="translate(1134.1 2)"/><g fill="none"><path d="m-1012.92 6.547c29.944 8.577 55.361 22.659 87.006 28.682 28.509 5.425 64.294 5.4 80.494 20.405 7.173 6.645 10.555 16.18 23.291 18.351 5.117.874 10.375.226 15.674-.422a76.593 76.593 0 0 1 11.7-.825c24.191.788 29.318 20.722 45.489 31.482 17.721 11.788 46.77 11.387 75.484 10.984 30.079-.421 59.794-.843 75.725 12.75 4.867 4.154 7.536 9.166 12.961 13.068 15.637 11.24 44.828 8.616 69.243 7.491 42.954-1.981 86.861 4.18 123.834 17.376 31.14 11.112 58.439 27.3 93.778 32.223 16.74 2.328 34.264 1.932 51.071 4.08 20.941 2.672 39.872 9.155 58.413 15.547q94.38 32.532 188.757 65.061l-1043.284 19.2-1.68-272.4c.079-6.344 1.519-22.253-.395-25.935 0-2.276.526-3.662 4.007-3.662 4.089 0 12.255 1.914 28.432 6.547" transform="translate(881.196 1)"/><path d="m0 49.148-56.081 11.836c9.942-33.255 20.064-60.984 31.105-60.984 7.783 0 16.024 13.784 24.976 49.148" transform="translate(1019.713 276)"/><path d="m-7.412 13.9c-19.34 36.834-38.68 73.664-63.488 20.34q-5.768-12.384-11.536-24.785l82.436-9.455c-2.479 4.51-4.944 9.2-7.412 13.9" transform="translate(963.631 282)"/></g><path d="m-1012.92 6.547c29.944 8.577 55.361 22.659 87.006 28.682 28.509 5.425 64.294 5.4 80.494 20.405 7.173 6.645 10.555 16.18 23.291 18.351 5.117.874 10.375.226 15.674-.422a76.593 76.593 0 0 1 11.7-.825c24.191.788 29.318 20.722 45.489 31.482 17.721 11.788 46.77 11.387 75.484 10.984 30.079-.421 59.794-.843 75.725 12.75 4.867 4.154 7.536 9.166 12.961 13.068 15.637 11.24 44.828 8.616 69.243 7.491 42.954-1.981 86.861 4.18 123.834 17.376 31.14 11.112 58.439 27.3 93.778 32.223 16.74 2.328 34.264 1.932 51.071 4.08 20.941 2.672 39.872 9.155 58.413 15.547q94.38 32.532 188.757 65.061l-1043.284 19.2-1.68-272.4c.079-6.344 1.519-22.253-.395-25.935 0-2.276.526-3.662 4.007-3.662 4.089 0 12.255 1.914 28.432 6.547" fill="#c3c0f7" transform="translate(881.196 1)"/><path d="m0 49.148-56.081 11.836c9.942-33.255 20.064-60.984 31.105-60.984 7.783 0 16.024 13.784 24.976 49.148" fill="url(#b)" transform="translate(1019.713 276)"/><path d="m-7.412 13.9c-19.34 36.834-38.68 73.664-63.488 20.34q-5.768-12.384-11.536-24.785l82.436-9.455c-2.479 4.51-4.944 9.2-7.412 13.9" fill="url(#b)" transform="translate(963.631 282)"/><path d="m-204 751v-521h204v-227.785c-7.883-.203-15.227-2.093-23.125-2.21-.269 0-.534-.005-.8-.005-12.948 0-23.156 4.517-33.122 9.033-11.385 5.156-22.464 10.313-36.973 8.747 2.894-3.463-5.912-7.077-14.139-6.868s-15.052 2.845-20.8 5.493c-18.028 8.3-32.541 18.122-42.538 28.8-9.684-12.353-47.066-16.262-74.093-11.3s-45.842 15.919-63.327 26.405q-47.772 28.65-95.537 57.3c-25.092 15.048-63.339 31.952-102.211 24.938-18.664-3.369-31.814-11.816-51.434-13.817-9.895-1.009-20.082-.224-30.253.561-10.627.822-21.236 1.642-31.48.415-30.051-3.594-46.156-23.306-76.942-21.328-17.311 1.111-32.737 9.343-48.977 6.439-8.4-1.5-13.485-5.669-22.1-6.892-9.038-1.282-18.363 1.071-27.427 2.316-40.85 5.61-78.148-11.1-117.421-18.635-68.126-13.079-148.134 2.7-201.928 25.556-17.1 7.266-33.081 15.382-53.94 20.287-17.8 4.19-38 5.756-57.829 7.267q-77.975 5.941-155.964 11.885c-82.7 6.3-166.355 12.73-243.243 27.774-36.538 7.152-71.5 16.238-110.007 20.863-59.755 7.178-122.883 3.082-184.724 2.411s-129.009 3.15-173.666 22.35h32v521z" fill="url(#c)" transform="translate(1886 73)"/></g></svg>