<?xml version="1.0" encoding="UTF-8"?> <svg xmlns="http://www.w3.org/2000/svg" xmlns:xlink="http://www.w3.org/1999/xlink" height="287" viewBox="0 0 522 287" width="522"><defs><path id="a" d="m0 74.7782872s57.2435879 16.5571964 110.373808-36.9733929c10.895788-10.9792966 18.721221-41.51533981-23.463994-37.19201614-26.9470113 2.75986702-78.92064177 40.73311004-86.909814 74.16540904"></path><mask id="b" fill="#fff"><path d="m0 0h594v304h-172.439453-71.865235-122.21289-227.482422z" fill="#fff" fill-rule="evenodd"></path></mask><mask id="c" fill="#fff"><use fill="#fff" fill-rule="evenodd" xlink:href="#a"></use></mask><mask id="d" fill="#fff"><path d="m146.253018 5.59700028c-5.025099 8.16300002-14.06534 6.94900002-19.158781 9.71900002-6.627359 3.605-12.483013 12.789-12.483013 12.789s12.86934 50.516 10.891194 60.789c-1.977197 10.271-16.145051 24.3109997-24.735369 35.2579997s-57.1934789 13.331-91.95436461 43.813c-18.55128889 16.264-7.86037778 29.741 32.51411431 38.716 40.374492 8.974 83.5197173-8.901 93.1987743-9.544s33.629432 12.121 58.036375 1.973 65.987876 14.836 106.21714-23.32.508774-11.659-5.062118-16.632c-5.570892-4.973-68.248886-31.176-96.853219-31.313s-4.751727-13.106-11.439835-19.958c-6.688108-6.855-13.02406-20.7339997-13.02406-20.7339997l7.016533-23.737 20.705038-28.752s-8.844705-13.09-15.903952-16.453c-6.977616-3.323-13.61067-.034-19.371403-15.02300002-.876118-2.283-3.24154-3.18800028-6.020816-3.18800028-4.77166 0-10.767797 2.66400028-12.572238 5.59700028" fill="#fff" fill-rule="evenodd"></path></mask></defs><g fill="none" fill-rule="evenodd"><g transform="translate(-58 -34)"><path d="m180.945345 231.825816c-36.605374 20.39495-10.388295 76.046594 44.993392 71.960613 32.832577-2.415034 65.565093-44.977755 28.913023-68.651677-36.660646-23.674921 30.285296-29.746463-.072425-57.187758-30.358675-27.435302-17.507913-18.590166-15.410432-45.64993.728067-9.421427-4.13016-21.552527-18.238839-24.807529-15.091187-3.482722-25.797773 12.39977-24.960115 22.873905 2.155611 27.24953 14.993985 19.554981-15.297029 44.275617-30.291967 24.726629 36.66827 36.79181.072425 57.186759" fill="#3a30db" mask="url(#b)"></path><path d="m221.789185 213.3839c.014203-1.23.029354-2.461.045451-3.69.177071-12.748.095637-25.561-.473451-38.412l-.036929-.817c-.303956-4.592-.715859-10.787-.715859-10.787l-.295433-3.814c-.740478-9.788-1.622045-19.578-1.714841-29.358l-.861681-1.224c-.299222.252-.600337.503-.900505.756-.561513 9.882-.356982 19.827-.332363 29.781l.006629 3.81c.040716 3.022.080486 6.043.114575 9.062l.016097 1.711c.060602 1.914.115522 3.83.167602 5.744.276496 10.39.307743 20.668.214 30.896-2.233743-2.483-4.748717-4.774-7.075257-7.129-3.441991-3.449-6.91807-6.869-10.379947-10.301 0 0-5.247734-4.953-9.053336-8.687 0 0-.450725-.461-.44031.36 7.741877 8.577 15.809487 16.632 24.036177 25.058 1.000877 1.035 1.985655 2.096 2.88616 3.202-.235779 21.152-.966788 42.119-1.126814 63.485-.002841.365-.004735.73-.009469 1.094-.723434-.778-1.464859-1.545-2.2167-2.302l-.199796-.198c-8.509814-7.657-18.240186-14.042-26.65815-21.761l-1.529248-.18s.020832.852.032194 1.278c8.197337 7.838 17.695717 14.355 26.110841 22.078 0 0 2.068036 1.704 4.437186 3.926-.165708 18.331-.454513 36.663-1.208248 54.982l.27839 6.813c.328575 1.156.327628 1.155.624955 2.317l1.622045 2.064s1.203513-1.176 1.804796-1.765c0 0 .389177-1.113.998035-2.589.289753-2.519.677036-5.931.677036-5.931.797292-21.532.933646-43.182.964894-64.817 4.277159-1.936 8.420805-4.112 12.531309-6.342l4.557443-2.55c1.169425-.717 2.697725-1.644 2.697725-1.644.422319-.269.845585-.538 1.267903-.805.968682-.607 1.939257-1.211 2.910779-1.815 1.398575-.858 2.095495-1.264 2.095495-1.264l.271762-.93s-.818124-.356-1.478115-.061c-2.728027 1.218-6.359399 2.972-6.359399 2.972-1.324717.687-2.830292 1.48-2.830292 1.48-5.21554 3.014-10.316504 6.167-15.662717 8.95.017992-16.419-.013256-32.828.150558-49.166 4.96177-8.407 10.778593-16.36 17.156929-23.865 0 0 3.049027-3.902 5.213646-6.437 0 0 .160027-1.114-.997088-.008-2.302868 2.208-5.426699 5.399-5.426699 5.399-5.875531 6.731-11.235947 13.876-15.907965 21.431" fill="#00216c" mask="url(#b)"></path><path d="m420.945345 232.825754c-36.605374 20.394939-10.388295 76.047555 44.993392 71.960577 32.832577-2.415032 65.565093-44.977733 28.913023-68.651643-36.661599-23.674909 30.285296-29.746448-.072425-57.187729-30.358675-27.435289-17.507913-18.590157-15.411385-45.649907.728067-9.421423-4.129207-21.552517-18.238838-24.807517-15.091188-3.482721-25.796821 12.399763-24.959163 22.873893 2.155611 27.250515 14.993985 19.554971-15.297029 44.275595-30.291967 24.726617 36.66827 36.791792.072425 57.186731" fill="#f39" mask="url(#b)"></path><path d="m436.370814 131.485c2.141894 27.283 14.899513 19.578-15.199681 44.329-30.099195 24.758 36.435867 36.837.071964 57.257-36.372424 20.421-10.322185 76.141 44.707062 72.049 32.623637-2.417 65.14785-45.033 28.729027-68.736-36.428292-23.703 30.093513-29.782-.071965-57.258-30.165478-27.468-17.395548-18.613-15.313309-45.705.723433-9.433-4.10293-21.58-18.121824-24.838-1.436451-.334-2.834079-.491-4.183415-.491-12.746257 0-21.370646 13.91-20.617859 23.393" mask="url(#b)"></path><path d="m461.893628 214.2433c.014204-1.23.029354-2.461.045452-3.69.17707-12.748.095637-25.561-.474399-38.412l-.035982-.817c-.303956-4.592-.715858-10.787-.715858-10.787l-.295434-3.814c-.740478-9.788-1.622044-19.578-1.714841-29.358l-.861681-1.224c-.300168.252-.600336.504-.900504.756-.562461 9.882-.356983 19.827-.33331 29.781l.007575 3.811c.040717 3.021.080487 6.042.113628 9.061l.017045 1.711c.060601 1.914.114575 3.83.167601 5.744.276496 10.39.307744 20.668.213053 30.896-2.232796-2.483-4.747769-4.774-7.074309-7.129-3.441991-3.448-6.918071-6.869-10.380894-10.301 0 0-5.246788-4.953-9.053336-8.686 0 0-.449779-.462-.439363.359 7.741876 8.577 15.809487 16.632 24.036177 25.058 1.000876 1.035 1.985655 2.096 2.886159 3.202-.235779 21.152-.966788 42.119-1.126814 63.485-.002841.365-.005681.73-.009469 1.094-.723434-.778-1.464859-1.544-2.217646-2.302l-.19885-.198c-8.509814-7.657-18.240186-14.042-26.659097-21.761l-1.528301-.179s.020832.852.032195 1.277c8.197336 7.838 17.695717 14.355 26.11084 22.078 0 0 2.067089 1.704 4.437186 3.927-.165708 18.33-.454513 36.662-1.208247 54.981l.278389 6.813c.328575 1.156.327628 1.155.624956 2.317l1.622044 2.064s1.202566-1.176 1.804796-1.765c0 0 .38823-1.113.998036-2.589.288805-2.519.677035-5.931.677035-5.931.797292-21.532.933646-43.182.963947-64.816 4.278106-1.937 8.421752-4.113 12.532257-6.343l4.557442-2.55c1.169425-.717 2.697726-1.644 2.697726-1.644.422318-.269.845584-.538 1.267903-.805.968681-.606 1.938309-1.211 2.910778-1.815 1.398575-.858 2.094549-1.264 2.094549-1.264l.272708-.93s-.818124-.356-1.478115-.061c-2.728027 1.218-6.359398 2.973-6.359398 2.973-1.325664.686-2.830292 1.479-2.830292 1.479-5.21554 3.014-10.316505 6.168-15.662717 8.95.017991-16.419-.013257-32.828.150557-49.166 4.96177-8.406 10.778593-16.36 17.15693-23.865 0 0 3.048079-3.902 5.212699-6.437 0 0 .160973-1.114-.996142-.008-2.302867 2.208-5.426699 5.399-5.426699 5.399-5.875531 6.731-11.235947 13.876-15.907965 21.431" fill="#ffbad1" mask="url(#b)"></path><path d="m361.611327 250.364929c-22.921014 12.282282-6.508035 45.924488 28.171218 43.511736 20.559235-1.425399 41.056343-27.102615 18.106655-41.439796-22.955423-14.336179 18.964962-17.936763-.043967-34.543355-19.008929-16.602582-10.962058-11.246813-9.64879-27.589776.456872-5.691569-2.585436-13.023048-11.419886-15.00377-9.449028-2.119052-16.153002 7.464796-15.629224 13.791881 1.349588 16.462247 9.388813 11.827197-9.579972 26.728723-18.968786 14.905536 22.960201 22.261073.043966 34.544357" fill="#3a30db" mask="url(#b)"></path><path d="m372.019789 189.3c1.33245 16.423 9.270535 11.799-9.457381 26.665-18.727915 14.87 22.668648 22.208.043409 34.462-22.630902 12.253-6.425394 45.815 27.812549 43.408 20.299113-1.422 40.535-27.038 17.877676-41.341-22.663929-14.303 18.723197-17.894-.043408-34.461-18.767549-16.563-10.822859-11.22-9.526268-27.524.451071-5.678-2.552605-12.992-11.274873-14.968-.89931-.204-1.775028-.3-2.620549-.3-7.920155 0-13.278268 8.355-12.811155 14.059" mask="url(#b)"></path><path d="m387.897279 239.1359c.009436-.741.019817-1.481.02831-2.222.110408-7.673.061338-15.383-.293479-23.119l-.022648-.492c-.188732-2.764-.444465-6.492-.444465-6.492l-.184014-2.296c-.460507-5.892-1.008775-11.785-1.066338-17.672l-.536-.737c-.185901.151-.37369.302-.560535.454-.350099 5.947-.222704 11.933-.207606 17.924l.003775 2.293c.025479 1.819.050014 3.636.071718 5.454l.009437 1.03c.037746 1.152.071718 2.306.104746 3.457.170803 6.254.19062 12.439.131169 18.596-1.388126-1.497-2.952718-2.879-4.401239-4.298-2.141169-2.079-4.304042-4.141-6.457479-6.211 0 0-3.26507-2.985-5.632718-5.236 0 0-.280268-.279-.273662.215 4.815507 5.17 9.835788 10.027 14.954211 15.106.622817.624 1.235253 1.264 1.795789 1.93-.147212 12.731-.603944 25.349-.703028 38.208-.001888.22-.003775.44-.006606.659-.450127-.469-.910634-.931-1.37869-1.388l-.124564-.119c-5.293943-4.617-11.347535-8.47-16.585802-13.124l-.951212-.11s.013212.513.020761.769c5.099549 4.726 11.00876 8.657 16.244197 13.315 0 0 1.286211 1.028 2.760211 2.367-.102859 11.033-.283098 22.066-.753042 33.091l.173634 4.1c.203831.696.203831.695.387845 1.396l1.009718 1.243s.748324-.706 1.122958-1.06c0 0 .242521-.67.62093-1.557.180239-1.516.420873-3.57.420873-3.57.49731-12.958.583183-25.988.602056-39.009 2.662071-1.162 5.240155-2.467 7.797479-3.804l2.835704-1.531c.727564-.43 1.678775-.987 1.678775-.987.262338-.161.526563-.323.788901-.483.603-.364 1.206-.727 1.810888-1.09.870056-.515 1.30414-.758 1.30414-.758l.167972-.559s-.508634-.215-.919126-.038c-1.696705.729-3.956775 1.782-3.956775 1.782-.824761.412-1.760873.887-1.760873.887-3.245254 1.809-6.418789 3.703-9.745198 5.372.012268-9.883-.007549-19.759.09531-29.592 3.087662-5.055 6.705662-9.835 10.674705-14.346 0 0 1.897704-2.346 3.244309-3.869 0 0 .099085-.67-.620929-.006-1.432479 1.327-3.376423 3.244-3.376423 3.244-3.655746 4.045-6.990648 8.34-9.89807 12.883" fill="#000fad" mask="url(#b)"></path><path d="m453.242703 249.716c-1.863302-19.616 9.953453-40.557 25.681241-50.115 10.03426-6.099 26.018726-10.176 30.137954-22.723 5.830423-17.757-5.480579-35.603 8.90297-51.565 7.270679-8.069 34.814271-26.51 40.283442-6.117 3.35014 12.499-10.722541 21.539-12.375746 32.981-3.024062 20.95 17.386697 40.232 5.684021 61.013-8.214689 14.585-29.657869 16.563-35.584309 31.599-5.78194 14.672 1.213998 35.885-8.293594 49.21-3.256025 4.564-7.622425 7.992-12.443243 10.514-3.029767 1.585-36.155659 4.176-36.155659 4.176s-4.801804-26.18-5.82662-46.26z" fill="#d8d6f8" mask="url(#b)"></path><path d="m538.152601 128.5836-.211047.381-.203443.39-.195836.397-.188232.405-.116932.271-.08651.122-.248123.36-.245272.365-.245271.367-.24337.371-.240518.375-.239567.378-.236716.38-.233863.385-.231962.389-.22816.389-.227208.394-.223406.396-.221505.401-.108376.2-.109326.2-.106475.203-.104573.203-.108375.202-.103623.203-.104573.206-.103622.205-.100771.205-.102671.206-.098869.207-.09982.206-.097919.208-.097918.209-.095066.207-.096968.21-.094116.21-.093165.209-.091264.211-.092214.211-.089363.211-.089362.211-.086511.212-.087461.212-.084609.214-.084609.213-.082708.213-.080806.215-.079856.214-.079856.215-.077003.215-.077955.215-.074152.214-.075102.216-.073201.217-.070349.215-.07035.216-.068447.216-.067498.217-.044681.15-.019964.067-.065596.215-.065595.217-.060843.217-.061793.218-.059892.216-.05799.218-.05609.216-.057039.218-.053238.217-.052286.218-.050385.218-.048484.217-.047533.218-.044682.217-.045632.218-.042779.218-.039928.218-.038978.217-.038977.218-.035174.216-.033274.217-.034223.217-.029471.218-.029471.216-.026618.216-.026619.218-.022816.215-.021865.217-.020915.218-.018062.214-.015211.217-.015211.214-.01426.216-.010457.214-.009506.216-.005704.215-.005704.213-.003803.215-.000951.213-.00095.212.003802.214.004754.212.005704.212.008556.213.010457.211.012358.211.012359.169.001901.042.015211.211.016161.211.018063.208.019964.21.022816.212.017112.138.016161.14.019013.14.019014.136.040878.282.043731.277.047533.277.051336.276.054188.275.056089.275.061793.273.061793.274.068448.272.069399.271.070349.272.074151.271.077955.27.079856.271.081757.268.084609.271.087461.268.089362.27.090314.267.094115.27.094116.269.097918.269.024718.063.0713.206.096017.271.097918.268.098869.271.10077.27.102672.272.101721.27.105524.269.211998.545.215801.544.217702.546.222455.547.443961 1.101.222455.555.220554.556.220554.561.108376.282.107425.282.108376.283.105523.286.105524.284.104573.286.102672.289.101721.289.10077.288.097919.291.096017.293.095066.293.092215.295.092214.295.061793.2.05704.202.059892.201.056089.202.056089.202.056089.203.053238.205.055138.203.052287.206.051335.206.050386.207.048484.208.050385.208.048484.209.046582.208.046583.211.044681.209.04278.211.04278.212.04373.21.039928.213.039928.214.039928.213.038026.213.038027.216.035175.214.037076.215.033273.215.032322.216.033274.218.031372.216.02947.219.030421.215.02852.218.025668.219.027569.219.025668.22.022816.219.023767.219.022816.221.020915.218.019963.222.019964.221.017112.219.017112.222.015211.222.015211.221.01426.222.012358.223.011408.221.011408.223.009507.223.008556.222.007605.223.005704.223.006655.222.003802.224.002852.223.001902.221.00095.224v.224l-.002852.223-.00095.223-.004754.224-.004753.222-.004753.225-.008556.222-.008556.223-.007606.223-.009506.223-.012359.223-.013309.222-.013309.223-.016162.222-.01426.222-.018062.224-.018063.22-.018063.198-.00095.025-.021866.222-.023766.221-.023767.222-.024717.22-.025668.222-.027569.22-.027569.22-.030422.219-.031372.221-.031372.218-.032322.221-.035175.218-.036125.217-.037076.219-.038026.218-.040879.217-.039928.218-.04278.216-.041829.216-.04373.216-.046583.214-.047533.215-.048484.215-.049435.213-.051336.214-.051335.212-.054188.213-.054188.213-.056089.21-.057991.21-.058941.21-.058941.209-.062744.209-.062744.21-.062744.207-.066546.206-.065596.207-.068448.206-.070349.205-.069398.204-.072251.205-.073201.202-.075102.203-.076054.201-.079855.201-.077955.2-.079856.199-.081757.198-.082708.197-.085559.198-.092215.209-.093165.208-.092214.205-.093165.206-.094116.202-.095066.202-.097919.201-.096017.198-.097918.2-.096968.195-.098869.195-.098869.196-.100771.191-.10077.192-.101721.19-.101721.188-.102672.187-.104573.186-.103622.186-.104573.183-.105524.183-.105524.18-.108376.18-.106474.179-.108376.176-.108375.177-.110277.174-.110277.174-.110277.173-.111228.171-.112179.17-.112178.169-.11408.168-.114079.167-.113129.164-.115031.164-.11503.164-.116932.162-.116931.161-.117883.16-.116931.158-.119784.157-.116932.157-.119784.154-.121685.156-.119783.151-.121685.153-.121685.151-.121685.15-.124537.149-.121685.146-.126439.149-.247172.29-.250976.286-.254778.282-.254778.279-.25763.275-.25858.27-.259532.266-.262383.264-.266186.259-.264284.255-.269038.254-.269038.248-.269989.246-.272841.243-.273791.24-.275692.236-.275693.233-.278545.23-.279495.226-.280446.226-.282347.222-.283298.218-.285199.217-.285199.213-.28615.212-.288052.207-.289952.207-.289002.204-.291854.202-.292804.2-.290904.197-.294706.196-.293755.194-.295656.192-.295657.19-.297558.189-.296607.186-.298508.186-.29946.183-.299459.182-.30041.182-.30041.179-.30136.178-.302311.177-.302312.177-.246222.142-.057039.033-.608425.346-.606524.345-.610327.34-.612227.339-.611277.338-.61508.338-1.225406.672-.613178.338-.614129.339-.611278.341-.613178.345-.611277.345-.610326.35-.303262.177-.306114.176-.304213.179-.303261.181-.303262.181-.302311.182-.302312.184-.302311.186-.30041.187-.302311.187-.30041.192-.298508.192-.29946.192-.298508.197-.297558.198-.297558.199-.297558.202-.293755.203-.295656.205-.293756.209-.294706.21-.292804.214-.290903.216-.292805.218-.289002.221-.289002.222-.289002.227-.289001.23-.596067.48-.592264.48-.585609.48-.580856.481-.576102.481-.568497.479-.566596.479-.55899.48-.556139.48-.547583.481-.545681.478-.538076.479-.534273.482-.527619.479-.523815.479-.519063.479-.513359.48-.505753.479-.502901.48-.498148.481-.491494.479-.489592.481-.481986.479-.476283.48-.47248.48-.465826.48-.462022.48-.45727.481-.451565.481-.446813.482-.443009.48-.436355.482-.431601.48-.424947.482-.423046.482-.417341.48-.411638.483-.406884.483-.403082.483-.197738.241-.197738.241-.196788.242-.195836.241-.193936.243-.192985.242-.192984.242-.190133.241-.188232.242-.189182.242-.187281.244-.185379.241-.184429.243-.182528.242-.183478.242-.179675.242-.179676.244-.177774.242-.178725.242-.174922.244-.173972.244-.175873.242-.17207.243-.171119.245-.169218.243-.169219.242-.167317.245-.166366.243-.165415.244-.164465.244-.163514.244-.160663.244-.159711.245-.160663.244-.156859.246-.15781.245-.15686.243-.154958.246-.153057.245-.151156.244-.151155.246-.150205.244-.148304.247-.148303.246-.145452.245-.146402.246-.1426.247-.144501.245-.140698.247-.140699.247-.121685.214-.018062.032-.1426.243-.140698.246-.139748.245-.138797.244-.137846.247-.135945.244-.134994.246-.134995.246-.133093.245-.130241.246-.132142.248-.128339.247-.12834.245-.127389.247-.126438.249-.125488.246-.123586.249-.121685.246-.121685.248-.120735.25-.119784.248-.117882.249-.117882.248-.115981.249-.115031.249-.114079.251-.112179.248-.110277.251-.110277.25-.110277.251-.108375.25-.106475.251-.106474.252-.105524.252-.102672.251-.103622.252-.101721.253-.09982.252-.09982.253-.097918.253-.096017.252-.096968.254-.095066.254-.095067.254-.092214.253-.090313.256-.091264.253-.091264.256-.085559.257-.087462.255-.087461.256-.025668.077-.059891.177-.08556.257-.084609.256-.083659.257-.081757.256-.081757.258-.079856.257-.077954.257-.077955.258-.077954.26-.074152.259-.075102.258-.075103.259-.07225.26-.07035.259-.070349.26-.070349.262-.068448.26-.066546.262-.065596.26-.065596.262-.062744.263-.064645.264-.060842.262-.061793.263-.059892.263-.057991.263-.05799.265-.05704.264-.055139.265-.055138.266-.052287.266-.052286.264-.051336.268-.051336.264-.047533.269-.049435.267-.047533.266-.045632.269-.044681.267-.043731.27-.042779.268-.04183.27-.040878.271-.039928.269-.038027.271-.038026.271-.025668.184-.016161.087-.048484.269-.047534.27-.046582.272-.044681.271-.045632.273-.039928.272-.04278.274-.039928.273-.038977.273-.038977.275-.037076.275-.037076.276-.034224.275-.033273.278-.032323.276-.031372.277-.030421.28-.02852.277-.027569.278-.026619.282-.026618.278-.023767.282-.023767.28-.020914.282-.019964.282-.021865.281-.018063.283-.017112.285-.656909.691-.639797-.706-.012359-.289-.011408-.288-.007605-.288-.009506-.289-.007606-.288-.006654-.287-.006655-.288-.003803-.287-.004753-.288-.001901-.286-.001902-.286-.00095-.288-.000951-.285.000951-.287.00095-.287.002852-.284.002852-.287.004754-.285.004753-.285.006655-.285.008556-.285.007605-.286.007605-.283.010457-.284.010458-.284.012358-.285.01331-.285.013309-.284.004753-.089.019014-.193.02947-.28.029471-.284.031372-.281.031372-.279.032322-.281.035175-.282.036125-.28.035175-.279.038977-.279.038026-.28.038978-.279.040878-.28.04278-.277.041829-.279.043731-.279.04373-.277.048484-.278.045632-.277.049435-.278.050385-.276.048484-.278.052286-.277.053237-.276.052287-.275.055138-.276.05704-.275.05704-.276.058941-.275.059892-.275.059892-.274.060843-.273.063694-.277.064645-.272.063695-.274.064645-.274.068448-.273.069398-.273.069399-.273.069398-.273.073201-.271.072251-.274.073201-.271.074152-.273.077003-.271.077955-.271.077954-.272.05704-.189.023767-.082.081757-.269.083658-.271.08461-.269.085559-.27.08556-.269.088412-.27.089362-.268.089363-.27.091263-.268.092215-.269.095066-.267.093165-.268.095067-.267.098869-.269.096968-.268.098869-.265.101721-.268.10077-.266.102672-.267.102672-.267.105523-.266.107425-.264.106475-.267.108375-.265.110277-.265.110278-.266.112178-.264.11408-.266.114079-.265.11408-.263.117882-.264.117883-.265.117882-.263.120734-.264.121685-.265.121685-.262.124537-.263.125488-.264.125488-.261.126438-.263.127389-.263.131192-.261.130241-.262.132142-.263.133093-.263.134994-.26.134995-.261.135945-.261.138797-.262.137846-.26.140698-.262.019013-.034.126439-.225.146402-.257.146402-.257.149255-.257.149254-.258.152106-.257.152106-.258.153057-.258.154008-.255.156859-.256.155909-.256.158761-.257.159712-.257.160662-.256.160662-.255.164465-.255.163514-.255.166367-.256.166366-.255.167317-.254.168267-.254.172071-.255.170168-.254.172071-.254.173971-.254.174922-.253.176824-.255.176823-.253.179676-.254.177774-.251.183478-.254.179676-.252.184429-.254.184429-.252.185379-.253.187281-.251.188231-.252.189183-.253.191083-.251.191084-.251.192984-.251.195837-.252.194886-.252.197738-.25.196788-.25.20059-.252.19964-.251.20154-.251.201541-.249.205344-.251.206294-.251.412588-.499.419243-.499.423996-.499.4297-.499.432552-.497.439207-.497.444911-.498.448714-.498.452516-.496.460121-.496.462974-.495.467726-.495.475332-.495.478184-.494.483888-.495.488642-.495.492444-.493.500049-.495.502901-.491.509556-.495.513359-.492.520013-.492.523816-.493.527619-.493.535224-.492.538076-.49.545681-.493.549484-.491.554237-.492.560892-.491.564694-.49.570399-.492.574201-.491.581806-.492.583708-.49.591313-.49.596067-.493.60177-.491.606524-.491.307064-.244.306114-.241.308966-.241.307065-.236.309916-.232.308966-.229.309916-.227.311818-.224.310867-.222.310868-.218.313719-.216.311818-.213.310867-.211.313719-.209.312768-.206.312769-.203.312768-.202.312769-.2.31467-.198.311818-.194.314669-.195.31372-.193.314669-.188.311818-.189.312769-.187.312768-.185.313719-.184.31467-.183.623636-.358.624586-.356.620784-.352.620784-.347.618882-.345.61603-.342 1.226357-.675.610326-.337.604623-.336.603672-.338.597967-.335.596067-.339.592263-.341.05609-.032.237666-.138.293755-.169.293755-.172.291854-.172.289002-.174.288051-.172.288051-.175.287101-.175.28615-.178.283298-.177.282347-.178.282347-.182.279496-.18.280445-.183.275693-.184.275693-.186.276643-.189.27189-.187.27189-.19.269038-.194.269988-.194.268088-.196.264284-.198.265236-.201.262383-.201.261433-.204.25763-.206.257629-.21.25763-.211.252877-.213.253827-.217.250025-.218.248123-.221.249074-.225.245272-.226.24337-.229.241469-.233.240518-.236.238616-.238.235765-.24.234814-.246.233863-.247.230061-.25.22911-.255.227209-.257.227209-.266.110277-.13.111227-.131.111228-.135.109326-.134.110277-.137.109327-.135.108376-.138.109326-.14.108376-.138.106474-.141.106474-.142.107425-.142.104574-.145.106474-.144.105524-.146.104573-.146.102671-.148.104573-.15.102672-.15.101721-.151.100771-.151.101721-.154.10077-.154.09982-.155.10077-.156.097919-.159.097918-.158.097918-.16.097919-.162.096968-.162.096017-.163.096017-.166.095066-.165.096017-.167.093165-.169.093165-.171.093166-.17.093165-.173.091263-.174.091264-.174.089363-.175.091263-.178.089363-.18.088411-.18.088412-.18.088412-.183.08651-.184.087462-.187.084609-.186.08651-.189.082708-.189.084609-.19.075102-.174.074152-.171.072251-.174.069398-.175.069399-.175.069398-.178.066547-.175.067497-.179.063694-.18.064645-.18.061794-.179.062743-.182.059892-.183.060843-.183.05799-.184.05704-.184.055139-.186.055138-.184.055139-.188.051336-.188.053237-.188.049434-.188.049435-.19.047533-.191.047533-.191.046583-.19.045632-.192.04278-.193.04373-.193.039928-.194.039928-.194.039928-.195.038026-.195.038027-.197.035175-.197.036125-.196.033273-.197.032323-.198.032322-.198.030421-.199.02852-.201.02757-.199.02852-.199.027569-.201.023766-.201.022816-.2.023767-.202.021865-.202.021865-.202.019014-.202.002852-.023.017112-.179.017112-.203.018062-.203.016162-.203.01426-.204.01426-.205.013309-.203.010457-.204.012359-.205.009506-.204.009507-.205.006655-.204.006654-.206.006655-.205.003803-.205.004753-.206.001901-.205.002852-.206v-.205l-.00095-.205-.001902-.205-.001901-.206-.003803-.205-.003802-.205-.006655-.206-.005704-.204-.007605-.206-.007606-.205-.009506-.206-.011408-.206-.010458-.203-.012358-.206-.01426-.203-.015211-.205-.013309-.203-.016161-.205-.017112-.203-.018063-.204-.019013-.202-.019964-.205-.020915-.202-.023766-.202-.021866-.203-.025668-.2-.023766-.203-.024717-.202-.02757-.199-.026618-.2-.029471-.201-.030421-.2-.02852-.198-.031372-.199-.032323-.199-.033273-.198-.033273-.198-.036125-.196-.034224-.197-.038027-.196-.036125-.195-.039928-.194-.037076-.195-.041829-.195-.040879-.192-.040878-.193-.04278-.192-.044681-.19-.043731-.191-.044681-.19-.045632-.19-.048484-.189-.047533-.188-.049434-.188-.048484-.186-.051336-.186-.050385-.185-.052287-.184-.052286-.184-.054188-.182-.081757-.273-.083659-.27-.084609-.272-.088412-.27-.089362-.272-.092215-.271-.093165-.271-.094115-.271-.096968-.272-.097919-.271-.10077-.272-.09982-.272-.101721-.272-.103622-.27-.208196-.547-.212948-.547-.217702-.548-.434454-1.1-.218653-.553-.219603-.557-.217702-.559-.21485-.561-.106475-.282-.106474-.284-.103623-.283-.104573-.286-.101721-.285-.103622-.287-.098869-.289-.075103-.219-.022815-.07-.094116-.291-.091264-.294-.089362-.293-.088412-.294-.083659-.296-.084609-.299-.080806-.298-.079856-.301-.076053-.301-.075103-.301-.071299-.305-.067498-.304-.065595-.308-.063695-.306-.058941-.311-.056089-.311-.053237-.311-.051336-.315-.045632-.314-.041829-.319-.038978-.316-.034224-.317-.017111-.165-.01331-.161-.01521-.161-.01331-.162-.016161-.24-.015211-.241-.011408-.24-.009506-.241-.007606-.241-.001901-.046-.002852-.194-.000951-.24.000951-.241.004753-.241.006655-.241.007605-.239.009507-.24.012359-.24.01521-.238.016162-.241.019013-.239.019964-.239.023766-.238.024718-.239.027569-.238.02852-.238.032322-.237.033274-.238.034224-.237.036125-.237.038977-.236.039928-.238.041829-.234.045632-.237.045632-.235.046583-.235.050385-.236.051336-.233.053237-.234.053237-.234.058941-.233.05704-.234.060842-.231.058942-.233.064645-.232.064645-.232.064645-.23.069399-.232.069398-.229.070349-.23.072251-.229.074152-.23.076053-.229.077003-.228.077955-.227.079856-.227.081757-.226.024717-.07.057991-.157.083658-.224.08651-.226.087462-.223.089362-.224.090313-.224.091264-.222.093165-.222.093165-.221.095066-.221.096968-.22.097919-.22.098869-.219.098869-.22.10077-.217.101721-.218.103623-.216.104573-.217.105523-.214.105524-.215.108376-.215.107425-.213.108376-.213.109326-.213.112178-.212.112179-.21.113129-.21.11503-.21.113129-.209.116932-.208.11503-.207.117882-.207.118834-.207.118833-.205.119783-.204.120735-.203.120734-.204.121685-.202.123586-.202.124537-.2.249074-.399.250025-.396.254778-.392.255729-.388.259531-.386.260482-.382.261432-.378.265236-.375.265235-.372.267137-.367.269038-.363.270939-.359.27189-.356.094116-.12.223406-.195.336535-.293.32988-.295.325127-.294.319424-.291.43065-.042z" fill="#6c75ff" mask="url(#b)"></path><path d="m198.392273 294.2121s-110.3778098-28.908-106.5570906-130.324c0 0 97.9241096 7.796 106.5570906 130.324" fill="#d8d6f8" mask="url(#b)"></path><path d="m129.112624 210.4933c-.197738-.255-.398328-.509-.597967-.764l-2.13234-2.71-1.509655-1.919c-8.191872-10.641-16.887597-20.899-24.9035973-31.521 0 0-.9421082-1.484.3127683-1.368 7.125228 4.417 13.918674 14.887 22.063013 24.592l1.047632 1.266c.067498-.499.120735-.797.194887-1.335 0 0 1.345189-9.637 1.88992-13.156.351746-2.42.151155-5.954 1.121784-4.994.714899 3.992.946861 8.013.566595 12.247 0 0-.693984 5.151-.809966 5.888-.366956 2.326-.405933 3.635-.513358 4.307l1.541026 1.862c5.265729 6.526 10.508642 13.064 15.724936 19.623.62934-1.345 1.664613-3.531 3.361548-7.081 1.885167-3.945 3.734209-8.123 5.228653-12.463 0 0 1.881364-7.499 2.646649-6.016-.38692 2.606-1.028619 6.322-1.028619 6.322-.312768 1.346-.652155 2.687-1.012457 4.019-.483888 1.781-1.040977 3.532-1.661761 5.259-1.365154 3.802-4.073596 8.811-4.073596 8.811-.675922 1.104-1.477332 2.155-2.073398 2.894 5.565188 7.006 11.099004 14.033 16.595744 21.087l.867956 1.114.230061-.601s3.652451-5.13 6.039569-8.5c3.189478-4.55 6.132734-9.343 8.029309-14.618.603672-.961 1.039076-2.461 1.425997-1.56-.048484.454-.095067.908-.134995 1.364-.083658.997-.245271 1.293-.420193 1.847-2.756926 8.521-7.064386 16.688-13.041211 22.991l-.826127.767c2.082905 2.718 4.162008 5.439 6.239209 8.16l2.374759 3.116c3.245567 4.58 6.443601 9.203 9.620721 13.846l1.965023 2.854 1.971677 2.845-.021865 1.215-1.131291-.243-2.206491-2.65c-1.861401-2.211-4.449108-5.264-4.449108-5.264-1.938404-2.292-4.711492-5.543-4.711492-5.543l-1.955516-2.361-1.909884-2.293c-2.209344-2.847-4.424391-5.69-6.64134-8.532l-2.933749-3.754c-2.615277-3.389-5.234357-6.777-7.857239-10.162-3.437602.588-16.68986 1.667-21.85767 1.539-3.526014-.09-7.038718-.427-10.540014-.811l-1.406982-.481s9.557977-.692 13.747554-.986c6.022457-.442 12.012592-1.148 18.07878-1.814-5.973023-7.707-11.968862-15.411-17.986566-23.097-.594165.055-1.557188-.311-2.904279-.17-7.478875.832-14.779975 2.555-22.481305 2.625l-1.409835-.467s5.316114-1.41 7.796396-1.99c4.68012-.916 9.328867-2.061 14.031803-2.882.809015-.141 1.656057-.258 2.429897-.354" fill="#6c75ff" mask="url(#b)"></path><path d="m231.163282 304.2765s-5.467269-45.798-36.374311-45.561c0 0-15.806692 1.516-26.02348 11.694 0 0-11.325262 8.732-20.721626 1.812-12.197021-8.985-32.886325-10.972-42.870199 3.93-11.0628789 16.516-32.4423647-17.761-46.9209795 28.926z" fill="#00216c" mask="url(#b)"></path><path d="m194.811541 258.716s-15.809279 1.516-26.027738 11.694-11.327114 8.731-20.724065 1.811c-12.199968-8.984-32.893607-10.972-42.879115 3.931-4.264426 6.366-10.0644263 5.185-16.409246 4.004-10.1157704-1.884-21.6206885-3.767-30.518459 24.922l172.938885-.801s-5.443442-45.559-36.140655-45.562c-.08082 0-.157837 0-.239607.001z" mask="url(#b)"></path><path d="m194.811541 258.716s-15.809279 1.516-26.027738 11.694-11.327114 8.731-20.724065 1.811c-12.199968-8.984-32.893607-10.972-42.879115 3.931-4.264426 6.366-10.0644263 5.185-16.409246 4.004-10.1157704-1.884-21.6206885-3.767-30.518459 24.922l172.938885-.801s-5.443442-45.559-36.140655-45.562c-.08082 0-.157837 0-.239607.001z" mask="url(#b)"></path><path d="m548.575238 222.086c-27.115238 2.752-79.413333 40.617-87.452381 73.954s57.601905 16.51 111.06381-36.868c10.245714-10.233 17.791428-37.499-15.921905-37.501-2.358095 0-4.914286.133-7.689524.415" mask="url(#b)"></path><g mask="url(#b)"><g fill-rule="evenodd" transform="translate(461 221.803283)"><use fill="#6c75ff" xlink:href="#a"></use><path d="m103.467561 17.1452512c.567702-.0454802 1.124891-.0651473 1.647037-.044251 10.695233.4093215 20.619512 6.418849 27.317465 16.177417 0 0 .456732.6244304-.563029.4892191-.226614-.2679642-.453228-.5310116-.683346-.7952883-8.330974-9.3295794-20.403411-13.942743-32.4513168-12.7061743-4.2951475 2.8394373-8.5844545 5.6911664-12.8784338 8.539208 5.2389819 1.4270938 15.1352256 5.2548027 21.9324696 14.767532 1.984622 2.7767483 4.094232 7.0629464 4.094232 7.0629464-.068919.4240718-.14251.8493728-.212597 1.2734446 0 0-7.521472-9.1255333-12.0362247-13.4781079-4.4107905-4.2517807-9.7981227-7.4341629-15.6982559-8.3499121-5.5917517 3.7121647-11.189344 7.421871-16.8126347 11.1094518-.0081768.1118566-.0186898.222484-.0292028.3331114 1.1015295-.0909603 2.2684733-.1290653 3.4108868-.063918 0 0 7.130155.9538542 12.9730508 3.9444822 1.5092006.7707044 12.734756 8.7727548 18.9771465 20.0825651 0 0 .170544.4843023.070086.9919593 0 0-11.7021448-13.3982103-18.0566736-17.1447924-6.3428477-3.7441237-13.5232316-5.8460448-20.3496775-6.1754687-5.0462435 3.2966973-10.1158492 6.5724982-15.2228344 9.8126526 5.7249164 1.2353395 18.799593 4.8798986 27.2847579 13.6145483 0 0 3.4295766 3.9911916 6.3276622 8.1569288 0 0 .6412935.8124969-.6903541.6244303 0 0-9.6404276-9.0677612-12.9905725-11.4610011-.6518065-.4658644-1.3082854-.9132909-1.9811178-1.345967-6.3486883-4.0956731-13.3772176-6.533164-20.8297716-7.7697328-1.6411972 1.0362102-3.2870669 2.0662744-4.9364409 3.0914219-2.2708096 1.4172602-4.5311061 2.8640211-6.7645361 4.3587205 9.6053842.9612294 18.7201615 5.891525 26.7637801 11.6158796l5.9842373 5.2363647s1.8187502 1.2967993.647134 1.3299875c0 0-3.2029629-1.9974396-7.2177635-4.3415118 0 0-10.4849725-7.0174663-18.3685598-9.6172108-3.6234831-1.1947761-7.4081657-1.9126252-11.2010251-1.9015625-4.937609 3.4675552-9.6906564 7.2202833-14.0558906 11.4831267l-2.3210383.3933419s-.2312862-1.7294754 1.3223027-3.289322c4.0942322-4.0649433 8.4337679-7.8164422 12.9380075-11.3491446-.5326591-3.2598214-1.7276376-9.7634848-3.2403425-13.1769554-1.7439911-3.9285028-4.2133796-7.5140605-7.3988208-10.2391827l-.1156431-.9071449s2.495087 1.1308581 4.0521802 2.8099366c5.0450754 5.4342649 8.0085753 13.0552652 7.8298541 20.6381606 4.29982-3.3163644 8.7409815-6.4471205 13.2627427-9.4721659 2.7602484-14.3717317-5.1174983-30.53194-16.2577816-37.7423896l-.2429673-.8997698s2.3677629.5605123 4.0837193 1.8081438c10.2420052 7.4489133 17.1992797 20.5213872 15.5791085 33.5029009-.0642462.463406-.1378372.926812-.2231094 1.3865304 6.1501092-4.0280675 12.411189-7.8963397 18.6255444-11.808863-.3796364-3.8608971-1.085176-9.4488112-2.2626328-13.8997212-2.0161611-7.6271463-6.9946541-14.21070729-12.964874-18.31375554l-.2102602-.66745213s9.0154877 4.12025696 13.1576126 11.65890137c3.2683771 5.9456094 4.7063228 12.9667633 4.8184616 19.6179299 4.0183049-2.5468892 8.0074071-5.123279 11.920582-7.7857123l2.6189069-1.7159543c1.5068644-5.9382343 1.6633914-12.3152907-.4415463-18.10848015-.5291547-1.45536522-1.1400772-2.89352174-1.8853326-4.26407261-1.315294-2.41044865-3.0312504-4.53326601-4.9819973-6.37091044l-.1226518-1.01531392s12.3364299 8.38924634 10.844751 23.12236092c-.0233622.22863-.0233622.22863-.052565.45726-.1950747 1.5352628-.5992414 3.1725487-1.0501326 4.6709357l3.9318646-2.5739314c3.9412096-2.4854295 9.226916-5.7440217 9.226916-5.7440217.9426663-.5641999 1.8900051-1.1247122 2.8361755-1.6803077-.5828876-5.87923301-2.3011802-19.23933828-6.1466046-23.70868623-1.3398244-1.55738827-3.329119-3.85843867-1.1856336-2.58745257 7.3252302 4.46320201 9.9710032 14.6323207 9.2642952 25.1726558 5.90247-3.4060954 11.903061-6.61060315 18.275111-9.600002 0 0 2.019666-1.2304228 1.414584.39580034 0 0-7.236454 5.16261314-11.836478 8.14955356-2.156335 1.4086559-4.311501 2.8209994-6.461995 4.2358012" fill="#3a30db" mask="url(#c)"></path></g></g><path d="m439 307.309s4.14291-39.513282 27.557875-39.308204c0 0 11.976294 1.308253 19.715026 10.089206 0 0 8.582079 7.533315 15.699896 1.562832 9.240856-7.752535 24.915196-9.466902 32.479769 3.390346 8.380471 14.24935 24.578236-15.32323 35.547434 24.95682z" fill="#000d55" mask="url(#b)"></path></g><g transform="translate(97)"><path d="m204.907972 80.8172605c.189112.481.39723.951.609149 1.414 4.555789 9.914 13.43264 12.968 13.202665 13.735-1.683 5.6260005-9.203758 15.0090005-9.841416 14.8640005-.925603-.213-2.360572-1.711-5.214354-5.567-2.276944-3.077-3.771783-6.2420005-4.002708-6.3610005-.616752-.32 1.245857 4.9390005 3.542757 9.0920005 1.702007 3.082 3.961845 5.356 3.961845 5.356s-2.601 3.909-4.399938 5.367c-2.300702 1.867-6.006913 4.287-9.409975 5.838-1.13277.516-18.54436.954-27.605571-.351-9.580081-1.379-33.949845-1.139-36.567-31.5080005-.586342-6.818 4.030267-21.732 4.030267-21.732s-5.177292 6.725-5.898578 17.573c-.800161 12.0200005 5.412969 26.5690005 5.412969 26.5690005s-13.090528-12.41-7.123528-36.8830005c2.396683-9.822 11.320099-23.333 12.989795-27.953 7.682311-21.263 14.800137-50.62599996 41.43069-50.26699996 17.522776.235 32.269695 16.66499996 29.729515 35.32899996-5.626789 41.359 17.584547 45.518 17.584547 45.518l-5.312236 9.031s-4.905504-1.305-6.880249-2.774c-3.025789-2.254-5.521304-5.114-7.816304-8.107.686124 1.366 1.334236 2.552 1.86736 3.35 2.817671 4.22 6.542888 8.303 11.085373 9.69l.378223.555s-9.259826-1.675-14.308826-9.211c-.516018-.768-.995925-1.623-1.444472-2.567" fill="#f39"></path><path d="m178.986921 10.685972c17.264292.0934885 26.096479 15.4464885 23.649429 33.6494885-2.926957 21.785-19.21718 35.308-26.372068 35.161-8.479622-.172-23.812882-19.071-23.913615-37.757-.106435-19.603 10.729956-31.14 26.636254-31.0534885" fill="#ffc6b2"></path><path d="m178.986921 10.685972c17.264292.0934885 26.096479 15.4464885 23.649429 33.6494885-2.926957 21.785-19.21718 35.308-26.372068 35.161-8.479622-.172-23.812882-19.071-23.913615-37.757-.106435-19.603 10.729956-31.14 26.636254-31.0534885" fill="#ffc6b2"></path><path d="m161.920294 11.5536605c-.82487 1.069-2.985876 20.644 17.376428 30.687 24.032404 11.851 16.629485 31.44 19.755056 26.906 8.623118-12.515 7.886628-33.558 4.155708-43.49-10.400198-27.67999996-33.866217-23.71199996-41.287192-14.103" fill="#f39"></path><path d="m186.519843 67.9588605c0-5.671-4.37523-10.276-9.763491-10.276-5.390161 0-9.764441 4.605-9.764441 10.276v24.142c0 5.671 4.37428 10.2750005 9.764441 10.2750005 5.388261 0 9.763491-4.6040005 9.763491-10.2750005z" fill="#ffc6b2"></path><path d="m162.568976 14.2196605c.442845.565 2.895596 16.615-5.234311 34.32-9.595285 20.894-4.848484 34.645-6.565695 32.084-4.733497-7.067-6.033522-25.671-5.166839-35.944 2.414739-28.629 12.981242-35.53299996 16.966845-30.46" fill="#f39"></path><path d="m179.558595 58.8583662c-.012096.169344-1.241856.286272-3.118752-.334656-.46368-.165312-1.012032-.379008-1.52208-.844704-.254016-.233856-.485856-.54432-.628992-.919296-.205632-.522144-.189504-1.112832.014112-1.566432.06048-.09072.058464-.306432.175392-.310464l.36288-.01008c.235872-.034272.512064.044352.784224.094752.495936.094752.651168.078624 1.005984.102816.616896.014112 1.262016-.048384 1.901088-.19152 2.618784-.552384 4.37472-2.457504 5.16096-4.025952.82656-1.578528.89712-2.765952 1.116864-2.75184.155232-.02016.461664 1.241856-.219744 3.146976-.346752.931392-.949536 2.003904-1.923264 2.94336-.96768.93744-2.30832 1.707552-3.8304 2.040192-.760032.169344-1.524096.233856-2.259936.193536-.320544-.014112-.824544-.078624-.973728-.11088-.133056-.024192-.116928-.054432-.14112-.036288-.016128.014112-.026208.042336-.024192.078624.054432.183456.153216.356832.294336.512064.278208.314496.683424.552384 1.082592.749952 1.62288.794304 2.776032 1.032192 2.743776 1.23984" fill="#f39" transform="matrix(-.93358043 -.35836795 -.35836795 .93358043 366.419116 67.911769)"></path><path d="m168.136631 61.0080605 14.755104 5.814144s-12.966912 8.942976-14.755104-5.814144" fill="#fff" transform="matrix(-.93358043 -.35836795 -.35836795 .93358043 362.75701 67.233038)"></path><path d="m168.66573 57.7080663c-.52416.995904-2.149056 1.171296-3.632832.391104-1.479744-.780192-2.25792-2.219616-1.731744-3.213504.52416-.995904 2.14704-1.16928 3.630816-.391104 1.479744.780192 2.25792 2.219616 1.73376 3.213504" fill="#ffb2a0" transform="matrix(-.93358043 -.35836795 -.35836795 .93358043 341.116486 63.222204)"></path><path d="m191.818263 57.4350046c-.447552 1.032192-2.05632 1.33056-3.590496.66528-1.538208-.66528-2.421216-2.040192-1.97568-3.072384.447552-1.032192 2.054304-1.33056 3.592512-.66528 1.534176.66528 2.4192 2.040192 1.973664 3.072384" fill="#ffb2a0" transform="matrix(-.93358043 -.35836795 -.35836795 .93358043 385.666128 71.478992)"></path><path d="m168.925738 47.6829903c0 .64512-.52416 1.16928-1.16928 1.16928-.643104 0-1.167264-.52416-1.167264-1.16928s.52416-1.16928 1.167264-1.16928c.64512 0 1.16928.52416 1.16928 1.16928" fill="#00216c" transform="matrix(-.93358043 -.35836795 -.35836795 .93358043 341.460608 63.285983)"></path><path d="m185.869032 48.1959385c0 .64512-.52416 1.16928-1.16928 1.16928-.643104 0-1.167264-.52416-1.167264-1.16928s.52416-1.16928 1.167264-1.16928c.64512 0 1.16928.52416 1.16928 1.16928" fill="#00216c" transform="matrix(-.93358043 -.35836795 -.35836795 .93358043 374.405654 69.391986)"></path><path d="m168.75825 43.8412198c-.360864.153216-1.0584-.691488-2.114784-1.374912-1.034208-.713664-2.082528-1.034208-2.080512-1.425312-.036288-.374976 1.429344-.679392 2.848608.274176 1.425312.94752 1.707552 2.413152 1.346688 2.526048" fill="#f39" transform="matrix(-.93358043 -.35836795 -.35836795 .93358043 337.536707 62.558731)"></path><path d="m143.19623 96.0047605s-25.373292 29.7280005-45.2537889 40.5890005c-19.8776459 10.863-65.9344472-13.339-65.9344472-13.339s-7.8163043-1.638-2.3957329 9.288c5.4196211 10.926 41.8507267 35.628 70.954938 26.895 29.104211-8.729 53.284863-34.937 53.284863-34.937s3.558913-22.399-10.655832-28.4960005" fill="#ffc6b2"></path><path d="m207.110222 95.9735605s29.195441 33.4510005 49.075938 44.3130005c19.877646 10.862 65.933497-13.34 65.933497-13.34s7.816304-1.637 2.396683 9.289-41.849777 35.627-70.954938 26.896c-29.104211-8.731-53.284863-34.938-53.284863-34.938s-7.382013-26.121 6.833683-32.2200005" fill="#ffc6b2"></path><path d="m186.237696 80.1126605c-2.384329-6.202-15.754249-2.232-18.614683 2.41-5.030945 8.162-14.080752 6.949-19.180118 9.719-6.636019 3.604-12.498485 12.7890005-12.498485 12.7890005s12.885261 50.516 10.903863 60.788c-1.978546 10.272-16.163832 24.312-24.764142 35.259 0 0-57.2600129 13.331-92.0613358 43.812-18.5728696 16.265-7.8695218 29.742 32.5519379 38.716 40.4214599 8.974 83.6159259-8.9 93.3081429-9.544 0 0 33.667602 12.121 58.102938 1.973 0 0 66.06464 14.837 106.341652-23.319 0 0 .508416-11.66-5.068006-16.632-5.578323-4.973-68.32923-31.177-96.966839-31.314 0 0-4.757254-13.105-11.453143-19.958-6.694937-6.854-13.039211-20.734-13.039211-20.734l7.024696-23.736 20.729124-28.752s-8.854043-13.0900005-15.922453-16.4540005c-6.984783-3.323-13.626503-.033-19.393938-15.023" fill="#ffc6b2"></path><path d="m167.452993 82.5220605c-5.025098 8.163-14.06534 6.949-19.158781 9.719-6.627359 3.605-12.483013 12.7890005-12.483013 12.7890005s12.86934 50.516 10.891194 60.789c-1.977197 10.271-16.145051 24.311-24.735368 35.258s-57.1934795 13.331-91.9543652 43.813c-18.5512889 16.264-7.8603778 29.741 32.5141143 38.716 40.3744919 8.974 83.5197179-8.901 93.1987749-9.544s33.629431 12.121 58.036374 1.973 65.987876 14.836 106.21714-23.32.508775-11.659-5.062118-16.632c-5.570892-4.973-68.248885-31.176-96.853219-31.313s-4.751727-13.106-11.439834-19.958c-6.688108-6.855-13.024061-20.734-13.024061-20.734l7.016534-23.737 20.705038-28.752s-8.844705-13.0900005-15.903953-16.4530005c-6.977616-3.323-13.61067-.034-19.371403-15.023-.876117-2.283-3.24154-3.1880002-6.020816-3.1880002-4.77166 0-10.767797 2.6640002-12.572238 5.5970002z"></path><g transform="translate(21.199975 76.92506)"><path d="m40.1744622 166.2746s15.8536444-1.828 36.1087587 2.352c16.6082635 3.425 26.4951971 8.201 45.3625711 10.877 5.874638.832 13.421778-2.83 19.844108-4.671 7.209222-2.064 9.761638 17.326 33.376943 15.422 14.324473-1.153 17.596387 3.6 18.331073 10.944 0 0 99.769181 11.5 114.985908-21.809 15.214829-33.309-98.654813-62.779-111.086568-62.016l-46.635457 18.281-12.352023 31.323s-10.087215 8.846-35.124431 1.984c-22.3670987-6.13-39.4698987-10.125-62.8108828-2.687" fill="#ffa192" mask="url(#d)"></path><path d="m140.52152 8.82000028s-5.447495 33.97600002-21.853578 54.63800002l-16.286482 54.2679997s24.66133 17.715 47.453673 16.893c22.607247-.816 47.165114-11.736 47.165114-11.736l-10.745965-53.8279997s-18.8968-14.153-15.073397-59.37200002l-4.455575-2.577s-.427142 22.76700002-12.561796 22.47700002c-9.893578-.237-10.111896-17.851-10.196375-22.13600002z" fill="#3a30db" mask="url(#d)"></path></g><path d="m89.9382519 209.276761 12.0857791 34.19s38.516123 14.436 55.431846 7.117c0 0 7.474213-3.308 12.739013 6.11 0 0 44.461692-21.941 63.940029-23.126l14.192649-.739 3.87383-23.378-33.648199-9.195-15.627295-19.58s-11.893038 7.945-28.993907 9.415c-17.834809 1.536-39.819742-8.466-39.819742-8.466l-12.542474 15.412z" fill="#6c75ff"></path><g fill="#3a30db"><path d="m168.426031 188.000361-.019939 2.183-.006646.267-.119633 4.909-.059816 2.46-.064564 2.459-.034181 1.23-.033231 1.229-.037979 1.233-.037029 1.229-.039878 1.232-.038928 1.229-.042726 1.23-.045575 1.229-.045574 1.231-.049373 1.229-.05222 1.23-.05507 1.229-.057917 1.228-.059817 1.227-.064563 1.228-.065514 1.224-.07026 1.226-.074059 1.225-.076907 1.222-.082603 1.224-.066463.957-.070261.957-.098745 1.323-.043675.59-.07216.955-.073109.957-.07026.955-.065514.955-.064563.955-.030383.476-.028484.477-.026586.478-.027534.477-.024686.476-.022788.478-.022787.475-.019939.478-.01709.474-.01709.478-.014243.475-.012343.478-.008545.476-.007596.47.001899.072.001899.161.005697.231.008545.29.010444.335.013293.37.015192.389.021837.397.021838.395.013293.19.009494.141.020889-.036.063614-.127.062665-.13.061715-.134.062665-.135.058867-.137.060766-.138.055069-.137.056019-.135.05317-.132.099694-.259.08925-.234.078806-.212.114886-.318.066463-.18.063614-.178.062665-.179.058867-.178.060766-.179.055069-.181.056019-.181.054119-.183.051271-.181.051272-.182.050322-.186.047473-.183.044625-.185.008545-.033.037029-.152.043676-.185.043676-.188.040827-.187.039877-.188.038928-.187.03703-.19.03513-.187.03513-.19.034181-.192.032282-.189.031333-.193.030383-.189.057917-.384.05317-.386.050322-.387.045575-.387.043675-.389.038928-.391.035131-.39.03513-.39.030383-.393.029433-.393.024687-.393.024686-.392.022787-.393.022787-.393.020889-.391.037029-.785.03513-.778.037029-.84.033232-.837.033231-.839.028484-.839.029434-.837.024686-.839.023737-.838.025635-.84.019939-.839.021838-.839v-.033l.047473-1.645.042726-1.679.039878-1.68.038928-1.678.037979-1.681.002848-.175.084503-3.185.048423-1.683.049372-1.68.052221-1.681.028484-.841.028484-.841.008545-.206.024686-.633.032282-.841.037979-.84.037979-.841.038928-.842.041777-.838.041776-.841.045575-.84.048422-.841.049373-.839.052221-.842.030383-.465.026585-.374.060766-.838.063614-.839.065513-.84.070261-.839.073109-.839.075957-.839.078806-.84.043676-.448.051271-.388.112987-.834.114885-.835.117734-.834.121532-.835.123431-.832.128178-.835.062665-.4.07216-.432.137673-.831.07026-.417.07121-.415.07216-.415.074059-.417.072159-.416.075958-.415.074058-.415.076907-.415.298133-.239.212681.326-.052221.417-.047473.42-.047474.417-.045574.417-.044625.418-.041777.419-.040827.418-.041777.417-.074058.837-.03608.435-.037029.402-.067412.834-.064564.837-.057918.837-.05317.835-.049372.837-.045575.836-.018989.388-.03513.446-.063615.835-.060766.835-.055069.834-.05412.835-.050321.835-.046524.834-.045575.837-.018989.371-.024686.464-.042726.837-.039878.834-.037029.837-.035131.837-.032282.837-.032281.837-.028484.837-.028485.837-.024686.838-.025635.837-.016141.634-.005697.205-.023737.837-.021838.84-.041776 1.678-.038928 1.677-.035131 1.679-.064563 3.185-.002849.175-.039878 1.681-.040827 1.681-.041776 1.682-.047474 1.683-.047473 1.647-.002848.036-.030383.84-.031333.842-.034181.841-.03608.842-.037029.841-.037029.842-.041777.84-.043675.842-.042726.844-.047474.839-.043675.785-.047474.788-.026585.397-.027534.397-.026585.399-.030383.401-.031333.399-.03513.402-.03513.401-.039878.402-.043676.402-.044625.401-.047473.401-.05412.403-.055069.399-.060766.401-.065513.4-.032282.201-.03513.198-.037979.199-.037979.201-.038928.199-.040827.198-.041777.196-.042726.2-.043675.198-.045575.196-.047473.196-.049373.197-.041776.161-.007596.035-.052221.196-.05317.195-.056018.194-.057918.194-.056968.195-.060766.193-.061715.192-.064564.193-.065514.191-.068361.19-.068362.189-.07216.191-.07026.184-.121532.316-.083553.215-.095897.246-.108239.268-.059816.143-.062665.142-.061716.148-.065513.149-.068362.149-.072159.15-.07216.15-.074058.147-.076907.147-.078806.143-.080705.141-.082604.136-.082603.129-.045575.067-.043675.063-.045575.061-.046524.059-.047473.061-.047474.057-.050321.057-.053171.053-.054119.053-.056019.052-.056968.049-.062665.047-.065513.045-.070261.042-.074058.038-.080705.033-.087351.029-.109189.025-.12438.008-.138623-.022-.121532-.049-.112037-.071-.104441-.108-.07216-.104-.043675-.087-.028485-.076-.023736-.069-.01804-.065-.014242-.064-.015192-.07-.024686-.132-.020888-.144-.01804-.154-.01709-.165-.014242-.172-.014242-.184-.013293-.186-.011394-.198-.010444-.198-.018989-.406-.014242-.408-.010444-.4-.008546-.375-.005696-.343-.003798-.295-.001899-.239-.001899-.17.001899-.095.011393-.487.017091-.482.01804-.482.020888-.482.024686-.481.025636-.483.026585-.479.026585-.483.031333-.479.031332-.481.032282-.479.03513-.483.035131-.477.037029-.48.078806-.959.078806-.958.082603-.957.084503-.955.084503-.955.05222-.59.117734-1.32.083554-.953.080704-.953.097796-1.216.095896-1.221.090199-1.218.088301-1.221.083553-1.223.079755-1.223.076907-1.223.074059-1.225.07026-1.225.068362-1.228.063614-1.227.061716-1.227.062665-1.228.057917-1.227.056019-1.228.05412-1.229.050321-1.23.052221-1.227.050322-1.23.046524-1.229.093048-2.457.08925-2.457.171854-4.907.009494-.268.111088-2.181.119633-2.445.188944-.185.175652.196z"></path><path d="m127.841846 197.855861.229771.386.226923.382.229772.383.23167.382.23072.379.46429.757.467139.754.471885.748.472835.747.475684.741.041777.068.432957.675.474734.739.476633.736.477582.734.957064 1.464.671274 1.025.281043.437.941872 1.462.469037.731.469038.731.465239.731.46429.73.150965.241.30383.495.448149.739.44625.742.442452.74.437705.743.218378.373.217428.372.21458.373.215529.373.21458.375.210781.374.212681.375.207934.378.208883.374.095896.175.111088.205.203186.379.202237.38.202236.379.198439.382.198439.383.19654.382.19654.384.191792.386.191793.387.189894.385.185146.389.188944.388.184197.39.181348.391.17945.391.179449.392.176601.396.175652.394.170904.398.169955.397.169005.399.165208.402.163308.401.16141.405.156662.404.156662.405.152865.406.151914.411.148117.411.146219.411.143369.415.14242.413.135774.417.136724.419.132925.42.129128.422.128178.421.12438.426.121532.427.119633.429.115835.427.113937.434.109188.433.106341.437.104441.438.099695.437.096845.442.094947.444.0902.444.087351.449.084502.448.080705.453.078806.453.074058.455.070261.458.066463.459.063614.462.037029.29.023737.177.05317.467.051272.467.048423.472.043675.473.038928.477.011394.17-.425362.346-.361747.033-.472835-.259-.016141-.17-.045575-.464-.049372-.459-.05412-.459-.055069-.456-.060766-.456-.024686-.169-.038928-.281-.065513-.451-.069312-.446-.072159-.447-.075958-.441-.078806-.442-.082603-.44-.087351-.435-.087351-.435-.092099-.433-.096846-.431-.096845-.431-.101593-.426-.105391-.426-.10729-.421-.111088-.422-.114886-.422-.114885-.418-.120583-.417-.121532-.413-.125329-.415-.12628-.41-.131976-.411-.132925-.409-.135774-.406-.138623-.403-.140521-.404-.144319-.405-.147168-.399-.149066-.4-.150016-.399-.152864-.396-.156663-.396-.157611-.393-.16141-.395-.158561-.381-.004747-.009-.163309-.39-.167106-.391-.169006-.389-.169005-.388-.174702-.386-.174702-.386-.1785-.384-.176601-.383-.182298-.382-.184197-.382-.183247-.382-.186096-.379-.190843-.38-.188944-.377-.192742-.377-.191793-.377-.19654-.376-.19654-.375-.199388-.374-.201287-.375-.200338-.372-.204135-.373-.109189-.203-.093998-.17-.204135-.372-.206984-.373-.206035-.372-.208883-.371-.208883-.37-.210782-.37-.212681-.371-.21268-.37-.21458-.369-.432008-.739-.435806-.738-.439604-.736-.444351-.737-.298133-.493-.144319-.243-.440553-.743-.442452-.743-.445301-.744-.44625-.743-.901045-1.491-.2687-.446-.625699-1.055-.894399-1.509-.449098-.757-.4472-.76-.44625-.761-.405423-.696-.041776-.07-.442452-.77-.439604-.772-.437705-.774-.435806-.779-.435806-.781-.215529-.393-.217428-.393-.21363-.394-.213631-.396-.21458-.397-.210781-.397.119633-.515.486127.137z"></path><path d="m212.340829 205.767961-.033231.213-.326617.287-.32187.29-.322819.29-.318072.295-.318072.297-.316173.297-.312375.299-.311425.303-.309527.304-.076907.075-.23072.231-.305729.307-.304779.309-.302881.311-.300032.313-.297183.317-.296234.317-.191793.208-.102542.109-.296234.319-.290538.319-.291486.321-.289588.324-.286739.325-.057918.066-.23167.256-.289588.322-.28579.323-.28579.325-.282941.329-.282942.328-.279143.331-.279144.332-.277245.335-.274396.335-.270598.337-.270599.337-.26775.34-.211731.271-.057918.071-.2668.342-.263952.343-.263003.343-.259205.347-.258255.348-.256356.35-.256357.351-.251609.353-.250659.354-.249711.355-.245912.357-.245912.357-.242114.362-.241165.359-.240216.363-.235468.365-.235468.365-.001899.003-.23167.363-.23262.366-.229771.37-.226923.369-.227872.373-.222176.373-.222175.375-.220277.374-.216479.378-.215529.377-.215529.378-.209833.382-.208883.382-.206984.384-.204135.386-.202237.386-.202237.386-.156662.31-.041776.078-.198439.388-.193692.391-.19559.391-.191793.392-.187994.396-.187995.394-.185146.396-.182298.396-.17945.4-.180399.399-.174702.403-.173752.401-.171854.404-.169005.403-.168056.407-.01899.047-.148117.359-.165207.406-.163309.406-.161409.411-.158561.409-.157612.412-.154763.411-.150966.415-.150016.413-.147167.417-.145269.415-.013293.04-.132925.377-.14242.418-.140522.419-.137672.42-.136724.422-.133875.422-.132925.424-.128179.423-.126279.426-.123431.427-.121532.429-.10634.377-.013293.05-.122481.429-.117734.431-.115835.43-.112037.431-.111088.433-.10729.435-.105391.436-.103492.434-.100644.438-.097795.439-.038928.177-.061715.261-.099695.439-.098744.441-.095897.441-.092098.443-.08925.443-.086402.444-.056018.288-.206035.127-.44625.386-.209832.159-.148117-.219-.305729-.52-.156662-.194.038928-.296.063614-.46.066463-.458.068362-.457.070261-.458.074058-.455.076907-.457.047473-.271.032282-.183.08925-.451.093048-.453.093048-.448.097795-.451.098745-.447.102542-.448.103492-.446.10729-.446.109189-.445.112987-.441.013292-.054.104442-.388.121532-.442.123431-.437.123431-.44.131026-.437.130077-.436.131976-.434.136724-.434.137673-.433.14147-.432.141471-.431.132926-.389.015191-.04.150016-.428.152864-.424.154764-.426.15951-.425.16141-.421.16046-.422.166157-.419.166157-.417.171854-.42.171853-.415.152865-.367.021837-.048.180399-.414.181349-.41.184197-.408.187994-.409.187995-.408.191793-.404.194641-.404.193691-.404.198439-.402.200338-.399.203186-.399.204135-.398.206984-.397.207934-.393.210782-.394.043675-.079.171854-.312.216479-.389.219327-.387.221226-.389.222176-.384.225973-.384.226923-.382.229771-.381.230721-.379.233569-.377.235468-.377.236418-.375.238316-.373.242115-.373.244013-.37.244013-.369.247811-.366.247811-.363.001899-.002.252559-.364.254457-.362.255407-.359.256357-.359.260154-.358.262053-.354.263003-.355.2668-.352.265851-.351.269649-.348.270599-.348.272497-.346.274396-.344.277245-.343.276295-.342.281043-.339.281042-.337.059817-.071.223125-.264.286739-.335.287689-.33.291487-.33.290537-.328.294335-.326.292436-.325.298133-.322.297184-.321.300032-.321.300981-.318.301931-.316.305729-.316.244013-.247.063614-.062.312375-.306.316173-.302.315223-.3.319022-.302.318072-.297.111087-.104.210782-.19.324718-.293.324718-.29.327567-.288.326617-.287.329465-.286.329466-.283.250659-.212.082604-.072.332314-.279.334213-.279.335162-.275.337061-.276.33896-.273.338011-.272.33896-.269.340859-.271.340859-.268z"></path><path d="m207.59064 200.591261-.24971.408-.24971.411-.221226.37-.028484.039-.287689.383-.57158.761-.577276.761-.580125.761-.582024.758-1.167846 1.518-.584872.762-.582024.76-.583923.761-.577277.766-.576327.765-.28579.386-.151915.205-.132925.179-.28579.384-.28484.385-.281043.387-.280093.388-.279144.389-.279143.39-.274397.391-.274396.39-.271548.395-.270598.393-.266801.397-.265851.397-.263002.398-.260155.399-.258255.402-.009495.017-.246861.387-.254458.401-.250659.407-.248761.408-.245912.408-.242115.411-.239266.412-.235468.415-.23167.418-.228822.419-.225024.42-.221226.424-.218377.427-.10729.212-.013293.028-.094947.185-.10729.215-.10539.214-.105391.217-.103492.214-.102543.217-.101593.218-.100644.216-.099694.219-.098745.219-.097795.22-.096846.222-.094946.221-.095897.221-.092098.222-.12438.304-.121532.304-.119633.303-.117734.306-.002849.004-.115835.302-.112986.305-.113937.308-.110138.308-.109189.31-.10729.311-.102542.31-.103492.313-.101593.312-.099694.312-.095897.315-.095896.315-.094947.316-.093048.315-.091149.317-.03418.125-.05412.192-.088301.319-.08925.317-.087351.319-.084502.319-.082604.321-.082604.319-.082604.322-.078805.321-.080705.324-.075958.321-.152864.647-.149067.647-.146218.65-.143369.649-.139572.651-.136724.655-.135773.651-.056019.268-.085452.386-.144319.652-.282942 1.304-.239266 1.113-.041776.189-.142421.652-.144319.652-.14242.649-.147168.65-.200337.149-.12628-.223.117735-.654.113936-.656.111087-.656.110139-.658.031332-.193.187045-1.124.217429-1.319.109188-.658.064564-.391.049373-.27.122481-.659.123431-.658.126279-.656.127229-.658.131026-.657.133875-.655.138623-.654.072159-.328.07216-.328.073109-.326.074058-.326.074059-.326.076907-.325.077856-.326.080705-.327.080705-.323.080705-.323.05222-.196.032282-.128.087351-.323.088301-.324.091149-.321.091149-.321.092098-.323.097795-.321.095897-.318.099694-.32.101593-.319.103492-.316.105391-.32.10634-.317.111088-.314.111088-.317.111088-.308.001899-.007.117734-.312.120582-.312.123431-.313.12438-.31.094947-.23.094947-.227.094947-.226.096845-.228.098745-.225.099694-.226.100644-.222.102542-.224.100644-.223.105391-.221.103492-.223.104441-.219.10824-.22.10729-.219.095896-.191.013293-.028.112037-.219.223125-.43.229771-.431.23262-.429.235468-.424.238316-.421.243064-.422.246862-.417.246862-.415.252558-.415.254457-.412.257306-.41.260155-.406.252558-.391.010444-.015.266801-.404.26775-.402.272497-.399.273447-.398.275346-.394.279143-.396.278194-.392.280094-.393.28389-.389.284841-.39.287689-.386.287689-.386.288638-.386.288638-.384.292436-.384.135774-.176.156662-.206.296235-.379.590569-.758.595316-.754.594367-.752.597216-.753.596266-.747 1.19443-1.497.593418-.748.590569-.749.58867-.747.582974-.75.290537-.375.030383-.04.290537-.31.319971-.348.316173-.354.254457-.032z"></path><path d="m125.434755 204.695761.045574.064.525056.723.056019.078.51651.708.17945.241.345606.579.494673.836.496572.836.223125.38.26775.462.486127.844.48328.846.451946.79.032282.055.479482.848.475683.851.475684.852.471885.853.469038.854.265851.488.198439.372.458593.861.456694.863.451947.866.449098.869.44625.87.220277.434.122481.244.094947.194.21458.44.21268.442.212681.439.210782.442.210782.444.208883.442.207934.444.206984.444.205085.444.204135.446.205085.445.201288.448.201287.446.126279.286.07121.164.198439.448.194641.45.194641.451.194641.453.191793.451.189893.453.187995.456.187045.453-.131027.389-.368393-.151-.200338-.446-.202237-.445-.203186-.443-.205085-.444-.206984-.443-.206984-.441-.210782-.442-.210782-.44-.075957-.16-.134825-.279-.210782-.44-.214579-.439-.212681-.438-.216479-.437-.217428-.436-.216479-.434-.219327-.436-.221226-.435-.221226-.433-.223125-.433-.223125-.43-.225024-.434-.225024-.431-.100644-.189-.12438-.241-.224074-.433-.4472-.863-.452896-.861-.453846-.86-.461441-.857-.462391-.855-.201288-.366-.262053-.488-.465239-.855-.469037-.852-.468088-.851-.473785-.85-.474734-.848-.031332-.054-.444351-.792-.479482-.847-.479481-.844-.263952-.462-.21458-.384-.477582-.848-.478532-.846-.333264-.584-.121532-.278-.368393-.805-.038928-.087-.377889-.819-.033231-.072.057917-.262z"></path></g><path d="m38.3776724 142.250361s-4.1900026-3.798-5.6920612-4.896c-1.5020585-1.1-9.0674202-5.577-13.9619281-7.846-4.8926091-2.272-15.53044951-10.821-18.42822611-16.012 0 0-.99599202-1.906.669375-1.267 0 0 1.73942553 1.08 2.62338032 2.128.88680319 1.051 7.15898939 6.603 7.15898939 6.603s-7.07163833-8.312-8.88607184-12.287c-1.81538298-3.972 1.05011171-2.609 1.84101862-1.435.79280585 1.174 7.24064362 9.84 9.45480322 11.777 0 0-5.33126333-8.298-6.36618354-11.163-1.03492021-2.863 1.12986702-2.816 2.47716224-.594 1.3491941 2.223 6.677609 10.375 10.6359415 12.694 0 0-4.314383-6.445-2.4733644-9.241 1.8391197-2.796 9.446258.274 8.0970639 1.792-1.3491942 1.518-4.6998671-.741-4.3267261 1.169.5582872 2.846 5.7680186 7.96 7.5330798 8.226 1.7641117.266 4.5232659-1.687 2.9518963-4.231-1.5704203-2.544-2.8654947-3.691-1.6159947-4.83 1.2523484-1.138 3.8700319 1.152 5.0226861 2.493 1.9112793 2.221.9466197 3.946 1.221016 6.878.2772447 2.932 8.2185957 7.052 8.2185957 7.052s-.6380425 15.445-6.1544521 12.99" fill="#ffc6b2"></path><path d="m314.15552 147.104861s4.553649-3.799 6.185785-4.896c1.631186-1.101 9.853579-5.577 15.1725-7.847 5.316071-2.271 16.876795-10.82 20.02618-16.011 0 0 1.082394-1.906-.728242-1.268 0 0-1.889441 1.08-2.851252 2.129-.962761 1.051-7.778992 6.603-7.778992 6.603s7.685944-8.313 9.65609-12.287c1.973944-3.972-1.140311-2.609-1.99958-1.435-.863066 1.174-7.870141 9.839-10.274194 11.776 0 0 5.792705-8.297 6.916875-11.162 1.12512-2.863-1.227662-2.816-2.691742-.594-1.465979 2.223-7.255835 10.375-11.556925 12.694 0 0 4.687524-6.445 2.686994-9.242-1.99863-2.795-10.264699.275-8.79872 1.792 1.465978 1.518 5.108138-.74 4.700816 1.17-.605761 2.845-6.267439 7.96-8.185364 8.225-1.916976.266-4.917295-1.687-3.208253-4.23 1.706194-2.544 3.114255-3.691 1.756516-4.83-1.361537-1.138-4.206144 1.152-5.458492 2.493-2.076487 2.22-1.028274 3.945-1.327356 6.878-.300032 2.932-8.930697 7.052-8.930697 7.052s.69501 15.444 6.688053 12.99" fill="#ffc6b2"></path><path d="m177.355114 261.569761s44.889902-35.729 107.83204-22.089c0 0-48.542506-28.53-118.741428 19.855z" fill="#ffc6b2"></path></g></g></svg> 