<?xml version="1.0" encoding="UTF-8"?> <svg xmlns="http://www.w3.org/2000/svg" width="358.388" height="270.293" viewBox="0 0 358.388 270.293"><g id="Group_236" data-name="Group 236" transform="translate(-0.089 -0.504)"><path id="Fill_76" data-name="Fill 76" d="M114.605,3.6c-3.769-7.476-14.977-1.8-20.376,3.334C88.894,12.009,85.417,18.6,82.061,25.029,80.84,27.371,11.008,123.055.05,136.252a3.4,3.4,0,0,0-.049.61,1.278,1.278,0,0,0,.767,1.373.988.988,0,0,1,.144.106.859.859,0,0,1,.352.192c.622-.271,1.126-.5,1.249-.568,1.076-.623,2.232-2.353,3.528-2.288a18.184,18.184,0,0,0-3.51,4.092,1.693,1.693,0,0,0-.29,1.051,1.759,1.759,0,0,0,.7.977,23.7,23.7,0,0,0,4.386,2.941,6.705,6.705,0,0,0,4.069.979,7.472,7.472,0,0,0,3.2-1.686c4.861-3.737,9.091-8.149,13.87-11.971q7.4-5.924,14.537-12.175,13.3-11.653,25.428-24.27c3.857-4.013,17.333-17.833,20.592-21.7a128.25,128.25,0,0,0,11.66-16.346c5.615-9.3,11.568-18.635,14.672-28.758,2.616-8.526,2.964-17.832-.751-25.2" transform="translate(173.14 63.291)" fill="#ffa192"></path><path id="Fill_78" data-name="Fill 78" d="M251.99,48.224c2.43-11.46,7.757-22.075,11.86-33.028-3.331-1.364-6.568-2.747-9.612-3.73l-.816-.262a223.065,223.065,0,0,0-33.451-8.224C206.029.8,191.846.38,177.707.135c-17.926-.31-36.024-.308-53.809,2.478.22-.337.445-.671.683-1-.536.377-1.066.76-1.594,1.145-.745.121-1.492.245-2.237.377-.541.095-1.079.2-1.615.307a37.46,37.46,0,0,0-3.431,1.7,17.584,17.584,0,0,0-8.209,9.289c-6.882,4.636-15.528,7.216-23.11,10.5C52.949,38.54,29.024,60.015,0,74.722c4.116,10.68,1.282,20.593,9.764,18.7,17.543-3.912,42.523-9.793,59.28-16.235C89.293,69.4,109.153,60.649,128.8,51.424q10.384-1.175,20.756-2.416c8.846-1.055,17.693-2.107,26.532-3.222,9.782-1.234,15.748-.925,25.406,1.861C219.653,52.887,250.592,54.82,251.99,48.224Z" transform="translate(35.69 164.599)" fill="#ffa192"></path><path id="Fill_80" data-name="Fill 80" d="M235.554,11.468c-.271-.089-.542-.175-.815-.262a223.215,223.215,0,0,0-33.451-8.225C187.345.8,173.164.38,159.023.135,141.1-.174,123-.173,105.215,2.614c.218-.338.444-.672.683-1-.536.376-1.066.758-1.594,1.145q-1.12.18-2.237.376c-.542.095-1.079.2-1.615.307a37.771,37.771,0,0,0-3.431,1.7,17.592,17.592,0,0,0-8.209,9.289c-6.882,4.637-15.529,7.216-23.111,10.5C41.408,35.448,21.286,49.658,0,62.361A101.865,101.865,0,0,0,4.814,77.886c1.476,3.8,3.116,7.538,4.852,11.231,14.083-3.421,29.293-7.544,40.7-11.928,20.248-7.786,40.108-16.54,59.752-25.764Q120.5,50.249,130.87,49.01c8.846-1.055,17.693-2.108,26.532-3.223,9.782-1.234,15.746-.924,25.406,1.861,18.162,5.239,49.1,7.174,50.5.576,2.43-11.459,7.757-22.075,11.86-33.028C241.836,13.832,238.6,12.45,235.554,11.468Z" transform="translate(54.373 164.598)" fill="#b6b1ff"></path><path id="Fill_82" data-name="Fill 82" d="M22.051,35.341l-9.392,3.365L0,3.364,9.391,0Z" transform="translate(48.017 220.179)" fill="#b6b1ff"></path><path id="Fill_84" data-name="Fill 84" d="M.3.011a1.829,1.829,0,0,1,.682,1.3A27.87,27.87,0,0,1,1.491,6,14.567,14.567,0,0,1,3.169,1.045c.115-.206.361-.439.546-.292a.412.412,0,0,1,.114.287,9.53,9.53,0,0,1-1.008,5.42A14.329,14.329,0,0,1,5.472,2.625a1.292,1.292,0,0,1,.665-.439.913.913,0,0,1,.949.886A2.23,2.23,0,0,1,6.6,4.423C5.61,5.9,2.963,8.7,1.127,6.97.421,6.3.225,4.87.059,3.976,0,3.682-.115-.233.3.011" transform="translate(291.783 0.504)" fill="#0e1c3b"></path><path id="Fill_86" data-name="Fill 86" d="M35.891,12.909a1.348,1.348,0,0,1-.187.018C32.995,12.916.453-.369.009.008S15.633,62.794,16.692,64.03c.937,1.094,21.978,10.9,28.108,13.757-.3-2.534-5.422-43.939-8.909-64.878" transform="translate(203.742 27.716)" fill="#fff"></path><path id="Fill_88" data-name="Fill 88" d="M34.953,15.273a1.291,1.291,0,0,1-.187,0C32.064,15.087.481-.34.014.006S11.412,63.7,12.385,65c.863,1.154,21.2,12.343,27.127,15.6-.128-2.549-2.476-44.2-4.559-65.328" transform="translate(206.383 25.455)" fill="#fff"></path><path id="Fill_90" data-name="Fill 90" d="M33.128,0c-.5-.3-30.275,18.388-32.941,18.864A1.49,1.49,0,0,1,0,18.882C.143,37.344,1.729,71.267,2.233,81.467c.053.024.1.043.158.07a1.1,1.1,0,0,1,.532.506c.484.29.955.6,1.433.9C11.464,77.983,27.038,67.058,27.7,65.941,28.532,64.542,33.638.3,33.128,0" transform="translate(239.347 22.726)" fill="#fff"></path><path id="Fill_92" data-name="Fill 92" d="M31.8,0C31.274-.258,2.815,20.37.186,21.023A1.384,1.384,0,0,1,0,21.05c1.469,19.67,5.759,56.838,6.61,64.032.294.173.594.338.9.488,6.07-4.866,22.648-18.187,23.27-19.416C31.517,64.7,32.324.268,31.8,0" transform="translate(237.685 20.951)" fill="#fff"></path><path id="Fill_94" data-name="Fill 94" d="M39.238,3.6C35.468-3.872,24.26,1.8,18.862,6.937,13.526,12.009,10.049,18.6,6.694,25.029c-.221.425-2.708,3.932-6.694,9.462A120.489,120.489,0,0,1,16.027,45.57,41.967,41.967,0,0,1,25.76,56.829c5.482-9.059,11.2-18.167,14.228-28.024,2.616-8.526,2.964-17.832-.751-25.2" transform="translate(248.507 63.291)" fill="#f39"></path><path id="Fill_96" data-name="Fill 96" d="M.63.681C.61.627.589.573.57.519.589.573.61.627.63.681" transform="translate(284.015 105.589)" fill="#fff"></path><path id="Fill_98" data-name="Fill 98" d="M0,.491Q1.931.559,3.839.709,1.931.558,0,.491" transform="translate(301.805 61.139)" fill="#fff"></path><path id="Fill_100" data-name="Fill 100" d="M0,.637Q2.027.572,4.03.563,2.028.572,0,.637" transform="translate(293.336 61.001)" fill="#fff"></path><path id="Fill_102" data-name="Fill 102" d="M.614.634C.6.61.6.589.586.566.6.589.6.61.614.634" transform="translate(282.443 101.608)" fill="#fff"></path><path id="Fill_104" data-name="Fill 104" d="M0,.572Q1.975.567,3.925.628,1.974.565,0,.572" transform="translate(297.602 60.991)" fill="#fff"></path><path id="Fill_106" data-name="Fill 106" d="M39.1,140.278a89.206,89.206,0,0,0,7.866,5.938c3.416,2.24,9.39,6.136,13.45,3.415,3.529-2.366,6.523-11.984,8.436-15.778,2.959-5.869,5.76-11.821,8.33-17.873,5.305-12.492,9.782-25.475,12.179-38.89,4.529-25.358.008-52.134-23.2-67.516C52.409.453,32.6-1.843,16.781,1.382a15.044,15.044,0,0,0-6.118,2.336c-2.539,1.9-3.773,5.05-4.583,8.113C-.1,35.192,11.7,58.74,8.761,82.236,7.989,88.42,7.853,94.744,7.53,101a28.573,28.573,0,0,1-.571,5.113c-.9,3.842-3.343,7.117-5.929,10.093a3.915,3.915,0,0,0-.976,1.555c-.322,1.309.838,2.618,2.14,3.038a11.178,11.178,0,0,0,4.06.143,21.122,21.122,0,0,1,10.186,2.02,42.432,42.432,0,0,1,7.924,5.374l7.646,6.074c2.414,1.918,4.736,3.917,7.1,5.867" transform="translate(265.617 60.77)" fill="#ffa192"></path><path id="Fill_108" data-name="Fill 108" d="M39.1,140.278a89.206,89.206,0,0,0,7.866,5.938c3.416,2.24,9.39,6.136,13.45,3.415,3.529-2.366,6.523-11.984,8.436-15.778,2.959-5.869,5.76-11.821,8.33-17.873,5.305-12.492,9.782-25.475,12.179-38.89,4.529-25.358.008-52.134-23.2-67.516C52.409.453,32.6-1.843,16.781,1.382a15.044,15.044,0,0,0-6.118,2.336c-2.539,1.9-3.773,5.05-4.583,8.113C-.1,35.192,11.7,58.74,8.761,82.236,7.989,88.42,7.853,94.744,7.53,101a28.573,28.573,0,0,1-.571,5.113c-.9,3.842-3.343,7.117-5.929,10.093a3.915,3.915,0,0,0-.976,1.555c-.322,1.309.838,2.618,2.14,3.038a11.178,11.178,0,0,0,4.06.143,21.122,21.122,0,0,1,10.186,2.02,42.432,42.432,0,0,1,7.924,5.374l7.646,6.074c2.414,1.918,4.736,3.917,7.1,5.867" transform="translate(265.617 60.77)" fill="#f39"></path><path id="Fill_110" data-name="Fill 110" d="M66.17,9.574C52.41.452,32.6-1.843,16.782,1.382c-.228.046-.456.095-.684.144,1.3.883,2.622,1.735,3.991,2.507,2.6-.035,5.2-.392,7.794-.588A29.043,29.043,0,0,1,39.9,4.875a35.587,35.587,0,0,1,7.369,3.337c2.932,1.96,5.558,5.623,5.772,9.281.229,3.934-2.053,7.549-3.606,10.967a33.788,33.788,0,0,0-2.946,11.581c-.14,2-.242,4.306-1.835,5.525a4.62,4.62,0,0,1-4.223.413,25.821,25.821,0,0,1-3.923-2.015c-4.825-2.593-17.418-4.626-18.695,3.475a33.455,33.455,0,0,0,0,9.2c.943,6.972,4.15,13.417,7.122,19.705,1.313,2.778,3.346,5.3,4.967,7.9,1.68,2.7,3.656,5.628,4.68,8.659.832,2.465,1.9,5.563,1.808,8.182-.08,2.321-1.333,4.748-3.517,5.536a8.259,8.259,0,0,1-4.742-.146c-7.284-1.8-15.564-6.632-20.383-12.382-.5,2,.155,5.286-.27,7.307-.331,1.573-.142,3.116-.518,4.714-.9,3.842-3.343,7.116-5.929,10.093a3.931,3.931,0,0,0-.977,1.555c-.32,1.309.839,2.617,2.141,3.037a11.119,11.119,0,0,0,4.058.143,21.142,21.142,0,0,1,10.187,2.021,42.368,42.368,0,0,1,7.924,5.372l7.646,6.076c2.413,1.916,4.736,3.916,7.1,5.866a89.219,89.219,0,0,0,7.866,5.939c3.416,2.24,9.39,6.134,13.448,3.414,3.529-2.364,6.524-11.984,8.437-15.778,2.959-5.869,5.76-11.821,8.33-17.873,5.305-12.492,9.782-25.474,12.179-38.89,4.529-25.358.007-52.133-23.2-67.516" transform="translate(265.617 60.77)" fill="#f39"></path><path id="Fill_112" data-name="Fill 112" d="M.652.757.548.443l.1.314" transform="translate(285.438 109.631)" fill="#fff"></path><path id="Fill_114" data-name="Fill 114" d="M1.526,3.866Q.8,1.921,0,0,.8,1.921,1.526,3.866" transform="translate(283.058 102.242)" fill="#fff"></path><path id="Fill_116" data-name="Fill 116" d="M1.012,1.926Q.608.959.188,0q.419.959.823,1.926" transform="translate(282.017 100.249)" fill="#fff"></path><path id="Fill_118" data-name="Fill 118" d="M1.34,3.8Q.7,1.891,0,0,.7,1.89,1.34,3.8" transform="translate(284.645 106.27)" fill="#fff"></path><path id="Fill_120" data-name="Fill 120" d="M.6,1.854C.4,1.234.2.617,0,0Q.981,2.974,1.8,6q.319,1.177.647,2.39C1.968,6.229,1.279,4.057.6,1.854" transform="translate(286.091 110.388)" fill="#fff"></path><path id="Fill_122" data-name="Fill 122" d="M.667.6.533.595.666.605v0" transform="translate(305.111 61.254)" fill="#fff"></path><path id="Fill_124" data-name="Fill 124" d="M.517.6.683.6.517.6" transform="translate(292.652 61.041)" fill="#fff"></path><path id="Fill_126" data-name="Fill 126" d="M.482.6h0" transform="translate(296.884 60.964)" fill="#fff"></path><path id="Fill_128" data-name="Fill 128" d="M.461.6.739.6.461.6" transform="translate(301.066 61.025)" fill="#fff"></path><path id="Fill_130" data-name="Fill 130" d="M.3,12.882A10.767,10.767,0,0,1,.294,7.855,10.972,10.972,0,0,1,7.858,0l.311,1.1A9.948,9.948,0,0,0,1.4,8.123,9.948,9.948,0,0,0,4.2,17.468l-.78.835A10.884,10.884,0,0,1,.3,12.882" transform="translate(167.305 149.163)" fill="#000d55"></path><path id="Fill_132" data-name="Fill 132" d="M37.67,16.826c-1.12.378-2.412.9-2.951.984a29.27,29.27,0,0,1-5.668.356c-6.845-.215-12.574-2.152-17.068-7.4Q8.328,6.5,4.886,2.052A6.481,6.481,0,0,0,3.231.377,2.164,2.164,0,0,0,.987.266,2.518,2.518,0,0,0,.032,1.9C-.663,5.139,10.173,25.587,10.173,25.587c6.013,9.83,9.637,15.1,9.637,15.1L22,44.831h0l-2.435,1.055c.028.058.056.114.085.17l2.14,4.513A278.259,278.259,0,0,0,47.841,38.283Z" transform="translate(0.089 220.228)" fill="#000d55"></path><path id="Fill_134" data-name="Fill 134" d="M191.073,101.514c1.606.794,3.866.8,5.908,1.071,5.857.762,11.559,1.769,17.339.485,7.656-1.7,27.091-11.632,28.241-14.918a18.186,18.186,0,0,0,1.236-7.165c-.37-5.443-5.113-9.68-8.665-13.306q-6.728-6.869-13.95-13.229A238.107,238.107,0,0,0,162.61,16.513,267.185,267.185,0,0,0,136.979,6.482Q131.342,4.592,125.64,2.9q-2.612-.781-5.23-1.534c-1.152-.331-3.56-1.552-4.721-1.344a22.971,22.971,0,0,0-7.7,2.9c-5.54,3.3-59.678,58.544-81.725,81.782C17.142,94.327-.194,108.6,0,108.787c.132.122.04.359.22.361,3.155.044,4.328,11.7,7.872,10.946,30.487-6.509,64.446-26.729,87.3-47.941,6.024-5.593,11.681-11.639,18.379-16.414a182.5,182.5,0,0,0,57.193,30.042c.312.1,10.539,8.7,13.906,11.644,2.172,1.9,2.861,2.651,5.121,3.769Z" transform="translate(80.757 125.551)" fill="#ffc6b2"></path><path id="Fill_136" data-name="Fill 136" d="M221.121,79.455c-.58-2.611-3.45-3.11-5.143-4.962a262.165,262.165,0,0,0-20.4-20.041,238.046,238.046,0,0,0-58.572-37.938A267.069,267.069,0,0,0,111.38,6.482q-5.638-1.89-11.339-3.581-2.61-.781-5.23-1.534c-1.152-.331-3.56-1.55-4.721-1.344a22.971,22.971,0,0,0-7.7,2.9C76.853,6.226,22.715,61.469.668,84.709c-.217.229-.442.462-.668.7,5.112,7.858,10.766,15.344,16.633,22.661A219.874,219.874,0,0,0,69.794,72.153c6.024-5.592,11.681-11.638,18.38-16.414a186.876,186.876,0,0,0,57.783,30.593c.321,2.042,7.876,11.208,7.876,11.208s10.53,7.693,18.845,9.279c6.538,1.247,16.729,1.062,22.786-.611s12.833-4.8,17.045-9.465C216.794,92,221.4,80.729,221.121,79.455Z" transform="translate(106.356 125.551)" fill="#d8d6f8"></path><path id="Fill_138" data-name="Fill 138" d="M40.542,2.819c-.9.761-1.92,1.714-2.389,1.991A29.27,29.27,0,0,1,33,7.206C26.55,9.5,20.511,9.781,14.413,6.53Q9.454,3.886,4.63,1A6.516,6.516,0,0,0,2.478.04,2.163,2.163,0,0,0,.348.754,2.515,2.515,0,0,0,.054,2.626c.532,3.269,18.07,18.366,18.07,18.366C27.3,27.958,32.6,31.543,32.6,31.543l3.55,3.064h0l-1.884,1.868c.047.043.095.085.143.128l3.636,3.424A278.733,278.733,0,0,0,57.829,19.1Z" transform="translate(43.458 224.748)" fill="#000d55"></path><path id="Fill_140" data-name="Fill 140" d="M27.859,13.852a26.553,26.553,0,0,0,2.176,6.617c1.192,2.214,3.1,4.03,2.034,6.725a11.31,11.31,0,0,1-2.485,3.449c-2.783,2.96-5.754,5.894-9.467,7.547a16,16,0,0,1-9.133,1.19,14.621,14.621,0,0,1-8.119-4.292A10.444,10.444,0,0,1,.226,30.5a7.3,7.3,0,0,1,.09-3.934c.466-1.454,1.322-1.591,2.749-1.884a4.9,4.9,0,0,1,1.614-.151,1.142,1.142,0,0,1,.062-.444c.679-2.117.113-4.427.008-6.648s.073-4.591,1.373-6.395A10.078,10.078,0,0,1,9.957,8.145,62.834,62.834,0,0,1,15.8,5.7a35.992,35.992,0,0,1,5.249-1.666c1.328-.28,3.7-4.673,4.966-3.952,1.168.664.432,7.828,1.84,13.772" transform="translate(284.567 39.015)" fill="#ffc6b2"></path><path id="Fill_142" data-name="Fill 142" d="M.166,23.516a6.15,6.15,0,0,0,5.677,1.65c3.065-.818,5.387-3.688,7.132-6.161A68.261,68.261,0,0,0,19.232,7.542c.93-2.07,1.77-4.176,2.574-6.3C21.692.629,21.534.215,21.294.08c-1.268-.72-3.638,3.672-4.967,3.952A36.185,36.185,0,0,0,11.078,5.7,63.3,63.3,0,0,0,5.231,8.145,10.077,10.077,0,0,0,1.4,11.04C.1,12.843-.079,15.214.025,17.435c.095,2.023.57,4.122.14,6.08" transform="translate(289.293 39.014)" fill="#ffa192"></path><path id="Fill_144" data-name="Fill 144" d="M12.774.177A14.414,14.414,0,0,0,5.222,4.455,19.6,19.6,0,0,0,3.186,28.476L9.776,21.7c4.094-4.21,8.269-8.534,10.69-13.884.868-1.919,1.618-4.354.007-5.965C18.658.035,15.134-.256,12.774.177" transform="translate(273.858 4.21)" fill="#00216c"></path><path id="Fill_146" data-name="Fill 146" d="M29.765,3.828c2.784,2.538,3.548,6.576,3.679,10.332A34.682,34.682,0,0,1,30.3,30.492a24.42,24.42,0,0,1-11.694,11.73c-4.19,1.872-9.547,2.156-12.976-.834-2.058-1.794-3.095-4.46-3.834-7.079A48.046,48.046,0,0,1,.405,15.069,21.443,21.443,0,0,1,1.69,9.717,15.529,15.529,0,0,1,9.6,1.688C15.405-.981,24.863-.641,29.765,3.828" transform="translate(277.814 11.126)" fill="#ffc6b2"></path><path id="Fill_150" data-name="Fill 150" d="M1.214,8.262a9.253,9.253,0,0,1-.328-1.72C.811,5.536.565,4.549.478,3.54.382,2.435.16,1.308,0,.2-.025.018.245-.089.323.1A15.242,15.242,0,0,1,.865,2.718a22.619,22.619,0,0,1,.356,2.276c.1.845.27,1.7.443,2.532.091.439.15,1.082.566,1.349a2.306,2.306,0,0,0,1.733.031c.419-.116.65.529.232.632A2.752,2.752,0,0,1,1.731,9.28a1.855,1.855,0,0,1-.517-1.018" transform="translate(284.768 29.795)" fill="#ffa192"></path><path id="Fill_152" data-name="Fill 152" d="M.328,2.547c.38,0,.581.293.883.463a1.868,1.868,0,0,0,1.8.191,2.458,2.458,0,0,0,1.266-1.26A6.674,6.674,0,0,0,4.852.154.179.179,0,0,1,5.189.1a2.957,2.957,0,0,1-.277,1.979A3.1,3.1,0,0,1,3.59,3.652a2.73,2.73,0,0,1-1.724.37,2.138,2.138,0,0,1-.751-.288A4.751,4.751,0,0,1,.662,3.47c-.109-.08-.238-.294-.383-.3-.407-.008-.35-.625.049-.625" transform="translate(286.572 41.944)" fill="#eb9680"></path><path id="Fill_154" data-name="Fill 154" d="M.023.7A.791.791,0,0,1,.531.312,5.769,5.769,0,0,1,4.294.323,3.875,3.875,0,0,1,6.927,2.211a.839.839,0,0,1,.1.319c.012.3-.268.546-.562.685a3.494,3.494,0,0,1-2.339-.035,13.19,13.19,0,0,1-2.714-.952A2.361,2.361,0,0,1,.039,1.046.533.533,0,0,1,.023.7" transform="translate(289.537 24.024)" fill="#030515"></path><path id="Fill_156" data-name="Fill 156" d="M.011,2.387a.669.669,0,0,1,.17-.524A4.447,4.447,0,0,1,2.854.18,3.284,3.284,0,0,1,5.649.459a.767.767,0,0,1,.228.2.752.752,0,0,1-.061.782A2.693,2.693,0,0,1,4.141,2.468,10.432,10.432,0,0,1,1.75,2.95a2.052,2.052,0,0,1-1.555-.3.529.529,0,0,1-.184-.265" transform="translate(277.044 23.965)" fill="#030515"></path><path id="Fill_158" data-name="Fill 158" d="M.062,1.864a1.445,1.445,0,1,0,.966-1.8,1.446,1.446,0,0,0-.966,1.8" transform="translate(291.033 30.642)" fill="#030515"></path><path id="Fill_160" data-name="Fill 160" d="M.074,1.775A1.339,1.339,0,0,0,1.644,2.81a1.34,1.34,0,0,0,.734-1.732A1.34,1.34,0,0,0,.808.044,1.342,1.342,0,0,0,.074,1.775" transform="translate(279.397 30.063)" fill="#030515"></path><path id="Fill_162" data-name="Fill 162" d="M18.355,22.917a22.531,22.531,0,0,0,6.3.6.892.892,0,0,1,.623.126.813.813,0,0,1,.227.535c.458,3.334-2.831,6.99-1.244,10.174,2.2-.36,2.934-3.031,4.19-4.616,1.5-1.888,3.244-3.558,4.841-5.357,2.7-3.04,5.1-6.883,4.512-10.906-.58-3.968-3.917-6.962-7.393-8.964A34.415,34.415,0,0,0,13.184,0C10.179.014.458.137.013,4.583-.16,6.323,1.471,8.7,2.3,10.137c3.662,6.35,9.25,11.13,16.056,12.78" transform="translate(285.487 5.056)" fill="#00216c"></path><path id="Fill_164" data-name="Fill 164" d="M6.69.314a1.989,1.989,0,0,1,1.48,1.672,1.745,1.745,0,0,1-.3.889C7.027,4.2,5.286,4.622,3.715,4.663,2.041,4.705-1.43,3.047.639,1.028,1.839-.14,5.245-.214,6.69.314" transform="translate(289.751 34.565)" fill="#ffa192"></path><path id="Fill_166" data-name="Fill 166" d="M.365,3.964Q.12,2.238,0,.495A8.062,8.062,0,0,1,4.96.3,1.882,1.882,0,0,1,6.353,1.877a1.617,1.617,0,0,1-.281.836c-.786,1.247-2.422,1.638-3.9,1.672A4.572,4.572,0,0,1,.365,3.964" transform="translate(277.929 34.076)" fill="#ffa192"></path><path id="Fill_168" data-name="Fill 168" d="M.329.084a23.542,23.542,0,0,0,2.344,3.45,26.765,26.765,0,0,0,2.886,3.3,24.973,24.973,0,0,0,6.349,4.951,19.823,19.823,0,0,0,7.548,2.309,25.988,25.988,0,0,0,3.444-.062c1.516-.1,2.932-.518,4.432-.706.149-.018.242.209.085.265a20.2,20.2,0,0,1-8.192,1,22,22,0,0,1-4.1-.84,22.826,22.826,0,0,1-3.9-1.7A19.526,19.526,0,0,1,8.161,9.87,23,23,0,0,1,5.179,7.162,27.894,27.894,0,0,1,2.538,4.15,18.711,18.711,0,0,1,.011.225C-.061.041.245-.1.329.084" transform="translate(288.225 12.09)" fill="#3d589c"></path><path id="Fill_170" data-name="Fill 170" d="M.183.354a4.51,4.51,0,0,0,.46.137A1.241,1.241,0,0,0,1.064.462c.169-.04.238.235.077.293C.81.874.26.932.027.6A.16.16,0,0,1,.183.354" transform="translate(307.427 26.949)" fill="#3d589c"></path><path id="Fill_172" data-name="Fill 172" d="M3.672.18A4.913,4.913,0,0,1,6.349.192,4.644,4.644,0,0,1,9.47,3.729a5.082,5.082,0,0,1-1.5,4.517A5.616,5.616,0,0,1,3.4,9.691a3.76,3.76,0,0,1-1.546-.526C.426,8.241-.088,5.873.012,4.259A4.985,4.985,0,0,1,3.672.18" transform="translate(306.249 26.769)" fill="#ffb79e"></path><path id="Fill_174" data-name="Fill 174" d="M0,2.52A6.307,6.307,0,0,1,1.546.911a3.618,3.618,0,0,1,3.12-.8A2.285,2.285,0,0,1,6.112,3.28C4.951,5.507,2.323,5.542.377,4.435A7.605,7.605,0,0,1,0,2.52" transform="translate(306.267 29.407)" fill="#ffa192"></path><path id="Fill_176" data-name="Fill 176" d="M.04.454.025.434l0,0A.174.174,0,0,1,.01.286C.154-.14,1.061.018,1.385.082a2.064,2.064,0,0,1,1.5,1.534c.024.094-.116.13-.158.05A2.6,2.6,0,0,0,1.379.5C1.2.463.474.342.322.482A.2.2,0,0,1,.052.469a.007.007,0,0,1,0,0L.04.454" transform="translate(310.21 29.048)" fill="#eb9680"></path><path id="Fill_178" data-name="Fill 178" d="M.082,1.642A2.106,2.106,0,0,1,.4.041c.071-.1.224.007.178.114A2.674,2.674,0,0,0,.49,1.574a1.944,1.944,0,0,0,.37.985,1.292,1.292,0,0,1,.286.342.163.163,0,0,1-.179.217C.306,3,.179,2.187.082,1.642" transform="translate(309.917 30.938)" fill="#eb9680"></path><path id="Fill_180" data-name="Fill 180" d="M35.7,17.884c2.44.01,32.224-13.21,41.257-17.884.08,0,5.792,62.059,6,61.658.073-.029-38.268,21.086-38.268,21.086s-26.882-12.452-28-13.758C15.632,67.752-.442,5.348.009,4.964S32.995,17.873,35.7,17.884" transform="translate(201.46 24.471)" fill="#725ae8"></path><path id="Fill_182" data-name="Fill 182" d="M18.388,15.039c-1.033-2.06-2.1-4.105-3.1-6.179A36.26,36.26,0,0,0,12.562,3.7,8.59,8.59,0,0,0,8.433.277C6.3-.424,4.178.3,2.311,1.365a.461.461,0,0,1-.281.062C-.85,3.449-.071,7.343.78,10.381c.71,2.536,2.047,5.239,2.047,7.913,0,3.774-2.2,7.127-1.595,10.98A29.238,29.238,0,0,0,3.5,36.662L22.951,25.949a67.464,67.464,0,0,0-4.562-10.909" transform="translate(251.894 65.463)" fill="#6255da"></path><path id="Fill_184" data-name="Fill 184" d="M35.889,12.909a1.35,1.35,0,0,1-.186.018C32.994,12.916.452-.369.009.008S15.632,62.794,16.691,64.03c.937,1.094,21.978,10.9,28.108,13.757-.3-2.534-5.42-43.94-8.909-64.878" transform="translate(201.46 29.428)" fill="#34117d"></path><path id="Fill_186" data-name="Fill 186" d="M4.569,10.589A2.4,2.4,0,0,0,4.8,9.072a2.55,2.55,0,0,0-.4-.737A66.677,66.677,0,0,1,.288,1.6C.069,1.187-.141.666.124.284c.418-.6,1.351-.137,1.891.358,4.278,3.923,8.362,8.041,12.58,12.024A46.528,46.528,0,0,1,11.624,7.93c-.216-.445-1.722-4.994-1.774-5a6.042,6.042,0,0,1,3.478,2.093Q38.951,30,64.574,54.97q-.362-5.258-.725-10.516c-.506-7.352-.991-14.91,1.237-21.935C67.34,15.41,76.521,2.19,84.61,7.253c7.973,4.99,11.548,16.562,14.012,25.481,2.927,10.588,2.606,21.757,2.6,32.742,0,6.757.1,13.63-1.769,20.123s-6.074,12.685-12.356,15.173c-6.032,2.392-13.05.984-18.686-2.233s-10.141-8.057-14.458-12.9Q40.394,70.409,28.114,54.109,19.935,43.253,12.357,31.964C9.849,28.228,7.146,24.5,4.936,20.578c-1.86-3.3-1.841-6.341-.422-9.851.018-.046.036-.091.055-.138" transform="translate(254.019 65.253)" fill="#ffc6b2"></path><path id="Fill_188" data-name="Fill 188" d="M.791,45.79c6.325-3.521,13.651-4.77,20.675-6.155,4.356-.86,8.711-1.56,13.123-2.064,1.583-.181,3.173-.386,4.763-.533a67.653,67.653,0,0,0-1.758-8.622C34.961,18.893,31.143,6.533,22.628,1.2,13.99-4.2,4.185,9.914,1.777,17.509-.6,25.01-.085,33.082.457,40.932L.791,45.79" transform="translate(316.734 70.556)" fill="#f39"></path><path id="Fill_190" data-name="Fill 190" d="M29.776,28.44l-7.558,5.905L0,5.905,7.556,0Z" transform="translate(100.176 203.986)" fill="#d8d6f8"></path><path id="Fill_192" data-name="Fill 192" d="M.505,10.6,0,9.572A35.008,35.008,0,0,1,7.259,7.219C18.352,4.5,29.822,1.693,41.328,0l.166,1.128C30.042,2.815,18.6,5.617,7.53,8.327A34.245,34.245,0,0,0,.505,10.6" transform="translate(316.983 106.422)" fill="#000d55"></path><path id="Fill_194" data-name="Fill 194" d="M.568,61.279,0,60.289c15.57-8.929,29.2-21.062,42.377-32.8C50.7,20.082,60.136,11.683,64.734.677L65.017,0,65.6.44a380.661,380.661,0,0,0,67.19,40.3l-.487,1.032A381.785,381.785,0,0,1,65.5,1.788C60.708,12.7,51.383,21,43.136,28.346,29.914,40.118,16.241,52.291.568,61.279" transform="translate(124.379 164.759)" fill="#000d55"></path><path id="Fill_196" data-name="Fill 196" d="M1.792,22.218a1.115,1.115,0,0,1-.5-.121A2.381,2.381,0,0,1,.214,20.361,21.828,21.828,0,0,1,8.364.231a1.1,1.1,0,0,1,1.2-.088.7.7,0,0,1,.26.792L8.74.592a.442.442,0,0,0,.077.394.361.361,0,0,0,.253.155A20.643,20.643,0,0,0,1.342,20.2a1.338,1.338,0,0,0,.461.882l.546.99a1.138,1.138,0,0,1-.557.15" transform="translate(296.889 183.779)" fill="#000d55"></path><path id="Fill_198" data-name="Fill 198" d="M.345,21.425A26.86,26.86,0,0,1,6.223,0L7.1.736a25.7,25.7,0,0,0-5.626,20.5Z" transform="translate(302.244 186.346)" fill="#000d55"></path><path id="Fill_200" data-name="Fill 200" d="M28.488,22.693A35.789,35.789,0,0,1,0,8.31l.925-.668A34.463,34.463,0,0,0,32.513,21.294,34.472,34.472,0,0,0,59.545,0l1.067.408a35.643,35.643,0,0,1-27.95,22.016,32.14,32.14,0,0,1-4.174.269" transform="translate(260.748 199.956)" fill="#000d55"></path><path id="Fill_202" data-name="Fill 202" d="M77.618,84.432c-8.148,0-15.432-5.117-17.965-7.117A101.615,101.615,0,0,1,48.871,67c-3.45-3.656-6.87-7.5-10.453-11.743-7.4-8.768-14.286-17.873-19.459-24.823Q18,29.146,17.035,27.858A199.235,199.235,0,0,1,0,0L3.024,4.274c3.935,8.214,9.522,15.68,14.924,22.9q.967,1.291,1.926,2.579C25.038,36.691,31.91,45.776,39.29,54.521c3.57,4.23,6.976,8.056,10.411,11.7a100.306,100.306,0,0,0,10.658,10.2C63.622,79,75.082,86.962,85.584,81.3c8.857-4.772,10.524-15.95,11.008-23.945.083-1.363.936-9.346.99-10.566l.347,6.648c-.054,1.225-.114,2.615-.2,3.988-.5,8.266-2.248,19.837-11.606,24.878a17.69,17.69,0,0,1-8.507,2.125" transform="translate(257.671 83.82)" fill="#000d55"></path><path id="Fill_204" data-name="Fill 204" d="M10.932,4.966A16.692,16.692,0,0,1,0,.856L.756,0A15.487,15.487,0,0,0,12.427,3.748C13.91,3.594,15.907,3.107,17,1.66l.911.685a7.4,7.4,0,0,1-5.362,2.538,15.394,15.394,0,0,1-1.613.083" transform="translate(327.285 156.593)" fill="#000d55"></path><path id="Fill_206" data-name="Fill 206" d="M1.055,5.56,0,5.125A8.531,8.531,0,0,1,9.38.161L9.148,1.28A7.456,7.456,0,0,0,1.055,5.56" transform="translate(187.088 130.057)" fill="#000d55"></path><path id="Fill_208" data-name="Fill 208" d="M22.517,29.7,0,.7.9,0,23.418,29.005Z" transform="translate(99.75 209.751)" fill="#000d55"></path><path id="Fill_210" data-name="Fill 210" d="M21.865,28.486,0,.706.9,0,22.762,27.779Z" transform="translate(107.324 204.071)" fill="#000d55"></path><path id="Fill_212" data-name="Fill 212" d="M.484,5.911,0,4.878A17.825,17.825,0,0,0,6.234,0l.887.719A18.945,18.945,0,0,1,.484,5.911" transform="translate(117.48 226.326)" fill="#000d55"></path><path id="Fill_214" data-name="Fill 214" d="M.551,56.48l-.551-1A266.724,266.724,0,0,0,55.59,14.62c4.393-4.206,8.863-8.8,11.029-14.62l1.069.4c-2.25,6.049-6.821,10.751-11.309,15.047A267.868,267.868,0,0,1,.551,56.48" transform="translate(128.062 175.279)" fill="#000d55"></path><path id="Fill_216" data-name="Fill 216" d="M60.2,33.925A108.292,108.292,0,0,1,0,.773L.841,0A107.131,107.131,0,0,0,60.4,32.8Z" transform="translate(189.756 175.864)" fill="#000d55"></path><path id="Fill_220" data-name="Fill 220" d="M54.629,48.516A390.152,390.152,0,0,0,0,.928L.666,0a391.352,391.352,0,0,1,54.79,47.73Z" transform="translate(275.109 159.33)" fill="#000d55"></path><path id="Fill_222" data-name="Fill 222" d="M14.921,15.887A17.276,17.276,0,0,1,3.249,11.544,9.04,9.04,0,0,1,0,5.34C-.057,2.908,1.678.181,4.354,0l.077,1.139C2.436,1.273,1.1,3.446,1.143,5.312a7.926,7.926,0,0,0,2.88,5.393,16.714,16.714,0,0,0,16.706,3.031A20.713,20.713,0,0,0,32.778,1.176l1.075.385A21.875,21.875,0,0,1,21.119,14.81a18.214,18.214,0,0,1-6.2,1.076" transform="translate(283.544 62.569)" fill="#000d55"></path><path id="Fill_224" data-name="Fill 224" d="M15.95,15.337A54.07,54.07,0,0,0,0,.984L.577,0A55.213,55.213,0,0,1,16.868,14.66Z" transform="translate(256.206 101.649)" fill="#000d55"></path><path id="Fill_226" data-name="Fill 226" d="M6.65,8.348A27.583,27.583,0,0,1,0,.565L.991,0A26.429,26.429,0,0,0,7.363,7.457Z" transform="translate(257.268 78.457)" fill="#000d55"></path><path id="Fill_228" data-name="Fill 228" d="M7.313,9.155A45.765,45.765,0,0,1,0,.63L.952,0a44.607,44.607,0,0,0,7.13,8.311Z" transform="translate(258.58 74.655)" fill="#000d55"></path><path id="Fill_230" data-name="Fill 230" d="M.354,11,0,9.914A342.957,342.957,0,0,1,37.428,0l.229,1.118A341.975,341.975,0,0,0,.354,11" transform="translate(317.108 99.841)" fill="#000d55"></path><path id="Fill_234" data-name="Fill 234" d="M2.3,50.173l-1.127-.179A137.863,137.863,0,0,0,0,.233L1.117,0A138.994,138.994,0,0,1,2.3,50.173" transform="translate(270.842 106.6)" fill="#000d55"></path></g></svg> 