<?xml version="1.0" encoding="UTF-8"?> <svg xmlns="http://www.w3.org/2000/svg" xmlns:xlink="http://www.w3.org/1999/xlink" width="120px" height="120px" viewBox="0 0 120 120"><!-- Generator: Sketch 55.2 (78181) - https://sketchapp.com --><title>Group</title><desc>Created with Sketch.</desc><g id="Page-1" stroke="none" stroke-width="1" fill="none" fill-rule="evenodd"><g id="1-Home" transform="translate(-305.000000, -6065.000000)"><g id="Group" transform="translate(305.000000, 6065.000000)"><circle id="Oval" fill="#FFFFFF" cx="60" cy="60" r="60"></circle><g id="Group-15" transform="translate(26.000000, 27.000000)" stroke="#FF3399" stroke-linecap="round" stroke-linejoin="round" stroke-width="3.2"><path d="M35.2,30.4 L43.2,30.4 C45.8528,30.4 48,28.2496 48,25.6 C48,22.9504 45.8528,20.8 43.2,20.8 L9.6,20.8 C4.2976,20.8 0,25.0976 0,30.4 L0,36.8 C0,40.2944 1.8656,43.3536 4.6592,45.0336" id="Stroke-1"></path><path d="M19.2,46.4 L19.2,65.6 L24,65.6 C26.6528,65.6 28.8,63.4496 28.8,60.8 L28.8,30.4" id="Stroke-3"></path><path d="M19.2,65.6 L14.4,65.6 C11.7472,65.6 9.6,63.4496 9.6,60.8 L9.6,30.4" id="Stroke-5"></path><path d="M27.2,8 C27.2,12.4192 23.6192,16 19.2,16 C14.7808,16 11.2,12.4192 11.2,8 C11.2,3.5808 14.7808,0 19.2,0 C23.6192,0 27.2,3.5808 27.2,8 Z" id="Stroke-7"></path><polyline id="Stroke-9" points="33.6 4.8 67.2 4.8 67.2 43.2 35.2 43.2"></polyline></g></g></g></g></svg> 