<?xml version="1.0" encoding="UTF-8"?> <svg xmlns="http://www.w3.org/2000/svg" xmlns:xlink="http://www.w3.org/1999/xlink" width="120px" height="120px" viewBox="0 0 120 120"><!-- Generator: Sketch 55.2 (78181) - https://sketchapp.com --><title>Group 18</title><desc>Created with Sketch.</desc><g id="Page-1" stroke="none" stroke-width="1" fill="none" fill-rule="evenodd"><g id="1-Home" transform="translate(-649.000000, -6065.000000)"><g id="Group-18" transform="translate(649.000000, 6065.000000)"><circle id="Oval-Copy" fill="#FFFFFF" cx="60" cy="60" r="60"></circle><g id="Group-17" transform="translate(30.000000, 31.000000)" stroke="#FF3399" stroke-linecap="round" stroke-linejoin="round" stroke-width="3.2"><path d="M14.3168,6.4 L5.7248,6.4 C2.5632,6.4 0,9.2672 0,12.8 L0,51.2 C0,54.7328 2.5632,57.6 5.7248,57.6 L55.0752,57.6 C58.24,57.6 60.8,54.7328 60.8,51.2 L60.8,12.8 C60.8,9.2672 58.24,6.4 55.0752,6.4 L51.2,6.4" id="Stroke-1"></path><path d="M44.80128,0 L44.80128,12.8" id="Stroke-3"></path><path d="M16.00128,0 L16.00128,12.8" id="Stroke-5"></path><path d="M22.40128,6.4 L44.67328,6.352" id="Stroke-7"></path><polyline id="Stroke-9" points="30.40128 24 30.40128 33.6 36.80128 36.8"></polyline><path d="M46.40128,33.6 C46.40128,42.4352 39.23968,49.6 30.40128,49.6 C21.56288,49.6 14.40128,42.4352 14.40128,33.6 C14.40128,24.7648 21.56288,17.6 30.40128,17.6 C39.23968,17.6 46.40128,24.7648 46.40128,33.6 Z" id="Stroke-11"></path></g></g></g></g></svg> 