<?xml version="1.0" encoding="UTF-8"?>
<svg width="395px" height="522px" viewBox="0 0 395 522" version="1.1" xmlns="http://www.w3.org/2000/svg" xmlns:xlink="http://www.w3.org/1999/xlink">
    <!-- Generator: Sketch 59.1 (86144) - https://sketch.com -->
    <title>Group 8</title>
    <desc>Created with Sketch.</desc>
    <defs>
        <linearGradient x1="120.483414%" y1="79.7121176%" x2="-80.7090157%" y2="17.2599376%" id="linearGradient-1">
            <stop stop-color="#3A30DB" offset="0%"></stop>
            <stop stop-color="#FF3399" offset="100%"></stop>
        </linearGradient>
        <linearGradient x1="120.483414%" y1="77.6484957%" x2="-80.7090157%" y2="19.5338621%" id="linearGradient-2">
            <stop stop-color="#3A30DB" offset="0%"></stop>
            <stop stop-color="#FF3399" offset="100%"></stop>
        </linearGradient>
        <linearGradient x1="54.1214722%" y1="123.715653%" x2="42.3568747%" y2="-31.2279725%" id="linearGradient-3">
            <stop stop-color="#3A30DB" offset="0%"></stop>
            <stop stop-color="#FF3399" offset="100%"></stop>
        </linearGradient>
        <polygon id="path-4" points="0 0.249883429 25.1269536 0.249883429 25.1269536 15.3455972 0 15.3455972"></polygon>
        <polygon id="path-6" points="0 0.12331564 15.8286335 0.12331564 15.8286335 34.658511 0 34.658511"></polygon>
    </defs>
    <g id="Page-1" stroke="none" stroke-width="1" fill="none" fill-rule="evenodd">
        <g id="5-Courses---Internal-(Maths)" transform="translate(-191.000000, -2762.000000)">
            <g id="Group-8" transform="translate(191.000000, 2762.000000)">
                <g id="Group-19">
                    <path d="M210.805015,262.801721 C212.704666,267.462561 214.268629,271.713978 215.844234,276.200183 C217.404315,280.633997 218.844092,285.096917 220.233418,289.583121 C222.982965,298.561352 225.43175,307.654067 227.56425,316.863205 C231.840891,335.279541 234.848511,354.175157 236.20291,373.551991 C237.537906,392.915243 237.211918,412.7927 234.334305,432.947635 C232.993489,443.031894 230.715459,453.141378 227.95427,463.250862 C225.125167,473.360346 221.347208,483.361167 216.959964,493.253327 L160.457456,460.924322 C164.809773,454.975056 169.004918,448.692041 172.631526,441.885117 C176.1941,435.054909 179.599502,427.937522 182.318002,420.377724 C187.943222,405.345445 191.851188,389.084893 194.292211,372.288791 C195.493318,363.886859 196.364558,355.351039 196.900108,346.725961 C197.398791,338.102823 197.58507,329.398189 197.457003,320.654747 C197.330877,311.909364 196.892347,303.127113 196.149174,294.348744 C195.763034,289.967321 195.328384,285.574255 194.77537,281.212236 C194.24176,276.898727 193.587846,272.373714 192.891242,268.368728 L210.805015,262.801721 Z" id="Fill-1" fill="#D8D6F8" transform="translate(198.707515, 378.027524) scale(-1, 1) translate(-198.707515, -378.027524) "></path>
                    <polygon id="Clip-4" transform="translate(189.087323, 508.377969) scale(-1, 1) translate(-189.087323, -508.377969) " points="0.000388080001 494.912563 378.174258 494.912563 378.174258 521.843374 0.000388080001 521.843374"></polygon>
                    <path d="M378.174258,508.378939 C378.174258,515.816492 293.516546,521.843374 189.088099,521.843374 C84.6577116,521.843374 -4.26325641e-13,515.816492 -4.26325641e-13,508.378939 C-4.26325641e-13,500.941386 84.6577116,494.912563 189.088099,494.912563 C293.516546,494.912563 378.174258,500.941386 378.174258,508.378939" id="Fill-3" fill-opacity="0.2" fill="#D8D6F8" transform="translate(189.087129, 508.377969) scale(-1, 1) translate(-189.087129, -508.377969) "></path>
                    <path d="M309.093301,450.265511 C308.720745,450.265511 308.346247,450.265511 307.973691,450.306259 C307.960108,450.306259 307.944585,450.3082 307.931002,450.3082 C301.384092,436.737042 287.535457,427.349387 271.457303,427.349387 C249.07867,427.349387 230.939811,445.490187 230.939811,467.86882 C230.939811,469.37263 231.03295,470.849274 231.194003,472.310395 C229.930803,472.869231 228.688947,473.530907 227.485899,474.237213 C222.409812,453.519562 203.72182,438.167117 181.451849,438.167117 C174.613879,438.167117 168.131003,439.618536 162.267114,442.226434 C162.263233,442.228374 162.259353,442.232255 162.253531,442.234195 C156.762199,422.116128 138.369148,407.324459 116.510542,407.324459 C90.320963,407.324459 69.0891062,428.552435 69.0852254,454.742014 L69.0813446,454.742014 C46.7046518,454.742014 28.5560906,472.888635 28.5560906,495.263387 C28.5560906,499.864075 29.3225486,504.276545 30.7526234,508.378551 L345.596106,508.378551 C348.18654,503.054093 349.616615,497.087363 349.616615,490.790765 C349.616615,468.394668 331.466113,450.265511 309.093301,450.265511" id="Fill-6" fill="#D8D6F8" transform="translate(189.086353, 457.851505) scale(-1, 1) translate(-189.086353, -457.851505) "></path>
                    <path d="M130.684049,224.891932 C130.684049,224.891932 155.23787,229.719647 162.182562,261.433545 C169.127253,293.145502 146.492487,353.068935 146.492487,353.068935 L117.363203,286.755765 L130.684049,224.891932 Z" id="Fill-8" fill="#FF3399" transform="translate(140.434922, 288.980433) scale(-1, 1) translate(-140.434922, -288.980433) "></path>
                    <path d="M244.599173,235.771561 C244.599173,235.771561 221.698572,245.85776 221.863506,278.320652 C222.02844,310.785484 257.227296,364.301716 257.227296,364.301716 L271.139964,293.220983 L244.599173,235.771561 Z" id="Fill-10" fill="#FF3399" transform="translate(246.501292, 300.036638) scale(-1, 1) translate(-246.501292, -300.036638) "></path>
                    <path d="M145.800386,184.130337 C148.169614,205.511605 152.234752,225.62191 157.547567,243.574491 C164.241947,266.2209 172.903893,285.436681 182.578727,299.448309 C193.683637,299.069931 205.378427,298.225857 217.445775,296.890862 C229.513123,295.553926 241.110893,293.817268 252.025643,291.754623 C258.401798,275.965588 262.649333,255.319732 264.224938,231.757455 C265.476496,213.077224 265.043787,192.565256 262.674559,171.183988 C257.431598,123.849871 237.162179,83.4798487 218.670167,58.3943575 C205.533659,40.5523795 193.297497,30.4351339 187.994384,31.0211347 C182.693211,31.6071355 172.965986,44.1595831 164.053729,64.4445247 C151.501281,92.9703451 140.557425,136.79622 145.800386,184.130337" id="Fill-12" fill="#00216C" transform="translate(204.683429, 165.222660) scale(-1, 1) translate(-204.683429, -165.222660) "></path>
                    <path d="M145.140562,243.574879 C151.834942,266.221288 160.496887,285.437069 170.171722,299.448697 C181.276631,299.070319 192.971422,298.226245 205.038769,296.89125 C217.106117,295.554314 228.703888,293.817656 239.618638,291.755011 C245.996733,275.965976 250.242328,255.32012 251.819873,231.757843 C235.487526,231.523055 217.261349,232.402056 198.130945,234.520973 C178.998601,236.63989 161.024676,239.771695 145.140562,243.574879" id="Fill-14" fill="url(#linearGradient-1)" transform="translate(198.480217, 265.584783) scale(-1, 1) translate(-198.480217, -265.584783) "></path>
                    <path d="M190.698243,64.4441366 C199.542586,63.9862022 208.695453,63.2469098 218.09281,62.204915 C227.490168,61.1648606 236.582882,59.8822562 245.312742,58.3939694 C232.178174,40.5519914 219.940071,30.4347458 214.638898,31.0207466 C209.335785,31.6086878 199.6105,44.159195 190.698243,64.4441366" id="Fill-16" fill="url(#linearGradient-2)" transform="translate(218.005492, 47.720380) scale(-1, 1) translate(-218.005492, -47.720380) "></path>
                    <path d="M169.9579,50.5980244 C182.143612,79.2111628 196.240618,124.69802 202.030772,176.966574 C204.646431,200.585123 206.088148,223.12675 206.445182,243.563043 C206.786692,263.261984 206.14442,281.010822 204.564934,295.856823 C210.479273,295.107828 216.257785,294.246291 221.875243,293.295495 C224.351193,278.472779 225.750221,260.873351 225.953963,241.403378 C226.167407,220.901111 225.040035,198.324557 222.422435,174.706008 C216.634222,122.437454 199.810954,77.2532992 184.926146,48.9409228 C182.683043,44.6739832 180.496213,40.7990044 178.383117,37.3276288 C173.285686,32.9500864 169.102184,30.7380304 166.538915,31.0213288 C165.236907,31.1649184 163.686527,32.0225752 161.932406,33.5360872 C164.416118,38.2279744 167.134618,43.9521544 169.9579,50.5980244" id="Fill-18" fill="url(#linearGradient-3)" transform="translate(193.955889, 163.426984) scale(-1, 1) translate(-193.955889, -163.426984) "></path>
                    <path d="M328.719824,96.4787824 C334.921343,89.7455944 320.733138,84.5200972 312.249709,86.212126 C301.699754,88.31746 274.70879,112.979944 274.22175,120.543623 C273.73665,128.04715 279.204697,132.839938 285.064705,129.335576 C290.924713,125.831213 320.220872,105.707325 328.719824,96.4787824" id="Fill-20" fill="#FFC6B2" transform="translate(302.217377, 108.197934) scale(-1, 1) translate(-302.217377, -108.197934) "></path>
                    <path d="M372.085222,130.182754 C377.407739,129.556005 378.979463,121.156013 372.51211,115.410489 C364.469152,108.267877 336.164537,115.686026 322.40322,115.068979 C319.432468,114.935091 314.936561,123.90362 317.922837,124.609925 C324.566766,126.18359 357.076228,131.950459 372.085222,130.182754" id="Fill-22" fill="#FFC6B2" transform="translate(346.845693, 121.400098) scale(-1, 1) translate(-346.845693, -121.400098) "></path>
                    <path d="M304.500557,75.9454696 C297.949767,77.0185108 284.854007,89.1498916 273.654018,100.173304 L288.370012,121.917426 C288.370012,121.917426 303.706933,116.362061 311.35599,104.046342 C316.779408,95.3164828 320.865891,73.2657772 304.500557,75.9454696" id="Fill-24" fill="#6C75FF" transform="translate(294.893351, 98.819330) scale(-1, 1) translate(-294.893351, -98.819330) "></path>
                    <path d="M284.521275,78.3273106 C274.858083,70.2901738 232.062561,70.2203194 222.932979,81.5037454 C214.979279,91.3357522 219.983571,166.574762 227.174693,197.105016 C252.634682,194.054707 298.992778,188.495461 298.992778,188.495461 C298.992778,188.495461 292.275113,148.563969 291.861808,110.198381 C291.714338,96.3245206 295.208998,87.2124022 284.521275,78.3273106" id="Fill-26" fill="#6C75FF" transform="translate(258.935628, 134.864141) scale(-1, 1) translate(-258.935628, -134.864141) "></path>
                    <polygon id="Fill-28" fill="#FFC6B2" transform="translate(186.761948, 394.362199) scale(-1, 1) translate(-186.761948, -394.362199) " points="180.065627 393.317294 190.225562 387.368027 193.458268 393.54044 185.1747 401.356371"></polygon>
                    <polygon id="Fill-30" fill="#FFC6B2" transform="translate(298.310305, 355.823721) scale(-1, 1) translate(-298.310305, -355.823721) " points="291.576146 356.216652 300.672742 349.557199 305.044463 354.906882 296.805524 362.090242"></polygon>
                    <path d="M225.091639,188.495267 C225.091639,188.495267 220.714097,270.795393 228.446591,298.729391 C247.381014,326.065746 263.404837,389.010382 263.404837,389.010382 L251.054191,397.414254 C251.054191,397.414254 212.459635,330.445229 198.954451,306.384269 C184.956405,281.446248 180.56528,193.833307 180.56528,193.833307 L225.091639,188.495267 Z" id="Fill-32" fill="#271EB6" transform="translate(221.985059, 292.954761) scale(-1, 1) translate(-221.985059, -292.954761) "></path>
                    <path d="M353.054874,189.945716 C353.054874,189.945716 345.61538,204.479312 323.87902,223.109092 C305.798372,238.603186 274.034024,257.626868 263.425858,267.037808 C269.229594,299.347408 289.382588,350.183948 289.382588,350.183948 L277.823626,360.782413 C277.823626,360.782413 234.18597,298.753646 229.556176,271.910152 C224.759507,244.086757 291.66838,197.105792 291.66838,197.105792 L353.054874,189.945716 Z" id="Fill-34" fill="#3A30DB" transform="translate(291.182471, 275.364064) scale(-1, 1) translate(-291.182471, -275.364064) "></path>
                    <path d="M274.594582,44.1514334 C273.556468,54.2958446 272.966586,67.4750414 278.714051,73.6319306 C277.018142,81.7660874 251.666816,84.8066942 253.257944,79.2726734 C254.847131,73.7386526 258.403884,67.8844658 255.844497,59.7580706 C253.283169,51.6316754 274.594582,44.1514334 274.594582,44.1514334" id="Fill-36" fill="#FFC6B2" transform="translate(265.950080, 63.116541) scale(-1, 1) translate(-265.950080, -63.116541) "></path>
                    <path d="M276.271983,44.4915856 C275.001021,49.092274 273.479748,53.1224848 272.61821,55.4703688 C270.877671,60.1680772 266.329374,64.178884 259.295424,65.5235812 C259.301245,63.7190092 259.050933,61.8057748 258.40478,59.7586528 C256.167499,52.633504 272.265057,45.9934552 276.271983,44.4915856" id="Fill-38" fill="#FFA192" transform="translate(267.232259, 55.007583) scale(-1, 1) translate(-267.232259, -55.007583) "></path>
                    <path d="M289.624251,17.2142185 L274.219416,19.1371549 C267.876248,27.8282065 275.137225,45.8137741 278.593077,42.8022733 C296.510731,27.2033977 296.334155,20.4702097 289.624251,17.2142185" id="Fill-40" fill="#FF3399" transform="translate(282.758654, 30.176288) scale(-1, 1) translate(-282.758654, -30.176288) "></path>
                    <path d="M288.811683,48.9182201 C287.48833,55.4360237 281.019036,61.5249989 269.549332,62.4098213 C258.079628,63.2946437 256.321625,49.2209225 255.731744,36.8372897 C255.153504,24.6845645 260.08018,11.8915073 278.448006,12.0700241 C296.817773,12.2466005 290.484308,40.6695797 288.811683,48.9182201" id="Fill-42" fill="#FFC6B2" transform="translate(273.456606, 37.258847) scale(-1, 1) translate(-273.456606, -37.258847) "></path>
                    <path d="M276.782111,34.8095717 C277.090635,36.0281429 276.793754,37.3068665 276.118494,37.6658405 C275.443235,38.0248145 274.645731,37.3282109 274.337207,36.1096397 C274.028684,34.8910685 274.325565,33.6123449 275.002764,33.2533709 C275.678024,32.8943969 276.475528,33.5910005 276.782111,34.8095717" id="Fill-44" fill="#3A30DB" transform="translate(275.559678, 35.459606) scale(-1, 1) translate(-275.559678, -35.459606) "></path>
                    <path d="M289.256436,36.237318 C289.564959,37.4558892 289.268078,38.7346128 288.590878,39.0935868 C287.91756,39.4525608 287.118115,38.7559572 286.811532,37.537386 C286.503008,36.3188148 286.799889,35.0400912 287.475148,34.6811172 C288.152348,34.3221432 288.947912,35.0187468 289.256436,36.237318" id="Fill-46" fill="#3A30DB" transform="translate(288.033965, 36.887352) scale(-1, 1) translate(-288.033965, -36.887352) "></path>
                    <path d="M283.222905,47.5281175 C282.363308,47.5281175 281.759844,47.3728855 281.420274,47.0643619 C281.115631,46.7849443 281.127273,46.4861227 281.133094,46.4298511 C281.136975,46.3988047 281.144737,46.3677583 281.156379,46.3405927 C282.303156,43.5658207 282.991998,37.6864087 282.997819,37.6262563 L283.630389,37.6999915 C283.601283,37.9425415 282.937666,43.6220923 281.775367,46.5035863 C281.787009,46.5268711 281.816115,46.5715003 281.88597,46.6238911 C282.111056,46.7946463 282.922143,47.1361567 285.580491,46.6200103 L285.700796,47.2448191 C284.718954,47.4330379 283.894284,47.5281175 283.222905,47.5281175" id="Fill-48" fill="#FFA192" transform="translate(283.415982, 42.577187) scale(-1, 1) translate(-283.415982, -42.577187) "></path>
                    <path d="M269.225261,50.3696393 L269.054506,49.7584133 C273.315624,48.5786501 274.503149,45.1092149 274.514791,45.0742877 L275.116315,45.2722085 C275.067805,45.4274405 273.82789,49.0967369 269.225261,50.3696393" id="Fill-50" fill="#E57563" transform="translate(272.085411, 47.721963) scale(-1, 1) translate(-272.085411, -47.721963) "></path>
                    <path d="M275.755289,29.0328068 C273.159034,27.4416788 270.492924,27.7851296 270.465759,27.7890104 L270.378441,27.1603208 C270.498745,27.1409168 273.298743,26.7819428 276.089038,28.4914352 L275.755289,29.0328068 Z" id="Fill-52" fill="#FF3399" transform="translate(273.233739, 28.074459) scale(-1, 1) translate(-273.233739, -28.074459) "></path>
                    <path d="M287.43378,32.5592898 L286.940919,32.1556866 C289.015206,29.625405 291.780276,29.0471658 291.898641,29.023881 L292.022826,29.6467494 C291.997601,29.6506302 289.356717,30.2114058 287.43378,32.5592898" id="Fill-54" fill="#FF3399" transform="translate(289.481873, 30.791585) scale(-1, 1) translate(-289.481873, -30.791585) "></path>
                    <path d="M299.173037,10.3830403 C302.918009,4.25137632 288.000214,-3.63052848 284.061202,1.84139952 C279.924269,7.58692392 275.938687,6.62642592 261.63988,2.65636752 C247.343013,-1.31369088 243.827008,7.66453992 251.677866,18.3580843 C259.528725,29.0555095 279.254831,21.4472011 285.74935,18.1873291 C283.318029,28.6674295 297.042478,42.3724747 299.046911,38.2471843 C309.420289,16.8775591 306.620292,10.7497759 299.173037,10.3830403" id="Fill-56" fill="#FF3399" transform="translate(276.708235, 19.499748) scale(-1, 1) translate(-276.708235, -19.499748) "></path>
                    <path d="M244.338661,10.3091111 C244.338661,10.3091111 244.544343,10.8349595 244.988695,11.6033579 C247.495692,10.9145159 252.428188,11.5218611 254.933245,12.3698159 C250.002688,7.72255788 244.338661,10.3091111 244.338661,10.3091111" id="Fill-58" fill="#FF3399" transform="translate(249.635953, 10.980592) scale(-1, 1) translate(-249.635953, -10.980592) "></path>
                    <path d="M258.353385,41.7449494 C256.754495,43.887151 255.097394,45.0572122 252.052906,44.7040594 C249.008418,44.3509066 250.168778,40.7417626 250.993448,37.542043 C251.816177,34.3442638 254.144657,30.2228542 257.394827,31.6374058 C261.166965,33.2789842 259.694201,39.948139 258.353385,41.7449494" id="Fill-60" fill="#FFC6B2" transform="translate(254.934113, 38.058712) scale(-1, 1) translate(-254.934113, -38.058712) "></path>
                    <path d="M203.092515,75.9454696 C194.401464,73.0678564 195.486147,88.1486452 200.523426,95.1825952 C206.787037,103.926038 240.377301,118.362614 247.471404,115.690683 C254.507294,113.040096 256.098422,105.800464 250.492606,101.904141 C244.88485,98.0078176 215.00269,79.886422 203.092515,75.9454696" id="Fill-62" fill="#FFC6B2" transform="translate(225.261893, 95.800202) scale(-1, 1) translate(-225.261893, -95.800202) "></path>
                    <path d="M198.045588,104.508546 C195.567697,99.756506 187.158004,101.275839 184.088291,109.363426 C180.271524,119.42052 196.153698,143.09728 200.471088,156.177517 C201.40248,159.002739 212.501568,160.153396 212.099905,157.110849 C211.207321,150.342734 205.036849,117.908948 198.045588,104.508546" id="Fill-64" fill="#FFC6B2" transform="translate(197.805939, 130.368102) scale(-1, 1) translate(-197.805939, -130.368102) "></path>
                    <path d="M229.444717,74.1632122 C237.303337,75.2420746 250.313719,84.431809 260.023481,91.5220306 L251.551694,114.645777 C251.551694,114.645777 227.923443,107.827212 215.937593,99.6697702 C209.673981,95.404771 216.02103,72.3198322 229.444717,74.1632122" id="Fill-66" fill="#6C75FF" transform="translate(236.767600, 94.352214) scale(-1, 1) translate(-236.767600, -94.352214) "></path>
                    <path d="M193.750407,391.697254 C195.227052,393.094342 201.81859,398.403276 201.7662,400.359199 C201.713809,402.315122 195.033012,406.358916 192.106888,408.394396 C189.182706,410.429875 183.021936,414.809358 179.323533,417.382328 C175.411687,420.10665 169.214049,420.997294 172.328391,416.908871 C174.730606,413.757661 181.725748,404.005211 181.00392,400.568762 C183.248962,399.00674 193.750407,391.697254 193.750407,391.697254" id="Fill-68" fill="#3A30DB" transform="translate(186.624331, 405.700008) scale(-1, 1) translate(-186.624331, -405.700008) "></path>
                    <path d="M297.466633,351.945443 C299.228516,352.956391 306.881454,356.575237 307.288938,358.488472 C307.694481,360.401706 302.146878,365.896919 299.77959,368.561088 C297.414242,371.229138 292.450699,376.926153 289.458602,380.294687 C286.291869,383.857261 280.47455,386.176039 282.546897,381.47251 C284.143847,377.847843 288.659157,366.72741 287.153407,363.554856 C288.969621,361.509675 297.466633,351.945443 297.466633,351.945443" id="Fill-70" fill="#3A30DB" transform="translate(294.710482, 368.030661) scale(-1, 1) translate(-294.710482, -368.030661) "></path>
                    <g id="Group-74" transform="translate(380.148713, 118.480321) scale(-1, 1) translate(-380.148713, -118.480321) translate(367.148713, 110.480321)">
                        <mask id="mask-5" fill="white">
                            <use xlink:href="#path-4"></use>
                        </mask>
                        <g id="Clip-73"></g>
                        <path d="M24.66229,6.8369994 C23.8143352,4.613301 20.7562648,1.4582106 15.5948008,0.8838522 C10.4333368,0.3114342 2.40396156,-0.6995142 0.50430996,2.3178078 C-1.39534164,5.3370702 2.55919356,10.5839118 4.23763956,12.3011658 C6.32162916,14.4375462 17.6807308,16.692291 21.2025568,14.354109 C24.7224424,12.015927 25.8711592,10.0056726 24.66229,6.8369994" id="Fill-72" fill="#FFC6B2" mask="url(#mask-5)"></path>
                    </g>
                    <path d="M379.795026,115.594827 C379.144992,113.702937 372.592261,109.273004 371.17965,106.806755 C369.765099,104.340507 367.706334,105.766701 368.839528,108.751036 C369.972721,111.735371 371.125319,112.472723 371.507578,114.061911 C371.891777,115.653039 381.640347,120.975556 379.795026,115.594827" id="Fill-75" fill="#FFC6B2" transform="translate(374.269567, 111.746346) scale(-1, 1) translate(-374.269567, -111.746346) "></path>
                    <path d="M182.083336,154.006791 C180.387426,155.677476 178.728384,159.746495 180.274883,164.702276 C181.825262,169.659998 184.128517,177.417717 187.654224,177.943566 C191.179931,178.469414 194.397114,172.741353 195.29746,170.515715 C196.41513,167.748704 193.913954,156.438113 190.357201,154.154262 C186.800448,151.868471 184.499134,151.625921 182.083336,154.006791" id="Fill-77" fill="#FFC6B2" transform="translate(187.613435, 165.152484) scale(-1, 1) translate(-187.613435, -165.152484) "></path>
                    <path d="M196.772617,154.935273 C195.299854,156.289672 193.879481,164.070676 192.189392,166.358408 C190.499304,168.642258 192.629863,169.955909 194.907893,167.718628 C197.185922,165.481347 197.397426,164.128888 198.699434,163.139284 C200.001443,162.14968 200.95612,151.083579 196.772617,154.935273" id="Fill-79" fill="#FFC6B2" transform="translate(195.695234, 161.499558) scale(-1, 1) translate(-195.695234, -161.499558) "></path>
                </g>
                <g id="Group-13" transform="translate(382.500000, 117.000000) rotate(26.000000) translate(-382.500000, -117.000000) translate(374.000000, 99.000000)">
                    <g id="Group-3" transform="translate(1.000000, 0.425000)" fill="#000D55">
                        <path d="M9.97159408,34.6550878 L0.582654945,28.6169902 C0.181461447,28.379161 -0.0424421322,27.8635512 0.0340358722,27.3544293 L3.81590479,0.123063415 C3.81590479,0.123063415 4.23969406,0.13757561 4.5522426,0.148160976 C4.72273799,0.153965854 4.9229397,0.153112195 5.09280304,0.254014634 L15.2541068,6.2813561 C15.6551423,6.51918537 15.8792039,7.03496585 15.8027259,7.54391707 L11.8396167,33.8960146 C11.7809941,34.2859659 11.537813,34.5647707 11.2421718,34.6571366 L9.97159408,34.6550878 Z" id="Fill-1"></path>
                    </g>
                    <g id="Group-6" transform="translate(-0.000000, 0.425000)">
                        <mask id="mask-7" fill="white">
                            <use xlink:href="#path-6"></use>
                        </mask>
                        <g id="Clip-5"></g>
                        <path d="M0.564712421,28.5851659 C0.162590316,28.3471659 -0.0617431579,27.8317268 0.0148816842,27.3226049 L4.00649768,0.832043902 C4.09309642,0.257531707 4.62978695,-0.0465414634 5.08336168,0.222190244 L15.2643335,6.24953171 C15.6659806,6.48736098 15.8904724,7.00314146 15.8136893,7.51209268 L11.8431293,33.8641902 C11.7460817,34.5080195 11.1444817,34.8488 10.6359714,34.5478 L0.564712421,28.5851659 Z" id="Fill-4" fill="#000D55" mask="url(#mask-7)"></path>
                    </g>
                    <polygon id="Fill-7" fill="#D8D6F8" points="2.77704598 17.3733305 12.0411597 22.9414102 14 9.5682162 4.73576163 4"></polygon>
                </g>
            </g>
        </g>
    </g>
</svg>