<?xml version="1.0" encoding="UTF-8"?> <svg xmlns="http://www.w3.org/2000/svg" xmlns:xlink="http://www.w3.org/1999/xlink" width="120px" height="120px" viewBox="0 0 120 120"><!-- Generator: Sketch 55.2 (78181) - https://sketchapp.com --><title>Group 28</title><desc>Created with Sketch.</desc><g id="Page-1" stroke="none" stroke-width="1" fill="none" fill-rule="evenodd"><g id="4-Courses-1" transform="translate(-660.000000, -5822.000000)"><g id="Group-28" transform="translate(660.000000, 5822.000000)"><circle id="Oval-Copy-3" fill="#FFFFFF" cx="60" cy="60" r="60"></circle><g id="Group-16-Copy" transform="translate(36.000000, 24.000000)" stroke="#FF3399" stroke-linecap="round" stroke-linejoin="round" stroke-width="3.2"><polyline id="Stroke-1" points="9.03136 31.4672 12.52256 35.7328 18.63136 28.2672"></polyline><path d="M25.6,32 L36.8,32" id="Stroke-2"></path><polyline id="Stroke-3" points="9.03136 47.4672 12.52256 51.7328 18.63136 44.2672"></polyline><path d="M25.6,48 L36.8,48" id="Stroke-4"></path><path d="M36.8,12.8 C36.8,9.2672 33.9328,6.4 30.4,6.4 C30.4,2.8672 27.5328,0 24,0 C20.4672,0 17.6,2.8672 17.6,6.4 C14.0672,6.4 11.2,9.2672 11.2,12.8 L11.2,16 L36.8,16 L36.8,12.8 Z" id="Stroke-5"></path><path d="M41.6,9.6 L44.8,9.6 C46.5696,9.6 48,11.0336 48,12.8 L48,60.8 C48,62.5664 46.5696,64 44.8,64 L3.2,64 C1.4304,64 0,62.5664 0,60.8 L0,12.8 C0,11.0336 1.4304,9.6 3.2,9.6 L6.4,9.6" id="Stroke-7"></path></g></g></g></g></svg> 