<?xml version="1.0" encoding="UTF-8"?> <svg xmlns="http://www.w3.org/2000/svg" xmlns:xlink="http://www.w3.org/1999/xlink" height="439" viewBox="0 0 475 439" width="475"><mask id="a" fill="#fff"><path d="m.08319695.09316462h30.78682305v18.78988968h-30.78682305z" fill="#fff" fill-rule="evenodd"></path></mask><g fill="none" fill-rule="evenodd"><g transform="translate(335)"><path d="m33.51474 382.89078s.0378 3.0132.8388 3.7188c5.76 1.2816 37.1358-3.7566 37.1358-3.7566v-3.7188" fill="#00216c"></path><path d="m57.66174 350.96724 1.1016 15.2028-8.0766 6.6528s1.1016 1.6398 7.7094 1.6398 11.3778-5.5278 11.3778-5.5278l2.2032-23.1498" fill="#ffc6b2"></path><path d="m57.2373 367.14438s-.9342-2.1834-2.0772-1.1772c-1.1448 1.0062-1.3662 2.4228-2.6406 3.2526-4.3992 2.8656-12.5802 8.5968-15.9264 9.8766-3.2382 1.2366-3.96 4.725-2.0376 4.725 3.6972 0 30.9456-1.9656 36.9324-3.7566 1.1754-3.105.0396-9.5418-1.368-11.4642-7.0398 1.9224-12.8826-1.4562-12.8826-1.4562" fill="#00216c"></path><path d="m46.38618 373.79142c.8586.2934 1.719.6912 2.4804 1.1826.3582.2322.7092.4824 1.035.7596.315.27.6624.774 1.0944.8406.2214.0342.4572-.09.4536407-.3456-.0108407-.5148-.5364407-.8982-.9036407-1.1916-.3888-.3114-.7938-.5904-1.2366-.819-.4446-.2268-.9054-.4212-1.3806-.5742-.4752-.1548-.9918-.2124-1.4886-.2538-.2412-.018-.261.3312-.054.4014" fill="#00216c"></path><path d="m49.23306 371.64528c1.0368.4716 2.1168.8514 3.1032 1.4238.4518.2628.8982.5544 1.287.9018.1944.171.3762.3564.54.5562.1692.2034.3852.4734.6678.4734.108 0 .2376-.0612.2862-.1638.2448-.531-.4212-1.1448-.7794-1.4706-.4356-.3996-.9216-.729-1.4472-.999-1.0872-.5562-2.2608-.9558-3.4506-1.2096-.279-.0612-.4968.3546-.207.4878" fill="#00216c"></path><path d="m53.1063 369.2493c1.1322.7848 2.3454 1.4328 3.5262 2.1366.4698.2808.9324.5814 1.3338.9522.3942.3672.6588.8514 1.0476 1.2168.2142.2016.549.054.5634-.2322.0306-.5976-.4158-1.1358-.828-1.5174-.4536-.4212-.9792-.765-1.5174-1.0692-1.2654-.7164-2.6118-1.3428-3.9636-1.872-.2358-.0936-.3456.2574-.162.3852" fill="#00216c"></path><path d="m118.44432 374.463-11.9808 18.2484s.0738.99.216 2.907c.1404 1.9188 1.8234 3.4056 5.2182 3.4056 6.7914 0 10.3608-3.2202 14.4774-7.4124 2.7234-2.772 5.2938-5.0472 5.2938-5.0472s1.6542-8.1648-1.332-10.8342" fill="#00216c"></path><path d="m115.46838 350.96724 4.068 20.8458-1.2852 4.6098s1.1016 1.6398 7.7094 1.6398c6.606 0 4.5864-5.5278 4.5864-5.5278l.1584-26.7498" fill="#ffc6b2"></path><path d="m130.55382 371.58372c1.026 0 1.0674.7344 1.0674 2.1924 1.5426 3.6432.4284 9.7434.4284 9.7434s-2.5668 2.5272-5.3334 5.2992c-4.185 4.1922-8.2692 7.3476-15.1704 7.3476-6.903 0-6.5106-4.4658-.621-11.3382 5.3136-6.1974 6.9552-10.0008 6.9552-10.0008 0-1.512-.414-2.8818.5112-3.1716 1.6776-.5274 2.007 2.0502 4.5882 2.3508 3.9186.4572 7.5744-2.4228 7.5744-2.4228" fill="#00216c"></path><path d="m113.8203 383.32062c1.3158.054 2.6388.2844 3.897.6714.6156.189 1.2096.4248 1.7964.6912.5796.261 1.107.5832 1.7424.6804.1404.0216.3096-.1224.207-.2682-.387-.5562-.9396-.8316-1.5444-1.1034-.6264-.2808-1.2852-.4986-1.9476-.6732-1.3608-.36-2.745-.4878-4.1508-.4194-.27.0126-.2718.4104 0 .4212" fill="#00216c"></path><path d="m116.40168 379.9395c1.4274.045 2.8602.2574 4.2372.6336.666.1818 1.323.4032 1.9584.6696.6066.252 1.2492.6912 1.917.675.2304-.0072.3942-.261.2682-.4662-.3708-.6066-1.1556-.8586-1.791-1.1034-.6894-.2628-1.395-.4788-2.1114-.6462-1.4742-.3456-2.9682-.4734-4.4784-.396-.405.0216-.4086.621 0 .6336" fill="#00216c"></path><path d="m118.07424 376.49844c.7794.2574 1.611.378 2.4084.5778.774.1926 1.548.3924 2.3166.6048.7344.2052 1.4706.4176 2.1888.6786.2988.108.5922.234.8694.3924.306.1728.5706.4014.9072.5112.342.1116.6948-.2502.5886-.5886-.2232-.7092-1.026-1.0422-1.665-1.2852-.7632-.2916-1.5714-.486-2.3634-.684-.8586-.2124-1.7208-.3942-2.5938-.5328-.8424-.1314-1.7208-.306-2.5758-.2808-.3528.009-.414.4968-.081.6066" fill="#00216c"></path><path d="m48.11148 164.25504c-3.8682 25.677-4.401 27.4122-4.401 52.5204 0 58.3506 12.753 138.1644 12.753 138.1644l14.8752.54 22.1328-140.4s14.7888-30.0006 9.7362-52.2342" fill="#3a30db"></path><path d="m82.37124 164.73492c3.2742 72.288 9.0702 101.9304 33.2676 193.2948h16.3026s3.8808-123.2262 3.8808-132.9516c0-13.3254 9.7092-31.4334-.7812-60.9984" fill="#3a30db"></path><g stroke="#00216c"><path d="m129.77082 358.02918s0-100.0494 1.71-132.9498c.693-13.3128 5.3838-28.2996.9576-48.6846" stroke-width=".9"></path><path d="m46.68156 172.91034s36.9396 15.363 91.4904 2.1294" stroke-width=".9"></path><path d="m82.60776 180.00576s2.9916 36.6588 6.8418 61.5654" stroke-width=".9"></path><path d="m75.30318 179.02944s1.9512 23.4126 3.4506 24.732c1.4976 1.3194 5.7348 1.0818 5.7348 1.0818" stroke-width=".9"></path><path d="m89.4501 180.34956s1.3464.9342.8568-4.4478" stroke-width=".9"></path><path d="m121.84398 178.15662-.9648-5.247" stroke-width=".9"></path><path d="m58.248 176.39532v-6.5232" stroke-width=".9"></path><path d="m115.16238 179.17974s1.8108 3.222 3.7962 4.9698c2.4606 2.1636 15.2136 4.905 15.2136 4.905" stroke-width=".9"></path><path d="m45.198 184.11732s8.6724-2.2824 10.2852-3.7008c1.611-1.4184 1.3626-4.0212 1.3626-4.0212" stroke-width=".9"></path><path d="m68.96178 355.39326s13.41-94.1148 19.5948-119.9034" stroke-width=".9"></path></g><path d="m114.00048 354.16818h18.3042v4.977h-17.5068z" fill="#00216c"></path><path d="m55.7361 354.16818h16.2414l-.5868 4.977h-14.9472z" fill="#00216c"></path><path d="m60.50592 28.638c-3.1788-3.3714-5.3694-7.857-5.3766214-12.4668-.0161786-10.7622 9.1818214-14.2002 16.3224214-15.7266 3.5334-.756 7.4052-.6498 10.5444 1.1268 1.296.7344 2.4246 1.7262 3.465 2.7864 3.0204 3.0762 5.4 6.8652 6.2982 11.0592.9 4.194.207 8.8038-2.3454 12.2706" fill="#3a30db"></path><path d="m33.46542 119.32092c-3.0348 1.4382-5.6844 3.501-7.6788 5.976-.3798.4734-.7488.99-.7884 1.5678-.0684.9882.8172 1.8072 1.6776 2.4444 4.1274 3.0546 9.1584 5.0274 14.3118 6.426 3.1176.8478 6.7698 1.431 9.4338-.2286 3.0888-1.9242 3.258-6.1488 1.3266-9.0126-1.9332-2.8638-5.364-4.6512-8.7282-6.174" fill="#00216c"></path><path d="m65.81016 53.0090925c.0234-.0053925-22.7592 2.9160075-31.7466 22.4550075-7.7238 16.7904-14.4576 36.9054-14.4576 36.9054s28.9674 22.3398 30.033 21.402c1.0674-.9396 17.541-58.0626 17.541-58.0626z" fill="#d8d6f8"></path><path d="m51.28614 78.8832c-1.098 17.2044-1.3518 27.4662-1.5048 44.694-.3276 37.0566-3.8646 39.6126-2.9484 46.539 20.3472 8.3592 79.065 8.172 91.4796 1.476 2.43-2.0016-7.4286-71.4006-9.0504-85.5774l-29.934-33.7356-19.3338.729-18.7164 1.314s-8.8578 6.7662-9.9918 24.561" fill="#d8d6f8"></path><path d="m51.5727 76.35384-2.1186 59.4576" stroke="#00216c" stroke-width=".9"></path><path d="m73.68426 37.19412-.4194 13.7862s-4.5306 1.1016-7.4556 2.0286c-.3366 1.404-.4302 8.9964 14.5584 8.9964 14.9904 0 18.9612-9.7272 18.9612-9.7272l-7.0524-1.5984-3.5208-22.41" fill="#ffc6b2"></path><path d="m59.01264 15.4359c-2.0826 9.7938 5.6412 27.6102 10.6776 28.656 2.4354.5058 9.0144-.3636 12.5766-5.1552s6.4476-10.9386 5.5584-15.777c-1.7298-9.4104-26.7318-17.5176-28.8126-7.7238" fill="#ffc6b2"></path><path d="m74.01294 44.09172c3.0222-.9036 6.3306-2.5686 8.253-5.1552 3.564-4.7916 6.4476-10.9386 5.5602-15.777" stroke="#ffa192" stroke-width=".9"></path><path d="m3.60288 87.01056-3.0186-3.0024 1.0512-1.0116 18.5238 8.811 27.4248-11.331 19.9584 26.5176-26.1918 9.4158-20.1096-6.471z" fill="#fff1dc"></path><path d="m22.87116 92.23128 21.3156 25.2684 24.0696-9.5004c.711-.3816.9216-1.206.4608-1.818l-18.3402-24.3522c-.2772-.3687808-.8352-.4788-1.2636-.2484z" fill="#f39"></path><path d="m22.87116 92.23128-5.274.7434 22.0752 25.1622 4.5144-.6372z" fill="#00216c"></path><path d="m17.5968 9.75086-17.0136-8.9658c-.387-.162-.7596.2484-.4932.5454l24.7032 27.6696c.2502.2826.5994.4842.9918.5778l13.887 5.3352z" fill="#f39" transform="translate(0 83.224)"></path><path d="m7.38558 100.01214s8.2944 44.595 23.5872 42.4386c6.525-.9216 9.4698-10.6272 9.864-14.1984 0 0-3.2148-2.3274-4.8906-3.5586-1.8162-3.7386-21.7278-25.6464-21.7278-25.6464" fill="#ffc6b2"></path><path d="m7.90956 101.55204c-1.3698-5.031-2.7504-10.1988-2.0016-15.3306.1242-.8496.3222-1.7298.9126-2.4102.6102-.7092 1.7658-1.2006 2.5398-.3978.2358.2466.3834.5472.5256.8442.5166-.2862 1.2222-.1962 1.719.1134s.8118.801 1.0134 1.3068c.9936-.4482 2.2842-.027 2.979.7452.0576.063.1152.1314.1998.1638.09.0342.1926.0198.288.0018.7542-.1476 1.2834-.3582 2.016-.0468.5922.2484 1.0224.5814 1.359 1.0854.3636.5436-.7452 1.6902-.7452 1.6902s-1.4832-.5562-1.548-.5292c-.099.0414-.1368.1458-.1656.2394-.3834 1.2564-.0324 2.79-.0396 4.1004-.0036.8406-.0252 1.6974-.3402 2.4912-.2592.6534-.7074 1.2348-1.1502 1.8072-.774 1.0026-1.5498 2.0052-2.3238 3.006" fill="#ffc6b2"></path><path d="m37.2483 130.55418c-.1908-1.0566-.3222-2.007-.5436-2.9574-.0918-.477-.2214-.9414-.3438-1.4202-.1152-.4842-.2916-.9468-.414-1.4814.8658.6498 1.4076 1.665 1.6362 2.7108.2124 1.0494.1728 2.1816-.3348 3.1482" fill="#ffa192"></path><path d="m113.36778 128.42892c1.1178 3.4668 13.932 10.593 16.4034 7.3008 2.8836-5.9724-6.5268-18.9324-6.5268-18.9324z" fill="#00216c"></path><path d="m70.7346 107.37918 23.7798 11.9412 4.4316-14.3478 24.8148 16.2648s-10.5642 21.9096-20.8908 21.9096c-20.421 0-35.6904-32.0886-35.6904-32.0886" fill="#ffc6b2"></path><path d="m99.32886 52.27884c24.7068 5.3154 33.9768 28.3662 35.0874 36.8172 2.0502 15.5898.5454 31.6188-4.6458 46.6326 2.8836-3.276-17.4636-19.2042-34.3008-22.221 2.4516-9.9342 3.321-20.1942 5.7708-30.1284" fill="#d8d6f8"></path><path d="m129.77082 135.72918 3.6342-13.5216" stroke="#00216c" stroke-width=".9"></path><path d="m95.47056 113.50782c2.4498-9.9342 3.3192-20.1942 5.769-30.1284" stroke="#00216c" stroke-width=".9"></path><path d="m72.93888 110.03346c-2.4138-3.9798-5.4882-7.65-9.0936-10.8558-1.3392-1.1898-5.4864-3.8106-9.6426-3.8088009-1.701 0-4.0644 1.0836009-5.2992 1.5858009-.792.324-.6246.936.4878.936 1.098 0 3.4596-.6426 4.2966-.6426.7308 0 2.6172.567 3.789 1.161-2.8854-.6624-6.021-.4536-8.7624.5832-.2736.1026-.585.2628-.6012.5256-.009.1188.0486.2358.126.333.3924.4986 1.1736.4338 1.8612.423 1.1862-.0216 2.1042-.4158 3.2922-.4104 1.1844.0036 2.6856.5724 3.6432 1.1862-.7686-.0126-1.5354-.027-2.3058-.0414-.981-.0162-1.971-.0342-2.934.1332-.9396.162-1.8396.4986-2.6226.9828-.108.0684-.2214.1458-.2574.2574-.0774.2376.2232.4302.486.5184 1.1322.3762 2.0016-.1188 3.2436-.1188.8568 0 3.6936.1962 4.779.6282-2.151.0324-4.3992.0882-6.2802 1.0044-.3402.1656-.693.5634-.405.792.0756.063.1818.0864.2826.1062 1.6794.3186 3.4992-.3276 5.1174.1836 1.5768.4968 2.2356 1.6776 3.1806 2.7612 2.8026 3.2166 7.605 4.9914 12.1752 4.4946" fill="#ffc6b2"></path><path d="m94.51422 119.32092s9.747 4.257 11.6028 9.648" stroke="#ffa192" stroke-width=".9"></path><path d="m85.57938 27.4707c-1.3338-.8244-2.2932-2.214-2.5812-3.7422-.7884-4.1742.252-8.5284-5.2038-9.5076-.6948-.126-1.4184-.1908-2.1006-.0108-2.0772.5508-4.1292 1.719-6.2154 2.385-2.7396.8712-5.5638 1.4634-8.4006 1.9242-1.3284.2142-2.9466.2916-3.744-.7794-.3924-.5238-.477-1.2114-.4752279-1.863.0162279-4.8276 4.1076279-6.8364 7.4862279-9.504 2.3238-1.8342 6.093-2.178 8.9712-2.052 5.7168.2502 11.2572 3.15 14.6826 7.6806 2.2788 3.0168 3.6414 6.777 3.4182 10.5372-.2214 3.7584-2.1294 7.4646-5.2956 9.558" fill="#3a30db"></path><path d="m82.56636 28.02618c.189-.864.6552-1.6668 1.3104-2.2662.2376-.2178.5094-.414.8262-.4878.7362-.1746 1.4472.3474 1.9854.8748.5436.5346 1.0566 1.1286 1.3266 1.8378.5886 1.548.018 3.672-.8748 5.0328-.918 1.4004-3.501 2.6712-4.7682.8082" fill="#ffc6b2"></path><path d="m80.2584 21.67974c-1.4652-.8622-3.2094-1.2564-4.9086-1.107-.6822.0594-1.3554.2052-2.0268.3492-.846.1836-1.9044.405-.9648 1.4022.2808.2952.2394.5004.855.3078 2.2212-.7002 4.617-.423 6.9444-.5238.117-.0054.2592-.0288.2952-.1386.0378-.1206-.0846-.225-.1944-.2898" fill="#3a30db"></path><path d="m60.20262 23.81886c.819-.9486 1.9242-1.5624 3.1104-1.7244.477-.0648.963-.0594 1.449-.0522.7488.009 1.2636.1782 1.1052 1.0278-.0126.072-.0288.1494-.0846.1944-.0558.0468-.1314.0504-.2034.0522-1.8198.0414-3.456.1332-5.22.8352-.0756.0306-.1818.0198-.2286-.0648-.0504-.09.0108-.1962.072-.2682" fill="#3a30db"></path><path d="m76.76046 25.50816c-.1152-.135-.2574-.225-.414-.2484-.279-.036-.7902-.0054-.927.3258-.3312.8172.108 2.2554 1.0656 2.1474.855-.0936.8028-1.6128.2754-2.2248" fill="#00216c"></path><path d="m64.6992 27.65268c-.117-.135-.2574-.225-.4158-.2484-.2772-.036-.7884-.0054-.9252.3258-.3312.8154.108 2.2554 1.0656 2.1474.855-.0954.8028-1.6128.2754-2.2248" fill="#00216c"></path><path d="m68.69106 26.49438s-.8874 6.7392.3942 7.3224c1.2834.585 3.7008-.4752 3.7008-.4752" stroke="#ffa192" stroke-width=".9"></path><path d="m70.4754 38.36394s5.7492-.1566 6.3126-3.9006" stroke="#ffa192" stroke-width=".9"></path><path d="m63.24894 53.4978s-.612 10.8324 14.9886 10.8324c21.7494 0 23.0022-11.5956 23.0022-11.5956" stroke="#00216c" stroke-width=".9"></path></g><g transform="translate(0 91.55692)"><path d="m121.027634 145.25247c-5.66748-4.61916-7.43288-12.84738-5.87678-19.98906 1.5561-7.1435 5.91682-13.3588 10.76894-18.8279 4.9868-5.6238 10.87268-10.84902 18.08716-12.95658 3.03758-.88998 6.40458-1.17026 9.29838.10738 3.94576 1.74174 6.19164 5.9787 7.3164 10.14468.98462 3.6491 1.33588 7.50386.70798 11.2294-1.68896 10.03366-9.1091 23.20136-18.24186 28.23366-6.60842 3.64364-14.85666 3.31058-22.06022 2.05842" fill="#5660f2"></path><path d="m59.69236 114.063494c7.67312-6.76494 10.1283-17.93792 8.38474-28.0189-2.67722-15.46454-11.9665-31.6498-25.45998-40.6224-5.01046-3.3306-11.43324-5.05778-17.14076-3.3124-11.84638 3.62362-14.58548 18.26188-12.20128 28.7833 3.10128 13.69004 13.3497 25.28344 23.74008 34.46716 6.24988 5.5237 14.04312 9.98634 22.6772 8.70324" fill="#3a30db"></path><path d="m86.299122 94.921644c3.31968-1.08108 7.72408-4.29884 9.08544-7.51478 7.82964-18.50212 8.55946-41.4596-.78078-60.03088-5.04322-10.0282-14.47992-21.01554-24.9886-25.54188-5.06324-2.18218-11.37682-2.32596-15.7157 1.07562-5.4873 4.30794-6.94876 13.19864-7.8806 19.71788-1.02284 7.15806-.88998 14.46536.1547 21.61068 2.093 14.31066 7.81872 28.38836 16.98788 39.63778 1.40686 1.72354 2.89562 3.37792 4.47174 4.94858 3.41978 3.41068 9.86622 6.49376 18.66592 6.097" fill="#5660f2"></path><path d="m53.65906 149.772258c1.44872-1.87278 2.69178-5.35444 2.2295-7.67858-2.66448-13.3588-11.00554-26.5083-23.32148-33.3606-6.6521-3.70006-16.13066-6.26262-23.74918-4.7957-3.66912.70798-7.26544 3.03394-8.3993 6.59386-1.43598 4.50814 1.13386 10.05004 3.09764 14.06132 2.15306 4.40258 5.0141 8.45026 8.32286 12.0575 6.63026 7.22722 15.2061 12.93474 24.63552 15.74664 1.44508.43316 2.912.7917 4.39348 1.07198 3.21776.60788 8.008-.12012 12.79096-3.69642" fill="#5660f2"></path><path d="m111.667192 49.09459c2.58804-4.44262 5.8786-8.463 9.96996-11.79542 9.07634-7.40012 25.29072-12.2213 34.4253-2.34598 4.36254 4.71926 3.98034 12.07388 2.47156 18.32194-3.79288 15.72662-13.14586 30.05366-26.01326 39.85436-7.59668 5.7876-19.64144 9.63872-26.39.34398-4.21876-5.81308-2.6117-15.57374-1.71808-22.24586 1.0374-7.74228 3.34516-15.42086 7.25452-22.13302" fill="#3a30db"></path><g stroke="#d8d6f8" stroke-width="1.365"><path d="m139.343204 39.39035c-16.48374 19.43396-37.13164 69.49306-38.82242 172.04096"></path><path d="m34.283522 67.252002c17.18808 21.5761 43.63996 71.30396 46.71758 133.02198"></path><path d="m67.485054 22.921352c23.86384 53.36058 24.3971 106.7885 22.58074 171.92266"></path><path d="m143.769626 112.400014c-14.5509 12.11028-34.6801 43.80922-37.64124 88.15898"></path><path d="m25.155858 122.831162c34.62004 16.42368 54.00304 61.74168 56.67298 104.29328"></path></g><path d="m133.886662 179.18546v25.04138c0 64.79564-20.85902 74.529-20.85902 74.529h-45.92406s-20.8572-9.73336-20.8572-74.529v-25.04138z" fill="#fff"></path><path d="m133.886662 179.18546v25.04138c0 64.79564-20.85902 74.529-20.85902 74.529h-45.92406s-20.8572-9.73336-20.8572-74.529v-25.04138z" stroke="#d8d6f8" stroke-width="1.82"></path><path d="m242.644038 200.991608c-11.64436-10.8836-18.89888-25.52004-27.9006-38.67864-8.99808-13.15496-21.11018-25.69658-36.80768-28.47208-10.71434-1.89462-21.87822 1.11384-31.30036 6.55564-9.42396 5.43998-17.31002 13.17498-24.57182 21.27762-13.94666 15.55918-26.56108 32.6599-36.29808 51.18568-9.4822 18.03984-18.78058 38.5476-20.90634 58.99894-.5733 5.5146-.54054 11.28036 1.67258 16.36544 3.02848 6.95968 9.31112 12.5125 16.46918 15.03866 21.6125 7.62944 56.48188 9.71334 85.35618 10.04276 34.26878.3913 67.12888.26208 91.99008.26208 42.34048 0 63.47614-2.38238 59.73058-23.66-2.03112-11.54426-19.55408-26.85592-24.45898-31.32948" fill="#d8d6f8"></path></g><g fill="#fff"><path d="m51.190134.121856c-7.21812 7.18354-8.22276 17.95066-10.29756 27.40374-2.49158 11.3386-7.9716 21.44142-14.24878 31.10198-11.77722 18.12538-27.59302 37.3373-25.662 60.35484.85358 10.1738 5.24342 20.68794 14.02128 26.47372.63518.4186 1.18482-.5733.58786-1.00646-7.7077-5.58558-12.00836-14.3507-13.1859-23.67274-1.32314-10.47046 1.40504-20.79714 5.8695-30.22292 9.60778-20.293 26.7176-36.7458 32.6963-58.79328 2.84284-10.48684 2.78642-22.82098 10.69068-31.16568.29666-.31304-.16562-.77714-.47138-.4732" transform="translate(68.7 252.81692)"></path><path d="m37.917316.767492c.66612 10.40858-3.61998 20.19836-7.77504 29.48764-2.06388 4.61188-4.0313 9.2456-5.80034 13.98306-1.87642 5.03412-3.73282 10.10464-6.43916 14.7693-2.63354 4.53544-5.97142 8.6086-8.72872 13.06578-2.30412 3.72372-4.1587 7.72408-5.55464 11.87368-2.81736 8.36836-3.75466 17.36098-2.85376 26.13702 1.01192 9.84984 4.3134 19.59776 9.99544 27.7459.46046.66066 1.54882.04368 1.092-.63882-10.0009-14.94948-12.74728-34.02126-7.54936-51.24028 1.30312-4.31158 3.1031-8.47028 5.39448-12.3487 2.59896-4.40258 5.83128-8.3902 8.50668-12.74182 2.66084-4.32978 4.54636-9.05086 6.30994-13.79924 1.82728-4.92492 3.70916-9.79342 5.82218-14.60368 4.40076-10.02092 9.18008-20.46954 8.22094-31.68984-.03458-.40586-.66612-.41496-.64064 0" transform="translate(81.7 261.81692)"></path><path d="m41.044158.4269c-4.9049 9.93538-4.16052 21.24668-5.64746 31.94828-1.60706 11.56064-5.6056 22.6226-10.07188 33.34968-4.73928 11.38228-9.7916 22.63898-14.71106 33.943-2.36964 5.44726-4.87032 10.85448-7.0434 16.38364-2.02384 5.1506-3.37974 10.47228-3.49622 16.02692-.1183 5.72026.92638 11.47328 2.99936 16.80224 1.02102 2.6299 2.27136 5.20156 3.8038 7.57302.91364 1.42142 3.28692 3.43798 4.65374 1.39048.47866-.71708-.67704-1.38866-1.15388-.67522-.74802 1.1193-2.49886-1.6289-2.74274-2.03112-.65338-1.07744-1.25762-2.184-1.81454-3.31422-1.08836-2.20948-1.97652-4.51542-2.66994-6.87778-1.41596-4.83938-1.9838-9.90626-1.63072-14.93856.37856-5.36172 2.00382-10.43588 4.04222-15.379 2.2659-5.49458 4.70288-10.92364 7.06706-16.37818 4.5318-10.465 9.16552-20.89178 13.55172-31.42048 4.20238-10.08644 8.0171-20.43496 9.87168-31.24212 1.9747-11.5115.55146-23.97304 5.63108-34.78748.2002-.42588-.4277-.80262-.63882-.3731" transform="translate(90.7 240.81692)"></path><path d="m32.737656.794276c-6.21894 10.10464-7.70042 22.16032-8.26644 33.78466-.6097 12.56892-.33124 25.13602-2.81554 37.5375-5.02866 25.0978-20.51686 47.62576-20.7389 73.73912-.0546 6.43188.84084 12.94384 3.14314 18.9735 1.03558 2.71544 2.275 5.79488 4.15688 8.04622.64246.76804 1.76904 1.41232 2.6754.6825.7462-.60242.82628-1.63982.05096-2.20948-.47866-.35308-.98098.38948-.61152.7917l-.59514.29484c-.25662-.1729-.46956-.38766-.64064-.64792-.20748-.28392-.38584-.59696-.56784-.89544-.32032-.52598-.6279-1.05924-.92456-1.59978-.67522-1.23578-1.28674-2.50614-1.82364-3.80744-1.02466-2.4752-1.79998-5.05414-2.35872-7.67494-1.15206-5.39266-1.35772-10.96004-.95004-16.45098.86814-11.69896 4.71016-22.83554 8.88342-33.7155 4.48084-11.6844 9.26562-23.26506 11.64982-35.60466 2.20766-11.4296 2.16944-22.99206 2.52798-34.57636.38584-12.5034 1.63072-25.1797 7.83146-36.30172.2275-.40768-.3822-.76258-.62608-.36582" transform="translate(112.7 231.81692)"></path><path d="m24.142232.649678c-5.04322 9.6824-5.8877 20.6388-6.19528 31.36224-.15834 5.56374-.16744 11.13658-.55692 16.6894-.44044 6.24078-1.43052 12.42332-2.5298 18.57492-2.1112 11.82272-4.20056 23.68366-7.21266 35.3171-1.51606 5.85494-3.29966 11.62434-5.40176 17.29728-.96824 2.6117-1.911 5.30894-1.79634 8.1354.10374 2.53162.95368 4.93038 1.94012 7.23632 1.20484 2.81918 2.59896 5.54736 3.32514 8.54126.79352 3.27236.92456 6.65574.88998 10.00818-.03276 3.19592-.22386 6.3882-.20566 9.58412.01092 1.6562.07462 3.31422.25298 4.96314.05096.48594.80626 4.277.05642 4.1769.63336.08372.62608-.91364 0-.99554-1.50332-.19838-1.07562 2.21312.16562 2.34962.76986.0819 1.35408-.61334 1.54882-1.2922.34398-1.2012-.16016-2.62626-.30394-3.82746-.73892-6.2062.14196-12.45426-.1456-18.67684-.1365-2.92292-.53144-5.85494-1.45236-8.64318-.92456-2.8028-2.3569-5.39994-3.40886-8.14996-1.0829-2.8392-1.5834-5.69114-.89362-8.69232.6916-3.00482 1.99836-5.87314 2.99026-8.78696 4.18782-12.31048 6.7431-25.09598 9.07088-37.8651 1.18118-6.48648 2.40604-12.9766 3.31604-19.50858.83538-5.99872 1.23578-12.00654 1.36136-18.05986.27664-13.26052-.34398-27.22356 5.6875-39.44304.16562-.33306-.3276-.62972-.50232-.29484" transform="translate(131.7 230.81692)"></path><path d="m9.849114 1.082112c-5.46182 25.08688 1.49604 50.59054-.03458 75.87944-.40222 6.65028-1.56702 13.18772-2.8847 19.70696-1.29402 6.4064-2.58258 12.80734-3.67276 19.25378-.55692 3.30512-1.07744 6.61752-1.55792 9.9372-.43316 2.98116-1.26126 6.27718-.91364 9.3002.31486 2.75912 2.184 4.5318 3.88024 6.55018 1.64892 1.96196 3.05032 4.13322 4.2042 6.42096 5.22158 10.3467 5.07052 22.76638-.22386 33.02572.39676-.05096.78988-.10192 1.18664-.15288-.97734-.78988-1.9656-1.5561-2.97206-2.30776-.5187-.38948-1.1193.44226-.68068.88088.84812.84812 1.70534 1.67986 2.5844 2.4934.34944.32396.93912.28756 1.18664-.15288 4.8594-8.66138 5.48184-19.55408 2.51706-28.938-1.49058-4.7229-3.90754-9.12184-7.16534-12.85648-.97734-1.12112-2.1021-2.2113-2.65356-3.62544-.56238-1.44326-.43862-3.0394-.2639-4.54636.4004-3.45072.9464-6.89598 1.4833-10.33032 1.0374-6.61752 2.23132-13.20956 3.5672-19.77612 1.27582-6.27718 2.61716-12.54708 3.34334-18.91708 1.45782-12.79824.30576-25.68566-.75166-38.4657-1.19028-14.3507-2.26408-28.94164.54782-43.18132.09282-.46978534-.62244-.67522-.72618-.19838" transform="translate(152.7 228.81692)"></path><path d="m.483924.725482c.7462 13.53534 1.5106 27.07068 2.31322 40.6042.7917 13.37882 1.53972 26.76492 1.5106 40.17286-.02912 13.3952-.68432 26.79768-1.99108 40.131-.54964 5.60378-1.75812 11.7663.60606 17.1262 1.15024 2.60442 3.19228 4.58458 4.98498 6.74492 1.83638 2.21494 3.25962 4.75202 4.28064 7.43834 2.18582 5.74756 2.8665 12.11938 2.91382 18.23458.03458 4.33342-.81536 10.7198-5.88588 11.8755-.93184.21112-.52234 1.56156.38948 1.4105 4.36072-.7189 6.20256-5.21248 6.78678-9.1182.7553-5.0505.15834-10.50868-.71708-15.50822-.93548-5.32896-2.7664-10.55964-6.14796-14.84392-1.92374-2.44244-4.31886-4.56274-5.42724-7.54572-1.04468-2.80826-1.0647-5.8695-.8645-8.81972.44408-6.61388 1.29584-13.20228 1.7381-19.82162.45682-6.83592.74074-13.68094.83902-20.53142.19474-13.71916-.44044-27.39646-1.37956-41.08286-1.06106-15.49184-2.1931-30.98004-3.33788-46.46642-.02912-.38948-.63336-.39676-.61152 0" transform="translate(168.7 229.81692)"></path><path d="m.791406.589532c7.05432 26.48828 9.4185 53.8993 9.9736 81.2266.27846 13.71188.10556 27.42558-.12194 41.13564-.05824 3.45982-.1183 6.916-.17654 10.37582-.05278 3.1395-.42952 6.50832.2275 9.60232.57694 2.7118 2.3569 4.71198 4.4863 6.38092 2.26044 1.77086 4.60824 3.37974 6.69396 5.369 4.4135 4.20966 8.1627 9.82436 8.19728 16.12884.03094 5.63836-2.73364 11.12384-7.95158 13.57356-.74256.34944-.21476 1.63254.5642 1.33952 4.57366-1.7199 7.50568-6.0788 8.5358-10.73254 1.1557-5.21794-.12558-10.49048-2.912-14.98588-3.03576-4.89944-7.39466-8.25916-11.89188-11.70442-1.19574-.91728-2.38238-1.93466-3.19592-3.21776-.89362-1.40868-1.18846-3.02484-1.26126-4.66648-.15834-3.49804.05642-7.04158.11466-10.54326.45136-27.93336.96096-55.95226-1.92374-83.7837-1.60342-15.45544-4.30066-30.76528-8.65956-45.6911-.13104-.44772-.819-.26026-.69888.19292" transform="translate(175.7 225.81692)"></path><path d="m.136194 1.291776c4.48084 13.24596 6.74128 27.0998 7.98252 40.9955 1.24488 13.97214 1.3923 28.00798 1.65802 42.0238.26572 13.97942.60242 27.98432 2.2113 41.88548.3913 3.3943.6643 6.93238 1.4924 10.25388.68978 2.77368 2.37146 4.8412 4.74838 6.37364 2.33324 1.5015 4.98316 2.4115 7.37646 3.80016 2.13486 1.2376 4.04404 2.81736 5.69842 4.64282 6.66848 7.35462 9.04722 18.6095 5.49458 27.93336-.44408 1.1648-.97734 2.30594-1.5561 3.40522-.4732.89908.81718 1.6562 1.36318.79716 5.32532-8.40294 4.35162-19.93082-.44044-28.32648-2.43698-4.27154-5.9878-7.95886-10.33396-10.29574-2.44972-1.31768-5.13604-2.24406-7.3983-3.89116-1.23032-.89544-2.2568-2.04204-2.84102-3.45982-.65884-1.59796-.84448-3.37428-1.092-5.07234-2.05842-14.10136-2.63536-28.37562-2.98844-42.6062-.34944-14.17598-.47138-28.36834-1.55792-42.5152-1.06652-13.89024-3.17954-27.72406-7.371-41.03918-.53872-1.71262-1.11566-3.41432-1.7199-5.1051-.16198-.45136-.8827-.2639-.72618.2002" transform="translate(187.7 228.81692)"></path><path d="m.483164.716834c4.3498 13.6318 6.58658 27.81142 8.04076 42.01652 1.46874 14.31066 2.1203 28.69048 3.3761 43.01934.61516 7.01246 1.3741 14.01582 2.4297 20.97732 1.0465 6.90326 2.15852 14.03584 4.31158 20.6934.9282 2.87014 2.30412 5.5874 4.52088 7.67858 2.00564 1.88734 4.44626 3.2123 6.92328 4.36618 2.63354 1.2285 5.35262 2.2932 7.86968 3.7583 2.48248 1.44326 4.65192 3.34698 6.38092 5.64018 3.47802 4.6137 5.19428 10.3376 6.01874 15.99052.43316 2.97752.65884 6.03512.58058 9.04358-.08554 3.27054-.80444 6.86868-3.6218 8.90162-1.23396.8918-2.80644 1.40686-4.33524 1.18664-.92092-.13104-1.3559 1.20666-.39676 1.43962 2.81008.68614 5.5601-.6279 7.3619-2.79552 2.06752-2.48794 2.6299-5.78032 2.68632-8.9271.11102-5.96232-.7098-12.19582-2.73546-17.8178-1.90918-5.29984-5.0869-10.14832-9.8371-13.30238-4.8958-3.24688-11.08016-4.43352-15.50094-8.41932-2.55346-2.30048-3.88024-5.39448-4.79206-8.64682-.9737-3.47984-1.7108-7.03794-2.40058-10.5833-1.4196-7.31094-2.42242-14.69286-3.20138-22.09844-1.54154-14.6601-2.23314-29.39482-3.57266-44.07494-1.32678-14.5509-3.32878-29.1109-7.49476-43.15038-.51506-1.73082-1.06106-3.45254-1.638-5.16334-.20566-.61152-1.17208-.35672-.9737.26754" transform="translate(200.7 232.81692)"></path><path d="m.065094 1.179912c4.37164 12.05022 7.53844 24.54452 9.44034 37.22264.96096 6.4155 1.5925 12.87104 1.9292 19.34842.3458 6.6339.47684 13.28236 1.18118 19.89078 1.17572 11.03284 4.16416 22.38782 11.58976 30.9491 6.42096 7.40194 16.016 10.9655 22.59348 18.15996 3.65092 3.9949 5.63472 9.00718 5.11966 14.44716-.50414 5.31622-3.32878 10.27754-7.57666 13.49712-.73528.55692-.0819 1.79452.7462 1.27582 7.97888-4.9868 10.81444-16.21256 6.92328-24.62278-4.19874-9.07088-14.08498-13.29146-21.51422-19.19554-8.97806-7.13622-13.46436-17.75228-15.379-28.82698-1.15752-6.69214-1.47966-13.48802-1.80544-20.26206-.3185-6.60478-.73892-13.19318-1.6016-19.75246-1.90736-14.49084-5.6147-28.71232-10.87814-42.3423-.182-.47138-.94458-.27482-.76804.21112" transform="translate(216.7 253.81692)"></path><path d="m.13524.612412c3.57266 10.8472 6.91418 21.67074 8.50122 33.01298.77168 5.51642 1.35226 11.06742 2.48248 16.52742.99008 4.78478 2.48976 9.42214 4.55728 13.8502 3.87842 8.31012 9.646 15.78122 16.73854 21.59976 3.81654 3.12858 8.0171 5.5419 12.24496 8.0535 4.36618 2.5935 8.37564 5.64564 11.18754 9.94266 2.79916 4.28064 4.27154 9.49494 3.1304 14.5691-1.06652 4.7411-4.1496 8.88706-8.55218 11.0201-.64974.31486-.19474 1.39958.49322 1.17026 8.52488-2.84466 11.74446-13.19864 9.41304-21.25032-1.28674-4.44626-3.98216-8.42842-7.33642-11.58248-3.98398-3.74556-8.94166-6.07516-13.52442-8.95986-8.08444-5.09054-14.8785-12.19036-19.72698-20.41494-2.44244-4.14232-4.39166-8.56674-5.76394-13.17862-1.61616-5.42724-2.44608-11.04012-3.22868-16.63662-.89544-6.41186-1.88006-12.75456-3.59632-19.00626-1.75994-6.41368-4.01856-12.67084-6.279-18.92072-.16562-.45864-.89726-.27118-.74074.20384" transform="translate(231.7 277.81692)"></path><path d="m.45937 1.321564c5.95868 18.8552 12.56528 38.05802 24.02218 54.37432 5.10328 7.26908 11.1202 13.91572 18.17998 19.33204 3.6673 2.81372 7.66766 4.9322 11.5661 7.37828 4.20238 2.63536 6.7067 6.47374 8.27918 11.11838 1.76176 5.19428 2.5207 10.70706 2.31322 16.18526-.21112 5.55646-1.58158 10.829-3.45618 16.03966-.2912.81172 1.02466 1.37592 1.40322.5915 4.16598-8.60496 4.80844-19.08634 2.82282-28.35196-.94822-4.42442-2.47338-8.98898-5.29256-12.5944-2.95022-3.77104-7.3619-5.62016-11.32222-8.08808-16.1161-10.04458-27.05612-26.3809-34.86938-43.3342-4.92674-10.6925-8.71962-21.84728-12.72726-32.90378-.20566-.56784-1.10656-.33852-.9191.25298" transform="translate(243.7 288.81692)"></path><path d="m.868128 1.04891c6.32996 5.3326 8.73054 13.46254 11.71898 20.86266 1.5561 3.85294 3.3215 7.58576 5.69478 11.01282 2.56802 3.70734 5.6238 7.0616 8.89434 10.15742 6.56474 6.22076 13.94484 11.51878 20.43314 17.8269 6.17162 5.99872 11.8027 13.1677 13.63544 21.75992.89362 4.18782.91546 8.62134-.15652 12.77822-1.07198 4.15506-3.31968 7.76958-6.37546 10.76166-.4823.47502.15652 1.36136.74256.96096 6.37364-4.36618 8.60496-12.75274 8.15542-20.12556-.52962-8.71234-4.81026-16.3891-10.45772-22.8592-6.19892-7.09982-13.83018-12.69268-20.90634-18.8552-3.55082-3.09036-6.9979-6.3336-10.0191-9.95358-2.93202-3.51078-5.28892-7.3801-7.14532-11.55882-3.67094-8.26462-6.10974-17.7814-13.63726-23.51622-.42588-.32578-.99008.4004-.57694.74802" transform="translate(257.7 306.81692)"></path></g><g transform="translate(73 143.55692)"><path d="m247.078486 237.908618c-2.03294-11.5479-19.55408-26.85774-24.45898-31.3313l-52.97474-57.5848c-1.71262-1.59978-3.30694-3.30148-4.84848-5.04686-5.82036-.39312-11.63708-.8372-17.4447-1.37592-8.72872-.80808-34.96584.43316-38.08714-8.34652-3.58904-10.101-6.57384-20.6934-13.06032-29.22738-5.90044-7.76412-16.24896 4.50086-19.08452 10.45408-4.4499 9.34024-1.45782 23.55262-1.26854 33.53714.33852 17.72498.67522 35.46998-.3185 53.16948-.20202 3.59632-.48048 7.28182-2.00018 10.54872-2.09482 4.5045-6.25716 7.63854-10.25934 10.57966-8.1354 5.9787-16.27262 11.9574-24.40984 17.93792 11.7663-.15652 22.93018-4.87214 34.43986-7.3164 25.08324-5.32532 51.08012.24752 76.72028-.24024 11.24942-.21294 22.63534-1.59068 33.67.61698 2.49158.49686 4.98316 1.2285 7.38374 2.18218 8.2355 3.27418 15.42814 9.19282 18.06168 17.49566.77896 2.457 1.23942 5.18336 2.9029 7.09254 25.6984-1.43052 37.96156-6.52106 35.03682-23.14494" fill="#bbb8ef"></path><path d="m128.978504 29.02285c1.11748 5.71298 1.98926 11.47328 2.61352 17.25906.03458.32214.0637.66976-.091.95368-.20384.37128-.65156.52052-1.06106.62972-6.5884 1.73264-13.84656.76076-19.74518-2.64628" fill="#f39"></path><path d="m252.984568 203.150804 26.3445 66.24618-6.56292 1.23396s-46.22618-43.34694-51.1602-59.77608" fill="#ffc6b2"></path><path d="m272.838402 258.248574s1.82182 4.186 2.68632 5.61288 2.18946 2.51342 3.5672 3.45618c4.62462 3.17408 10.03002 5.01592 14.8421 7.89516.64064.38402 1.36136 1.02102 1.12294 1.729-.15106.44772-.67886 2.08026-4.6683 1.5743-8.8543-1.12476-12.58712 1.08654-16.19618-.69888-1.4196-.70434-1.09928-3.07762-1.26672-4.47356-.1911-1.58886-.64428-3.24324-.90454-4.84302" fill="#ffc6b2"></path><path d="m272.343544 273.835782c-.31304-1.27582-2.5662-5.5692-3.71462-6.22622-.56784-.32578-.91546-1.03012-.76076-1.66712 1.43416.04732 2.63354-.2821 3.89844-.96096 1.0192-.546 1.99108-1.22486 2.88652-1.95468.68614-.56238.83538-1.38138 1.29766-2.12576 1.5652 0 .8645 3.30694 3.3579 5.79852.66612.66612 1.35226 1.31222 2.1385 1.83456 1.26126.8372 2.57894 1.58886 3.94394 2.24588 1.2558.60424 2.54982 1.1284 3.8402 1.65256 1.23214.5005 2.46246.99918 3.69278 1.49968 1.20484.48594 2.41696.97916 3.50714 1.6835.4186.26936.8463.60788.9646 1.09382.09464.39494-.03822.81172-.2457 1.16298-.5551.93548-1.59978 1.47966-2.64628 1.7836-4.22058 1.23032-8.7178-.69706-13.10218-.37856-2.08572.15106-4.1678.81172-6.22986.4641-.46228-.07644-.9282-.21112-1.2922-.50232-.54782-.43862-.96642-1.66712-1.11566-2.34416-.20202-.90818-.13468-1.85822-.34944-2.76458-.02366-.09828-.04732-.19656-.07098-.29484" fill="#000d55"></path><path d="m276.248354 184.131622 34.94218 62.14208-6.34088 2.09846s-51.59154-36.79858-58.67134-52.42328" fill="#ffc6b2"></path><path d="m303.271896 236.088618s2.36236 3.90572 3.41068 5.20338c1.0465 1.29948 2.50432 2.19856 3.9949 2.95022 5.00682 2.52798 10.60878 3.63636 15.76302 5.84584.68432.29484 1.48694.82992 1.34498 1.56338-.091.46592-.39676 2.15124-4.41896 2.18218-8.92346.06734-12.32868 2.75912-16.1434 1.46874-1.5015-.50778-1.5015-2.90472-1.85276-4.26426-.4004-1.55064-1.07016-3.1304-1.53972-4.67922" fill="#ffc6b2"></path><path d="m5.579118 13.403026c-.48048-1.22304-3.2851-5.17608-4.50996-5.67476-.60606-.24752-1.0465-.9009-.97916-1.55246 1.43052-.14196 2.57348-.62972 3.73828-1.47056.93548-.67704 1.8109-1.47966 2.59714-2.32414.60606-.64792.6461-1.47966 1.00464-2.27864 1.55064-.2093 1.29766 3.16134 4.10046 5.29984.74984.57148 1.51606 1.1193 2.36418 1.53062 1.36136.6643 2.77004 1.23214 4.20966 1.7017 1.32496.43134 2.67722.78078 4.02584 1.12658l3.86022.9919c1.25762.32396 2.52434.64792 3.70006 1.2012.44954.21112.9191.49322 1.1011.9555.14742.38038.07098.81172-.08736 1.18482-.4277 1.00464-1.38866 1.68168-2.38602 2.12212-4.02038 1.77996-8.73418.4732-13.03484 1.37228-2.0475.4277-4.02402 1.35954-6.11338 1.29038-.46774-.01456-.94822-.08554-1.34862-.3276-.6006-.36036-1.17936-1.52334-1.41778-2.17308-.32214-.8736-.38038-1.82364-.71344-2.6936-.0364-.09282-.0728-.18746-.11102-.2821" fill="#000d55" mask="url(#a)" transform="translate(299.28 238.2)"></path><path d="m202.433522 71.650526c-1.88734-1.26126-2.89744-3.53808-3.15588-5.79306s.13832-4.52816.53326-6.76312c.31122-1.76358.62426-3.52534.93548-5.28892.09646-.546.24388-1.16662.73346-1.43234.45864-.24752 1.05924-.05278 1.41778.32578.35672.37856.52052.89908.62972 1.40868.1911.88816.2548 1.80362.18928 2.70998-.04004.53144-.12194 1.07016-.0273 1.59432.09464.52598.41496 1.05014.92638 1.20848 1.11748.34216 1.911-1.14478 3.0121-1.53608.12194-.04368.2548-.07098.38038-.04186.24934.0637.38038.33124.45318.57694.59696 2.00382-.54782 4.07316-1.6471 5.85312-1.0556 1.70716-2.10938 3.41614-3.1668 5.12512" fill="#ffc6b2"></path><path d="m154.411366 145.980782s-64.42982 48.06984-59.21188 56.56742 80.44582-40.33848 80.44582-40.33848z" fill="#000d55"></path><path d="m102.783062 182.494532s3.82564 34.53996 28.0644 42.89376c24.24058 8.35744 74.18866-9.79342 74.18866-9.79342l14.64372 30.3485s60.81348-16.99152 69.37476-42.96474c-8.56128-16.36362-34.67464-59.04626-61.81084-61.62702-16.6621-1.58704-59.32472 9.40212-71.94278 8.27372" fill="#3a30db"></path><path d="m107.15361 183.580526s4.23696 31.4587 24.00944 35.83398c31.93008 7.06888 68.63948-11.4114 75.21696-9.02902 4.0768 1.4742 19.40848 33.67546 19.40848 33.67546" stroke="#00216c" stroke-width=".91"></path><path d="m94.721918 135.709612c0-.8281-15.1242-30.8672-15.1242-30.8672l7.5621-32.1958 12.41604-13.85748 21.80542-1.0556 31.13838 42.03836z" fill="#ffc6b2"></path><path d="m115.98789 57.49766s23.0503.5005 32.24312 7.21266c15.73572 11.48602 30.29572 36.82224 30.29572 36.82224l23.92754-34.55088 4.50632.94822s-7.8624 56.2107-25.69658 59.37386c-13.56628 2.40604-41.70894-30.58146-41.70894-30.58146" fill="#ffc6b2"></path><path d="m147.413102 83.09141s6.88506 9.15278 9.87168 21.1302c2.9848 11.97742 5.3235 31.75536 7.82964 37.32638 1.37228 3.0485 3.6218 6.96332 3.6218 6.96332s-11.14204 16.71306-42.0602 31.19662c-13.79924 6.46646-25.62742 12.53616-31.47508 22.841-2.38966-4.18054-9.54408-55.13508-8.51578-84.448 6.99972-9.94448 9.36936-20.81534 9.36936-20.81534s19.2556-7.826 33.71186-10.89088c14.45808-3.06306 17.64672-3.3033 17.64672-3.3033" fill="#000d55"></path><path d="m99.576768 58.789678s-26.117 7.18718-31.61522 24.85574c-13.43706 43.18496-20.61878 146.81394-20.61878 146.81394s2.05114 6.1061 8.15542 0c1.53062-6.96878 36.53104-102.16934 34.52176-134.11216" fill="#ffc6b2"></path><path d="m147.413102 85.9279453c.03276.0399747-2.96478-18.3547653-13.17316-26.5666053" stroke="#000d55" stroke-linecap="round" stroke-width="1.82"></path><path d="m96.189202 99.77171s-1.09564-31.24758-10.56692-35.0623" stroke="#000d55" stroke-linecap="round" stroke-width="1.82"></path><path d="m48.503018 229.160606c-3.49076 1.71262-6.98334 3.42888-10.4195 5.25252-1.42142.7553-4.04768 2.2659-3.82746 2.87014.22022.60606 4.14232-.92638 6.69942-1.9201-3.58904 1.88916-9.47128 5.63836-8.76694 6.3427.70252.70252 6.53562-2.45336 10.79624-4.94494-3.85658 2.67722-9.7279 6.1243-8.79424 6.64664.93366.52052 10.9018-5.4782 10.9018-5.4782s-7.74774 5.21976-6.62298 5.79488c1.12294.5733 5.824-2.78642 8.71962-4.45536 1.47784-.85176 3.81836-1.70352 4.07498-1.4469.32942.32942-2.09118 2.4297-2.64082 3.13222-.1092.14014-.2093.3185-.15288.48594.08736.26208.44772.273.71708.22386.9919-.182 12.00472-4.79934 5.29984-12.49612" fill="#ffc6b2"></path><path d="m217.360434 28.064802-10.64336 36.87866-19.02446-11.8118c-1.07016.07462-1.8018-.57512-1.6107-1.43416l7.63308-34.19598c.11648-.51506.71708-.96096 1.36136-1.00464z" fill="#00216c"></path><path d="m213.558636 29.879524-10.08098 34.92944-18.01982-11.18572c-1.01374.07098-1.70534-.546-1.52516-1.35772l7.17626-32.14848c.1092-.48958.7735-.93002 1.34316-1.19574z" fill="#f5f5ff"></path><path d="m211.997258 28.064802-1.17936-.59696-24.64098 2.93566-5.45818 25.05776 26.79222-4.11684z" fill="#d8d6f8"></path><path d="m213.558636 29.879524-21.10654-10.95822 1.57066-.78806 21.10654 10.9564-10.08098 34.93126-1.13932-.70616z" fill="#d8d6f8"></path><path d="m217.360434 28.064802-10.64336 36.87866-28.34286 3.65638c-1.07016.07462-1.8018-.57512-1.6107-1.43416l7.63308-34.19416c.11466-.51688.71526-.96096 1.36136-1.00646z" fill="#00216c"></path><path d="m212.627342 31.894992-1.93284 7.06524-25.37626 3.52352 1.50696-7.0161z" fill="#00216c"></path><path d="m204.97497 72.725782c1.54154-1.78178 5.36536-7.26544 5.94958-13.41522-.1001-1.1375-.77896-1.05378-1.40686-1.97834-.82264-1.21212-1.88006-2.8756-3.32332-3.38702-.9464-.3367-1.90372-.64064-2.87014-.91546-.5187-.14742-1.23396-.2002-1.44144.29848-.13468.32578.0546.6916.27482.96642 1.30312 1.638 3.78742 2.19128 4.67922 4.0859.0728.1547.13468.32578.10374.49322-.03276.17472-.16198.31668-.28574.4459-1.50514 1.58704-3.1122 3.21048-3.77468 5.29802-.34034 1.0738-.41132 2.20948-.58786 3.3215-.27482 1.73446-.8008 3.58176-.08918 5.18882" fill="#ffc6b2"></path><path d="m210.349794 62.45807s1.4105-6.12248.88998-9.43124c-.30394-1.92738-1.42142-3.61088-2.55892-5.19792-.19292-.27118-.4004-.5551-.70252-.69524-.30212-.14196-.72618-.0819-.87906.21476-.0728.14378-.07098.31304-.06188.4732.12922 2.1385 1.39048 4.05132 1.73628 6.16434.1456.88816-.58058 5.12876-.60606 6.34816" fill="#ffc6b2"></path><path d="m125.093168 161.905782s20.12738-21.63434 22.75-34.47626" fill="#000d55"></path><path d="m117.566194 172.56989s24.0149-12.53616 27.19262-19.77612" fill="#000d55"></path><path d="m208.16452 203.316242c-.86086 1.6744-1.48148 3.54172-1.93284 5.36718-.23114.92638-.42224 1.86186-.5733 2.8028-.1456.90636-.28028 1.8473-.11102 2.75912.05642.31304.48776.25298.57512 0 .3003-.86268.35672-1.79998.48776-2.70088.13104-.91182.30212-1.82.50778-2.71908.41314-1.80726.98098-3.53626 1.55246-5.2962.09828-.29666-.36218-.49322-.50596-.21294" fill="#00216c"></path><path d="m203.601962 205.932492c-.31122 1.00646-.40404 2.08572-.45864 3.13586-.0546 1.0374-.1365 2.13486.21112 3.1304.07644.22204.4368.26572.49322 0 .21658-1.00646.12194-2.04932.1729-3.07216.05278-1.03558.20202-2.06934.2366-3.10492.01456-.38584-.546-.44044-.6552-.08918" fill="#00216c"></path><path d="m249.195328 178.577346s8.01892 28.42658 10.53234 42.03108" stroke="#00216c" stroke-width=".91"></path><path d="m247.194056 229.29383s1.38866-20.111 0-28.7014" stroke="#00216c" stroke-width=".91"></path><path d="m123.60914 13.151176s15.37354 18.37472 9.2547 27.59302c-4.66648 7.03066-19.10272 2.33142-19.10272 2.33142s-6.33542-6.15706-11.05832-10.88178c-4.72472-4.7229 1.30858-31.48054 20.90634-19.04266" fill="#ffc6b2"></path><path d="m116.67221 27.819466c.2639.61334.85176.94822 1.31586.74984s.62608-.85722.36218-1.47056c-.26208-.61152-.85176-.94822-1.31586-.74984-.46228.2002-.62608.85904-.36218 1.47056" fill="#00216c"></path><path d="m127.374538 24.334166c.2639.61334.85176.94822 1.31586.74984s.62608-.85722.36218-1.47056c-.26208-.61152-.85176-.94822-1.31586-.74984-.46228.2002-.62608.85904-.36218 1.47056" fill="#00216c"></path><path d="m130.794136 33.814546-6.91054 2.55346s2.11666 3.01574 4.64464 2.14032c3.5945-1.24306 2.2659-4.69378 2.2659-4.69378" fill="#fff"></path><path d="m121.910898 41.053596c0 .6552-.65702 20.5842-.65702 20.5842s-13.68458 8.53762-21.6762-2.8483l9.63326-26.16614" fill="#ffc6b2"></path><path d="m123.98861 25.68133s4.98862 3.58358 4.55728 4.87396c-.42952 1.2922-4.03494 1.80726-4.03494 1.80726" stroke="#ffa192" stroke-width=".91"></path><path d="m123.126658 21.566856c.12922-.07826.23842-.16016.34762-.26572.1001-.091.19838-.1729.26572-.22022.10556-.07644.21658-.1456.32942-.20748.05824-.02912.11648-.06006.17472-.08918.02912-.01274.06006-.02548.08918-.04004.05278-.02366-.05642.02002.03458-.01274.25298-.09282.50778-.17654.7735-.22022.0182-.00364.12012-.0182.04732-.0091-.07462.01092.0273-.00182.0455-.00364.06552-.00728.12922-.01092.19474-.01274.13832-.00728.27664.00182.41496.0091.2275.01456.44772-.03276.62426-.182.1365-.1183.22386-.27664.17472-.46046-.11466-.4277-.5551-.54054-.94458-.53326-.6006.01092-1.2103.16016-1.7381.4459-.28028.15106-.54236.34216-.77714.5551-.2548.23296-.5005.49686-.58968.83538-.07826.30212.25844.57512.53326.41132" fill="#00216c"></path><path d="m116.25088 23.875526c-.6006-.1365-1.18664-.2002-1.79452-.06916-.5369.11466-1.001.39676-1.41232.75166-.4004.34762-.72982.7826-1.00464 1.23396-.16016.26026-.3094.53326-.42406.81718-.11102.27664-.23296.55328-.2093.8554.02366.30576.3822.6188.68432.39312.13104-.09646.2457-.18746.3367-.3276.06916-.10738.1274-.22204.19292-.33306.12376-.2093.2275-.4277.34762-.64064.22932-.41678.44408-.73892.77714-1.05924.25662-.25116.59696-.4914.9282-.61334.46774-.17108.97916-.21658 1.47238-.22568.4368-.0091.55692-.67886.10556-.7826" fill="#00216c"></path><path d="m121.814074 44.363084s-4.19328-.15652-6.87414-.97552" stroke="#ffa192" stroke-width=".91"></path><path d="m97.325792 49.49603c2.84284.63518 5.75302.98098 8.71052.9919778.68068.0017422 1.39594-.0255578 1.98562-.3859178 1.14114-.7007 1.38502-2.33506 1.35954-3.74374-.07098-3.913-.99736-7.68404-.8463-11.65164.1274-3.37246.64428-6.72672 1.54154-9.9645.88634-3.20684 3.02848-5.96232 4.40258-8.98534.28574-.62608 1.76722-4.76294 2.70816-4.76294.15834-.0637.33306.00182.48958.06916 2.48248 1.07016 8.50304 4.61188 10.75802 8.83792 2.59896-11.16388-9.51314-20.35124-17.69222-18.00344-3.63818-2.17854-10.68886-.89726-14.55454.8736-6.04604 2.77368-9.56046 7.60214-12.39238 13.53898-2.8483 5.97142-3.75284 11.74628-7.13986 17.43014-.62426 1.04286-1.27582 2.2295-.98098 3.41068.11648.4641.3731.88088.65702 1.2649 1.16298 1.58158 2.80098 2.73728 4.43352 3.82746 5.07052 3.38156 10.66338 5.93684 16.56018 7.2527" fill="#f39"></path><path d="m118.78432 278.79692h57.32454v-17.63762h-57.32454z" fill="#a09ce6"></path><g fill="#d8d6f8"><path d="m125.27808 278.79692h3.07216v-17.63762h-3.07216z"></path><path d="m169.01086 278.79692h3.07216v-17.63762h-3.07216z"></path><path d="m130.54152 278.79692h1.53608v-17.63762h-1.53608z"></path></g><path d="m176.108314 278.796374 23.0048-11.73718v-17.63944l-23.0048 11.739z" fill="#a09ce6"></path><path d="m176.108314 276.670796 23.0048-11.73718v-13.38792l-23.0048 11.739z" fill="#f2f1ff"></path><path d="m199.112386 249.420482h-57.32454l-23.00298 11.73718h57.32272z" fill="#c5c1ff"></path><path d="m151.018522 251.277792h-3.21594l-15.7248 8.02256h3.21412z" fill="#a09ce6"></path><path d="m.1822 287.31088h63.08666v-7.3528h-63.08666z" fill="#a09ce6"></path><path d="m63.269224 287.311608 25.31802-10.04822v-7.3528l-25.31802 10.04822z" fill="#a09ce6"></path><path d="m63.269224 285.491608 25.31802-10.04822v-3.7128l-25.31802 10.04822z" fill="#f2f1ff"></path><path d="m88.586516 269.911498h-63.08666l-25.31802 10.04822h63.08666z" fill="#d8d6f8"></path><path d="m45.887678 271.500358h-11.40594l-17.30456 6.86686h11.40412z" fill="#a09ce6"></path><path d="m118.78432 294.62h63.08666v-9.45308h-63.08666z" fill="#00216c"></path><path d="m125.93146 294.62h3.38156v-9.45308h-3.38156z" fill="#d8d6f8"></path><path d="m174.06136 294.62h3.38156v-9.45308h-3.38156z" fill="#d8d6f8"></path><path d="m131.7227 294.62h1.69078v-9.45308h-1.69078z" fill="#d8d6f8"></path><path d="m181.870434 294.620182 25.31802-12.91836v-9.45308l-25.31802 12.91836z" fill="#00216c"></path><path d="m181.870434 292.279298 25.31802-12.91654v-4.77568l-25.31802 12.91836z" fill="#f2f1ff"></path><path d="m207.187908 272.248742h-63.08666l-25.3162 12.91836h63.08484z" fill="#645cf3"></path><path d="m197.348442 274.292602h-11.40594l-17.30638 8.83064h11.40594z" fill="#cadae0"></path><path d="m180.82721 274.292602h-3.53808l-17.30638 8.83064h3.53808z" fill="#cadae0"></path><path d="m112.46164 286.2571h57.32454v-10.41222h-57.32454z" fill="#f39"></path><path d="m118.95722 286.2571h3.07216v-10.41222h-3.07216z" fill="#ff91c8"></path><path d="m162.69 286.2571h3.07216v-10.41222h-3.07216z" fill="#ff91c8"></path><path d="m124.22066 286.2571h1.53608v-10.41222h-1.53608z" fill="#ff91c8"></path><path d="m169.786362 286.257646 23.0048-11.73718v-10.41222l-23.0048 11.73718z" fill="#f39"></path><path d="m169.786362 284.130248 23.0048-11.73536v-6.15888l-23.0048 11.73536z" fill="#f2f1ff"></path><path d="m192.791344 264.108428h-57.32454l-23.0048 11.73718h57.32454z" fill="#ff91c8"></path><path d="m144.696388 265.965738h-3.21412l-15.72662 8.02256h3.21412z" fill="#f39"></path></g></g></svg> 